%TF.GenerationSoftware,KiCad,Pcbnew,(5.1.6)-1*%
%TF.CreationDate,2021-08-28T00:22:51-07:00*%
%TF.ProjectId,Rocketboard-Engine,526f636b-6574-4626-9f61-72642d456e67,1.0*%
%TF.SameCoordinates,Original*%
%TF.FileFunction,Legend,Top*%
%TF.FilePolarity,Positive*%
%FSLAX46Y46*%
G04 Gerber Fmt 4.6, Leading zero omitted, Abs format (unit mm)*
G04 Created by KiCad (PCBNEW (5.1.6)-1) date 2021-08-28 00:22:51*
%MOMM*%
%LPD*%
G01*
G04 APERTURE LIST*
%ADD10C,0.150000*%
%ADD11C,0.120000*%
G04 APERTURE END LIST*
D10*
X137804880Y-120988095D02*
X137804880Y-120369047D01*
X138185833Y-120702380D01*
X138185833Y-120559523D01*
X138233452Y-120464285D01*
X138281071Y-120416666D01*
X138376309Y-120369047D01*
X138614404Y-120369047D01*
X138709642Y-120416666D01*
X138757261Y-120464285D01*
X138804880Y-120559523D01*
X138804880Y-120845238D01*
X138757261Y-120940476D01*
X138709642Y-120988095D01*
X137804880Y-120083333D02*
X138804880Y-119750000D01*
X137804880Y-119416666D01*
X137804880Y-119178571D02*
X137804880Y-118559523D01*
X138185833Y-118892857D01*
X138185833Y-118750000D01*
X138233452Y-118654761D01*
X138281071Y-118607142D01*
X138376309Y-118559523D01*
X138614404Y-118559523D01*
X138709642Y-118607142D01*
X138757261Y-118654761D01*
X138804880Y-118750000D01*
X138804880Y-119035714D01*
X138757261Y-119130952D01*
X138709642Y-119178571D01*
X136264880Y-120773808D02*
X135264880Y-120773808D01*
X135264880Y-120535713D01*
X135312500Y-120392856D01*
X135407738Y-120297618D01*
X135502976Y-120249999D01*
X135693452Y-120202379D01*
X135836309Y-120202379D01*
X136026785Y-120249999D01*
X136122023Y-120297618D01*
X136217261Y-120392856D01*
X136264880Y-120535713D01*
X136264880Y-120773808D01*
X136264880Y-119773808D02*
X135264880Y-119773808D01*
X135264880Y-119107141D02*
X135264880Y-118916665D01*
X135312500Y-118821427D01*
X135407738Y-118726189D01*
X135598214Y-118678570D01*
X135931547Y-118678570D01*
X136122023Y-118726189D01*
X136217261Y-118821427D01*
X136264880Y-118916665D01*
X136264880Y-119107141D01*
X136217261Y-119202379D01*
X136122023Y-119297618D01*
X135931547Y-119345237D01*
X135598214Y-119345237D01*
X135407738Y-119297618D01*
X135312500Y-119202379D01*
X135264880Y-119107141D01*
X133629642Y-120345237D02*
X133677261Y-120392856D01*
X133724880Y-120535713D01*
X133724880Y-120630951D01*
X133677261Y-120773808D01*
X133582023Y-120869046D01*
X133486785Y-120916665D01*
X133296309Y-120964284D01*
X133153452Y-120964284D01*
X132962976Y-120916665D01*
X132867738Y-120869046D01*
X132772500Y-120773808D01*
X132724880Y-120630951D01*
X132724880Y-120535713D01*
X132772500Y-120392856D01*
X132820119Y-120345237D01*
X133724880Y-119440475D02*
X133724880Y-119916665D01*
X132724880Y-119916665D01*
X133724880Y-119107141D02*
X132724880Y-119107141D01*
X133724880Y-118535713D02*
X133153452Y-118964284D01*
X132724880Y-118535713D02*
X133296309Y-119107141D01*
X130232500Y-120511904D02*
X130184880Y-120607142D01*
X130184880Y-120750000D01*
X130232500Y-120892857D01*
X130327738Y-120988095D01*
X130422976Y-121035714D01*
X130613452Y-121083333D01*
X130756309Y-121083333D01*
X130946785Y-121035714D01*
X131042023Y-120988095D01*
X131137261Y-120892857D01*
X131184880Y-120750000D01*
X131184880Y-120654761D01*
X131137261Y-120511904D01*
X131089642Y-120464285D01*
X130756309Y-120464285D01*
X130756309Y-120654761D01*
X131184880Y-120035714D02*
X130184880Y-120035714D01*
X131184880Y-119464285D01*
X130184880Y-119464285D01*
X131184880Y-118988095D02*
X130184880Y-118988095D01*
X130184880Y-118750000D01*
X130232500Y-118607142D01*
X130327738Y-118511904D01*
X130422976Y-118464285D01*
X130613452Y-118416666D01*
X130756309Y-118416666D01*
X130946785Y-118464285D01*
X131042023Y-118511904D01*
X131137261Y-118607142D01*
X131184880Y-118750000D01*
X131184880Y-118988095D01*
X142438095Y-121942500D02*
X142342857Y-121894880D01*
X142200000Y-121894880D01*
X142057142Y-121942500D01*
X141961904Y-122037738D01*
X141914285Y-122132976D01*
X141866666Y-122323452D01*
X141866666Y-122466309D01*
X141914285Y-122656785D01*
X141961904Y-122752023D01*
X142057142Y-122847261D01*
X142200000Y-122894880D01*
X142295238Y-122894880D01*
X142438095Y-122847261D01*
X142485714Y-122799642D01*
X142485714Y-122466309D01*
X142295238Y-122466309D01*
X142914285Y-122894880D02*
X142914285Y-121894880D01*
X143485714Y-122894880D01*
X143485714Y-121894880D01*
X143961904Y-122894880D02*
X143961904Y-121894880D01*
X144200000Y-121894880D01*
X144342857Y-121942500D01*
X144438095Y-122037738D01*
X144485714Y-122132976D01*
X144533333Y-122323452D01*
X144533333Y-122466309D01*
X144485714Y-122656785D01*
X144438095Y-122752023D01*
X144342857Y-122847261D01*
X144200000Y-122894880D01*
X143961904Y-122894880D01*
X141961904Y-119354880D02*
X142580952Y-119354880D01*
X142247619Y-119735833D01*
X142390476Y-119735833D01*
X142485714Y-119783452D01*
X142533333Y-119831071D01*
X142580952Y-119926309D01*
X142580952Y-120164404D01*
X142533333Y-120259642D01*
X142485714Y-120307261D01*
X142390476Y-120354880D01*
X142104761Y-120354880D01*
X142009523Y-120307261D01*
X141961904Y-120259642D01*
X142866666Y-119354880D02*
X143200000Y-120354880D01*
X143533333Y-119354880D01*
X143771428Y-119354880D02*
X144390476Y-119354880D01*
X144057142Y-119735833D01*
X144200000Y-119735833D01*
X144295238Y-119783452D01*
X144342857Y-119831071D01*
X144390476Y-119926309D01*
X144390476Y-120164404D01*
X144342857Y-120259642D01*
X144295238Y-120307261D01*
X144200000Y-120354880D01*
X143914285Y-120354880D01*
X143819047Y-120307261D01*
X143771428Y-120259642D01*
X142438095Y-116862500D02*
X142342857Y-116814880D01*
X142200000Y-116814880D01*
X142057142Y-116862500D01*
X141961904Y-116957738D01*
X141914285Y-117052976D01*
X141866666Y-117243452D01*
X141866666Y-117386309D01*
X141914285Y-117576785D01*
X141961904Y-117672023D01*
X142057142Y-117767261D01*
X142200000Y-117814880D01*
X142295238Y-117814880D01*
X142438095Y-117767261D01*
X142485714Y-117719642D01*
X142485714Y-117386309D01*
X142295238Y-117386309D01*
X142914285Y-117814880D02*
X142914285Y-116814880D01*
X143485714Y-117814880D01*
X143485714Y-116814880D01*
X143961904Y-117814880D02*
X143961904Y-116814880D01*
X144200000Y-116814880D01*
X144342857Y-116862500D01*
X144438095Y-116957738D01*
X144485714Y-117052976D01*
X144533333Y-117243452D01*
X144533333Y-117386309D01*
X144485714Y-117576785D01*
X144438095Y-117672023D01*
X144342857Y-117767261D01*
X144200000Y-117814880D01*
X143961904Y-117814880D01*
X144202380Y-115532857D02*
X144202380Y-116009047D01*
X143202380Y-116009047D01*
X143678571Y-115199523D02*
X143678571Y-114866190D01*
X144202380Y-114723333D02*
X144202380Y-115199523D01*
X143202380Y-115199523D01*
X143202380Y-114723333D01*
X144202380Y-114294761D02*
X143202380Y-114294761D01*
X143202380Y-114056666D01*
X143250000Y-113913809D01*
X143345238Y-113818571D01*
X143440476Y-113770952D01*
X143630952Y-113723333D01*
X143773809Y-113723333D01*
X143964285Y-113770952D01*
X144059523Y-113818571D01*
X144154761Y-113913809D01*
X144202380Y-114056666D01*
X144202380Y-114294761D01*
X143295238Y-112211071D02*
X143438095Y-112258690D01*
X143485714Y-112306309D01*
X143533333Y-112401547D01*
X143533333Y-112544404D01*
X143485714Y-112639642D01*
X143438095Y-112687261D01*
X143342857Y-112734880D01*
X142961904Y-112734880D01*
X142961904Y-111734880D01*
X143295238Y-111734880D01*
X143390476Y-111782500D01*
X143438095Y-111830119D01*
X143485714Y-111925357D01*
X143485714Y-112020595D01*
X143438095Y-112115833D01*
X143390476Y-112163452D01*
X143295238Y-112211071D01*
X142961904Y-112211071D01*
X144009523Y-112734880D02*
X144200000Y-112734880D01*
X144295238Y-112687261D01*
X144342857Y-112639642D01*
X144438095Y-112496785D01*
X144485714Y-112306309D01*
X144485714Y-111925357D01*
X144438095Y-111830119D01*
X144390476Y-111782500D01*
X144295238Y-111734880D01*
X144104761Y-111734880D01*
X144009523Y-111782500D01*
X143961904Y-111830119D01*
X143914285Y-111925357D01*
X143914285Y-112163452D01*
X143961904Y-112258690D01*
X144009523Y-112306309D01*
X144104761Y-112353928D01*
X144295238Y-112353928D01*
X144390476Y-112306309D01*
X144438095Y-112258690D01*
X144485714Y-112163452D01*
X142995238Y-109671071D02*
X143138095Y-109718690D01*
X143185714Y-109766309D01*
X143233333Y-109861547D01*
X143233333Y-110004404D01*
X143185714Y-110099642D01*
X143138095Y-110147261D01*
X143042857Y-110194880D01*
X142661904Y-110194880D01*
X142661904Y-109194880D01*
X142995238Y-109194880D01*
X143090476Y-109242500D01*
X143138095Y-109290119D01*
X143185714Y-109385357D01*
X143185714Y-109480595D01*
X143138095Y-109575833D01*
X143090476Y-109623452D01*
X142995238Y-109671071D01*
X142661904Y-109671071D01*
X143804761Y-109623452D02*
X143709523Y-109575833D01*
X143661904Y-109528214D01*
X143614285Y-109432976D01*
X143614285Y-109385357D01*
X143661904Y-109290119D01*
X143709523Y-109242500D01*
X143804761Y-109194880D01*
X143995238Y-109194880D01*
X144090476Y-109242500D01*
X144138095Y-109290119D01*
X144185714Y-109385357D01*
X144185714Y-109432976D01*
X144138095Y-109528214D01*
X144090476Y-109575833D01*
X143995238Y-109623452D01*
X143804761Y-109623452D01*
X143709523Y-109671071D01*
X143661904Y-109718690D01*
X143614285Y-109813928D01*
X143614285Y-110004404D01*
X143661904Y-110099642D01*
X143709523Y-110147261D01*
X143804761Y-110194880D01*
X143995238Y-110194880D01*
X144090476Y-110147261D01*
X144138095Y-110099642D01*
X144185714Y-110004404D01*
X144185714Y-109813928D01*
X144138095Y-109718690D01*
X144090476Y-109671071D01*
X143995238Y-109623452D01*
X142995238Y-107131071D02*
X143138095Y-107178690D01*
X143185714Y-107226309D01*
X143233333Y-107321547D01*
X143233333Y-107464404D01*
X143185714Y-107559642D01*
X143138095Y-107607261D01*
X143042857Y-107654880D01*
X142661904Y-107654880D01*
X142661904Y-106654880D01*
X142995238Y-106654880D01*
X143090476Y-106702500D01*
X143138095Y-106750119D01*
X143185714Y-106845357D01*
X143185714Y-106940595D01*
X143138095Y-107035833D01*
X143090476Y-107083452D01*
X142995238Y-107131071D01*
X142661904Y-107131071D01*
X143566666Y-106654880D02*
X144233333Y-106654880D01*
X143804761Y-107654880D01*
X142995238Y-104591071D02*
X143138095Y-104638690D01*
X143185714Y-104686309D01*
X143233333Y-104781547D01*
X143233333Y-104924404D01*
X143185714Y-105019642D01*
X143138095Y-105067261D01*
X143042857Y-105114880D01*
X142661904Y-105114880D01*
X142661904Y-104114880D01*
X142995238Y-104114880D01*
X143090476Y-104162500D01*
X143138095Y-104210119D01*
X143185714Y-104305357D01*
X143185714Y-104400595D01*
X143138095Y-104495833D01*
X143090476Y-104543452D01*
X142995238Y-104591071D01*
X142661904Y-104591071D01*
X144090476Y-104114880D02*
X143900000Y-104114880D01*
X143804761Y-104162500D01*
X143757142Y-104210119D01*
X143661904Y-104352976D01*
X143614285Y-104543452D01*
X143614285Y-104924404D01*
X143661904Y-105019642D01*
X143709523Y-105067261D01*
X143804761Y-105114880D01*
X143995238Y-105114880D01*
X144090476Y-105067261D01*
X144138095Y-105019642D01*
X144185714Y-104924404D01*
X144185714Y-104686309D01*
X144138095Y-104591071D01*
X144090476Y-104543452D01*
X143995238Y-104495833D01*
X143804761Y-104495833D01*
X143709523Y-104543452D01*
X143661904Y-104591071D01*
X143614285Y-104686309D01*
X142685714Y-102289166D02*
X143161904Y-102289166D01*
X142590476Y-102574880D02*
X142923809Y-101574880D01*
X143257142Y-102574880D01*
X143495238Y-101574880D02*
X144161904Y-101574880D01*
X143733333Y-102574880D01*
X142685714Y-99749166D02*
X143161904Y-99749166D01*
X142590476Y-100034880D02*
X142923809Y-99034880D01*
X143257142Y-100034880D01*
X144019047Y-99034880D02*
X143828571Y-99034880D01*
X143733333Y-99082500D01*
X143685714Y-99130119D01*
X143590476Y-99272976D01*
X143542857Y-99463452D01*
X143542857Y-99844404D01*
X143590476Y-99939642D01*
X143638095Y-99987261D01*
X143733333Y-100034880D01*
X143923809Y-100034880D01*
X144019047Y-99987261D01*
X144066666Y-99939642D01*
X144114285Y-99844404D01*
X144114285Y-99606309D01*
X144066666Y-99511071D01*
X144019047Y-99463452D01*
X143923809Y-99415833D01*
X143733333Y-99415833D01*
X143638095Y-99463452D01*
X143590476Y-99511071D01*
X143542857Y-99606309D01*
X142685714Y-97209166D02*
X143161904Y-97209166D01*
X142590476Y-97494880D02*
X142923809Y-96494880D01*
X143257142Y-97494880D01*
X144066666Y-96494880D02*
X143590476Y-96494880D01*
X143542857Y-96971071D01*
X143590476Y-96923452D01*
X143685714Y-96875833D01*
X143923809Y-96875833D01*
X144019047Y-96923452D01*
X144066666Y-96971071D01*
X144114285Y-97066309D01*
X144114285Y-97304404D01*
X144066666Y-97399642D01*
X144019047Y-97447261D01*
X143923809Y-97494880D01*
X143685714Y-97494880D01*
X143590476Y-97447261D01*
X143542857Y-97399642D01*
X142685714Y-94669166D02*
X143161904Y-94669166D01*
X142590476Y-94954880D02*
X142923809Y-93954880D01*
X143257142Y-94954880D01*
X144019047Y-94288214D02*
X144019047Y-94954880D01*
X143780952Y-93907261D02*
X143542857Y-94621547D01*
X144161904Y-94621547D01*
X143085714Y-92129166D02*
X143561904Y-92129166D01*
X142990476Y-92414880D02*
X143323809Y-91414880D01*
X143657142Y-92414880D01*
X143895238Y-91414880D02*
X144514285Y-91414880D01*
X144180952Y-91795833D01*
X144323809Y-91795833D01*
X144419047Y-91843452D01*
X144466666Y-91891071D01*
X144514285Y-91986309D01*
X144514285Y-92224404D01*
X144466666Y-92319642D01*
X144419047Y-92367261D01*
X144323809Y-92414880D01*
X144038095Y-92414880D01*
X143942857Y-92367261D01*
X143895238Y-92319642D01*
X143085714Y-89589166D02*
X143561904Y-89589166D01*
X142990476Y-89874880D02*
X143323809Y-88874880D01*
X143657142Y-89874880D01*
X143942857Y-88970119D02*
X143990476Y-88922500D01*
X144085714Y-88874880D01*
X144323809Y-88874880D01*
X144419047Y-88922500D01*
X144466666Y-88970119D01*
X144514285Y-89065357D01*
X144514285Y-89160595D01*
X144466666Y-89303452D01*
X143895238Y-89874880D01*
X144514285Y-89874880D01*
X142685714Y-87049166D02*
X143161904Y-87049166D01*
X142590476Y-87334880D02*
X142923809Y-86334880D01*
X143257142Y-87334880D01*
X144114285Y-87334880D02*
X143542857Y-87334880D01*
X143828571Y-87334880D02*
X143828571Y-86334880D01*
X143733333Y-86477738D01*
X143638095Y-86572976D01*
X143542857Y-86620595D01*
X142685714Y-84509166D02*
X143161904Y-84509166D01*
X142590476Y-84794880D02*
X142923809Y-83794880D01*
X143257142Y-84794880D01*
X143780952Y-83794880D02*
X143876190Y-83794880D01*
X143971428Y-83842500D01*
X144019047Y-83890119D01*
X144066666Y-83985357D01*
X144114285Y-84175833D01*
X144114285Y-84413928D01*
X144066666Y-84604404D01*
X144019047Y-84699642D01*
X143971428Y-84747261D01*
X143876190Y-84794880D01*
X143780952Y-84794880D01*
X143685714Y-84747261D01*
X143638095Y-84699642D01*
X143590476Y-84604404D01*
X143542857Y-84413928D01*
X143542857Y-84175833D01*
X143590476Y-83985357D01*
X143638095Y-83890119D01*
X143685714Y-83842500D01*
X143780952Y-83794880D01*
X142995238Y-81731071D02*
X143138095Y-81778690D01*
X143185714Y-81826309D01*
X143233333Y-81921547D01*
X143233333Y-82064404D01*
X143185714Y-82159642D01*
X143138095Y-82207261D01*
X143042857Y-82254880D01*
X142661904Y-82254880D01*
X142661904Y-81254880D01*
X142995238Y-81254880D01*
X143090476Y-81302500D01*
X143138095Y-81350119D01*
X143185714Y-81445357D01*
X143185714Y-81540595D01*
X143138095Y-81635833D01*
X143090476Y-81683452D01*
X142995238Y-81731071D01*
X142661904Y-81731071D01*
X143614285Y-81350119D02*
X143661904Y-81302500D01*
X143757142Y-81254880D01*
X143995238Y-81254880D01*
X144090476Y-81302500D01*
X144138095Y-81350119D01*
X144185714Y-81445357D01*
X144185714Y-81540595D01*
X144138095Y-81683452D01*
X143566666Y-82254880D01*
X144185714Y-82254880D01*
X142995238Y-79191071D02*
X143138095Y-79238690D01*
X143185714Y-79286309D01*
X143233333Y-79381547D01*
X143233333Y-79524404D01*
X143185714Y-79619642D01*
X143138095Y-79667261D01*
X143042857Y-79714880D01*
X142661904Y-79714880D01*
X142661904Y-78714880D01*
X142995238Y-78714880D01*
X143090476Y-78762500D01*
X143138095Y-78810119D01*
X143185714Y-78905357D01*
X143185714Y-79000595D01*
X143138095Y-79095833D01*
X143090476Y-79143452D01*
X142995238Y-79191071D01*
X142661904Y-79191071D01*
X144185714Y-79714880D02*
X143614285Y-79714880D01*
X143900000Y-79714880D02*
X143900000Y-78714880D01*
X143804761Y-78857738D01*
X143709523Y-78952976D01*
X143614285Y-79000595D01*
X142995238Y-76651071D02*
X143138095Y-76698690D01*
X143185714Y-76746309D01*
X143233333Y-76841547D01*
X143233333Y-76984404D01*
X143185714Y-77079642D01*
X143138095Y-77127261D01*
X143042857Y-77174880D01*
X142661904Y-77174880D01*
X142661904Y-76174880D01*
X142995238Y-76174880D01*
X143090476Y-76222500D01*
X143138095Y-76270119D01*
X143185714Y-76365357D01*
X143185714Y-76460595D01*
X143138095Y-76555833D01*
X143090476Y-76603452D01*
X142995238Y-76651071D01*
X142661904Y-76651071D01*
X143852380Y-76174880D02*
X143947619Y-76174880D01*
X144042857Y-76222500D01*
X144090476Y-76270119D01*
X144138095Y-76365357D01*
X144185714Y-76555833D01*
X144185714Y-76793928D01*
X144138095Y-76984404D01*
X144090476Y-77079642D01*
X144042857Y-77127261D01*
X143947619Y-77174880D01*
X143852380Y-77174880D01*
X143757142Y-77127261D01*
X143709523Y-77079642D01*
X143661904Y-76984404D01*
X143614285Y-76793928D01*
X143614285Y-76555833D01*
X143661904Y-76365357D01*
X143709523Y-76270119D01*
X143757142Y-76222500D01*
X143852380Y-76174880D01*
X142733333Y-73634880D02*
X142257142Y-73634880D01*
X142209523Y-74111071D01*
X142257142Y-74063452D01*
X142352380Y-74015833D01*
X142590476Y-74015833D01*
X142685714Y-74063452D01*
X142733333Y-74111071D01*
X142780952Y-74206309D01*
X142780952Y-74444404D01*
X142733333Y-74539642D01*
X142685714Y-74587261D01*
X142590476Y-74634880D01*
X142352380Y-74634880D01*
X142257142Y-74587261D01*
X142209523Y-74539642D01*
X143066666Y-73634880D02*
X143400000Y-74634880D01*
X143733333Y-73634880D01*
X144257142Y-73634880D02*
X144352380Y-73634880D01*
X144447619Y-73682500D01*
X144495238Y-73730119D01*
X144542857Y-73825357D01*
X144590476Y-74015833D01*
X144590476Y-74253928D01*
X144542857Y-74444404D01*
X144495238Y-74539642D01*
X144447619Y-74587261D01*
X144352380Y-74634880D01*
X144257142Y-74634880D01*
X144161904Y-74587261D01*
X144114285Y-74539642D01*
X144066666Y-74444404D01*
X144019047Y-74253928D01*
X144019047Y-74015833D01*
X144066666Y-73825357D01*
X144114285Y-73730119D01*
X144161904Y-73682500D01*
X144257142Y-73634880D01*
X124661904Y-121904880D02*
X125280952Y-121904880D01*
X124947619Y-122285833D01*
X125090476Y-122285833D01*
X125185714Y-122333452D01*
X125233333Y-122381071D01*
X125280952Y-122476309D01*
X125280952Y-122714404D01*
X125233333Y-122809642D01*
X125185714Y-122857261D01*
X125090476Y-122904880D01*
X124804761Y-122904880D01*
X124709523Y-122857261D01*
X124661904Y-122809642D01*
X125566666Y-121904880D02*
X125900000Y-122904880D01*
X126233333Y-121904880D01*
X126471428Y-121904880D02*
X127090476Y-121904880D01*
X126757142Y-122285833D01*
X126900000Y-122285833D01*
X126995238Y-122333452D01*
X127042857Y-122381071D01*
X127090476Y-122476309D01*
X127090476Y-122714404D01*
X127042857Y-122809642D01*
X126995238Y-122857261D01*
X126900000Y-122904880D01*
X126614285Y-122904880D01*
X126519047Y-122857261D01*
X126471428Y-122809642D01*
X125138095Y-119412500D02*
X125042857Y-119364880D01*
X124900000Y-119364880D01*
X124757142Y-119412500D01*
X124661904Y-119507738D01*
X124614285Y-119602976D01*
X124566666Y-119793452D01*
X124566666Y-119936309D01*
X124614285Y-120126785D01*
X124661904Y-120222023D01*
X124757142Y-120317261D01*
X124900000Y-120364880D01*
X124995238Y-120364880D01*
X125138095Y-120317261D01*
X125185714Y-120269642D01*
X125185714Y-119936309D01*
X124995238Y-119936309D01*
X125614285Y-120364880D02*
X125614285Y-119364880D01*
X126185714Y-120364880D01*
X126185714Y-119364880D01*
X126661904Y-120364880D02*
X126661904Y-119364880D01*
X126900000Y-119364880D01*
X127042857Y-119412500D01*
X127138095Y-119507738D01*
X127185714Y-119602976D01*
X127233333Y-119793452D01*
X127233333Y-119936309D01*
X127185714Y-120126785D01*
X127138095Y-120222023D01*
X127042857Y-120317261D01*
X126900000Y-120364880D01*
X126661904Y-120364880D01*
X124661904Y-116824880D02*
X125280952Y-116824880D01*
X124947619Y-117205833D01*
X125090476Y-117205833D01*
X125185714Y-117253452D01*
X125233333Y-117301071D01*
X125280952Y-117396309D01*
X125280952Y-117634404D01*
X125233333Y-117729642D01*
X125185714Y-117777261D01*
X125090476Y-117824880D01*
X124804761Y-117824880D01*
X124709523Y-117777261D01*
X124661904Y-117729642D01*
X125566666Y-116824880D02*
X125900000Y-117824880D01*
X126233333Y-116824880D01*
X126471428Y-116824880D02*
X127090476Y-116824880D01*
X126757142Y-117205833D01*
X126900000Y-117205833D01*
X126995238Y-117253452D01*
X127042857Y-117301071D01*
X127090476Y-117396309D01*
X127090476Y-117634404D01*
X127042857Y-117729642D01*
X126995238Y-117777261D01*
X126900000Y-117824880D01*
X126614285Y-117824880D01*
X126519047Y-117777261D01*
X126471428Y-117729642D01*
X125495238Y-114761071D02*
X125638095Y-114808690D01*
X125685714Y-114856309D01*
X125733333Y-114951547D01*
X125733333Y-115094404D01*
X125685714Y-115189642D01*
X125638095Y-115237261D01*
X125542857Y-115284880D01*
X125161904Y-115284880D01*
X125161904Y-114284880D01*
X125495238Y-114284880D01*
X125590476Y-114332500D01*
X125638095Y-114380119D01*
X125685714Y-114475357D01*
X125685714Y-114570595D01*
X125638095Y-114665833D01*
X125590476Y-114713452D01*
X125495238Y-114761071D01*
X125161904Y-114761071D01*
X126638095Y-114284880D02*
X126161904Y-114284880D01*
X126114285Y-114761071D01*
X126161904Y-114713452D01*
X126257142Y-114665833D01*
X126495238Y-114665833D01*
X126590476Y-114713452D01*
X126638095Y-114761071D01*
X126685714Y-114856309D01*
X126685714Y-115094404D01*
X126638095Y-115189642D01*
X126590476Y-115237261D01*
X126495238Y-115284880D01*
X126257142Y-115284880D01*
X126161904Y-115237261D01*
X126114285Y-115189642D01*
X125495238Y-112221071D02*
X125638095Y-112268690D01*
X125685714Y-112316309D01*
X125733333Y-112411547D01*
X125733333Y-112554404D01*
X125685714Y-112649642D01*
X125638095Y-112697261D01*
X125542857Y-112744880D01*
X125161904Y-112744880D01*
X125161904Y-111744880D01*
X125495238Y-111744880D01*
X125590476Y-111792500D01*
X125638095Y-111840119D01*
X125685714Y-111935357D01*
X125685714Y-112030595D01*
X125638095Y-112125833D01*
X125590476Y-112173452D01*
X125495238Y-112221071D01*
X125161904Y-112221071D01*
X126590476Y-112078214D02*
X126590476Y-112744880D01*
X126352380Y-111697261D02*
X126114285Y-112411547D01*
X126733333Y-112411547D01*
X125495238Y-109681071D02*
X125638095Y-109728690D01*
X125685714Y-109776309D01*
X125733333Y-109871547D01*
X125733333Y-110014404D01*
X125685714Y-110109642D01*
X125638095Y-110157261D01*
X125542857Y-110204880D01*
X125161904Y-110204880D01*
X125161904Y-109204880D01*
X125495238Y-109204880D01*
X125590476Y-109252500D01*
X125638095Y-109300119D01*
X125685714Y-109395357D01*
X125685714Y-109490595D01*
X125638095Y-109585833D01*
X125590476Y-109633452D01*
X125495238Y-109681071D01*
X125161904Y-109681071D01*
X126066666Y-109204880D02*
X126685714Y-109204880D01*
X126352380Y-109585833D01*
X126495238Y-109585833D01*
X126590476Y-109633452D01*
X126638095Y-109681071D01*
X126685714Y-109776309D01*
X126685714Y-110014404D01*
X126638095Y-110109642D01*
X126590476Y-110157261D01*
X126495238Y-110204880D01*
X126209523Y-110204880D01*
X126114285Y-110157261D01*
X126066666Y-110109642D01*
X125247619Y-107664880D02*
X124914285Y-107188690D01*
X124676190Y-107664880D02*
X124676190Y-106664880D01*
X125057142Y-106664880D01*
X125152380Y-106712500D01*
X125200000Y-106760119D01*
X125247619Y-106855357D01*
X125247619Y-106998214D01*
X125200000Y-107093452D01*
X125152380Y-107141071D01*
X125057142Y-107188690D01*
X124676190Y-107188690D01*
X125676190Y-107141071D02*
X126009523Y-107141071D01*
X126152380Y-107664880D02*
X125676190Y-107664880D01*
X125676190Y-106664880D01*
X126152380Y-106664880D01*
X126533333Y-107617261D02*
X126676190Y-107664880D01*
X126914285Y-107664880D01*
X127009523Y-107617261D01*
X127057142Y-107569642D01*
X127104761Y-107474404D01*
X127104761Y-107379166D01*
X127057142Y-107283928D01*
X127009523Y-107236309D01*
X126914285Y-107188690D01*
X126723809Y-107141071D01*
X126628571Y-107093452D01*
X126580952Y-107045833D01*
X126533333Y-106950595D01*
X126533333Y-106855357D01*
X126580952Y-106760119D01*
X126628571Y-106712500D01*
X126723809Y-106664880D01*
X126961904Y-106664880D01*
X127104761Y-106712500D01*
X127533333Y-107141071D02*
X127866666Y-107141071D01*
X128009523Y-107664880D02*
X127533333Y-107664880D01*
X127533333Y-106664880D01*
X128009523Y-106664880D01*
X128295238Y-106664880D02*
X128866666Y-106664880D01*
X128580952Y-107664880D02*
X128580952Y-106664880D01*
X124709523Y-104839166D02*
X125185714Y-104839166D01*
X124614285Y-105124880D02*
X124947619Y-104124880D01*
X125280952Y-105124880D01*
X126138095Y-105124880D02*
X125566666Y-105124880D01*
X125852380Y-105124880D02*
X125852380Y-104124880D01*
X125757142Y-104267738D01*
X125661904Y-104362976D01*
X125566666Y-104410595D01*
X127042857Y-104124880D02*
X126566666Y-104124880D01*
X126519047Y-104601071D01*
X126566666Y-104553452D01*
X126661904Y-104505833D01*
X126900000Y-104505833D01*
X126995238Y-104553452D01*
X127042857Y-104601071D01*
X127090476Y-104696309D01*
X127090476Y-104934404D01*
X127042857Y-105029642D01*
X126995238Y-105077261D01*
X126900000Y-105124880D01*
X126661904Y-105124880D01*
X126566666Y-105077261D01*
X126519047Y-105029642D01*
X124709523Y-102299166D02*
X125185714Y-102299166D01*
X124614285Y-102584880D02*
X124947619Y-101584880D01*
X125280952Y-102584880D01*
X126138095Y-102584880D02*
X125566666Y-102584880D01*
X125852380Y-102584880D02*
X125852380Y-101584880D01*
X125757142Y-101727738D01*
X125661904Y-101822976D01*
X125566666Y-101870595D01*
X126995238Y-101918214D02*
X126995238Y-102584880D01*
X126757142Y-101537261D02*
X126519047Y-102251547D01*
X127138095Y-102251547D01*
X124709523Y-99759166D02*
X125185714Y-99759166D01*
X124614285Y-100044880D02*
X124947619Y-99044880D01*
X125280952Y-100044880D01*
X126138095Y-100044880D02*
X125566666Y-100044880D01*
X125852380Y-100044880D02*
X125852380Y-99044880D01*
X125757142Y-99187738D01*
X125661904Y-99282976D01*
X125566666Y-99330595D01*
X126471428Y-99044880D02*
X127090476Y-99044880D01*
X126757142Y-99425833D01*
X126900000Y-99425833D01*
X126995238Y-99473452D01*
X127042857Y-99521071D01*
X127090476Y-99616309D01*
X127090476Y-99854404D01*
X127042857Y-99949642D01*
X126995238Y-99997261D01*
X126900000Y-100044880D01*
X126614285Y-100044880D01*
X126519047Y-99997261D01*
X126471428Y-99949642D01*
X124709523Y-97219166D02*
X125185714Y-97219166D01*
X124614285Y-97504880D02*
X124947619Y-96504880D01*
X125280952Y-97504880D01*
X126138095Y-97504880D02*
X125566666Y-97504880D01*
X125852380Y-97504880D02*
X125852380Y-96504880D01*
X125757142Y-96647738D01*
X125661904Y-96742976D01*
X125566666Y-96790595D01*
X126757142Y-96504880D02*
X126852380Y-96504880D01*
X126947619Y-96552500D01*
X126995238Y-96600119D01*
X127042857Y-96695357D01*
X127090476Y-96885833D01*
X127090476Y-97123928D01*
X127042857Y-97314404D01*
X126995238Y-97409642D01*
X126947619Y-97457261D01*
X126852380Y-97504880D01*
X126757142Y-97504880D01*
X126661904Y-97457261D01*
X126614285Y-97409642D01*
X126566666Y-97314404D01*
X126519047Y-97123928D01*
X126519047Y-96885833D01*
X126566666Y-96695357D01*
X126614285Y-96600119D01*
X126661904Y-96552500D01*
X126757142Y-96504880D01*
X125185714Y-94679166D02*
X125661904Y-94679166D01*
X125090476Y-94964880D02*
X125423809Y-93964880D01*
X125757142Y-94964880D01*
X126138095Y-94964880D02*
X126328571Y-94964880D01*
X126423809Y-94917261D01*
X126471428Y-94869642D01*
X126566666Y-94726785D01*
X126614285Y-94536309D01*
X126614285Y-94155357D01*
X126566666Y-94060119D01*
X126519047Y-94012500D01*
X126423809Y-93964880D01*
X126233333Y-93964880D01*
X126138095Y-94012500D01*
X126090476Y-94060119D01*
X126042857Y-94155357D01*
X126042857Y-94393452D01*
X126090476Y-94488690D01*
X126138095Y-94536309D01*
X126233333Y-94583928D01*
X126423809Y-94583928D01*
X126519047Y-94536309D01*
X126566666Y-94488690D01*
X126614285Y-94393452D01*
X125185714Y-92139166D02*
X125661904Y-92139166D01*
X125090476Y-92424880D02*
X125423809Y-91424880D01*
X125757142Y-92424880D01*
X126233333Y-91853452D02*
X126138095Y-91805833D01*
X126090476Y-91758214D01*
X126042857Y-91662976D01*
X126042857Y-91615357D01*
X126090476Y-91520119D01*
X126138095Y-91472500D01*
X126233333Y-91424880D01*
X126423809Y-91424880D01*
X126519047Y-91472500D01*
X126566666Y-91520119D01*
X126614285Y-91615357D01*
X126614285Y-91662976D01*
X126566666Y-91758214D01*
X126519047Y-91805833D01*
X126423809Y-91853452D01*
X126233333Y-91853452D01*
X126138095Y-91901071D01*
X126090476Y-91948690D01*
X126042857Y-92043928D01*
X126042857Y-92234404D01*
X126090476Y-92329642D01*
X126138095Y-92377261D01*
X126233333Y-92424880D01*
X126423809Y-92424880D01*
X126519047Y-92377261D01*
X126566666Y-92329642D01*
X126614285Y-92234404D01*
X126614285Y-92043928D01*
X126566666Y-91948690D01*
X126519047Y-91901071D01*
X126423809Y-91853452D01*
X125019047Y-89361071D02*
X125161904Y-89408690D01*
X125209523Y-89456309D01*
X125257142Y-89551547D01*
X125257142Y-89694404D01*
X125209523Y-89789642D01*
X125161904Y-89837261D01*
X125066666Y-89884880D01*
X124685714Y-89884880D01*
X124685714Y-88884880D01*
X125019047Y-88884880D01*
X125114285Y-88932500D01*
X125161904Y-88980119D01*
X125209523Y-89075357D01*
X125209523Y-89170595D01*
X125161904Y-89265833D01*
X125114285Y-89313452D01*
X125019047Y-89361071D01*
X124685714Y-89361071D01*
X126209523Y-89884880D02*
X125638095Y-89884880D01*
X125923809Y-89884880D02*
X125923809Y-88884880D01*
X125828571Y-89027738D01*
X125733333Y-89122976D01*
X125638095Y-89170595D01*
X127114285Y-88884880D02*
X126638095Y-88884880D01*
X126590476Y-89361071D01*
X126638095Y-89313452D01*
X126733333Y-89265833D01*
X126971428Y-89265833D01*
X127066666Y-89313452D01*
X127114285Y-89361071D01*
X127161904Y-89456309D01*
X127161904Y-89694404D01*
X127114285Y-89789642D01*
X127066666Y-89837261D01*
X126971428Y-89884880D01*
X126733333Y-89884880D01*
X126638095Y-89837261D01*
X126590476Y-89789642D01*
X125019047Y-86821071D02*
X125161904Y-86868690D01*
X125209523Y-86916309D01*
X125257142Y-87011547D01*
X125257142Y-87154404D01*
X125209523Y-87249642D01*
X125161904Y-87297261D01*
X125066666Y-87344880D01*
X124685714Y-87344880D01*
X124685714Y-86344880D01*
X125019047Y-86344880D01*
X125114285Y-86392500D01*
X125161904Y-86440119D01*
X125209523Y-86535357D01*
X125209523Y-86630595D01*
X125161904Y-86725833D01*
X125114285Y-86773452D01*
X125019047Y-86821071D01*
X124685714Y-86821071D01*
X126209523Y-87344880D02*
X125638095Y-87344880D01*
X125923809Y-87344880D02*
X125923809Y-86344880D01*
X125828571Y-86487738D01*
X125733333Y-86582976D01*
X125638095Y-86630595D01*
X127066666Y-86678214D02*
X127066666Y-87344880D01*
X126828571Y-86297261D02*
X126590476Y-87011547D01*
X127209523Y-87011547D01*
X125019047Y-84281071D02*
X125161904Y-84328690D01*
X125209523Y-84376309D01*
X125257142Y-84471547D01*
X125257142Y-84614404D01*
X125209523Y-84709642D01*
X125161904Y-84757261D01*
X125066666Y-84804880D01*
X124685714Y-84804880D01*
X124685714Y-83804880D01*
X125019047Y-83804880D01*
X125114285Y-83852500D01*
X125161904Y-83900119D01*
X125209523Y-83995357D01*
X125209523Y-84090595D01*
X125161904Y-84185833D01*
X125114285Y-84233452D01*
X125019047Y-84281071D01*
X124685714Y-84281071D01*
X126209523Y-84804880D02*
X125638095Y-84804880D01*
X125923809Y-84804880D02*
X125923809Y-83804880D01*
X125828571Y-83947738D01*
X125733333Y-84042976D01*
X125638095Y-84090595D01*
X126542857Y-83804880D02*
X127161904Y-83804880D01*
X126828571Y-84185833D01*
X126971428Y-84185833D01*
X127066666Y-84233452D01*
X127114285Y-84281071D01*
X127161904Y-84376309D01*
X127161904Y-84614404D01*
X127114285Y-84709642D01*
X127066666Y-84757261D01*
X126971428Y-84804880D01*
X126685714Y-84804880D01*
X126590476Y-84757261D01*
X126542857Y-84709642D01*
X125019047Y-81741071D02*
X125161904Y-81788690D01*
X125209523Y-81836309D01*
X125257142Y-81931547D01*
X125257142Y-82074404D01*
X125209523Y-82169642D01*
X125161904Y-82217261D01*
X125066666Y-82264880D01*
X124685714Y-82264880D01*
X124685714Y-81264880D01*
X125019047Y-81264880D01*
X125114285Y-81312500D01*
X125161904Y-81360119D01*
X125209523Y-81455357D01*
X125209523Y-81550595D01*
X125161904Y-81645833D01*
X125114285Y-81693452D01*
X125019047Y-81741071D01*
X124685714Y-81741071D01*
X126209523Y-82264880D02*
X125638095Y-82264880D01*
X125923809Y-82264880D02*
X125923809Y-81264880D01*
X125828571Y-81407738D01*
X125733333Y-81502976D01*
X125638095Y-81550595D01*
X126590476Y-81360119D02*
X126638095Y-81312500D01*
X126733333Y-81264880D01*
X126971428Y-81264880D01*
X127066666Y-81312500D01*
X127114285Y-81360119D01*
X127161904Y-81455357D01*
X127161904Y-81550595D01*
X127114285Y-81693452D01*
X126542857Y-82264880D01*
X127161904Y-82264880D01*
X125019047Y-79201071D02*
X125161904Y-79248690D01*
X125209523Y-79296309D01*
X125257142Y-79391547D01*
X125257142Y-79534404D01*
X125209523Y-79629642D01*
X125161904Y-79677261D01*
X125066666Y-79724880D01*
X124685714Y-79724880D01*
X124685714Y-78724880D01*
X125019047Y-78724880D01*
X125114285Y-78772500D01*
X125161904Y-78820119D01*
X125209523Y-78915357D01*
X125209523Y-79010595D01*
X125161904Y-79105833D01*
X125114285Y-79153452D01*
X125019047Y-79201071D01*
X124685714Y-79201071D01*
X126209523Y-79724880D02*
X125638095Y-79724880D01*
X125923809Y-79724880D02*
X125923809Y-78724880D01*
X125828571Y-78867738D01*
X125733333Y-78962976D01*
X125638095Y-79010595D01*
X127161904Y-79724880D02*
X126590476Y-79724880D01*
X126876190Y-79724880D02*
X126876190Y-78724880D01*
X126780952Y-78867738D01*
X126685714Y-78962976D01*
X126590476Y-79010595D01*
X125019047Y-76661071D02*
X125161904Y-76708690D01*
X125209523Y-76756309D01*
X125257142Y-76851547D01*
X125257142Y-76994404D01*
X125209523Y-77089642D01*
X125161904Y-77137261D01*
X125066666Y-77184880D01*
X124685714Y-77184880D01*
X124685714Y-76184880D01*
X125019047Y-76184880D01*
X125114285Y-76232500D01*
X125161904Y-76280119D01*
X125209523Y-76375357D01*
X125209523Y-76470595D01*
X125161904Y-76565833D01*
X125114285Y-76613452D01*
X125019047Y-76661071D01*
X124685714Y-76661071D01*
X126209523Y-77184880D02*
X125638095Y-77184880D01*
X125923809Y-77184880D02*
X125923809Y-76184880D01*
X125828571Y-76327738D01*
X125733333Y-76422976D01*
X125638095Y-76470595D01*
X126828571Y-76184880D02*
X126923809Y-76184880D01*
X127019047Y-76232500D01*
X127066666Y-76280119D01*
X127114285Y-76375357D01*
X127161904Y-76565833D01*
X127161904Y-76803928D01*
X127114285Y-76994404D01*
X127066666Y-77089642D01*
X127019047Y-77137261D01*
X126923809Y-77184880D01*
X126828571Y-77184880D01*
X126733333Y-77137261D01*
X126685714Y-77089642D01*
X126638095Y-76994404D01*
X126590476Y-76803928D01*
X126590476Y-76565833D01*
X126638095Y-76375357D01*
X126685714Y-76280119D01*
X126733333Y-76232500D01*
X126828571Y-76184880D01*
X125138095Y-73692500D02*
X125042857Y-73644880D01*
X124900000Y-73644880D01*
X124757142Y-73692500D01*
X124661904Y-73787738D01*
X124614285Y-73882976D01*
X124566666Y-74073452D01*
X124566666Y-74216309D01*
X124614285Y-74406785D01*
X124661904Y-74502023D01*
X124757142Y-74597261D01*
X124900000Y-74644880D01*
X124995238Y-74644880D01*
X125138095Y-74597261D01*
X125185714Y-74549642D01*
X125185714Y-74216309D01*
X124995238Y-74216309D01*
X125614285Y-74644880D02*
X125614285Y-73644880D01*
X126185714Y-74644880D01*
X126185714Y-73644880D01*
X126661904Y-74644880D02*
X126661904Y-73644880D01*
X126900000Y-73644880D01*
X127042857Y-73692500D01*
X127138095Y-73787738D01*
X127185714Y-73882976D01*
X127233333Y-74073452D01*
X127233333Y-74216309D01*
X127185714Y-74406785D01*
X127138095Y-74502023D01*
X127042857Y-74597261D01*
X126900000Y-74644880D01*
X126661904Y-74644880D01*
D11*
%TO.C,IC1*%
X131440000Y-94765000D02*
X130990000Y-94765000D01*
X130990000Y-94765000D02*
X130990000Y-95215000D01*
X137760000Y-94765000D02*
X138210000Y-94765000D01*
X138210000Y-94765000D02*
X138210000Y-95215000D01*
X131440000Y-101985000D02*
X130990000Y-101985000D01*
X130990000Y-101985000D02*
X130990000Y-101535000D01*
X137760000Y-101985000D02*
X138210000Y-101985000D01*
X138210000Y-101985000D02*
X138210000Y-101535000D01*
X138210000Y-101535000D02*
X139500000Y-101535000D01*
%TO.C,U2*%
X133490000Y-90210000D02*
X134750000Y-90210000D01*
X140310000Y-90210000D02*
X139050000Y-90210000D01*
X133490000Y-86450000D02*
X133490000Y-90210000D01*
X140310000Y-84200000D02*
X140310000Y-90210000D01*
%TO.C,U1*%
X132990000Y-80850000D02*
X132990000Y-82650000D01*
X136210000Y-82650000D02*
X136210000Y-80200000D01*
%TO.C,JP2*%
X135970000Y-116140000D02*
X135970000Y-118140000D01*
X133170000Y-116140000D02*
X135970000Y-116140000D01*
X133170000Y-118140000D02*
X133170000Y-116140000D01*
X135970000Y-118140000D02*
X133170000Y-118140000D01*
%TO.C,R8*%
X141462779Y-112710000D02*
X141137221Y-112710000D01*
X141462779Y-111690000D02*
X141137221Y-111690000D01*
%TO.C,R7*%
X137637221Y-114390000D02*
X137962779Y-114390000D01*
X137637221Y-115410000D02*
X137962779Y-115410000D01*
%TO.C,R6*%
X129490000Y-86765279D02*
X129490000Y-86439721D01*
X130510000Y-86765279D02*
X130510000Y-86439721D01*
%TO.C,R5*%
X131060000Y-86765279D02*
X131060000Y-86439721D01*
X132080000Y-86765279D02*
X132080000Y-86439721D01*
%TO.C,R4*%
X130962779Y-84710000D02*
X130637221Y-84710000D01*
X130962779Y-83690000D02*
X130637221Y-83690000D01*
%TO.C,R3*%
X132410000Y-81137221D02*
X132410000Y-81462779D01*
X131390000Y-81137221D02*
X131390000Y-81462779D01*
%TO.C,R2*%
X136790000Y-81462779D02*
X136790000Y-81137221D01*
X137810000Y-81462779D02*
X137810000Y-81137221D01*
%TO.C,R1*%
X135857221Y-107330000D02*
X136182779Y-107330000D01*
X135857221Y-108350000D02*
X136182779Y-108350000D01*
%TO.C,Q1*%
X141860000Y-116480000D02*
X141860000Y-115550000D01*
X141860000Y-113320000D02*
X141860000Y-114250000D01*
X141860000Y-113320000D02*
X139700000Y-113320000D01*
X141860000Y-116480000D02*
X140400000Y-116480000D01*
%TO.C,JP1*%
X135520000Y-111140000D02*
X135820000Y-111440000D01*
X135220000Y-111440000D02*
X135820000Y-111440000D01*
X135520000Y-111140000D02*
X135220000Y-111440000D01*
X134770000Y-110940000D02*
X134770000Y-108940000D01*
X138870000Y-110940000D02*
X134770000Y-110940000D01*
X138870000Y-108940000D02*
X138870000Y-110940000D01*
X134770000Y-108940000D02*
X138870000Y-108940000D01*
%TO.C,J4*%
X144700000Y-123840000D02*
X147360000Y-123840000D01*
X144700000Y-75520000D02*
X144700000Y-123840000D01*
X147360000Y-75520000D02*
X147360000Y-123840000D01*
X144700000Y-75520000D02*
X147360000Y-75520000D01*
X144700000Y-74250000D02*
X144700000Y-72920000D01*
X144700000Y-72920000D02*
X146030000Y-72920000D01*
%TO.C,J3*%
X121840000Y-123850000D02*
X124500000Y-123850000D01*
X121840000Y-75530000D02*
X121840000Y-123850000D01*
X124500000Y-75530000D02*
X124500000Y-123850000D01*
X121840000Y-75530000D02*
X124500000Y-75530000D01*
X121840000Y-74260000D02*
X121840000Y-72930000D01*
X121840000Y-72930000D02*
X123170000Y-72930000D01*
%TO.C,J2*%
X130120000Y-71300000D02*
X139060000Y-71300000D01*
X130120000Y-76810000D02*
X130120000Y-75010000D01*
X130120000Y-71300000D02*
X130120000Y-72760000D01*
X139060000Y-71300000D02*
X139060000Y-72760000D01*
X139060000Y-76810000D02*
X139060000Y-75010000D01*
%TO.C,J1*%
X139750000Y-123830000D02*
X139750000Y-121170000D01*
X132070000Y-123830000D02*
X139750000Y-123830000D01*
X132070000Y-121170000D02*
X139750000Y-121170000D01*
X132070000Y-123830000D02*
X132070000Y-121170000D01*
X130800000Y-123830000D02*
X129470000Y-123830000D01*
X129470000Y-123830000D02*
X129470000Y-122500000D01*
%TO.C,F1*%
X129290000Y-81758578D02*
X129290000Y-81241422D01*
X130710000Y-81758578D02*
X130710000Y-81241422D01*
%TO.C,C12*%
X129135000Y-92100000D02*
X129135000Y-88190000D01*
X129135000Y-88190000D02*
X127265000Y-88190000D01*
X127265000Y-88190000D02*
X127265000Y-92100000D01*
%TO.C,C6*%
X140865000Y-88700000D02*
X140865000Y-92610000D01*
X140865000Y-92610000D02*
X142735000Y-92610000D01*
X142735000Y-92610000D02*
X142735000Y-88700000D01*
%TO.C,C3*%
X139537221Y-82490000D02*
X139862779Y-82490000D01*
X139537221Y-83510000D02*
X139862779Y-83510000D01*
%TO.C,C2*%
X142100000Y-79965000D02*
X138190000Y-79965000D01*
X138190000Y-79965000D02*
X138190000Y-81835000D01*
X138190000Y-81835000D02*
X142100000Y-81835000D01*
%TO.C,IC1*%
D10*
X133623809Y-104677380D02*
X133623809Y-103677380D01*
X134671428Y-104582142D02*
X134623809Y-104629761D01*
X134480952Y-104677380D01*
X134385714Y-104677380D01*
X134242857Y-104629761D01*
X134147619Y-104534523D01*
X134100000Y-104439285D01*
X134052380Y-104248809D01*
X134052380Y-104105952D01*
X134100000Y-103915476D01*
X134147619Y-103820238D01*
X134242857Y-103725000D01*
X134385714Y-103677380D01*
X134480952Y-103677380D01*
X134623809Y-103725000D01*
X134671428Y-103772619D01*
X135623809Y-104677380D02*
X135052380Y-104677380D01*
X135338095Y-104677380D02*
X135338095Y-103677380D01*
X135242857Y-103820238D01*
X135147619Y-103915476D01*
X135052380Y-103963095D01*
%TO.C,U2*%
X139038095Y-90652380D02*
X139038095Y-91461904D01*
X139085714Y-91557142D01*
X139133333Y-91604761D01*
X139228571Y-91652380D01*
X139419047Y-91652380D01*
X139514285Y-91604761D01*
X139561904Y-91557142D01*
X139609523Y-91461904D01*
X139609523Y-90652380D01*
X140038095Y-90747619D02*
X140085714Y-90700000D01*
X140180952Y-90652380D01*
X140419047Y-90652380D01*
X140514285Y-90700000D01*
X140561904Y-90747619D01*
X140609523Y-90842857D01*
X140609523Y-90938095D01*
X140561904Y-91080952D01*
X139990476Y-91652380D01*
X140609523Y-91652380D01*
%TO.C,U1*%
X133838095Y-79252380D02*
X133838095Y-80061904D01*
X133885714Y-80157142D01*
X133933333Y-80204761D01*
X134028571Y-80252380D01*
X134219047Y-80252380D01*
X134314285Y-80204761D01*
X134361904Y-80157142D01*
X134409523Y-80061904D01*
X134409523Y-79252380D01*
X135409523Y-80252380D02*
X134838095Y-80252380D01*
X135123809Y-80252380D02*
X135123809Y-79252380D01*
X135028571Y-79395238D01*
X134933333Y-79490476D01*
X134838095Y-79538095D01*
%TO.C,JP2*%
X130566666Y-116602380D02*
X130566666Y-117316666D01*
X130519047Y-117459523D01*
X130423809Y-117554761D01*
X130280952Y-117602380D01*
X130185714Y-117602380D01*
X131042857Y-117602380D02*
X131042857Y-116602380D01*
X131423809Y-116602380D01*
X131519047Y-116650000D01*
X131566666Y-116697619D01*
X131614285Y-116792857D01*
X131614285Y-116935714D01*
X131566666Y-117030952D01*
X131519047Y-117078571D01*
X131423809Y-117126190D01*
X131042857Y-117126190D01*
X131995238Y-116697619D02*
X132042857Y-116650000D01*
X132138095Y-116602380D01*
X132376190Y-116602380D01*
X132471428Y-116650000D01*
X132519047Y-116697619D01*
X132566666Y-116792857D01*
X132566666Y-116888095D01*
X132519047Y-117030952D01*
X131947619Y-117602380D01*
X132566666Y-117602380D01*
%TO.C,R8*%
X140933333Y-111352380D02*
X140600000Y-110876190D01*
X140361904Y-111352380D02*
X140361904Y-110352380D01*
X140742857Y-110352380D01*
X140838095Y-110400000D01*
X140885714Y-110447619D01*
X140933333Y-110542857D01*
X140933333Y-110685714D01*
X140885714Y-110780952D01*
X140838095Y-110828571D01*
X140742857Y-110876190D01*
X140361904Y-110876190D01*
X141504761Y-110780952D02*
X141409523Y-110733333D01*
X141361904Y-110685714D01*
X141314285Y-110590476D01*
X141314285Y-110542857D01*
X141361904Y-110447619D01*
X141409523Y-110400000D01*
X141504761Y-110352380D01*
X141695238Y-110352380D01*
X141790476Y-110400000D01*
X141838095Y-110447619D01*
X141885714Y-110542857D01*
X141885714Y-110590476D01*
X141838095Y-110685714D01*
X141790476Y-110733333D01*
X141695238Y-110780952D01*
X141504761Y-110780952D01*
X141409523Y-110828571D01*
X141361904Y-110876190D01*
X141314285Y-110971428D01*
X141314285Y-111161904D01*
X141361904Y-111257142D01*
X141409523Y-111304761D01*
X141504761Y-111352380D01*
X141695238Y-111352380D01*
X141790476Y-111304761D01*
X141838095Y-111257142D01*
X141885714Y-111161904D01*
X141885714Y-110971428D01*
X141838095Y-110876190D01*
X141790476Y-110828571D01*
X141695238Y-110780952D01*
%TO.C,R7*%
X137683333Y-113952380D02*
X137350000Y-113476190D01*
X137111904Y-113952380D02*
X137111904Y-112952380D01*
X137492857Y-112952380D01*
X137588095Y-113000000D01*
X137635714Y-113047619D01*
X137683333Y-113142857D01*
X137683333Y-113285714D01*
X137635714Y-113380952D01*
X137588095Y-113428571D01*
X137492857Y-113476190D01*
X137111904Y-113476190D01*
X138016666Y-112952380D02*
X138683333Y-112952380D01*
X138254761Y-113952380D01*
%TO.C,R6*%
X130432380Y-89166666D02*
X129956190Y-89500000D01*
X130432380Y-89738095D02*
X129432380Y-89738095D01*
X129432380Y-89357142D01*
X129480000Y-89261904D01*
X129527619Y-89214285D01*
X129622857Y-89166666D01*
X129765714Y-89166666D01*
X129860952Y-89214285D01*
X129908571Y-89261904D01*
X129956190Y-89357142D01*
X129956190Y-89738095D01*
X129432380Y-88309523D02*
X129432380Y-88500000D01*
X129480000Y-88595238D01*
X129527619Y-88642857D01*
X129670476Y-88738095D01*
X129860952Y-88785714D01*
X130241904Y-88785714D01*
X130337142Y-88738095D01*
X130384761Y-88690476D01*
X130432380Y-88595238D01*
X130432380Y-88404761D01*
X130384761Y-88309523D01*
X130337142Y-88261904D01*
X130241904Y-88214285D01*
X130003809Y-88214285D01*
X129908571Y-88261904D01*
X129860952Y-88309523D01*
X129813333Y-88404761D01*
X129813333Y-88595238D01*
X129860952Y-88690476D01*
X129908571Y-88738095D01*
X130003809Y-88785714D01*
%TO.C,R5*%
X132052380Y-89166666D02*
X131576190Y-89500000D01*
X132052380Y-89738095D02*
X131052380Y-89738095D01*
X131052380Y-89357142D01*
X131100000Y-89261904D01*
X131147619Y-89214285D01*
X131242857Y-89166666D01*
X131385714Y-89166666D01*
X131480952Y-89214285D01*
X131528571Y-89261904D01*
X131576190Y-89357142D01*
X131576190Y-89738095D01*
X131052380Y-88261904D02*
X131052380Y-88738095D01*
X131528571Y-88785714D01*
X131480952Y-88738095D01*
X131433333Y-88642857D01*
X131433333Y-88404761D01*
X131480952Y-88309523D01*
X131528571Y-88261904D01*
X131623809Y-88214285D01*
X131861904Y-88214285D01*
X131957142Y-88261904D01*
X132004761Y-88309523D01*
X132052380Y-88404761D01*
X132052380Y-88642857D01*
X132004761Y-88738095D01*
X131957142Y-88785714D01*
%TO.C,R4*%
X132833333Y-85102380D02*
X132500000Y-84626190D01*
X132261904Y-85102380D02*
X132261904Y-84102380D01*
X132642857Y-84102380D01*
X132738095Y-84150000D01*
X132785714Y-84197619D01*
X132833333Y-84292857D01*
X132833333Y-84435714D01*
X132785714Y-84530952D01*
X132738095Y-84578571D01*
X132642857Y-84626190D01*
X132261904Y-84626190D01*
X133690476Y-84435714D02*
X133690476Y-85102380D01*
X133452380Y-84054761D02*
X133214285Y-84769047D01*
X133833333Y-84769047D01*
%TO.C,R3*%
X131533333Y-83652380D02*
X131200000Y-83176190D01*
X130961904Y-83652380D02*
X130961904Y-82652380D01*
X131342857Y-82652380D01*
X131438095Y-82700000D01*
X131485714Y-82747619D01*
X131533333Y-82842857D01*
X131533333Y-82985714D01*
X131485714Y-83080952D01*
X131438095Y-83128571D01*
X131342857Y-83176190D01*
X130961904Y-83176190D01*
X131866666Y-82652380D02*
X132485714Y-82652380D01*
X132152380Y-83033333D01*
X132295238Y-83033333D01*
X132390476Y-83080952D01*
X132438095Y-83128571D01*
X132485714Y-83223809D01*
X132485714Y-83461904D01*
X132438095Y-83557142D01*
X132390476Y-83604761D01*
X132295238Y-83652380D01*
X132009523Y-83652380D01*
X131914285Y-83604761D01*
X131866666Y-83557142D01*
%TO.C,R2*%
X137233333Y-83852380D02*
X136900000Y-83376190D01*
X136661904Y-83852380D02*
X136661904Y-82852380D01*
X137042857Y-82852380D01*
X137138095Y-82900000D01*
X137185714Y-82947619D01*
X137233333Y-83042857D01*
X137233333Y-83185714D01*
X137185714Y-83280952D01*
X137138095Y-83328571D01*
X137042857Y-83376190D01*
X136661904Y-83376190D01*
X137614285Y-82947619D02*
X137661904Y-82900000D01*
X137757142Y-82852380D01*
X137995238Y-82852380D01*
X138090476Y-82900000D01*
X138138095Y-82947619D01*
X138185714Y-83042857D01*
X138185714Y-83138095D01*
X138138095Y-83280952D01*
X137566666Y-83852380D01*
X138185714Y-83852380D01*
%TO.C,R1*%
X133403333Y-108342380D02*
X133070000Y-107866190D01*
X132831904Y-108342380D02*
X132831904Y-107342380D01*
X133212857Y-107342380D01*
X133308095Y-107390000D01*
X133355714Y-107437619D01*
X133403333Y-107532857D01*
X133403333Y-107675714D01*
X133355714Y-107770952D01*
X133308095Y-107818571D01*
X133212857Y-107866190D01*
X132831904Y-107866190D01*
X134355714Y-108342380D02*
X133784285Y-108342380D01*
X134070000Y-108342380D02*
X134070000Y-107342380D01*
X133974761Y-107485238D01*
X133879523Y-107580476D01*
X133784285Y-107628095D01*
%TO.C,Q1*%
X139104761Y-118047619D02*
X139009523Y-118000000D01*
X138914285Y-117904761D01*
X138771428Y-117761904D01*
X138676190Y-117714285D01*
X138580952Y-117714285D01*
X138628571Y-117952380D02*
X138533333Y-117904761D01*
X138438095Y-117809523D01*
X138390476Y-117619047D01*
X138390476Y-117285714D01*
X138438095Y-117095238D01*
X138533333Y-117000000D01*
X138628571Y-116952380D01*
X138819047Y-116952380D01*
X138914285Y-117000000D01*
X139009523Y-117095238D01*
X139057142Y-117285714D01*
X139057142Y-117619047D01*
X139009523Y-117809523D01*
X138914285Y-117904761D01*
X138819047Y-117952380D01*
X138628571Y-117952380D01*
X140009523Y-117952380D02*
X139438095Y-117952380D01*
X139723809Y-117952380D02*
X139723809Y-116952380D01*
X139628571Y-117095238D01*
X139533333Y-117190476D01*
X139438095Y-117238095D01*
%TO.C,JP1*%
X135966666Y-111352380D02*
X135966666Y-112066666D01*
X135919047Y-112209523D01*
X135823809Y-112304761D01*
X135680952Y-112352380D01*
X135585714Y-112352380D01*
X136442857Y-112352380D02*
X136442857Y-111352380D01*
X136823809Y-111352380D01*
X136919047Y-111400000D01*
X136966666Y-111447619D01*
X137014285Y-111542857D01*
X137014285Y-111685714D01*
X136966666Y-111780952D01*
X136919047Y-111828571D01*
X136823809Y-111876190D01*
X136442857Y-111876190D01*
X137966666Y-112352380D02*
X137395238Y-112352380D01*
X137680952Y-112352380D02*
X137680952Y-111352380D01*
X137585714Y-111495238D01*
X137490476Y-111590476D01*
X137395238Y-111638095D01*
%TO.C,J4*%
X142866666Y-72052380D02*
X142866666Y-72766666D01*
X142819047Y-72909523D01*
X142723809Y-73004761D01*
X142580952Y-73052380D01*
X142485714Y-73052380D01*
X143771428Y-72385714D02*
X143771428Y-73052380D01*
X143533333Y-72004761D02*
X143295238Y-72719047D01*
X143914285Y-72719047D01*
%TO.C,J3*%
X125766666Y-72152380D02*
X125766666Y-72866666D01*
X125719047Y-73009523D01*
X125623809Y-73104761D01*
X125480952Y-73152380D01*
X125385714Y-73152380D01*
X126147619Y-72152380D02*
X126766666Y-72152380D01*
X126433333Y-72533333D01*
X126576190Y-72533333D01*
X126671428Y-72580952D01*
X126719047Y-72628571D01*
X126766666Y-72723809D01*
X126766666Y-72961904D01*
X126719047Y-73057142D01*
X126671428Y-73104761D01*
X126576190Y-73152380D01*
X126290476Y-73152380D01*
X126195238Y-73104761D01*
X126147619Y-73057142D01*
%TO.C,J2*%
X140366666Y-75392380D02*
X140366666Y-76106666D01*
X140319047Y-76249523D01*
X140223809Y-76344761D01*
X140080952Y-76392380D01*
X139985714Y-76392380D01*
X140795238Y-75487619D02*
X140842857Y-75440000D01*
X140938095Y-75392380D01*
X141176190Y-75392380D01*
X141271428Y-75440000D01*
X141319047Y-75487619D01*
X141366666Y-75582857D01*
X141366666Y-75678095D01*
X141319047Y-75820952D01*
X140747619Y-76392380D01*
X141366666Y-76392380D01*
%TO.C,J1*%
X128316666Y-122002380D02*
X128316666Y-122716666D01*
X128269047Y-122859523D01*
X128173809Y-122954761D01*
X128030952Y-123002380D01*
X127935714Y-123002380D01*
X129316666Y-123002380D02*
X128745238Y-123002380D01*
X129030952Y-123002380D02*
X129030952Y-122002380D01*
X128935714Y-122145238D01*
X128840476Y-122240476D01*
X128745238Y-122288095D01*
%TO.C,F1*%
X128616666Y-79378571D02*
X128283333Y-79378571D01*
X128283333Y-79902380D02*
X128283333Y-78902380D01*
X128759523Y-78902380D01*
X129664285Y-79902380D02*
X129092857Y-79902380D01*
X129378571Y-79902380D02*
X129378571Y-78902380D01*
X129283333Y-79045238D01*
X129188095Y-79140476D01*
X129092857Y-79188095D01*
%TO.C,C12*%
X127957142Y-93857142D02*
X127909523Y-93904761D01*
X127766666Y-93952380D01*
X127671428Y-93952380D01*
X127528571Y-93904761D01*
X127433333Y-93809523D01*
X127385714Y-93714285D01*
X127338095Y-93523809D01*
X127338095Y-93380952D01*
X127385714Y-93190476D01*
X127433333Y-93095238D01*
X127528571Y-93000000D01*
X127671428Y-92952380D01*
X127766666Y-92952380D01*
X127909523Y-93000000D01*
X127957142Y-93047619D01*
X128909523Y-93952380D02*
X128338095Y-93952380D01*
X128623809Y-93952380D02*
X128623809Y-92952380D01*
X128528571Y-93095238D01*
X128433333Y-93190476D01*
X128338095Y-93238095D01*
X129290476Y-93047619D02*
X129338095Y-93000000D01*
X129433333Y-92952380D01*
X129671428Y-92952380D01*
X129766666Y-93000000D01*
X129814285Y-93047619D01*
X129861904Y-93142857D01*
X129861904Y-93238095D01*
X129814285Y-93380952D01*
X129242857Y-93952380D01*
X129861904Y-93952380D01*
%TO.C,C11*%
X138557142Y-104857142D02*
X138509523Y-104904761D01*
X138366666Y-104952380D01*
X138271428Y-104952380D01*
X138128571Y-104904761D01*
X138033333Y-104809523D01*
X137985714Y-104714285D01*
X137938095Y-104523809D01*
X137938095Y-104380952D01*
X137985714Y-104190476D01*
X138033333Y-104095238D01*
X138128571Y-104000000D01*
X138271428Y-103952380D01*
X138366666Y-103952380D01*
X138509523Y-104000000D01*
X138557142Y-104047619D01*
X139509523Y-104952380D02*
X138938095Y-104952380D01*
X139223809Y-104952380D02*
X139223809Y-103952380D01*
X139128571Y-104095238D01*
X139033333Y-104190476D01*
X138938095Y-104238095D01*
X140461904Y-104952380D02*
X139890476Y-104952380D01*
X140176190Y-104952380D02*
X140176190Y-103952380D01*
X140080952Y-104095238D01*
X139985714Y-104190476D01*
X139890476Y-104238095D01*
%TO.C,C10*%
X128457142Y-95357142D02*
X128409523Y-95404761D01*
X128266666Y-95452380D01*
X128171428Y-95452380D01*
X128028571Y-95404761D01*
X127933333Y-95309523D01*
X127885714Y-95214285D01*
X127838095Y-95023809D01*
X127838095Y-94880952D01*
X127885714Y-94690476D01*
X127933333Y-94595238D01*
X128028571Y-94500000D01*
X128171428Y-94452380D01*
X128266666Y-94452380D01*
X128409523Y-94500000D01*
X128457142Y-94547619D01*
X129409523Y-95452380D02*
X128838095Y-95452380D01*
X129123809Y-95452380D02*
X129123809Y-94452380D01*
X129028571Y-94595238D01*
X128933333Y-94690476D01*
X128838095Y-94738095D01*
X130028571Y-94452380D02*
X130123809Y-94452380D01*
X130219047Y-94500000D01*
X130266666Y-94547619D01*
X130314285Y-94642857D01*
X130361904Y-94833333D01*
X130361904Y-95071428D01*
X130314285Y-95261904D01*
X130266666Y-95357142D01*
X130219047Y-95404761D01*
X130123809Y-95452380D01*
X130028571Y-95452380D01*
X129933333Y-95404761D01*
X129885714Y-95357142D01*
X129838095Y-95261904D01*
X129790476Y-95071428D01*
X129790476Y-94833333D01*
X129838095Y-94642857D01*
X129885714Y-94547619D01*
X129933333Y-94500000D01*
X130028571Y-94452380D01*
%TO.C,C9*%
X141827142Y-97566666D02*
X141874761Y-97614285D01*
X141922380Y-97757142D01*
X141922380Y-97852380D01*
X141874761Y-97995238D01*
X141779523Y-98090476D01*
X141684285Y-98138095D01*
X141493809Y-98185714D01*
X141350952Y-98185714D01*
X141160476Y-98138095D01*
X141065238Y-98090476D01*
X140970000Y-97995238D01*
X140922380Y-97852380D01*
X140922380Y-97757142D01*
X140970000Y-97614285D01*
X141017619Y-97566666D01*
X141922380Y-97090476D02*
X141922380Y-96900000D01*
X141874761Y-96804761D01*
X141827142Y-96757142D01*
X141684285Y-96661904D01*
X141493809Y-96614285D01*
X141112857Y-96614285D01*
X141017619Y-96661904D01*
X140970000Y-96709523D01*
X140922380Y-96804761D01*
X140922380Y-96995238D01*
X140970000Y-97090476D01*
X141017619Y-97138095D01*
X141112857Y-97185714D01*
X141350952Y-97185714D01*
X141446190Y-97138095D01*
X141493809Y-97090476D01*
X141541428Y-96995238D01*
X141541428Y-96804761D01*
X141493809Y-96709523D01*
X141446190Y-96661904D01*
X141350952Y-96614285D01*
%TO.C,C8*%
X129733333Y-103527142D02*
X129685714Y-103574761D01*
X129542857Y-103622380D01*
X129447619Y-103622380D01*
X129304761Y-103574761D01*
X129209523Y-103479523D01*
X129161904Y-103384285D01*
X129114285Y-103193809D01*
X129114285Y-103050952D01*
X129161904Y-102860476D01*
X129209523Y-102765238D01*
X129304761Y-102670000D01*
X129447619Y-102622380D01*
X129542857Y-102622380D01*
X129685714Y-102670000D01*
X129733333Y-102717619D01*
X130304761Y-103050952D02*
X130209523Y-103003333D01*
X130161904Y-102955714D01*
X130114285Y-102860476D01*
X130114285Y-102812857D01*
X130161904Y-102717619D01*
X130209523Y-102670000D01*
X130304761Y-102622380D01*
X130495238Y-102622380D01*
X130590476Y-102670000D01*
X130638095Y-102717619D01*
X130685714Y-102812857D01*
X130685714Y-102860476D01*
X130638095Y-102955714D01*
X130590476Y-103003333D01*
X130495238Y-103050952D01*
X130304761Y-103050952D01*
X130209523Y-103098571D01*
X130161904Y-103146190D01*
X130114285Y-103241428D01*
X130114285Y-103431904D01*
X130161904Y-103527142D01*
X130209523Y-103574761D01*
X130304761Y-103622380D01*
X130495238Y-103622380D01*
X130590476Y-103574761D01*
X130638095Y-103527142D01*
X130685714Y-103431904D01*
X130685714Y-103241428D01*
X130638095Y-103146190D01*
X130590476Y-103098571D01*
X130495238Y-103050952D01*
%TO.C,C7*%
X141033333Y-101957142D02*
X140985714Y-102004761D01*
X140842857Y-102052380D01*
X140747619Y-102052380D01*
X140604761Y-102004761D01*
X140509523Y-101909523D01*
X140461904Y-101814285D01*
X140414285Y-101623809D01*
X140414285Y-101480952D01*
X140461904Y-101290476D01*
X140509523Y-101195238D01*
X140604761Y-101100000D01*
X140747619Y-101052380D01*
X140842857Y-101052380D01*
X140985714Y-101100000D01*
X141033333Y-101147619D01*
X141366666Y-101052380D02*
X142033333Y-101052380D01*
X141604761Y-102052380D01*
%TO.C,C6*%
X140833333Y-93857142D02*
X140785714Y-93904761D01*
X140642857Y-93952380D01*
X140547619Y-93952380D01*
X140404761Y-93904761D01*
X140309523Y-93809523D01*
X140261904Y-93714285D01*
X140214285Y-93523809D01*
X140214285Y-93380952D01*
X140261904Y-93190476D01*
X140309523Y-93095238D01*
X140404761Y-93000000D01*
X140547619Y-92952380D01*
X140642857Y-92952380D01*
X140785714Y-93000000D01*
X140833333Y-93047619D01*
X141690476Y-92952380D02*
X141500000Y-92952380D01*
X141404761Y-93000000D01*
X141357142Y-93047619D01*
X141261904Y-93190476D01*
X141214285Y-93380952D01*
X141214285Y-93761904D01*
X141261904Y-93857142D01*
X141309523Y-93904761D01*
X141404761Y-93952380D01*
X141595238Y-93952380D01*
X141690476Y-93904761D01*
X141738095Y-93857142D01*
X141785714Y-93761904D01*
X141785714Y-93523809D01*
X141738095Y-93428571D01*
X141690476Y-93380952D01*
X141595238Y-93333333D01*
X141404761Y-93333333D01*
X141309523Y-93380952D01*
X141261904Y-93428571D01*
X141214285Y-93523809D01*
%TO.C,C5*%
X130833333Y-92157142D02*
X130785714Y-92204761D01*
X130642857Y-92252380D01*
X130547619Y-92252380D01*
X130404761Y-92204761D01*
X130309523Y-92109523D01*
X130261904Y-92014285D01*
X130214285Y-91823809D01*
X130214285Y-91680952D01*
X130261904Y-91490476D01*
X130309523Y-91395238D01*
X130404761Y-91300000D01*
X130547619Y-91252380D01*
X130642857Y-91252380D01*
X130785714Y-91300000D01*
X130833333Y-91347619D01*
X131738095Y-91252380D02*
X131261904Y-91252380D01*
X131214285Y-91728571D01*
X131261904Y-91680952D01*
X131357142Y-91633333D01*
X131595238Y-91633333D01*
X131690476Y-91680952D01*
X131738095Y-91728571D01*
X131785714Y-91823809D01*
X131785714Y-92061904D01*
X131738095Y-92157142D01*
X131690476Y-92204761D01*
X131595238Y-92252380D01*
X131357142Y-92252380D01*
X131261904Y-92204761D01*
X131214285Y-92157142D01*
%TO.C,C4*%
X141033333Y-86957142D02*
X140985714Y-87004761D01*
X140842857Y-87052380D01*
X140747619Y-87052380D01*
X140604761Y-87004761D01*
X140509523Y-86909523D01*
X140461904Y-86814285D01*
X140414285Y-86623809D01*
X140414285Y-86480952D01*
X140461904Y-86290476D01*
X140509523Y-86195238D01*
X140604761Y-86100000D01*
X140747619Y-86052380D01*
X140842857Y-86052380D01*
X140985714Y-86100000D01*
X141033333Y-86147619D01*
X141890476Y-86385714D02*
X141890476Y-87052380D01*
X141652380Y-86004761D02*
X141414285Y-86719047D01*
X142033333Y-86719047D01*
%TO.C,C3*%
X141833333Y-83357142D02*
X141785714Y-83404761D01*
X141642857Y-83452380D01*
X141547619Y-83452380D01*
X141404761Y-83404761D01*
X141309523Y-83309523D01*
X141261904Y-83214285D01*
X141214285Y-83023809D01*
X141214285Y-82880952D01*
X141261904Y-82690476D01*
X141309523Y-82595238D01*
X141404761Y-82500000D01*
X141547619Y-82452380D01*
X141642857Y-82452380D01*
X141785714Y-82500000D01*
X141833333Y-82547619D01*
X142166666Y-82452380D02*
X142785714Y-82452380D01*
X142452380Y-82833333D01*
X142595238Y-82833333D01*
X142690476Y-82880952D01*
X142738095Y-82928571D01*
X142785714Y-83023809D01*
X142785714Y-83261904D01*
X142738095Y-83357142D01*
X142690476Y-83404761D01*
X142595238Y-83452380D01*
X142309523Y-83452380D01*
X142214285Y-83404761D01*
X142166666Y-83357142D01*
%TO.C,C2*%
X140433333Y-79507142D02*
X140385714Y-79554761D01*
X140242857Y-79602380D01*
X140147619Y-79602380D01*
X140004761Y-79554761D01*
X139909523Y-79459523D01*
X139861904Y-79364285D01*
X139814285Y-79173809D01*
X139814285Y-79030952D01*
X139861904Y-78840476D01*
X139909523Y-78745238D01*
X140004761Y-78650000D01*
X140147619Y-78602380D01*
X140242857Y-78602380D01*
X140385714Y-78650000D01*
X140433333Y-78697619D01*
X140814285Y-78697619D02*
X140861904Y-78650000D01*
X140957142Y-78602380D01*
X141195238Y-78602380D01*
X141290476Y-78650000D01*
X141338095Y-78697619D01*
X141385714Y-78792857D01*
X141385714Y-78888095D01*
X141338095Y-79030952D01*
X140766666Y-79602380D01*
X141385714Y-79602380D01*
%TO.C,C1*%
X134333333Y-114357142D02*
X134285714Y-114404761D01*
X134142857Y-114452380D01*
X134047619Y-114452380D01*
X133904761Y-114404761D01*
X133809523Y-114309523D01*
X133761904Y-114214285D01*
X133714285Y-114023809D01*
X133714285Y-113880952D01*
X133761904Y-113690476D01*
X133809523Y-113595238D01*
X133904761Y-113500000D01*
X134047619Y-113452380D01*
X134142857Y-113452380D01*
X134285714Y-113500000D01*
X134333333Y-113547619D01*
X135285714Y-114452380D02*
X134714285Y-114452380D01*
X135000000Y-114452380D02*
X135000000Y-113452380D01*
X134904761Y-113595238D01*
X134809523Y-113690476D01*
X134714285Y-113738095D01*
%TD*%
M02*
