%TF.GenerationSoftware,KiCad,Pcbnew,(5.1.6)-1*%
%TF.CreationDate,2021-08-28T00:22:51-07:00*%
%TF.ProjectId,Rocketboard-Engine,526f636b-6574-4626-9f61-72642d456e67,1.0*%
%TF.SameCoordinates,Original*%
%TF.FileFunction,Copper,L1,Top*%
%TF.FilePolarity,Positive*%
%FSLAX46Y46*%
G04 Gerber Fmt 4.6, Leading zero omitted, Abs format (unit mm)*
G04 Created by KiCad (PCBNEW (5.1.6)-1) date 2021-08-28 00:22:51*
%MOMM*%
%LPD*%
G01*
G04 APERTURE LIST*
%TA.AperFunction,EtchedComponent*%
%ADD10C,0.100000*%
%TD*%
%TA.AperFunction,SMDPad,CuDef*%
%ADD11R,1.500000X2.000000*%
%TD*%
%TA.AperFunction,SMDPad,CuDef*%
%ADD12R,3.800000X2.000000*%
%TD*%
%TA.AperFunction,SMDPad,CuDef*%
%ADD13R,0.650000X1.060000*%
%TD*%
%TA.AperFunction,SMDPad,CuDef*%
%ADD14R,1.000000X1.500000*%
%TD*%
%TA.AperFunction,SMDPad,CuDef*%
%ADD15R,0.900000X0.800000*%
%TD*%
%TA.AperFunction,ComponentPad*%
%ADD16O,1.700000X1.700000*%
%TD*%
%TA.AperFunction,ComponentPad*%
%ADD17R,1.700000X1.700000*%
%TD*%
%TA.AperFunction,SMDPad,CuDef*%
%ADD18R,0.600000X1.160000*%
%TD*%
%TA.AperFunction,SMDPad,CuDef*%
%ADD19R,0.300000X1.160000*%
%TD*%
%TA.AperFunction,ComponentPad*%
%ADD20O,0.900000X1.700000*%
%TD*%
%TA.AperFunction,ComponentPad*%
%ADD21O,0.900000X2.000000*%
%TD*%
%TA.AperFunction,ViaPad*%
%ADD22C,0.600000*%
%TD*%
%TA.AperFunction,Conductor*%
%ADD23C,0.160000*%
%TD*%
%TA.AperFunction,Conductor*%
%ADD24C,0.250000*%
%TD*%
%TA.AperFunction,Conductor*%
%ADD25C,0.254000*%
%TD*%
G04 APERTURE END LIST*
D10*
%TO.C,JP1*%
G36*
X135920000Y-109640000D02*
G01*
X136420000Y-109640000D01*
X136420000Y-110240000D01*
X135920000Y-110240000D01*
X135920000Y-109640000D01*
G37*
%TD*%
%TO.P,IC1,48*%
%TO.N,+3V3*%
%TA.AperFunction,SMDPad,CuDef*%
G36*
G01*
X137500000Y-101875000D02*
X137500000Y-103200000D01*
G75*
G02*
X137425000Y-103275000I-75000J0D01*
G01*
X137275000Y-103275000D01*
G75*
G02*
X137200000Y-103200000I0J75000D01*
G01*
X137200000Y-101875000D01*
G75*
G02*
X137275000Y-101800000I75000J0D01*
G01*
X137425000Y-101800000D01*
G75*
G02*
X137500000Y-101875000I0J-75000D01*
G01*
G37*
%TD.AperFunction*%
%TO.P,IC1,47*%
%TO.N,GND*%
%TA.AperFunction,SMDPad,CuDef*%
G36*
G01*
X137000000Y-101875000D02*
X137000000Y-103200000D01*
G75*
G02*
X136925000Y-103275000I-75000J0D01*
G01*
X136775000Y-103275000D01*
G75*
G02*
X136700000Y-103200000I0J75000D01*
G01*
X136700000Y-101875000D01*
G75*
G02*
X136775000Y-101800000I75000J0D01*
G01*
X136925000Y-101800000D01*
G75*
G02*
X137000000Y-101875000I0J-75000D01*
G01*
G37*
%TD.AperFunction*%
%TO.P,IC1,46*%
%TO.N,/PB9*%
%TA.AperFunction,SMDPad,CuDef*%
G36*
G01*
X136500000Y-101875000D02*
X136500000Y-103200000D01*
G75*
G02*
X136425000Y-103275000I-75000J0D01*
G01*
X136275000Y-103275000D01*
G75*
G02*
X136200000Y-103200000I0J75000D01*
G01*
X136200000Y-101875000D01*
G75*
G02*
X136275000Y-101800000I75000J0D01*
G01*
X136425000Y-101800000D01*
G75*
G02*
X136500000Y-101875000I0J-75000D01*
G01*
G37*
%TD.AperFunction*%
%TO.P,IC1,45*%
%TO.N,/PB8*%
%TA.AperFunction,SMDPad,CuDef*%
G36*
G01*
X136000000Y-101875000D02*
X136000000Y-103200000D01*
G75*
G02*
X135925000Y-103275000I-75000J0D01*
G01*
X135775000Y-103275000D01*
G75*
G02*
X135700000Y-103200000I0J75000D01*
G01*
X135700000Y-101875000D01*
G75*
G02*
X135775000Y-101800000I75000J0D01*
G01*
X135925000Y-101800000D01*
G75*
G02*
X136000000Y-101875000I0J-75000D01*
G01*
G37*
%TD.AperFunction*%
%TO.P,IC1,44*%
%TO.N,/BOOT0*%
%TA.AperFunction,SMDPad,CuDef*%
G36*
G01*
X135500000Y-101875000D02*
X135500000Y-103200000D01*
G75*
G02*
X135425000Y-103275000I-75000J0D01*
G01*
X135275000Y-103275000D01*
G75*
G02*
X135200000Y-103200000I0J75000D01*
G01*
X135200000Y-101875000D01*
G75*
G02*
X135275000Y-101800000I75000J0D01*
G01*
X135425000Y-101800000D01*
G75*
G02*
X135500000Y-101875000I0J-75000D01*
G01*
G37*
%TD.AperFunction*%
%TO.P,IC1,43*%
%TO.N,/PB7_I2C1_SDA*%
%TA.AperFunction,SMDPad,CuDef*%
G36*
G01*
X135000000Y-101875000D02*
X135000000Y-103200000D01*
G75*
G02*
X134925000Y-103275000I-75000J0D01*
G01*
X134775000Y-103275000D01*
G75*
G02*
X134700000Y-103200000I0J75000D01*
G01*
X134700000Y-101875000D01*
G75*
G02*
X134775000Y-101800000I75000J0D01*
G01*
X134925000Y-101800000D01*
G75*
G02*
X135000000Y-101875000I0J-75000D01*
G01*
G37*
%TD.AperFunction*%
%TO.P,IC1,42*%
%TO.N,/PB6_I2C1_SCL*%
%TA.AperFunction,SMDPad,CuDef*%
G36*
G01*
X134500000Y-101875000D02*
X134500000Y-103200000D01*
G75*
G02*
X134425000Y-103275000I-75000J0D01*
G01*
X134275000Y-103275000D01*
G75*
G02*
X134200000Y-103200000I0J75000D01*
G01*
X134200000Y-101875000D01*
G75*
G02*
X134275000Y-101800000I75000J0D01*
G01*
X134425000Y-101800000D01*
G75*
G02*
X134500000Y-101875000I0J-75000D01*
G01*
G37*
%TD.AperFunction*%
%TO.P,IC1,41*%
%TO.N,/PB5*%
%TA.AperFunction,SMDPad,CuDef*%
G36*
G01*
X134000000Y-101875000D02*
X134000000Y-103200000D01*
G75*
G02*
X133925000Y-103275000I-75000J0D01*
G01*
X133775000Y-103275000D01*
G75*
G02*
X133700000Y-103200000I0J75000D01*
G01*
X133700000Y-101875000D01*
G75*
G02*
X133775000Y-101800000I75000J0D01*
G01*
X133925000Y-101800000D01*
G75*
G02*
X134000000Y-101875000I0J-75000D01*
G01*
G37*
%TD.AperFunction*%
%TO.P,IC1,40*%
%TO.N,/PB4*%
%TA.AperFunction,SMDPad,CuDef*%
G36*
G01*
X133500000Y-101875000D02*
X133500000Y-103200000D01*
G75*
G02*
X133425000Y-103275000I-75000J0D01*
G01*
X133275000Y-103275000D01*
G75*
G02*
X133200000Y-103200000I0J75000D01*
G01*
X133200000Y-101875000D01*
G75*
G02*
X133275000Y-101800000I75000J0D01*
G01*
X133425000Y-101800000D01*
G75*
G02*
X133500000Y-101875000I0J-75000D01*
G01*
G37*
%TD.AperFunction*%
%TO.P,IC1,39*%
%TO.N,/PB3*%
%TA.AperFunction,SMDPad,CuDef*%
G36*
G01*
X133000000Y-101875000D02*
X133000000Y-103200000D01*
G75*
G02*
X132925000Y-103275000I-75000J0D01*
G01*
X132775000Y-103275000D01*
G75*
G02*
X132700000Y-103200000I0J75000D01*
G01*
X132700000Y-101875000D01*
G75*
G02*
X132775000Y-101800000I75000J0D01*
G01*
X132925000Y-101800000D01*
G75*
G02*
X133000000Y-101875000I0J-75000D01*
G01*
G37*
%TD.AperFunction*%
%TO.P,IC1,38*%
%TO.N,/PA15*%
%TA.AperFunction,SMDPad,CuDef*%
G36*
G01*
X132500000Y-101875000D02*
X132500000Y-103200000D01*
G75*
G02*
X132425000Y-103275000I-75000J0D01*
G01*
X132275000Y-103275000D01*
G75*
G02*
X132200000Y-103200000I0J75000D01*
G01*
X132200000Y-101875000D01*
G75*
G02*
X132275000Y-101800000I75000J0D01*
G01*
X132425000Y-101800000D01*
G75*
G02*
X132500000Y-101875000I0J-75000D01*
G01*
G37*
%TD.AperFunction*%
%TO.P,IC1,37*%
%TO.N,/PA14_SWCLK*%
%TA.AperFunction,SMDPad,CuDef*%
G36*
G01*
X132000000Y-101875000D02*
X132000000Y-103200000D01*
G75*
G02*
X131925000Y-103275000I-75000J0D01*
G01*
X131775000Y-103275000D01*
G75*
G02*
X131700000Y-103200000I0J75000D01*
G01*
X131700000Y-101875000D01*
G75*
G02*
X131775000Y-101800000I75000J0D01*
G01*
X131925000Y-101800000D01*
G75*
G02*
X132000000Y-101875000I0J-75000D01*
G01*
G37*
%TD.AperFunction*%
%TO.P,IC1,36*%
%TO.N,+3V3*%
%TA.AperFunction,SMDPad,CuDef*%
G36*
G01*
X131175000Y-101050000D02*
X131175000Y-101200000D01*
G75*
G02*
X131100000Y-101275000I-75000J0D01*
G01*
X129775000Y-101275000D01*
G75*
G02*
X129700000Y-101200000I0J75000D01*
G01*
X129700000Y-101050000D01*
G75*
G02*
X129775000Y-100975000I75000J0D01*
G01*
X131100000Y-100975000D01*
G75*
G02*
X131175000Y-101050000I0J-75000D01*
G01*
G37*
%TD.AperFunction*%
%TO.P,IC1,35*%
%TO.N,GND*%
%TA.AperFunction,SMDPad,CuDef*%
G36*
G01*
X131175000Y-100550000D02*
X131175000Y-100700000D01*
G75*
G02*
X131100000Y-100775000I-75000J0D01*
G01*
X129775000Y-100775000D01*
G75*
G02*
X129700000Y-100700000I0J75000D01*
G01*
X129700000Y-100550000D01*
G75*
G02*
X129775000Y-100475000I75000J0D01*
G01*
X131100000Y-100475000D01*
G75*
G02*
X131175000Y-100550000I0J-75000D01*
G01*
G37*
%TD.AperFunction*%
%TO.P,IC1,34*%
%TO.N,/PA13_SWDIO*%
%TA.AperFunction,SMDPad,CuDef*%
G36*
G01*
X131175000Y-100050000D02*
X131175000Y-100200000D01*
G75*
G02*
X131100000Y-100275000I-75000J0D01*
G01*
X129775000Y-100275000D01*
G75*
G02*
X129700000Y-100200000I0J75000D01*
G01*
X129700000Y-100050000D01*
G75*
G02*
X129775000Y-99975000I75000J0D01*
G01*
X131100000Y-99975000D01*
G75*
G02*
X131175000Y-100050000I0J-75000D01*
G01*
G37*
%TD.AperFunction*%
%TO.P,IC1,33*%
%TO.N,/USB_D+*%
%TA.AperFunction,SMDPad,CuDef*%
G36*
G01*
X131175000Y-99550000D02*
X131175000Y-99700000D01*
G75*
G02*
X131100000Y-99775000I-75000J0D01*
G01*
X129775000Y-99775000D01*
G75*
G02*
X129700000Y-99700000I0J75000D01*
G01*
X129700000Y-99550000D01*
G75*
G02*
X129775000Y-99475000I75000J0D01*
G01*
X131100000Y-99475000D01*
G75*
G02*
X131175000Y-99550000I0J-75000D01*
G01*
G37*
%TD.AperFunction*%
%TO.P,IC1,32*%
%TO.N,/USB_D-*%
%TA.AperFunction,SMDPad,CuDef*%
G36*
G01*
X131175000Y-99050000D02*
X131175000Y-99200000D01*
G75*
G02*
X131100000Y-99275000I-75000J0D01*
G01*
X129775000Y-99275000D01*
G75*
G02*
X129700000Y-99200000I0J75000D01*
G01*
X129700000Y-99050000D01*
G75*
G02*
X129775000Y-98975000I75000J0D01*
G01*
X131100000Y-98975000D01*
G75*
G02*
X131175000Y-99050000I0J-75000D01*
G01*
G37*
%TD.AperFunction*%
%TO.P,IC1,31*%
%TO.N,/PA10_RX*%
%TA.AperFunction,SMDPad,CuDef*%
G36*
G01*
X131175000Y-98550000D02*
X131175000Y-98700000D01*
G75*
G02*
X131100000Y-98775000I-75000J0D01*
G01*
X129775000Y-98775000D01*
G75*
G02*
X129700000Y-98700000I0J75000D01*
G01*
X129700000Y-98550000D01*
G75*
G02*
X129775000Y-98475000I75000J0D01*
G01*
X131100000Y-98475000D01*
G75*
G02*
X131175000Y-98550000I0J-75000D01*
G01*
G37*
%TD.AperFunction*%
%TO.P,IC1,30*%
%TO.N,/PA9_TX*%
%TA.AperFunction,SMDPad,CuDef*%
G36*
G01*
X131175000Y-98050000D02*
X131175000Y-98200000D01*
G75*
G02*
X131100000Y-98275000I-75000J0D01*
G01*
X129775000Y-98275000D01*
G75*
G02*
X129700000Y-98200000I0J75000D01*
G01*
X129700000Y-98050000D01*
G75*
G02*
X129775000Y-97975000I75000J0D01*
G01*
X131100000Y-97975000D01*
G75*
G02*
X131175000Y-98050000I0J-75000D01*
G01*
G37*
%TD.AperFunction*%
%TO.P,IC1,29*%
%TO.N,/PA8*%
%TA.AperFunction,SMDPad,CuDef*%
G36*
G01*
X131175000Y-97550000D02*
X131175000Y-97700000D01*
G75*
G02*
X131100000Y-97775000I-75000J0D01*
G01*
X129775000Y-97775000D01*
G75*
G02*
X129700000Y-97700000I0J75000D01*
G01*
X129700000Y-97550000D01*
G75*
G02*
X129775000Y-97475000I75000J0D01*
G01*
X131100000Y-97475000D01*
G75*
G02*
X131175000Y-97550000I0J-75000D01*
G01*
G37*
%TD.AperFunction*%
%TO.P,IC1,28*%
%TO.N,/PB15*%
%TA.AperFunction,SMDPad,CuDef*%
G36*
G01*
X131175000Y-97050000D02*
X131175000Y-97200000D01*
G75*
G02*
X131100000Y-97275000I-75000J0D01*
G01*
X129775000Y-97275000D01*
G75*
G02*
X129700000Y-97200000I0J75000D01*
G01*
X129700000Y-97050000D01*
G75*
G02*
X129775000Y-96975000I75000J0D01*
G01*
X131100000Y-96975000D01*
G75*
G02*
X131175000Y-97050000I0J-75000D01*
G01*
G37*
%TD.AperFunction*%
%TO.P,IC1,27*%
%TO.N,/PB14*%
%TA.AperFunction,SMDPad,CuDef*%
G36*
G01*
X131175000Y-96550000D02*
X131175000Y-96700000D01*
G75*
G02*
X131100000Y-96775000I-75000J0D01*
G01*
X129775000Y-96775000D01*
G75*
G02*
X129700000Y-96700000I0J75000D01*
G01*
X129700000Y-96550000D01*
G75*
G02*
X129775000Y-96475000I75000J0D01*
G01*
X131100000Y-96475000D01*
G75*
G02*
X131175000Y-96550000I0J-75000D01*
G01*
G37*
%TD.AperFunction*%
%TO.P,IC1,26*%
%TO.N,/PB13*%
%TA.AperFunction,SMDPad,CuDef*%
G36*
G01*
X131175000Y-96050000D02*
X131175000Y-96200000D01*
G75*
G02*
X131100000Y-96275000I-75000J0D01*
G01*
X129775000Y-96275000D01*
G75*
G02*
X129700000Y-96200000I0J75000D01*
G01*
X129700000Y-96050000D01*
G75*
G02*
X129775000Y-95975000I75000J0D01*
G01*
X131100000Y-95975000D01*
G75*
G02*
X131175000Y-96050000I0J-75000D01*
G01*
G37*
%TD.AperFunction*%
%TO.P,IC1,25*%
%TO.N,/PB12*%
%TA.AperFunction,SMDPad,CuDef*%
G36*
G01*
X131175000Y-95550000D02*
X131175000Y-95700000D01*
G75*
G02*
X131100000Y-95775000I-75000J0D01*
G01*
X129775000Y-95775000D01*
G75*
G02*
X129700000Y-95700000I0J75000D01*
G01*
X129700000Y-95550000D01*
G75*
G02*
X129775000Y-95475000I75000J0D01*
G01*
X131100000Y-95475000D01*
G75*
G02*
X131175000Y-95550000I0J-75000D01*
G01*
G37*
%TD.AperFunction*%
%TO.P,IC1,24*%
%TO.N,+3V3*%
%TA.AperFunction,SMDPad,CuDef*%
G36*
G01*
X132000000Y-93550000D02*
X132000000Y-94875000D01*
G75*
G02*
X131925000Y-94950000I-75000J0D01*
G01*
X131775000Y-94950000D01*
G75*
G02*
X131700000Y-94875000I0J75000D01*
G01*
X131700000Y-93550000D01*
G75*
G02*
X131775000Y-93475000I75000J0D01*
G01*
X131925000Y-93475000D01*
G75*
G02*
X132000000Y-93550000I0J-75000D01*
G01*
G37*
%TD.AperFunction*%
%TO.P,IC1,23*%
%TO.N,GND*%
%TA.AperFunction,SMDPad,CuDef*%
G36*
G01*
X132500000Y-93550000D02*
X132500000Y-94875000D01*
G75*
G02*
X132425000Y-94950000I-75000J0D01*
G01*
X132275000Y-94950000D01*
G75*
G02*
X132200000Y-94875000I0J75000D01*
G01*
X132200000Y-93550000D01*
G75*
G02*
X132275000Y-93475000I75000J0D01*
G01*
X132425000Y-93475000D01*
G75*
G02*
X132500000Y-93550000I0J-75000D01*
G01*
G37*
%TD.AperFunction*%
%TO.P,IC1,22*%
%TO.N,/PB11_I2C2_SDA*%
%TA.AperFunction,SMDPad,CuDef*%
G36*
G01*
X133000000Y-93550000D02*
X133000000Y-94875000D01*
G75*
G02*
X132925000Y-94950000I-75000J0D01*
G01*
X132775000Y-94950000D01*
G75*
G02*
X132700000Y-94875000I0J75000D01*
G01*
X132700000Y-93550000D01*
G75*
G02*
X132775000Y-93475000I75000J0D01*
G01*
X132925000Y-93475000D01*
G75*
G02*
X133000000Y-93550000I0J-75000D01*
G01*
G37*
%TD.AperFunction*%
%TO.P,IC1,21*%
%TO.N,/PB10_I2C2_SCL*%
%TA.AperFunction,SMDPad,CuDef*%
G36*
G01*
X133500000Y-93550000D02*
X133500000Y-94875000D01*
G75*
G02*
X133425000Y-94950000I-75000J0D01*
G01*
X133275000Y-94950000D01*
G75*
G02*
X133200000Y-94875000I0J75000D01*
G01*
X133200000Y-93550000D01*
G75*
G02*
X133275000Y-93475000I75000J0D01*
G01*
X133425000Y-93475000D01*
G75*
G02*
X133500000Y-93550000I0J-75000D01*
G01*
G37*
%TD.AperFunction*%
%TO.P,IC1,20*%
%TO.N,/PB2*%
%TA.AperFunction,SMDPad,CuDef*%
G36*
G01*
X134000000Y-93550000D02*
X134000000Y-94875000D01*
G75*
G02*
X133925000Y-94950000I-75000J0D01*
G01*
X133775000Y-94950000D01*
G75*
G02*
X133700000Y-94875000I0J75000D01*
G01*
X133700000Y-93550000D01*
G75*
G02*
X133775000Y-93475000I75000J0D01*
G01*
X133925000Y-93475000D01*
G75*
G02*
X134000000Y-93550000I0J-75000D01*
G01*
G37*
%TD.AperFunction*%
%TO.P,IC1,19*%
%TO.N,/PB1*%
%TA.AperFunction,SMDPad,CuDef*%
G36*
G01*
X134500000Y-93550000D02*
X134500000Y-94875000D01*
G75*
G02*
X134425000Y-94950000I-75000J0D01*
G01*
X134275000Y-94950000D01*
G75*
G02*
X134200000Y-94875000I0J75000D01*
G01*
X134200000Y-93550000D01*
G75*
G02*
X134275000Y-93475000I75000J0D01*
G01*
X134425000Y-93475000D01*
G75*
G02*
X134500000Y-93550000I0J-75000D01*
G01*
G37*
%TD.AperFunction*%
%TO.P,IC1,18*%
%TO.N,/PB0*%
%TA.AperFunction,SMDPad,CuDef*%
G36*
G01*
X135000000Y-93550000D02*
X135000000Y-94875000D01*
G75*
G02*
X134925000Y-94950000I-75000J0D01*
G01*
X134775000Y-94950000D01*
G75*
G02*
X134700000Y-94875000I0J75000D01*
G01*
X134700000Y-93550000D01*
G75*
G02*
X134775000Y-93475000I75000J0D01*
G01*
X134925000Y-93475000D01*
G75*
G02*
X135000000Y-93550000I0J-75000D01*
G01*
G37*
%TD.AperFunction*%
%TO.P,IC1,17*%
%TO.N,/PA7_SPI1_MOSI*%
%TA.AperFunction,SMDPad,CuDef*%
G36*
G01*
X135500000Y-93550000D02*
X135500000Y-94875000D01*
G75*
G02*
X135425000Y-94950000I-75000J0D01*
G01*
X135275000Y-94950000D01*
G75*
G02*
X135200000Y-94875000I0J75000D01*
G01*
X135200000Y-93550000D01*
G75*
G02*
X135275000Y-93475000I75000J0D01*
G01*
X135425000Y-93475000D01*
G75*
G02*
X135500000Y-93550000I0J-75000D01*
G01*
G37*
%TD.AperFunction*%
%TO.P,IC1,16*%
%TO.N,/PA6_SPI1_MISO*%
%TA.AperFunction,SMDPad,CuDef*%
G36*
G01*
X136000000Y-93550000D02*
X136000000Y-94875000D01*
G75*
G02*
X135925000Y-94950000I-75000J0D01*
G01*
X135775000Y-94950000D01*
G75*
G02*
X135700000Y-94875000I0J75000D01*
G01*
X135700000Y-93550000D01*
G75*
G02*
X135775000Y-93475000I75000J0D01*
G01*
X135925000Y-93475000D01*
G75*
G02*
X136000000Y-93550000I0J-75000D01*
G01*
G37*
%TD.AperFunction*%
%TO.P,IC1,15*%
%TO.N,/PA5_SPI1_SCK*%
%TA.AperFunction,SMDPad,CuDef*%
G36*
G01*
X136500000Y-93550000D02*
X136500000Y-94875000D01*
G75*
G02*
X136425000Y-94950000I-75000J0D01*
G01*
X136275000Y-94950000D01*
G75*
G02*
X136200000Y-94875000I0J75000D01*
G01*
X136200000Y-93550000D01*
G75*
G02*
X136275000Y-93475000I75000J0D01*
G01*
X136425000Y-93475000D01*
G75*
G02*
X136500000Y-93550000I0J-75000D01*
G01*
G37*
%TD.AperFunction*%
%TO.P,IC1,14*%
%TO.N,/PA4*%
%TA.AperFunction,SMDPad,CuDef*%
G36*
G01*
X137000000Y-93550000D02*
X137000000Y-94875000D01*
G75*
G02*
X136925000Y-94950000I-75000J0D01*
G01*
X136775000Y-94950000D01*
G75*
G02*
X136700000Y-94875000I0J75000D01*
G01*
X136700000Y-93550000D01*
G75*
G02*
X136775000Y-93475000I75000J0D01*
G01*
X136925000Y-93475000D01*
G75*
G02*
X137000000Y-93550000I0J-75000D01*
G01*
G37*
%TD.AperFunction*%
%TO.P,IC1,13*%
%TO.N,/PA3*%
%TA.AperFunction,SMDPad,CuDef*%
G36*
G01*
X137500000Y-93550000D02*
X137500000Y-94875000D01*
G75*
G02*
X137425000Y-94950000I-75000J0D01*
G01*
X137275000Y-94950000D01*
G75*
G02*
X137200000Y-94875000I0J75000D01*
G01*
X137200000Y-93550000D01*
G75*
G02*
X137275000Y-93475000I75000J0D01*
G01*
X137425000Y-93475000D01*
G75*
G02*
X137500000Y-93550000I0J-75000D01*
G01*
G37*
%TD.AperFunction*%
%TO.P,IC1,12*%
%TO.N,/PA2*%
%TA.AperFunction,SMDPad,CuDef*%
G36*
G01*
X139500000Y-95550000D02*
X139500000Y-95700000D01*
G75*
G02*
X139425000Y-95775000I-75000J0D01*
G01*
X138100000Y-95775000D01*
G75*
G02*
X138025000Y-95700000I0J75000D01*
G01*
X138025000Y-95550000D01*
G75*
G02*
X138100000Y-95475000I75000J0D01*
G01*
X139425000Y-95475000D01*
G75*
G02*
X139500000Y-95550000I0J-75000D01*
G01*
G37*
%TD.AperFunction*%
%TO.P,IC1,11*%
%TO.N,/PA1*%
%TA.AperFunction,SMDPad,CuDef*%
G36*
G01*
X139500000Y-96050000D02*
X139500000Y-96200000D01*
G75*
G02*
X139425000Y-96275000I-75000J0D01*
G01*
X138100000Y-96275000D01*
G75*
G02*
X138025000Y-96200000I0J75000D01*
G01*
X138025000Y-96050000D01*
G75*
G02*
X138100000Y-95975000I75000J0D01*
G01*
X139425000Y-95975000D01*
G75*
G02*
X139500000Y-96050000I0J-75000D01*
G01*
G37*
%TD.AperFunction*%
%TO.P,IC1,10*%
%TO.N,/PA0*%
%TA.AperFunction,SMDPad,CuDef*%
G36*
G01*
X139500000Y-96550000D02*
X139500000Y-96700000D01*
G75*
G02*
X139425000Y-96775000I-75000J0D01*
G01*
X138100000Y-96775000D01*
G75*
G02*
X138025000Y-96700000I0J75000D01*
G01*
X138025000Y-96550000D01*
G75*
G02*
X138100000Y-96475000I75000J0D01*
G01*
X139425000Y-96475000D01*
G75*
G02*
X139500000Y-96550000I0J-75000D01*
G01*
G37*
%TD.AperFunction*%
%TO.P,IC1,9*%
%TO.N,+3V3*%
%TA.AperFunction,SMDPad,CuDef*%
G36*
G01*
X139500000Y-97050000D02*
X139500000Y-97200000D01*
G75*
G02*
X139425000Y-97275000I-75000J0D01*
G01*
X138100000Y-97275000D01*
G75*
G02*
X138025000Y-97200000I0J75000D01*
G01*
X138025000Y-97050000D01*
G75*
G02*
X138100000Y-96975000I75000J0D01*
G01*
X139425000Y-96975000D01*
G75*
G02*
X139500000Y-97050000I0J-75000D01*
G01*
G37*
%TD.AperFunction*%
%TO.P,IC1,8*%
%TO.N,GND*%
%TA.AperFunction,SMDPad,CuDef*%
G36*
G01*
X139500000Y-97550000D02*
X139500000Y-97700000D01*
G75*
G02*
X139425000Y-97775000I-75000J0D01*
G01*
X138100000Y-97775000D01*
G75*
G02*
X138025000Y-97700000I0J75000D01*
G01*
X138025000Y-97550000D01*
G75*
G02*
X138100000Y-97475000I75000J0D01*
G01*
X139425000Y-97475000D01*
G75*
G02*
X139500000Y-97550000I0J-75000D01*
G01*
G37*
%TD.AperFunction*%
%TO.P,IC1,7*%
%TO.N,/RESET*%
%TA.AperFunction,SMDPad,CuDef*%
G36*
G01*
X139500000Y-98050000D02*
X139500000Y-98200000D01*
G75*
G02*
X139425000Y-98275000I-75000J0D01*
G01*
X138100000Y-98275000D01*
G75*
G02*
X138025000Y-98200000I0J75000D01*
G01*
X138025000Y-98050000D01*
G75*
G02*
X138100000Y-97975000I75000J0D01*
G01*
X139425000Y-97975000D01*
G75*
G02*
X139500000Y-98050000I0J-75000D01*
G01*
G37*
%TD.AperFunction*%
%TO.P,IC1,6*%
%TO.N,Net-(IC1-Pad6)*%
%TA.AperFunction,SMDPad,CuDef*%
G36*
G01*
X139500000Y-98550000D02*
X139500000Y-98700000D01*
G75*
G02*
X139425000Y-98775000I-75000J0D01*
G01*
X138100000Y-98775000D01*
G75*
G02*
X138025000Y-98700000I0J75000D01*
G01*
X138025000Y-98550000D01*
G75*
G02*
X138100000Y-98475000I75000J0D01*
G01*
X139425000Y-98475000D01*
G75*
G02*
X139500000Y-98550000I0J-75000D01*
G01*
G37*
%TD.AperFunction*%
%TO.P,IC1,5*%
%TO.N,Net-(IC1-Pad5)*%
%TA.AperFunction,SMDPad,CuDef*%
G36*
G01*
X139500000Y-99050000D02*
X139500000Y-99200000D01*
G75*
G02*
X139425000Y-99275000I-75000J0D01*
G01*
X138100000Y-99275000D01*
G75*
G02*
X138025000Y-99200000I0J75000D01*
G01*
X138025000Y-99050000D01*
G75*
G02*
X138100000Y-98975000I75000J0D01*
G01*
X139425000Y-98975000D01*
G75*
G02*
X139500000Y-99050000I0J-75000D01*
G01*
G37*
%TD.AperFunction*%
%TO.P,IC1,4*%
%TO.N,Net-(IC1-Pad4)*%
%TA.AperFunction,SMDPad,CuDef*%
G36*
G01*
X139500000Y-99550000D02*
X139500000Y-99700000D01*
G75*
G02*
X139425000Y-99775000I-75000J0D01*
G01*
X138100000Y-99775000D01*
G75*
G02*
X138025000Y-99700000I0J75000D01*
G01*
X138025000Y-99550000D01*
G75*
G02*
X138100000Y-99475000I75000J0D01*
G01*
X139425000Y-99475000D01*
G75*
G02*
X139500000Y-99550000I0J-75000D01*
G01*
G37*
%TD.AperFunction*%
%TO.P,IC1,3*%
%TO.N,Net-(IC1-Pad3)*%
%TA.AperFunction,SMDPad,CuDef*%
G36*
G01*
X139500000Y-100050000D02*
X139500000Y-100200000D01*
G75*
G02*
X139425000Y-100275000I-75000J0D01*
G01*
X138100000Y-100275000D01*
G75*
G02*
X138025000Y-100200000I0J75000D01*
G01*
X138025000Y-100050000D01*
G75*
G02*
X138100000Y-99975000I75000J0D01*
G01*
X139425000Y-99975000D01*
G75*
G02*
X139500000Y-100050000I0J-75000D01*
G01*
G37*
%TD.AperFunction*%
%TO.P,IC1,2*%
%TO.N,/LED_3v3_SIGNAL*%
%TA.AperFunction,SMDPad,CuDef*%
G36*
G01*
X139500000Y-100550000D02*
X139500000Y-100700000D01*
G75*
G02*
X139425000Y-100775000I-75000J0D01*
G01*
X138100000Y-100775000D01*
G75*
G02*
X138025000Y-100700000I0J75000D01*
G01*
X138025000Y-100550000D01*
G75*
G02*
X138100000Y-100475000I75000J0D01*
G01*
X139425000Y-100475000D01*
G75*
G02*
X139500000Y-100550000I0J-75000D01*
G01*
G37*
%TD.AperFunction*%
%TO.P,IC1,1*%
%TO.N,+3V3*%
%TA.AperFunction,SMDPad,CuDef*%
G36*
G01*
X139500000Y-101050000D02*
X139500000Y-101200000D01*
G75*
G02*
X139425000Y-101275000I-75000J0D01*
G01*
X138100000Y-101275000D01*
G75*
G02*
X138025000Y-101200000I0J75000D01*
G01*
X138025000Y-101050000D01*
G75*
G02*
X138100000Y-100975000I75000J0D01*
G01*
X139425000Y-100975000D01*
G75*
G02*
X139500000Y-101050000I0J-75000D01*
G01*
G37*
%TD.AperFunction*%
%TD*%
D11*
%TO.P,U2,1*%
%TO.N,GND*%
X139200000Y-85150000D03*
%TO.P,U2,3*%
%TO.N,+5V*%
X134600000Y-85150000D03*
%TO.P,U2,2*%
%TO.N,+3V3*%
X136900000Y-85150000D03*
D12*
X136900000Y-91450000D03*
%TD*%
D13*
%TO.P,U1,5*%
%TO.N,+5V*%
X134600000Y-82850000D03*
%TO.P,U1,6*%
%TO.N,/USB_20R_D-*%
X135550000Y-82850000D03*
%TO.P,U1,4*%
%TO.N,/USB_20R_D+*%
X133650000Y-82850000D03*
%TO.P,U1,3*%
%TO.N,Net-(J2-PadA6)*%
X133650000Y-80650000D03*
%TO.P,U1,2*%
%TO.N,GND*%
X134600000Y-80650000D03*
%TO.P,U1,1*%
%TO.N,Net-(J2-PadA7)*%
X135550000Y-80650000D03*
%TD*%
D14*
%TO.P,JP2,1*%
%TO.N,GND*%
X135220000Y-117140000D03*
%TO.P,JP2,2*%
%TO.N,/RESET*%
X133920000Y-117140000D03*
%TD*%
%TO.P,R8,2*%
%TO.N,+5V*%
%TA.AperFunction,SMDPad,CuDef*%
G36*
G01*
X140950000Y-111943750D02*
X140950000Y-112456250D01*
G75*
G02*
X140731250Y-112675000I-218750J0D01*
G01*
X140293750Y-112675000D01*
G75*
G02*
X140075000Y-112456250I0J218750D01*
G01*
X140075000Y-111943750D01*
G75*
G02*
X140293750Y-111725000I218750J0D01*
G01*
X140731250Y-111725000D01*
G75*
G02*
X140950000Y-111943750I0J-218750D01*
G01*
G37*
%TD.AperFunction*%
%TO.P,R8,1*%
%TO.N,/LED_5v0_SIGNAL*%
%TA.AperFunction,SMDPad,CuDef*%
G36*
G01*
X142525000Y-111943750D02*
X142525000Y-112456250D01*
G75*
G02*
X142306250Y-112675000I-218750J0D01*
G01*
X141868750Y-112675000D01*
G75*
G02*
X141650000Y-112456250I0J218750D01*
G01*
X141650000Y-111943750D01*
G75*
G02*
X141868750Y-111725000I218750J0D01*
G01*
X142306250Y-111725000D01*
G75*
G02*
X142525000Y-111943750I0J-218750D01*
G01*
G37*
%TD.AperFunction*%
%TD*%
%TO.P,R7,2*%
%TO.N,Net-(Q1-Pad1)*%
%TA.AperFunction,SMDPad,CuDef*%
G36*
G01*
X138150000Y-115156250D02*
X138150000Y-114643750D01*
G75*
G02*
X138368750Y-114425000I218750J0D01*
G01*
X138806250Y-114425000D01*
G75*
G02*
X139025000Y-114643750I0J-218750D01*
G01*
X139025000Y-115156250D01*
G75*
G02*
X138806250Y-115375000I-218750J0D01*
G01*
X138368750Y-115375000D01*
G75*
G02*
X138150000Y-115156250I0J218750D01*
G01*
G37*
%TD.AperFunction*%
%TO.P,R7,1*%
%TO.N,/LED_3v3_SIGNAL*%
%TA.AperFunction,SMDPad,CuDef*%
G36*
G01*
X136575000Y-115156250D02*
X136575000Y-114643750D01*
G75*
G02*
X136793750Y-114425000I218750J0D01*
G01*
X137231250Y-114425000D01*
G75*
G02*
X137450000Y-114643750I0J-218750D01*
G01*
X137450000Y-115156250D01*
G75*
G02*
X137231250Y-115375000I-218750J0D01*
G01*
X136793750Y-115375000D01*
G75*
G02*
X136575000Y-115156250I0J218750D01*
G01*
G37*
%TD.AperFunction*%
%TD*%
%TO.P,R6,2*%
%TO.N,/USB_20R_D+*%
%TA.AperFunction,SMDPad,CuDef*%
G36*
G01*
X130256250Y-86252500D02*
X129743750Y-86252500D01*
G75*
G02*
X129525000Y-86033750I0J218750D01*
G01*
X129525000Y-85596250D01*
G75*
G02*
X129743750Y-85377500I218750J0D01*
G01*
X130256250Y-85377500D01*
G75*
G02*
X130475000Y-85596250I0J-218750D01*
G01*
X130475000Y-86033750D01*
G75*
G02*
X130256250Y-86252500I-218750J0D01*
G01*
G37*
%TD.AperFunction*%
%TO.P,R6,1*%
%TO.N,/USB_D+*%
%TA.AperFunction,SMDPad,CuDef*%
G36*
G01*
X130256250Y-87827500D02*
X129743750Y-87827500D01*
G75*
G02*
X129525000Y-87608750I0J218750D01*
G01*
X129525000Y-87171250D01*
G75*
G02*
X129743750Y-86952500I218750J0D01*
G01*
X130256250Y-86952500D01*
G75*
G02*
X130475000Y-87171250I0J-218750D01*
G01*
X130475000Y-87608750D01*
G75*
G02*
X130256250Y-87827500I-218750J0D01*
G01*
G37*
%TD.AperFunction*%
%TD*%
%TO.P,R5,2*%
%TO.N,/USB_20R_D-*%
%TA.AperFunction,SMDPad,CuDef*%
G36*
G01*
X131826250Y-86252500D02*
X131313750Y-86252500D01*
G75*
G02*
X131095000Y-86033750I0J218750D01*
G01*
X131095000Y-85596250D01*
G75*
G02*
X131313750Y-85377500I218750J0D01*
G01*
X131826250Y-85377500D01*
G75*
G02*
X132045000Y-85596250I0J-218750D01*
G01*
X132045000Y-86033750D01*
G75*
G02*
X131826250Y-86252500I-218750J0D01*
G01*
G37*
%TD.AperFunction*%
%TO.P,R5,1*%
%TO.N,/USB_D-*%
%TA.AperFunction,SMDPad,CuDef*%
G36*
G01*
X131826250Y-87827500D02*
X131313750Y-87827500D01*
G75*
G02*
X131095000Y-87608750I0J218750D01*
G01*
X131095000Y-87171250D01*
G75*
G02*
X131313750Y-86952500I218750J0D01*
G01*
X131826250Y-86952500D01*
G75*
G02*
X132045000Y-87171250I0J-218750D01*
G01*
X132045000Y-87608750D01*
G75*
G02*
X131826250Y-87827500I-218750J0D01*
G01*
G37*
%TD.AperFunction*%
%TD*%
%TO.P,R4,2*%
%TO.N,+5V*%
%TA.AperFunction,SMDPad,CuDef*%
G36*
G01*
X130450000Y-83943750D02*
X130450000Y-84456250D01*
G75*
G02*
X130231250Y-84675000I-218750J0D01*
G01*
X129793750Y-84675000D01*
G75*
G02*
X129575000Y-84456250I0J218750D01*
G01*
X129575000Y-83943750D01*
G75*
G02*
X129793750Y-83725000I218750J0D01*
G01*
X130231250Y-83725000D01*
G75*
G02*
X130450000Y-83943750I0J-218750D01*
G01*
G37*
%TD.AperFunction*%
%TO.P,R4,1*%
%TO.N,/USB_20R_D+*%
%TA.AperFunction,SMDPad,CuDef*%
G36*
G01*
X132025000Y-83943750D02*
X132025000Y-84456250D01*
G75*
G02*
X131806250Y-84675000I-218750J0D01*
G01*
X131368750Y-84675000D01*
G75*
G02*
X131150000Y-84456250I0J218750D01*
G01*
X131150000Y-83943750D01*
G75*
G02*
X131368750Y-83725000I218750J0D01*
G01*
X131806250Y-83725000D01*
G75*
G02*
X132025000Y-83943750I0J-218750D01*
G01*
G37*
%TD.AperFunction*%
%TD*%
%TO.P,R3,2*%
%TO.N,GND*%
%TA.AperFunction,SMDPad,CuDef*%
G36*
G01*
X131643750Y-81650000D02*
X132156250Y-81650000D01*
G75*
G02*
X132375000Y-81868750I0J-218750D01*
G01*
X132375000Y-82306250D01*
G75*
G02*
X132156250Y-82525000I-218750J0D01*
G01*
X131643750Y-82525000D01*
G75*
G02*
X131425000Y-82306250I0J218750D01*
G01*
X131425000Y-81868750D01*
G75*
G02*
X131643750Y-81650000I218750J0D01*
G01*
G37*
%TD.AperFunction*%
%TO.P,R3,1*%
%TO.N,Net-(J2-PadB5)*%
%TA.AperFunction,SMDPad,CuDef*%
G36*
G01*
X131643750Y-80075000D02*
X132156250Y-80075000D01*
G75*
G02*
X132375000Y-80293750I0J-218750D01*
G01*
X132375000Y-80731250D01*
G75*
G02*
X132156250Y-80950000I-218750J0D01*
G01*
X131643750Y-80950000D01*
G75*
G02*
X131425000Y-80731250I0J218750D01*
G01*
X131425000Y-80293750D01*
G75*
G02*
X131643750Y-80075000I218750J0D01*
G01*
G37*
%TD.AperFunction*%
%TD*%
%TO.P,R2,2*%
%TO.N,Net-(J2-PadA5)*%
%TA.AperFunction,SMDPad,CuDef*%
G36*
G01*
X137556250Y-80950000D02*
X137043750Y-80950000D01*
G75*
G02*
X136825000Y-80731250I0J218750D01*
G01*
X136825000Y-80293750D01*
G75*
G02*
X137043750Y-80075000I218750J0D01*
G01*
X137556250Y-80075000D01*
G75*
G02*
X137775000Y-80293750I0J-218750D01*
G01*
X137775000Y-80731250D01*
G75*
G02*
X137556250Y-80950000I-218750J0D01*
G01*
G37*
%TD.AperFunction*%
%TO.P,R2,1*%
%TO.N,GND*%
%TA.AperFunction,SMDPad,CuDef*%
G36*
G01*
X137556250Y-82525000D02*
X137043750Y-82525000D01*
G75*
G02*
X136825000Y-82306250I0J218750D01*
G01*
X136825000Y-81868750D01*
G75*
G02*
X137043750Y-81650000I218750J0D01*
G01*
X137556250Y-81650000D01*
G75*
G02*
X137775000Y-81868750I0J-218750D01*
G01*
X137775000Y-82306250D01*
G75*
G02*
X137556250Y-82525000I-218750J0D01*
G01*
G37*
%TD.AperFunction*%
%TD*%
%TO.P,R1,2*%
%TO.N,Net-(JP1-Pad2)*%
%TA.AperFunction,SMDPad,CuDef*%
G36*
G01*
X136370000Y-108096250D02*
X136370000Y-107583750D01*
G75*
G02*
X136588750Y-107365000I218750J0D01*
G01*
X137026250Y-107365000D01*
G75*
G02*
X137245000Y-107583750I0J-218750D01*
G01*
X137245000Y-108096250D01*
G75*
G02*
X137026250Y-108315000I-218750J0D01*
G01*
X136588750Y-108315000D01*
G75*
G02*
X136370000Y-108096250I0J218750D01*
G01*
G37*
%TD.AperFunction*%
%TO.P,R1,1*%
%TO.N,/BOOT0*%
%TA.AperFunction,SMDPad,CuDef*%
G36*
G01*
X134795000Y-108096250D02*
X134795000Y-107583750D01*
G75*
G02*
X135013750Y-107365000I218750J0D01*
G01*
X135451250Y-107365000D01*
G75*
G02*
X135670000Y-107583750I0J-218750D01*
G01*
X135670000Y-108096250D01*
G75*
G02*
X135451250Y-108315000I-218750J0D01*
G01*
X135013750Y-108315000D01*
G75*
G02*
X134795000Y-108096250I0J218750D01*
G01*
G37*
%TD.AperFunction*%
%TD*%
D15*
%TO.P,Q1,3*%
%TO.N,/LED_5v0_SIGNAL*%
X142100000Y-114900000D03*
%TO.P,Q1,2*%
%TO.N,/LED_3v3_SIGNAL*%
X140100000Y-115850000D03*
%TO.P,Q1,1*%
%TO.N,Net-(Q1-Pad1)*%
X140100000Y-113950000D03*
%TD*%
D14*
%TO.P,JP1,2*%
%TO.N,Net-(JP1-Pad2)*%
X136820000Y-109940000D03*
%TO.P,JP1,3*%
%TO.N,+3V3*%
X138120000Y-109940000D03*
%TO.P,JP1,1*%
%TO.N,GND*%
X135520000Y-109940000D03*
%TD*%
D16*
%TO.P,J4,20*%
%TO.N,GND*%
X146030000Y-122510000D03*
%TO.P,J4,19*%
%TO.N,+3V3*%
X146030000Y-119970000D03*
%TO.P,J4,18*%
%TO.N,GND*%
X146030000Y-117430000D03*
%TO.P,J4,17*%
%TO.N,/LED_5v0_SIGNAL*%
X146030000Y-114890000D03*
%TO.P,J4,16*%
%TO.N,/PB9*%
X146030000Y-112350000D03*
%TO.P,J4,15*%
%TO.N,/PB8*%
X146030000Y-109810000D03*
%TO.P,J4,14*%
%TO.N,/PB7_I2C1_SDA*%
X146030000Y-107270000D03*
%TO.P,J4,13*%
%TO.N,/PB6_I2C1_SCL*%
X146030000Y-104730000D03*
%TO.P,J4,12*%
%TO.N,/PA7_SPI1_MOSI*%
X146030000Y-102190000D03*
%TO.P,J4,11*%
%TO.N,/PA6_SPI1_MISO*%
X146030000Y-99650000D03*
%TO.P,J4,10*%
%TO.N,/PA5_SPI1_SCK*%
X146030000Y-97110000D03*
%TO.P,J4,9*%
%TO.N,/PA4*%
X146030000Y-94570000D03*
%TO.P,J4,8*%
%TO.N,/PA3*%
X146030000Y-92030000D03*
%TO.P,J4,7*%
%TO.N,/PA2*%
X146030000Y-89490000D03*
%TO.P,J4,6*%
%TO.N,/PA1*%
X146030000Y-86950000D03*
%TO.P,J4,5*%
%TO.N,/PA0*%
X146030000Y-84410000D03*
%TO.P,J4,4*%
%TO.N,/PB2*%
X146030000Y-81870000D03*
%TO.P,J4,3*%
%TO.N,/PB1*%
X146030000Y-79330000D03*
%TO.P,J4,2*%
%TO.N,/PB0*%
X146030000Y-76790000D03*
D17*
%TO.P,J4,1*%
%TO.N,+5V*%
X146030000Y-74250000D03*
%TD*%
D16*
%TO.P,J3,20*%
%TO.N,+3V3*%
X123170000Y-122520000D03*
%TO.P,J3,19*%
%TO.N,GND*%
X123170000Y-119980000D03*
%TO.P,J3,18*%
%TO.N,+3V3*%
X123170000Y-117440000D03*
%TO.P,J3,17*%
%TO.N,/PB5*%
X123170000Y-114900000D03*
%TO.P,J3,16*%
%TO.N,/PB4*%
X123170000Y-112360000D03*
%TO.P,J3,15*%
%TO.N,/PB3*%
X123170000Y-109820000D03*
%TO.P,J3,14*%
%TO.N,/RESET*%
X123170000Y-107280000D03*
%TO.P,J3,13*%
%TO.N,/PA15*%
X123170000Y-104740000D03*
%TO.P,J3,12*%
%TO.N,/PA14_SWCLK*%
X123170000Y-102200000D03*
%TO.P,J3,11*%
%TO.N,/PA13_SWDIO*%
X123170000Y-99660000D03*
%TO.P,J3,10*%
%TO.N,/PA10_RX*%
X123170000Y-97120000D03*
%TO.P,J3,9*%
%TO.N,/PA9_TX*%
X123170000Y-94580000D03*
%TO.P,J3,8*%
%TO.N,/PA8*%
X123170000Y-92040000D03*
%TO.P,J3,7*%
%TO.N,/PB15*%
X123170000Y-89500000D03*
%TO.P,J3,6*%
%TO.N,/PB14*%
X123170000Y-86960000D03*
%TO.P,J3,5*%
%TO.N,/PB13*%
X123170000Y-84420000D03*
%TO.P,J3,4*%
%TO.N,/PB12*%
X123170000Y-81880000D03*
%TO.P,J3,3*%
%TO.N,/PB11_I2C2_SDA*%
X123170000Y-79340000D03*
%TO.P,J3,2*%
%TO.N,/PB10_I2C2_SCL*%
X123170000Y-76800000D03*
D17*
%TO.P,J3,1*%
%TO.N,GND*%
X123170000Y-74260000D03*
%TD*%
D18*
%TO.P,J2,A12*%
%TO.N,GND*%
X131390000Y-78650000D03*
%TO.P,J2,A9*%
%TO.N,VBUS*%
X132190000Y-78650000D03*
%TO.P,J2,B1*%
%TO.N,GND*%
X131390000Y-78650000D03*
%TO.P,J2,B4*%
%TO.N,VBUS*%
X132190000Y-78650000D03*
%TO.P,J2,B12*%
%TO.N,GND*%
X137790000Y-78650000D03*
%TO.P,J2,A1*%
X137790000Y-78650000D03*
%TO.P,J2,B9*%
%TO.N,VBUS*%
X136990000Y-78650000D03*
%TO.P,J2,A4*%
X136990000Y-78650000D03*
D19*
%TO.P,J2,B5*%
%TO.N,Net-(J2-PadB5)*%
X132840000Y-78650000D03*
%TO.P,J2,B6*%
%TO.N,Net-(J2-PadA6)*%
X133840000Y-78650000D03*
%TO.P,J2,A8*%
%TO.N,Net-(J2-PadA8)*%
X133340000Y-78650000D03*
%TO.P,J2,A5*%
%TO.N,Net-(J2-PadA5)*%
X135840000Y-78650000D03*
%TO.P,J2,B8*%
%TO.N,Net-(J2-PadB8)*%
X136340000Y-78650000D03*
%TO.P,J2,A7*%
%TO.N,Net-(J2-PadA7)*%
X134340000Y-78650000D03*
%TO.P,J2,A6*%
%TO.N,Net-(J2-PadA6)*%
X134840000Y-78650000D03*
%TO.P,J2,B7*%
%TO.N,Net-(J2-PadA7)*%
X135340000Y-78650000D03*
D20*
%TO.P,J2,S1*%
%TO.N,GND*%
X130270000Y-73900000D03*
X138910000Y-73900000D03*
D21*
X130270000Y-78070000D03*
X138910000Y-78070000D03*
%TD*%
D16*
%TO.P,J1,4*%
%TO.N,+3V3*%
X138420000Y-122500000D03*
%TO.P,J1,3*%
%TO.N,/PA13_SWDIO*%
X135880000Y-122500000D03*
%TO.P,J1,2*%
%TO.N,/PA14_SWCLK*%
X133340000Y-122500000D03*
D17*
%TO.P,J1,1*%
%TO.N,GND*%
X130800000Y-122500000D03*
%TD*%
%TO.P,F1,2*%
%TO.N,VBUS*%
%TA.AperFunction,SMDPad,CuDef*%
G36*
G01*
X130456250Y-81050000D02*
X129543750Y-81050000D01*
G75*
G02*
X129300000Y-80806250I0J243750D01*
G01*
X129300000Y-80318750D01*
G75*
G02*
X129543750Y-80075000I243750J0D01*
G01*
X130456250Y-80075000D01*
G75*
G02*
X130700000Y-80318750I0J-243750D01*
G01*
X130700000Y-80806250D01*
G75*
G02*
X130456250Y-81050000I-243750J0D01*
G01*
G37*
%TD.AperFunction*%
%TO.P,F1,1*%
%TO.N,+5V*%
%TA.AperFunction,SMDPad,CuDef*%
G36*
G01*
X130456250Y-82925000D02*
X129543750Y-82925000D01*
G75*
G02*
X129300000Y-82681250I0J243750D01*
G01*
X129300000Y-82193750D01*
G75*
G02*
X129543750Y-81950000I243750J0D01*
G01*
X130456250Y-81950000D01*
G75*
G02*
X130700000Y-82193750I0J-243750D01*
G01*
X130700000Y-82681250D01*
G75*
G02*
X130456250Y-82925000I-243750J0D01*
G01*
G37*
%TD.AperFunction*%
%TD*%
%TO.P,C12,2*%
%TO.N,GND*%
%TA.AperFunction,SMDPad,CuDef*%
G36*
G01*
X127774999Y-91150000D02*
X128625001Y-91150000D01*
G75*
G02*
X128875000Y-91399999I0J-249999D01*
G01*
X128875000Y-92300001D01*
G75*
G02*
X128625001Y-92550000I-249999J0D01*
G01*
X127774999Y-92550000D01*
G75*
G02*
X127525000Y-92300001I0J249999D01*
G01*
X127525000Y-91399999D01*
G75*
G02*
X127774999Y-91150000I249999J0D01*
G01*
G37*
%TD.AperFunction*%
%TO.P,C12,1*%
%TO.N,+3V3*%
%TA.AperFunction,SMDPad,CuDef*%
G36*
G01*
X127774999Y-88450000D02*
X128625001Y-88450000D01*
G75*
G02*
X128875000Y-88699999I0J-249999D01*
G01*
X128875000Y-89600001D01*
G75*
G02*
X128625001Y-89850000I-249999J0D01*
G01*
X127774999Y-89850000D01*
G75*
G02*
X127525000Y-89600001I0J249999D01*
G01*
X127525000Y-88699999D01*
G75*
G02*
X127774999Y-88450000I249999J0D01*
G01*
G37*
%TD.AperFunction*%
%TD*%
%TO.P,C11,2*%
%TO.N,GND*%
%TA.AperFunction,SMDPad,CuDef*%
G36*
G01*
X139505000Y-103432500D02*
X139505000Y-103087500D01*
G75*
G02*
X139652500Y-102940000I147500J0D01*
G01*
X139947500Y-102940000D01*
G75*
G02*
X140095000Y-103087500I0J-147500D01*
G01*
X140095000Y-103432500D01*
G75*
G02*
X139947500Y-103580000I-147500J0D01*
G01*
X139652500Y-103580000D01*
G75*
G02*
X139505000Y-103432500I0J147500D01*
G01*
G37*
%TD.AperFunction*%
%TO.P,C11,1*%
%TO.N,+3V3*%
%TA.AperFunction,SMDPad,CuDef*%
G36*
G01*
X138535000Y-103432500D02*
X138535000Y-103087500D01*
G75*
G02*
X138682500Y-102940000I147500J0D01*
G01*
X138977500Y-102940000D01*
G75*
G02*
X139125000Y-103087500I0J-147500D01*
G01*
X139125000Y-103432500D01*
G75*
G02*
X138977500Y-103580000I-147500J0D01*
G01*
X138682500Y-103580000D01*
G75*
G02*
X138535000Y-103432500I0J147500D01*
G01*
G37*
%TD.AperFunction*%
%TD*%
%TO.P,C10,2*%
%TO.N,GND*%
%TA.AperFunction,SMDPad,CuDef*%
G36*
G01*
X130310000Y-93927500D02*
X130310000Y-94272500D01*
G75*
G02*
X130162500Y-94420000I-147500J0D01*
G01*
X129867500Y-94420000D01*
G75*
G02*
X129720000Y-94272500I0J147500D01*
G01*
X129720000Y-93927500D01*
G75*
G02*
X129867500Y-93780000I147500J0D01*
G01*
X130162500Y-93780000D01*
G75*
G02*
X130310000Y-93927500I0J-147500D01*
G01*
G37*
%TD.AperFunction*%
%TO.P,C10,1*%
%TO.N,+3V3*%
%TA.AperFunction,SMDPad,CuDef*%
G36*
G01*
X131280000Y-93927500D02*
X131280000Y-94272500D01*
G75*
G02*
X131132500Y-94420000I-147500J0D01*
G01*
X130837500Y-94420000D01*
G75*
G02*
X130690000Y-94272500I0J147500D01*
G01*
X130690000Y-93927500D01*
G75*
G02*
X130837500Y-93780000I147500J0D01*
G01*
X131132500Y-93780000D01*
G75*
G02*
X131280000Y-93927500I0J-147500D01*
G01*
G37*
%TD.AperFunction*%
%TD*%
%TO.P,C9,2*%
%TO.N,GND*%
%TA.AperFunction,SMDPad,CuDef*%
G36*
G01*
X140127500Y-97590000D02*
X140472500Y-97590000D01*
G75*
G02*
X140620000Y-97737500I0J-147500D01*
G01*
X140620000Y-98032500D01*
G75*
G02*
X140472500Y-98180000I-147500J0D01*
G01*
X140127500Y-98180000D01*
G75*
G02*
X139980000Y-98032500I0J147500D01*
G01*
X139980000Y-97737500D01*
G75*
G02*
X140127500Y-97590000I147500J0D01*
G01*
G37*
%TD.AperFunction*%
%TO.P,C9,1*%
%TO.N,+3V3*%
%TA.AperFunction,SMDPad,CuDef*%
G36*
G01*
X140127500Y-96620000D02*
X140472500Y-96620000D01*
G75*
G02*
X140620000Y-96767500I0J-147500D01*
G01*
X140620000Y-97062500D01*
G75*
G02*
X140472500Y-97210000I-147500J0D01*
G01*
X140127500Y-97210000D01*
G75*
G02*
X139980000Y-97062500I0J147500D01*
G01*
X139980000Y-96767500D01*
G75*
G02*
X140127500Y-96620000I147500J0D01*
G01*
G37*
%TD.AperFunction*%
%TD*%
%TO.P,C8,2*%
%TO.N,GND*%
%TA.AperFunction,SMDPad,CuDef*%
G36*
G01*
X129710000Y-101827500D02*
X129710000Y-102172500D01*
G75*
G02*
X129562500Y-102320000I-147500J0D01*
G01*
X129267500Y-102320000D01*
G75*
G02*
X129120000Y-102172500I0J147500D01*
G01*
X129120000Y-101827500D01*
G75*
G02*
X129267500Y-101680000I147500J0D01*
G01*
X129562500Y-101680000D01*
G75*
G02*
X129710000Y-101827500I0J-147500D01*
G01*
G37*
%TD.AperFunction*%
%TO.P,C8,1*%
%TO.N,+3V3*%
%TA.AperFunction,SMDPad,CuDef*%
G36*
G01*
X130680000Y-101827500D02*
X130680000Y-102172500D01*
G75*
G02*
X130532500Y-102320000I-147500J0D01*
G01*
X130237500Y-102320000D01*
G75*
G02*
X130090000Y-102172500I0J147500D01*
G01*
X130090000Y-101827500D01*
G75*
G02*
X130237500Y-101680000I147500J0D01*
G01*
X130532500Y-101680000D01*
G75*
G02*
X130680000Y-101827500I0J-147500D01*
G01*
G37*
%TD.AperFunction*%
%TD*%
%TO.P,C7,2*%
%TO.N,GND*%
%TA.AperFunction,SMDPad,CuDef*%
G36*
G01*
X139520000Y-102282500D02*
X139520000Y-101937500D01*
G75*
G02*
X139667500Y-101790000I147500J0D01*
G01*
X139962500Y-101790000D01*
G75*
G02*
X140110000Y-101937500I0J-147500D01*
G01*
X140110000Y-102282500D01*
G75*
G02*
X139962500Y-102430000I-147500J0D01*
G01*
X139667500Y-102430000D01*
G75*
G02*
X139520000Y-102282500I0J147500D01*
G01*
G37*
%TD.AperFunction*%
%TO.P,C7,1*%
%TO.N,+3V3*%
%TA.AperFunction,SMDPad,CuDef*%
G36*
G01*
X138550000Y-102282500D02*
X138550000Y-101937500D01*
G75*
G02*
X138697500Y-101790000I147500J0D01*
G01*
X138992500Y-101790000D01*
G75*
G02*
X139140000Y-101937500I0J-147500D01*
G01*
X139140000Y-102282500D01*
G75*
G02*
X138992500Y-102430000I-147500J0D01*
G01*
X138697500Y-102430000D01*
G75*
G02*
X138550000Y-102282500I0J147500D01*
G01*
G37*
%TD.AperFunction*%
%TD*%
%TO.P,C6,2*%
%TO.N,GND*%
%TA.AperFunction,SMDPad,CuDef*%
G36*
G01*
X142225001Y-89650000D02*
X141374999Y-89650000D01*
G75*
G02*
X141125000Y-89400001I0J249999D01*
G01*
X141125000Y-88499999D01*
G75*
G02*
X141374999Y-88250000I249999J0D01*
G01*
X142225001Y-88250000D01*
G75*
G02*
X142475000Y-88499999I0J-249999D01*
G01*
X142475000Y-89400001D01*
G75*
G02*
X142225001Y-89650000I-249999J0D01*
G01*
G37*
%TD.AperFunction*%
%TO.P,C6,1*%
%TO.N,+3V3*%
%TA.AperFunction,SMDPad,CuDef*%
G36*
G01*
X142225001Y-92350000D02*
X141374999Y-92350000D01*
G75*
G02*
X141125000Y-92100001I0J249999D01*
G01*
X141125000Y-91199999D01*
G75*
G02*
X141374999Y-90950000I249999J0D01*
G01*
X142225001Y-90950000D01*
G75*
G02*
X142475000Y-91199999I0J-249999D01*
G01*
X142475000Y-92100001D01*
G75*
G02*
X142225001Y-92350000I-249999J0D01*
G01*
G37*
%TD.AperFunction*%
%TD*%
%TO.P,C5,2*%
%TO.N,+3V3*%
%TA.AperFunction,SMDPad,CuDef*%
G36*
G01*
X132227500Y-91190000D02*
X132572500Y-91190000D01*
G75*
G02*
X132720000Y-91337500I0J-147500D01*
G01*
X132720000Y-91632500D01*
G75*
G02*
X132572500Y-91780000I-147500J0D01*
G01*
X132227500Y-91780000D01*
G75*
G02*
X132080000Y-91632500I0J147500D01*
G01*
X132080000Y-91337500D01*
G75*
G02*
X132227500Y-91190000I147500J0D01*
G01*
G37*
%TD.AperFunction*%
%TO.P,C5,1*%
%TO.N,GND*%
%TA.AperFunction,SMDPad,CuDef*%
G36*
G01*
X132227500Y-90220000D02*
X132572500Y-90220000D01*
G75*
G02*
X132720000Y-90367500I0J-147500D01*
G01*
X132720000Y-90662500D01*
G75*
G02*
X132572500Y-90810000I-147500J0D01*
G01*
X132227500Y-90810000D01*
G75*
G02*
X132080000Y-90662500I0J147500D01*
G01*
X132080000Y-90367500D01*
G75*
G02*
X132227500Y-90220000I147500J0D01*
G01*
G37*
%TD.AperFunction*%
%TD*%
%TO.P,C4,2*%
%TO.N,GND*%
%TA.AperFunction,SMDPad,CuDef*%
G36*
G01*
X141527500Y-85090000D02*
X141872500Y-85090000D01*
G75*
G02*
X142020000Y-85237500I0J-147500D01*
G01*
X142020000Y-85532500D01*
G75*
G02*
X141872500Y-85680000I-147500J0D01*
G01*
X141527500Y-85680000D01*
G75*
G02*
X141380000Y-85532500I0J147500D01*
G01*
X141380000Y-85237500D01*
G75*
G02*
X141527500Y-85090000I147500J0D01*
G01*
G37*
%TD.AperFunction*%
%TO.P,C4,1*%
%TO.N,+5V*%
%TA.AperFunction,SMDPad,CuDef*%
G36*
G01*
X141527500Y-84120000D02*
X141872500Y-84120000D01*
G75*
G02*
X142020000Y-84267500I0J-147500D01*
G01*
X142020000Y-84562500D01*
G75*
G02*
X141872500Y-84710000I-147500J0D01*
G01*
X141527500Y-84710000D01*
G75*
G02*
X141380000Y-84562500I0J147500D01*
G01*
X141380000Y-84267500D01*
G75*
G02*
X141527500Y-84120000I147500J0D01*
G01*
G37*
%TD.AperFunction*%
%TD*%
%TO.P,C3,2*%
%TO.N,GND*%
%TA.AperFunction,SMDPad,CuDef*%
G36*
G01*
X140050000Y-83256250D02*
X140050000Y-82743750D01*
G75*
G02*
X140268750Y-82525000I218750J0D01*
G01*
X140706250Y-82525000D01*
G75*
G02*
X140925000Y-82743750I0J-218750D01*
G01*
X140925000Y-83256250D01*
G75*
G02*
X140706250Y-83475000I-218750J0D01*
G01*
X140268750Y-83475000D01*
G75*
G02*
X140050000Y-83256250I0J218750D01*
G01*
G37*
%TD.AperFunction*%
%TO.P,C3,1*%
%TO.N,+5V*%
%TA.AperFunction,SMDPad,CuDef*%
G36*
G01*
X138475000Y-83256250D02*
X138475000Y-82743750D01*
G75*
G02*
X138693750Y-82525000I218750J0D01*
G01*
X139131250Y-82525000D01*
G75*
G02*
X139350000Y-82743750I0J-218750D01*
G01*
X139350000Y-83256250D01*
G75*
G02*
X139131250Y-83475000I-218750J0D01*
G01*
X138693750Y-83475000D01*
G75*
G02*
X138475000Y-83256250I0J218750D01*
G01*
G37*
%TD.AperFunction*%
%TD*%
%TO.P,C2,2*%
%TO.N,GND*%
%TA.AperFunction,SMDPad,CuDef*%
G36*
G01*
X141150000Y-81325001D02*
X141150000Y-80474999D01*
G75*
G02*
X141399999Y-80225000I249999J0D01*
G01*
X142300001Y-80225000D01*
G75*
G02*
X142550000Y-80474999I0J-249999D01*
G01*
X142550000Y-81325001D01*
G75*
G02*
X142300001Y-81575000I-249999J0D01*
G01*
X141399999Y-81575000D01*
G75*
G02*
X141150000Y-81325001I0J249999D01*
G01*
G37*
%TD.AperFunction*%
%TO.P,C2,1*%
%TO.N,VBUS*%
%TA.AperFunction,SMDPad,CuDef*%
G36*
G01*
X138450000Y-81325001D02*
X138450000Y-80474999D01*
G75*
G02*
X138699999Y-80225000I249999J0D01*
G01*
X139600001Y-80225000D01*
G75*
G02*
X139850000Y-80474999I0J-249999D01*
G01*
X139850000Y-81325001D01*
G75*
G02*
X139600001Y-81575000I-249999J0D01*
G01*
X138699999Y-81575000D01*
G75*
G02*
X138450000Y-81325001I0J249999D01*
G01*
G37*
%TD.AperFunction*%
%TD*%
%TO.P,C1,2*%
%TO.N,/RESET*%
%TA.AperFunction,SMDPad,CuDef*%
G36*
G01*
X134310000Y-115027500D02*
X134310000Y-115372500D01*
G75*
G02*
X134162500Y-115520000I-147500J0D01*
G01*
X133867500Y-115520000D01*
G75*
G02*
X133720000Y-115372500I0J147500D01*
G01*
X133720000Y-115027500D01*
G75*
G02*
X133867500Y-114880000I147500J0D01*
G01*
X134162500Y-114880000D01*
G75*
G02*
X134310000Y-115027500I0J-147500D01*
G01*
G37*
%TD.AperFunction*%
%TO.P,C1,1*%
%TO.N,GND*%
%TA.AperFunction,SMDPad,CuDef*%
G36*
G01*
X135280000Y-115027500D02*
X135280000Y-115372500D01*
G75*
G02*
X135132500Y-115520000I-147500J0D01*
G01*
X134837500Y-115520000D01*
G75*
G02*
X134690000Y-115372500I0J147500D01*
G01*
X134690000Y-115027500D01*
G75*
G02*
X134837500Y-114880000I147500J0D01*
G01*
X135132500Y-114880000D01*
G75*
G02*
X135280000Y-115027500I0J-147500D01*
G01*
G37*
%TD.AperFunction*%
%TD*%
D22*
%TO.N,/RESET*%
X133100000Y-115200000D03*
X132700000Y-99300000D03*
X132700000Y-107200000D03*
%TO.N,GND*%
X129400000Y-73900000D03*
X139900000Y-73900000D03*
X129200000Y-78000000D03*
X140000000Y-78100000D03*
X124600000Y-74200000D03*
X134600000Y-81100000D03*
X137300000Y-81600000D03*
X131900000Y-81600000D03*
X140900000Y-80900000D03*
X140000000Y-83000000D03*
X141800000Y-90100000D03*
X132400000Y-89900000D03*
X128200000Y-90600000D03*
X129300000Y-94100000D03*
X128700000Y-102000000D03*
X139500000Y-102700000D03*
X147075000Y-117400000D03*
X147000000Y-122500000D03*
X130800000Y-123600000D03*
X122125000Y-120000000D03*
X134700000Y-109900000D03*
X136100000Y-117200000D03*
X135600000Y-115200000D03*
X141425010Y-97900000D03*
X136952154Y-103771336D03*
X139200000Y-86500000D03*
X141502002Y-85702002D03*
X132191359Y-92970621D03*
X128000000Y-93300000D03*
X128200000Y-91850000D03*
X135400000Y-101100000D03*
X136100000Y-98100000D03*
X124900000Y-88700000D03*
%TO.N,+5V*%
X134600000Y-84800000D03*
X134600000Y-82100000D03*
X142500000Y-84400000D03*
X142500000Y-75000000D03*
X142900000Y-111100000D03*
%TO.N,+3V3*%
X137900000Y-86800000D03*
X137100000Y-88600000D03*
X130900000Y-92900000D03*
X134300000Y-88900000D03*
X130600000Y-90900000D03*
X131000000Y-89600000D03*
X142300000Y-97400000D03*
X141800000Y-91650000D03*
X134700000Y-97500000D03*
X135156630Y-98943370D03*
X140900000Y-109200000D03*
X140900000Y-104300000D03*
X139200000Y-104800000D03*
X138360000Y-103260000D03*
%TO.N,/PB9*%
X139500000Y-110200000D03*
X136634312Y-104510242D03*
%TO.N,/PB8*%
X138900000Y-108300000D03*
X135930011Y-104300000D03*
%TO.N,/BOOT0*%
X135200000Y-107400000D03*
X135365010Y-103700000D03*
%TO.N,/PB7_I2C1_SDA*%
X134900000Y-104500000D03*
X134900000Y-106600000D03*
%TO.N,/PB5*%
X134000000Y-105500000D03*
X134000000Y-112300000D03*
%TO.N,/PB4*%
X133400000Y-110400000D03*
X133334990Y-103915765D03*
%TO.N,/PB3*%
X131800000Y-105500000D03*
X131800000Y-109000000D03*
%TO.N,/PA14_SWCLK*%
X130900000Y-120300000D03*
X130900000Y-103500000D03*
%TO.N,/PA13_SWDIO*%
X128100000Y-117500000D03*
X128100000Y-100800000D03*
%TO.N,/USB_D+*%
X128300000Y-99300000D03*
X130000000Y-88200000D03*
%TO.N,/USB_D-*%
X129200000Y-99100000D03*
X131600000Y-88200000D03*
%TO.N,/PB15*%
X125100000Y-90500000D03*
X125114168Y-93685832D03*
%TO.N,/PB14*%
X125900000Y-88100000D03*
X125900000Y-93700000D03*
%TO.N,/PB13*%
X126700000Y-85600000D03*
X126648176Y-93692344D03*
%TO.N,/PB12*%
X127500000Y-83200000D03*
X127375296Y-93799763D03*
%TO.N,/PB11_I2C2_SDA*%
X133000000Y-89000000D03*
X128300000Y-81400000D03*
X132849251Y-92494219D03*
X128692504Y-87719981D03*
%TO.N,/PB10_I2C2_SCL*%
X133300000Y-86600000D03*
X128900000Y-86600000D03*
X128700000Y-79200000D03*
X133329573Y-93050577D03*
%TO.N,/PB2*%
X140000000Y-87600000D03*
X133925328Y-92620091D03*
%TO.N,/PB1*%
X140000000Y-88400000D03*
X134604230Y-92901755D03*
X143584990Y-79800000D03*
X142684990Y-85900000D03*
%TO.N,/PB0*%
X135611129Y-92885002D03*
X140000000Y-89200000D03*
X143200000Y-86600000D03*
X144100000Y-78100000D03*
%TO.N,/PA7_SPI1_MOSI*%
X140000000Y-100200000D03*
X135381270Y-96964500D03*
%TO.N,/PA6_SPI1_MISO*%
X135865010Y-96100000D03*
X140103946Y-99472375D03*
%TO.N,/PA5_SPI1_SCK*%
X136365010Y-95442897D03*
X140099846Y-98737375D03*
%TO.N,/PA2*%
X142989979Y-90300000D03*
X143442200Y-95680020D03*
%TO.N,/PA1*%
X143284990Y-88700000D03*
X142847256Y-96111626D03*
%TO.N,/PA0*%
X143800000Y-86000000D03*
X144186156Y-96426551D03*
%TO.N,/LED_3v3_SIGNAL*%
X140750000Y-110900000D03*
X141350000Y-100800000D03*
%TD*%
D23*
%TO.N,/RESET*%
X134015000Y-117045000D02*
X133920000Y-117140000D01*
X134015000Y-115200000D02*
X134015000Y-117045000D01*
X133100000Y-115200000D02*
X134015000Y-115200000D01*
X123170000Y-107280000D02*
X132620000Y-107280000D01*
X132620000Y-107280000D02*
X132700000Y-107200000D01*
X138025000Y-98125000D02*
X138762500Y-98125000D01*
X137469998Y-98680002D02*
X138025000Y-98125000D01*
X132700000Y-99300000D02*
X133621598Y-98378402D01*
X133621598Y-98378402D02*
X135319998Y-98378402D01*
X135621598Y-98680002D02*
X137469998Y-98680002D01*
X135319998Y-98378402D02*
X135621598Y-98680002D01*
D24*
%TO.N,GND*%
X130270000Y-73900000D02*
X129400000Y-73900000D01*
X138910000Y-73900000D02*
X139900000Y-73900000D01*
X130270000Y-78070000D02*
X129270000Y-78070000D01*
X129270000Y-78070000D02*
X129200000Y-78000000D01*
X138910000Y-78070000D02*
X139970000Y-78070000D01*
X139970000Y-78070000D02*
X140000000Y-78100000D01*
X138330000Y-78650000D02*
X138910000Y-78070000D01*
X137790000Y-78650000D02*
X138330000Y-78650000D01*
X130850000Y-78650000D02*
X130270000Y-78070000D01*
X131390000Y-78650000D02*
X130850000Y-78650000D01*
X123170000Y-74260000D02*
X124540000Y-74260000D01*
X124540000Y-74260000D02*
X124600000Y-74200000D01*
X134600000Y-80650000D02*
X134600000Y-81100000D01*
X137300000Y-82087500D02*
X137300000Y-81600000D01*
X131900000Y-82087500D02*
X131900000Y-81600000D01*
X141850000Y-80900000D02*
X140900000Y-80900000D01*
X140487500Y-83000000D02*
X140000000Y-83000000D01*
X141800000Y-88950000D02*
X141800000Y-90100000D01*
X132400000Y-90515000D02*
X132400000Y-89900000D01*
X128200000Y-91850000D02*
X128200000Y-90600000D01*
X130015000Y-94100000D02*
X129300000Y-94100000D01*
X140040000Y-97625000D02*
X140300000Y-97885000D01*
X138762500Y-97625000D02*
X140040000Y-97625000D01*
X129374990Y-101959990D02*
X129415000Y-102000000D01*
X129374990Y-100884308D02*
X129374990Y-101959990D01*
X129634298Y-100625000D02*
X129374990Y-100884308D01*
X130437500Y-100625000D02*
X129634298Y-100625000D01*
X129415000Y-102000000D02*
X128700000Y-102000000D01*
X139800000Y-102125000D02*
X139815000Y-102110000D01*
X139800000Y-103260000D02*
X139800000Y-102125000D01*
X139800000Y-103260000D02*
X139800000Y-103000000D01*
X139800000Y-103000000D02*
X139500000Y-102700000D01*
X146030000Y-117430000D02*
X147045000Y-117430000D01*
X147045000Y-117430000D02*
X147075000Y-117400000D01*
X146030000Y-122510000D02*
X146990000Y-122510000D01*
X146990000Y-122510000D02*
X147000000Y-122500000D01*
X130800000Y-122500000D02*
X130800000Y-123600000D01*
X123170000Y-119980000D02*
X122145000Y-119980000D01*
X122145000Y-119980000D02*
X122125000Y-120000000D01*
X135520000Y-109940000D02*
X134740000Y-109940000D01*
X134740000Y-109940000D02*
X134700000Y-109900000D01*
X135220000Y-117140000D02*
X136040000Y-117140000D01*
X136040000Y-117140000D02*
X136100000Y-117200000D01*
X134985000Y-115200000D02*
X135600000Y-115200000D01*
X141410010Y-97885000D02*
X141425010Y-97900000D01*
X140300000Y-97885000D02*
X141410010Y-97885000D01*
X136850000Y-102537500D02*
X136850000Y-103669182D01*
X136850000Y-103669182D02*
X136952154Y-103771336D01*
X139200000Y-85150000D02*
X139200000Y-86500000D01*
X141700000Y-85385000D02*
X141700000Y-85504004D01*
X141700000Y-85504004D02*
X141502002Y-85702002D01*
X132350000Y-93129262D02*
X132191359Y-92970621D01*
X132350000Y-94212500D02*
X132350000Y-93129262D01*
X129300000Y-94100000D02*
X128800000Y-94100000D01*
X128800000Y-94100000D02*
X128000000Y-93300000D01*
X139800000Y-103580000D02*
X139800000Y-103260000D01*
X139308665Y-104071335D02*
X139800000Y-103580000D01*
X137252153Y-104071335D02*
X139308665Y-104071335D01*
X136952154Y-103771336D02*
X137252153Y-104071335D01*
X136215702Y-101100000D02*
X135400000Y-101100000D01*
X136850000Y-101734298D02*
X136215702Y-101100000D01*
X136850000Y-102537500D02*
X136850000Y-101734298D01*
X136575000Y-97625000D02*
X138762500Y-97625000D01*
X136100000Y-98100000D02*
X136575000Y-97625000D01*
X128200000Y-90600000D02*
X126800000Y-90600000D01*
X126800000Y-90600000D02*
X124900000Y-88700000D01*
X132090692Y-95275010D02*
X132350000Y-95015702D01*
X131609308Y-95275010D02*
X132090692Y-95275010D01*
X131484288Y-95149990D02*
X131609308Y-95275010D01*
X130744990Y-95149990D02*
X131484288Y-95149990D01*
X130015000Y-94420000D02*
X130744990Y-95149990D01*
X132350000Y-95015702D02*
X132350000Y-94212500D01*
X130015000Y-94100000D02*
X130015000Y-94420000D01*
X141465000Y-85150000D02*
X141700000Y-85385000D01*
X139200000Y-85150000D02*
X141465000Y-85150000D01*
D23*
%TO.N,VBUS*%
X132190000Y-79390000D02*
X132190000Y-78650000D01*
X131720010Y-79859990D02*
X132190000Y-79390000D01*
X130702510Y-79859990D02*
X131720010Y-79859990D01*
X130000000Y-80562500D02*
X130702510Y-79859990D01*
X137459990Y-79859990D02*
X136990000Y-79390000D01*
X139150000Y-80900000D02*
X138109990Y-79859990D01*
X138109990Y-79859990D02*
X137459990Y-79859990D01*
X136990000Y-79390000D02*
X136990000Y-78650000D01*
X132190000Y-77910000D02*
X132700000Y-77400000D01*
X132190000Y-78650000D02*
X132190000Y-77910000D01*
X136990000Y-77910000D02*
X136990000Y-78650000D01*
X136480000Y-77400000D02*
X136990000Y-77910000D01*
X132700000Y-77400000D02*
X136480000Y-77400000D01*
D24*
%TO.N,+5V*%
X130012500Y-84200000D02*
X130012500Y-83912500D01*
X130012500Y-83912500D02*
X130000000Y-83900000D01*
X134600000Y-85150000D02*
X134600000Y-84800000D01*
X134600000Y-82100000D02*
X134600000Y-82850000D01*
X139737499Y-83824999D02*
X138912500Y-83000000D01*
X141109999Y-83824999D02*
X139737499Y-83824999D01*
X141700000Y-84415000D02*
X141109999Y-83824999D01*
X134899999Y-81800001D02*
X134600000Y-82100000D01*
X136200001Y-82059999D02*
X135940003Y-81800001D01*
X136200001Y-82231495D02*
X136200001Y-82059999D01*
X135940003Y-81800001D02*
X134899999Y-81800001D01*
X136968506Y-83000000D02*
X136200001Y-82231495D01*
X138912500Y-83000000D02*
X136968506Y-83000000D01*
X131831504Y-83399990D02*
X130812510Y-83399990D01*
X132700010Y-82531484D02*
X131831504Y-83399990D01*
X130812510Y-83399990D02*
X130012500Y-84200000D01*
X132700010Y-82359988D02*
X132700010Y-82531484D01*
X133259997Y-81800001D02*
X132700010Y-82359988D01*
X134300001Y-81800001D02*
X133259997Y-81800001D01*
X134600000Y-82100000D02*
X134300001Y-81800001D01*
X130012500Y-82450000D02*
X130000000Y-82437500D01*
X130012500Y-84200000D02*
X130012500Y-82450000D01*
X141700000Y-84415000D02*
X142485000Y-84415000D01*
X142485000Y-84415000D02*
X142500000Y-84400000D01*
X142500000Y-75000000D02*
X143200000Y-74300000D01*
X145980000Y-74300000D02*
X146030000Y-74250000D01*
X143200000Y-74300000D02*
X145980000Y-74300000D01*
X140512500Y-112200000D02*
X141612500Y-111100000D01*
X141612500Y-111100000D02*
X142900000Y-111100000D01*
D23*
%TO.N,+3V3*%
X140090000Y-97125000D02*
X140300000Y-96915000D01*
X138762500Y-97125000D02*
X140090000Y-97125000D01*
X131737500Y-94100000D02*
X131850000Y-94212500D01*
X130985000Y-94100000D02*
X131737500Y-94100000D01*
X130437500Y-101947500D02*
X130385000Y-102000000D01*
X130437500Y-101125000D02*
X130437500Y-101947500D01*
X138072500Y-103260000D02*
X137350000Y-102537500D01*
X138830000Y-103260000D02*
X138072500Y-103260000D01*
X138845000Y-101207500D02*
X138762500Y-101125000D01*
X138845000Y-102110000D02*
X138845000Y-101207500D01*
X130900000Y-92900000D02*
X130900000Y-91850000D01*
X132400000Y-91485000D02*
X134300000Y-89585000D01*
X134300000Y-89585000D02*
X134300000Y-88900000D01*
X130275000Y-91225000D02*
X130600000Y-90900000D01*
X130900000Y-91850000D02*
X130275000Y-91225000D01*
X130275000Y-91225000D02*
X128200000Y-89150000D01*
X131799990Y-90884990D02*
X132400000Y-91485000D01*
X131799990Y-90399990D02*
X131799990Y-90884990D01*
X131000000Y-89600000D02*
X131799990Y-90399990D01*
X140300000Y-96915000D02*
X141815000Y-96915000D01*
X141815000Y-96915000D02*
X142300000Y-97400000D01*
X138830000Y-102125000D02*
X138845000Y-102110000D01*
X138830000Y-103260000D02*
X138830000Y-102125000D01*
X135541596Y-97500000D02*
X135621598Y-97419998D01*
X136016596Y-97125000D02*
X138762500Y-97125000D01*
X138762500Y-101125000D02*
X137338260Y-101125000D01*
X134700000Y-97500000D02*
X135541596Y-97500000D01*
X135621598Y-97419998D02*
X135721598Y-97419998D01*
X135721598Y-97419998D02*
X136016596Y-97125000D01*
X137338260Y-101125000D02*
X135156630Y-98943370D01*
X136208472Y-100519998D02*
X137350000Y-101661526D01*
X137350000Y-101661526D02*
X137350000Y-102537500D01*
X134516596Y-101125000D02*
X135121598Y-100519998D01*
X135121598Y-100519998D02*
X136208472Y-100519998D01*
X130437500Y-101125000D02*
X134516596Y-101125000D01*
X138120000Y-109940000D02*
X138160000Y-109940000D01*
X138160000Y-109940000D02*
X138900000Y-109200000D01*
X138900000Y-109200000D02*
X140900000Y-109200000D01*
X140900000Y-104300000D02*
X139700000Y-104300000D01*
X139700000Y-104300000D02*
X139200000Y-104800000D01*
%TO.N,/PB9*%
X143880000Y-110200000D02*
X146030000Y-112350000D01*
X139500000Y-110200000D02*
X143880000Y-110200000D01*
X136445013Y-104052798D02*
X136445013Y-104320943D01*
X136350000Y-103957785D02*
X136445013Y-104052798D01*
X136350000Y-102537500D02*
X136350000Y-103957785D01*
X136445013Y-104320943D02*
X136634312Y-104510242D01*
%TO.N,/PB8*%
X144520000Y-108300000D02*
X146030000Y-109810000D01*
X138900000Y-108300000D02*
X144520000Y-108300000D01*
X135930011Y-103355011D02*
X135930011Y-104300000D01*
X135850000Y-103275000D02*
X135930011Y-103355011D01*
X135850000Y-102537500D02*
X135850000Y-103275000D01*
%TO.N,/BOOT0*%
X135232500Y-107840000D02*
X135232500Y-107432500D01*
X135232500Y-107432500D02*
X135200000Y-107400000D01*
X135350000Y-103684990D02*
X135365010Y-103700000D01*
X135350000Y-102537500D02*
X135350000Y-103684990D01*
%TO.N,/PB7_I2C1_SDA*%
X134850000Y-104450000D02*
X134900000Y-104500000D01*
X134850000Y-102537500D02*
X134850000Y-104450000D01*
X145360000Y-106600000D02*
X146030000Y-107270000D01*
X134900000Y-106600000D02*
X145360000Y-106600000D01*
%TO.N,/PB6_I2C1_SCL*%
X134350000Y-102537500D02*
X134350000Y-104850000D01*
X134350000Y-104850000D02*
X134900000Y-105400000D01*
X145360000Y-105400000D02*
X146030000Y-104730000D01*
X134900000Y-105400000D02*
X145360000Y-105400000D01*
%TO.N,/PB5*%
X133850000Y-105350000D02*
X134000000Y-105500000D01*
X133850000Y-102537500D02*
X133850000Y-105350000D01*
X125770000Y-112300000D02*
X123170000Y-114900000D01*
X134000000Y-112300000D02*
X125770000Y-112300000D01*
%TO.N,/PB4*%
X125130000Y-110400000D02*
X123170000Y-112360000D01*
X133400000Y-110400000D02*
X125130000Y-110400000D01*
X133350000Y-102537500D02*
X133350000Y-103900755D01*
X133350000Y-103900755D02*
X133334990Y-103915765D01*
%TO.N,/PB3*%
X123990000Y-109000000D02*
X123170000Y-109820000D01*
X131800000Y-109000000D02*
X123990000Y-109000000D01*
X131800000Y-104712134D02*
X131800000Y-105500000D01*
X132850000Y-103662134D02*
X131800000Y-104712134D01*
X132850000Y-102537500D02*
X132850000Y-103662134D01*
%TO.N,/PA15*%
X130885000Y-104740000D02*
X123170000Y-104740000D01*
X132350000Y-103275000D02*
X130885000Y-104740000D01*
X132350000Y-102537500D02*
X132350000Y-103275000D01*
%TO.N,/PA14_SWCLK*%
X123657500Y-102687500D02*
X123170000Y-102200000D01*
X131850000Y-102537500D02*
X131700000Y-102687500D01*
X133340000Y-122500000D02*
X131140000Y-120300000D01*
X131140000Y-120300000D02*
X130900000Y-120300000D01*
X130900000Y-103000000D02*
X131212500Y-102687500D01*
X130900000Y-103500000D02*
X130900000Y-103000000D01*
X131700000Y-102687500D02*
X131212500Y-102687500D01*
X131212500Y-102687500D02*
X123657500Y-102687500D01*
%TO.N,/PA13_SWDIO*%
X123635000Y-100125000D02*
X123170000Y-99660000D01*
X135880000Y-122500000D02*
X130880000Y-117500000D01*
X130880000Y-117500000D02*
X128100000Y-117500000D01*
X128775000Y-100125000D02*
X128875000Y-100125000D01*
X130437500Y-100125000D02*
X128875000Y-100125000D01*
X128100000Y-100800000D02*
X128775000Y-100125000D01*
X128875000Y-100125000D02*
X123635000Y-100125000D01*
%TO.N,/USB_D+*%
X130437500Y-99625000D02*
X128625000Y-99625000D01*
X128625000Y-99625000D02*
X128300000Y-99300000D01*
X130000000Y-88200000D02*
X130000000Y-87390000D01*
%TO.N,/USB_D-*%
X129225000Y-99125000D02*
X129200000Y-99100000D01*
X130437500Y-99125000D02*
X129225000Y-99125000D01*
X131600000Y-87420000D02*
X131570000Y-87390000D01*
X131600000Y-88200000D02*
X131600000Y-87420000D01*
%TO.N,/PA10_RX*%
X130397498Y-98584998D02*
X124634998Y-98584998D01*
X124634998Y-98584998D02*
X124019999Y-97969999D01*
X130437500Y-98625000D02*
X130397498Y-98584998D01*
X124019999Y-97969999D02*
X123170000Y-97120000D01*
%TO.N,/PA9_TX*%
X126715000Y-98125000D02*
X123170000Y-94580000D01*
X130437500Y-98125000D02*
X126715000Y-98125000D01*
%TO.N,/PA8*%
X124599167Y-93469167D02*
X123170000Y-92040000D01*
X124599167Y-93933033D02*
X124599167Y-93469167D01*
X128291134Y-97625000D02*
X124599167Y-93933033D01*
X130437500Y-97625000D02*
X128291134Y-97625000D01*
%TO.N,/PB15*%
X124170000Y-90500000D02*
X123170000Y-89500000D01*
X125100000Y-90500000D02*
X124170000Y-90500000D01*
X128553336Y-97125000D02*
X125114168Y-93685832D01*
X130437500Y-97125000D02*
X128553336Y-97125000D01*
%TO.N,/PB14*%
X124310000Y-88100000D02*
X123170000Y-86960000D01*
X125900000Y-88100000D02*
X124310000Y-88100000D01*
X130437500Y-96625000D02*
X128825000Y-96625000D01*
X128825000Y-96625000D02*
X125900000Y-93700000D01*
%TO.N,/PB13*%
X124350000Y-85600000D02*
X123170000Y-84420000D01*
X126700000Y-85600000D02*
X124350000Y-85600000D01*
X128938329Y-96125000D02*
X126648176Y-93834847D01*
X126648176Y-93834847D02*
X126648176Y-93692344D01*
X130437500Y-96125000D02*
X128938329Y-96125000D01*
%TO.N,/PB12*%
X124490000Y-83200000D02*
X123170000Y-81880000D01*
X127500000Y-83200000D02*
X124490000Y-83200000D01*
X129200533Y-95625000D02*
X127375296Y-93799763D01*
X130437500Y-95625000D02*
X129200533Y-95625000D01*
%TO.N,/PB11_I2C2_SDA*%
X128300000Y-81400000D02*
X126200000Y-79300000D01*
X123210000Y-79300000D02*
X123170000Y-79340000D01*
X126200000Y-79300000D02*
X123210000Y-79300000D01*
X132771369Y-92572101D02*
X132849251Y-92494219D01*
X132850000Y-94212500D02*
X132850000Y-93326369D01*
X132850000Y-93326369D02*
X132771369Y-93247738D01*
X132771369Y-93247738D02*
X132771369Y-92572101D01*
X129999834Y-89000000D02*
X128719815Y-87719981D01*
X133000000Y-89000000D02*
X129999834Y-89000000D01*
X128719815Y-87719981D02*
X128692504Y-87719981D01*
%TO.N,/PB10_I2C2_SCL*%
X133300000Y-86600000D02*
X128900000Y-86600000D01*
X126300000Y-76800000D02*
X123170000Y-76800000D01*
X128700000Y-79200000D02*
X126300000Y-76800000D01*
X133350000Y-93071004D02*
X133329573Y-93050577D01*
X133350000Y-94212500D02*
X133350000Y-93071004D01*
%TO.N,/PB2*%
X133850000Y-94212500D02*
X133850000Y-92695419D01*
X133850000Y-92695419D02*
X133925328Y-92620091D01*
X128184999Y-82433735D02*
X129084990Y-81533744D01*
X128184999Y-87632375D02*
X128184999Y-82433735D01*
X127582384Y-88234990D02*
X128184999Y-87632375D01*
X129084990Y-80128724D02*
X129353724Y-79859990D01*
X129084990Y-81533744D02*
X129084990Y-80128724D01*
X132722658Y-91995010D02*
X131195011Y-91995010D01*
X137117668Y-87600000D02*
X132722658Y-91995010D01*
X131195011Y-91995010D02*
X131195011Y-90612385D01*
X131195011Y-90612385D02*
X128817616Y-88234990D01*
X128817616Y-88234990D02*
X127582384Y-88234990D01*
X140000000Y-87600000D02*
X137117668Y-87600000D01*
X129353724Y-79859990D02*
X129353724Y-79012126D01*
X129353724Y-79012126D02*
X128619999Y-78278401D01*
X128619999Y-78278401D02*
X128619999Y-77721599D01*
X128619999Y-77721599D02*
X129551608Y-76789990D01*
X129551608Y-76789990D02*
X139747909Y-76789990D01*
X139747909Y-76789990D02*
X144827919Y-81870000D01*
X144827919Y-81870000D02*
X146030000Y-81870000D01*
%TO.N,/PB1*%
X134350000Y-94212500D02*
X134350000Y-93155985D01*
X146030000Y-79330000D02*
X144054990Y-79330000D01*
X144054990Y-79330000D02*
X143584990Y-79800000D01*
X134350000Y-93155985D02*
X134604230Y-92901755D01*
X142500000Y-85900000D02*
X142684990Y-85900000D01*
X140000000Y-88400000D02*
X142500000Y-85900000D01*
%TO.N,/PB0*%
X135439998Y-92885002D02*
X135611129Y-92885002D01*
X134850000Y-94212500D02*
X134850000Y-93475000D01*
X134850000Y-93475000D02*
X135439998Y-92885002D01*
X142525450Y-86600000D02*
X143200000Y-86600000D01*
X140844990Y-88280460D02*
X142525450Y-86600000D01*
X140000000Y-89200000D02*
X140844990Y-88355010D01*
X140844990Y-88355010D02*
X140844990Y-88280460D01*
X144720000Y-78100000D02*
X146030000Y-76790000D01*
X144100000Y-78100000D02*
X144720000Y-78100000D01*
%TO.N,/PA7_SPI1_MOSI*%
X144040000Y-100200000D02*
X146030000Y-102190000D01*
X140000000Y-100200000D02*
X144040000Y-100200000D01*
X135350000Y-96933230D02*
X135381270Y-96964500D01*
X135350000Y-94212500D02*
X135350000Y-96933230D01*
%TO.N,/PA6_SPI1_MISO*%
X135850000Y-94212500D02*
X135850000Y-96084990D01*
X135850000Y-96084990D02*
X135865010Y-96100000D01*
X146030000Y-99650000D02*
X140281571Y-99650000D01*
X140281571Y-99650000D02*
X140103946Y-99472375D01*
%TO.N,/PA5_SPI1_SCK*%
X136350000Y-94212500D02*
X136350000Y-95427887D01*
X136350000Y-95427887D02*
X136365010Y-95442897D01*
X144402625Y-98737375D02*
X140099846Y-98737375D01*
X146030000Y-97110000D02*
X144402625Y-98737375D01*
%TO.N,/PA4*%
X145434990Y-95165010D02*
X146030000Y-94570000D01*
X137065010Y-95165010D02*
X145434990Y-95165010D01*
X136850000Y-94950000D02*
X137065010Y-95165010D01*
X136850000Y-94212500D02*
X136850000Y-94950000D01*
%TO.N,/PA3*%
X138682501Y-92879999D02*
X145180001Y-92879999D01*
X145180001Y-92879999D02*
X146030000Y-92030000D01*
X137350000Y-94212500D02*
X138682501Y-92879999D01*
%TO.N,/PA2*%
X146030000Y-89490000D02*
X143799979Y-89490000D01*
X143799979Y-89490000D02*
X142989979Y-90300000D01*
X143237180Y-95475000D02*
X143442200Y-95680020D01*
X138762500Y-95625000D02*
X138912500Y-95475000D01*
X138912500Y-95475000D02*
X143237180Y-95475000D01*
%TO.N,/PA1*%
X144280000Y-88700000D02*
X143284990Y-88700000D01*
X146030000Y-86950000D02*
X144280000Y-88700000D01*
X138811324Y-96076176D02*
X142811806Y-96076176D01*
X138762500Y-96125000D02*
X138811324Y-96076176D01*
X142811806Y-96076176D02*
X142847256Y-96111626D01*
%TO.N,/PA0*%
X144440000Y-86000000D02*
X146030000Y-84410000D01*
X143800000Y-86000000D02*
X144440000Y-86000000D01*
X143886157Y-96726550D02*
X144186156Y-96426551D01*
X139757332Y-96625000D02*
X140007971Y-96374361D01*
X138762500Y-96625000D02*
X139757332Y-96625000D01*
X142727443Y-96726550D02*
X143886157Y-96726550D01*
X142375254Y-96374361D02*
X142727443Y-96726550D01*
X140007971Y-96374361D02*
X142375254Y-96374361D01*
%TO.N,/LED_3v3_SIGNAL*%
X137962500Y-115850000D02*
X137012500Y-114900000D01*
X140100000Y-115850000D02*
X137962500Y-115850000D01*
X140537500Y-110900000D02*
X140750000Y-110900000D01*
X137012500Y-114900000D02*
X137012500Y-114425000D01*
X137012500Y-114425000D02*
X140537500Y-110900000D01*
X139662798Y-100625000D02*
X138762500Y-100625000D01*
X139752799Y-100715001D02*
X139662798Y-100625000D01*
X141265001Y-100715001D02*
X139752799Y-100715001D01*
X141350000Y-100800000D02*
X141265001Y-100715001D01*
%TO.N,Net-(J2-PadB5)*%
X132840000Y-79572500D02*
X132840000Y-78650000D01*
X131900000Y-80512500D02*
X132840000Y-79572500D01*
%TO.N,Net-(J2-PadA6)*%
X133650000Y-80650000D02*
X133840000Y-80460000D01*
X134670000Y-79560000D02*
X133840000Y-79560000D01*
X134840000Y-78650000D02*
X134840000Y-79390000D01*
X134840000Y-79390000D02*
X134670000Y-79560000D01*
X133840000Y-80460000D02*
X133840000Y-79560000D01*
X133840000Y-79560000D02*
X133840000Y-78650000D01*
%TO.N,Net-(J2-PadA5)*%
X135840000Y-79527500D02*
X135840000Y-78650000D01*
X136825000Y-80512500D02*
X135840000Y-79527500D01*
X137300000Y-80512500D02*
X136825000Y-80512500D01*
%TO.N,Net-(J2-PadA7)*%
X135340000Y-80440000D02*
X135340000Y-78650000D01*
X135550000Y-80650000D02*
X135340000Y-80440000D01*
X134395001Y-77854999D02*
X135284999Y-77854999D01*
X135340000Y-77910000D02*
X135340000Y-78650000D01*
X134340000Y-77910000D02*
X134395001Y-77854999D01*
X135284999Y-77854999D02*
X135340000Y-77910000D01*
X134340000Y-78650000D02*
X134340000Y-77910000D01*
%TO.N,Net-(JP1-Pad2)*%
X136807500Y-109927500D02*
X136820000Y-109940000D01*
X136807500Y-107840000D02*
X136807500Y-109927500D01*
%TO.N,/LED_5v0_SIGNAL*%
X142100000Y-112212500D02*
X142087500Y-112200000D01*
X142100000Y-114900000D02*
X142100000Y-112212500D01*
X146020000Y-114900000D02*
X146030000Y-114890000D01*
X142100000Y-114900000D02*
X146020000Y-114900000D01*
%TO.N,Net-(Q1-Pad1)*%
X139537500Y-113950000D02*
X138587500Y-114900000D01*
X140100000Y-113950000D02*
X139537500Y-113950000D01*
%TO.N,/USB_20R_D+*%
X133650000Y-82850000D02*
X133550000Y-82850000D01*
X132200000Y-84200000D02*
X131587500Y-84200000D01*
X133550000Y-82850000D02*
X132200000Y-84200000D01*
X131587500Y-84227500D02*
X130000000Y-85815000D01*
X131587500Y-84200000D02*
X131587500Y-84227500D01*
%TO.N,/USB_20R_D-*%
X135550000Y-83540000D02*
X135550000Y-82850000D01*
X133515001Y-83869999D02*
X135220001Y-83869999D01*
X135220001Y-83869999D02*
X135550000Y-83540000D01*
X131570000Y-85815000D02*
X133515001Y-83869999D01*
%TD*%
D25*
%TO.N,+3V3*%
G36*
X138247000Y-109813000D02*
G01*
X138267000Y-109813000D01*
X138267000Y-110067000D01*
X138247000Y-110067000D01*
X138247000Y-111166250D01*
X138405750Y-111325000D01*
X138620000Y-111328072D01*
X138744482Y-111315812D01*
X138864180Y-111279502D01*
X138974494Y-111220537D01*
X139071185Y-111141185D01*
X139136579Y-111061502D01*
X139227271Y-111099068D01*
X139310678Y-111115659D01*
X136621360Y-113804979D01*
X136465858Y-113852150D01*
X136317725Y-113931329D01*
X136187885Y-114037885D01*
X136081329Y-114167725D01*
X136002150Y-114315858D01*
X135991726Y-114350222D01*
X135872729Y-114300932D01*
X135692089Y-114265000D01*
X135507911Y-114265000D01*
X135389622Y-114288530D01*
X135285757Y-114257023D01*
X135132500Y-114241928D01*
X134837500Y-114241928D01*
X134684243Y-114257023D01*
X134536875Y-114301726D01*
X134500000Y-114321436D01*
X134463125Y-114301726D01*
X134315757Y-114257023D01*
X134162500Y-114241928D01*
X133867500Y-114241928D01*
X133714243Y-114257023D01*
X133566875Y-114301726D01*
X133482948Y-114346586D01*
X133372729Y-114300932D01*
X133192089Y-114265000D01*
X133007911Y-114265000D01*
X132827271Y-114300932D01*
X132657111Y-114371414D01*
X132503972Y-114473738D01*
X132373738Y-114603972D01*
X132271414Y-114757111D01*
X132200932Y-114927271D01*
X132165000Y-115107911D01*
X132165000Y-115292089D01*
X132200932Y-115472729D01*
X132271414Y-115642889D01*
X132373738Y-115796028D01*
X132503972Y-115926262D01*
X132657111Y-116028586D01*
X132827271Y-116099068D01*
X132852776Y-116104141D01*
X132830498Y-116145820D01*
X132794188Y-116265518D01*
X132781928Y-116390000D01*
X132781928Y-117890000D01*
X132794188Y-118014482D01*
X132830498Y-118134180D01*
X132889463Y-118244494D01*
X132968815Y-118341185D01*
X133065506Y-118420537D01*
X133175820Y-118479502D01*
X133295518Y-118515812D01*
X133420000Y-118528072D01*
X134420000Y-118528072D01*
X134544482Y-118515812D01*
X134570000Y-118508071D01*
X134595518Y-118515812D01*
X134720000Y-118528072D01*
X135720000Y-118528072D01*
X135844482Y-118515812D01*
X135964180Y-118479502D01*
X136074494Y-118420537D01*
X136171185Y-118341185D01*
X136250537Y-118244494D01*
X136309502Y-118134180D01*
X136316777Y-118110198D01*
X136372729Y-118099068D01*
X136542889Y-118028586D01*
X136696028Y-117926262D01*
X136826262Y-117796028D01*
X136928586Y-117642889D01*
X136999068Y-117472729D01*
X137035000Y-117292089D01*
X137035000Y-117107911D01*
X136999068Y-116927271D01*
X136928586Y-116757111D01*
X136826262Y-116603972D01*
X136696028Y-116473738D01*
X136542889Y-116371414D01*
X136372729Y-116300932D01*
X136348832Y-116296178D01*
X136345812Y-116265518D01*
X136309502Y-116145820D01*
X136250537Y-116035506D01*
X136173330Y-115941428D01*
X136196028Y-115926262D01*
X136282515Y-115839775D01*
X136317725Y-115868671D01*
X136465858Y-115947850D01*
X136626592Y-115996608D01*
X136793750Y-116013072D01*
X137114410Y-116013072D01*
X137432088Y-116330751D01*
X137454473Y-116358027D01*
X137481748Y-116380411D01*
X137481752Y-116380415D01*
X137494648Y-116390998D01*
X137563346Y-116447377D01*
X137687558Y-116513770D01*
X137822336Y-116554654D01*
X137927380Y-116565000D01*
X137927390Y-116565000D01*
X137962500Y-116568458D01*
X137997610Y-116565000D01*
X139098353Y-116565000D01*
X139119463Y-116604494D01*
X139198815Y-116701185D01*
X139295506Y-116780537D01*
X139405820Y-116839502D01*
X139525518Y-116875812D01*
X139650000Y-116888072D01*
X140550000Y-116888072D01*
X140674482Y-116875812D01*
X140794180Y-116839502D01*
X140904494Y-116780537D01*
X141001185Y-116701185D01*
X141080537Y-116604494D01*
X141139502Y-116494180D01*
X141175812Y-116374482D01*
X141188072Y-116250000D01*
X141188072Y-115738095D01*
X141198815Y-115751185D01*
X141295506Y-115830537D01*
X141405820Y-115889502D01*
X141525518Y-115925812D01*
X141650000Y-115938072D01*
X142550000Y-115938072D01*
X142674482Y-115925812D01*
X142794180Y-115889502D01*
X142904494Y-115830537D01*
X143001185Y-115751185D01*
X143080537Y-115654494D01*
X143101647Y-115615000D01*
X144728435Y-115615000D01*
X144876525Y-115836632D01*
X145083368Y-116043475D01*
X145257760Y-116160000D01*
X145083368Y-116276525D01*
X144876525Y-116483368D01*
X144714010Y-116726589D01*
X144602068Y-116996842D01*
X144545000Y-117283740D01*
X144545000Y-117576260D01*
X144602068Y-117863158D01*
X144714010Y-118133411D01*
X144876525Y-118376632D01*
X145083368Y-118583475D01*
X145265534Y-118705195D01*
X145148645Y-118774822D01*
X144932412Y-118969731D01*
X144758359Y-119203080D01*
X144633175Y-119465901D01*
X144588524Y-119613110D01*
X144709845Y-119843000D01*
X145903000Y-119843000D01*
X145903000Y-119823000D01*
X146157000Y-119823000D01*
X146157000Y-119843000D01*
X146177000Y-119843000D01*
X146177000Y-120097000D01*
X146157000Y-120097000D01*
X146157000Y-120117000D01*
X145903000Y-120117000D01*
X145903000Y-120097000D01*
X144709845Y-120097000D01*
X144588524Y-120326890D01*
X144633175Y-120474099D01*
X144758359Y-120736920D01*
X144932412Y-120970269D01*
X145148645Y-121165178D01*
X145265534Y-121234805D01*
X145083368Y-121356525D01*
X144876525Y-121563368D01*
X144714010Y-121806589D01*
X144602068Y-122076842D01*
X144545000Y-122363740D01*
X144545000Y-122656260D01*
X144602068Y-122943158D01*
X144714010Y-123213411D01*
X144876525Y-123456632D01*
X145083368Y-123663475D01*
X145326589Y-123825990D01*
X145596842Y-123937932D01*
X145883740Y-123995000D01*
X146176260Y-123995000D01*
X146463158Y-123937932D01*
X146733411Y-123825990D01*
X146940000Y-123687952D01*
X146940000Y-123867721D01*
X146930420Y-123965424D01*
X146911420Y-124028357D01*
X146880554Y-124086406D01*
X146839011Y-124137343D01*
X146788356Y-124179248D01*
X146730529Y-124210515D01*
X146667728Y-124229956D01*
X146572165Y-124240000D01*
X131482290Y-124240000D01*
X131526262Y-124196028D01*
X131628586Y-124042889D01*
X131651347Y-123987939D01*
X131774482Y-123975812D01*
X131894180Y-123939502D01*
X132004494Y-123880537D01*
X132101185Y-123801185D01*
X132180537Y-123704494D01*
X132239502Y-123594180D01*
X132261513Y-123521620D01*
X132393368Y-123653475D01*
X132636589Y-123815990D01*
X132906842Y-123927932D01*
X133193740Y-123985000D01*
X133486260Y-123985000D01*
X133773158Y-123927932D01*
X134043411Y-123815990D01*
X134286632Y-123653475D01*
X134493475Y-123446632D01*
X134610000Y-123272240D01*
X134726525Y-123446632D01*
X134933368Y-123653475D01*
X135176589Y-123815990D01*
X135446842Y-123927932D01*
X135733740Y-123985000D01*
X136026260Y-123985000D01*
X136313158Y-123927932D01*
X136583411Y-123815990D01*
X136826632Y-123653475D01*
X137033475Y-123446632D01*
X137155195Y-123264466D01*
X137224822Y-123381355D01*
X137419731Y-123597588D01*
X137653080Y-123771641D01*
X137915901Y-123896825D01*
X138063110Y-123941476D01*
X138293000Y-123820155D01*
X138293000Y-122627000D01*
X138547000Y-122627000D01*
X138547000Y-123820155D01*
X138776890Y-123941476D01*
X138924099Y-123896825D01*
X139186920Y-123771641D01*
X139420269Y-123597588D01*
X139615178Y-123381355D01*
X139764157Y-123131252D01*
X139861481Y-122856891D01*
X139740814Y-122627000D01*
X138547000Y-122627000D01*
X138293000Y-122627000D01*
X138273000Y-122627000D01*
X138273000Y-122373000D01*
X138293000Y-122373000D01*
X138293000Y-121179845D01*
X138547000Y-121179845D01*
X138547000Y-122373000D01*
X139740814Y-122373000D01*
X139861481Y-122143109D01*
X139764157Y-121868748D01*
X139615178Y-121618645D01*
X139420269Y-121402412D01*
X139186920Y-121228359D01*
X138924099Y-121103175D01*
X138776890Y-121058524D01*
X138547000Y-121179845D01*
X138293000Y-121179845D01*
X138063110Y-121058524D01*
X137915901Y-121103175D01*
X137653080Y-121228359D01*
X137419731Y-121402412D01*
X137224822Y-121618645D01*
X137155195Y-121735534D01*
X137033475Y-121553368D01*
X136826632Y-121346525D01*
X136583411Y-121184010D01*
X136313158Y-121072068D01*
X136026260Y-121015000D01*
X135733740Y-121015000D01*
X135460512Y-121069349D01*
X131410420Y-117019259D01*
X131388027Y-116991973D01*
X131279154Y-116902623D01*
X131154942Y-116836230D01*
X131020164Y-116795346D01*
X130915120Y-116785000D01*
X130915110Y-116785000D01*
X130880000Y-116781542D01*
X130844890Y-116785000D01*
X128707290Y-116785000D01*
X128696028Y-116773738D01*
X128542889Y-116671414D01*
X128372729Y-116600932D01*
X128192089Y-116565000D01*
X128007911Y-116565000D01*
X127827271Y-116600932D01*
X127657111Y-116671414D01*
X127503972Y-116773738D01*
X127373738Y-116903972D01*
X127271414Y-117057111D01*
X127200932Y-117227271D01*
X127165000Y-117407911D01*
X127165000Y-117592089D01*
X127200932Y-117772729D01*
X127271414Y-117942889D01*
X127373738Y-118096028D01*
X127503972Y-118226262D01*
X127657111Y-118328586D01*
X127827271Y-118399068D01*
X128007911Y-118435000D01*
X128192089Y-118435000D01*
X128372729Y-118399068D01*
X128542889Y-118328586D01*
X128696028Y-118226262D01*
X128707290Y-118215000D01*
X130583839Y-118215000D01*
X133383838Y-121015000D01*
X133193740Y-121015000D01*
X132920511Y-121069349D01*
X131742950Y-119891789D01*
X131728586Y-119857111D01*
X131626262Y-119703972D01*
X131496028Y-119573738D01*
X131342889Y-119471414D01*
X131172729Y-119400932D01*
X130992089Y-119365000D01*
X130807911Y-119365000D01*
X130627271Y-119400932D01*
X130457111Y-119471414D01*
X130303972Y-119573738D01*
X130173738Y-119703972D01*
X130071414Y-119857111D01*
X130000932Y-120027271D01*
X129965000Y-120207911D01*
X129965000Y-120392089D01*
X130000932Y-120572729D01*
X130071414Y-120742889D01*
X130173738Y-120896028D01*
X130289638Y-121011928D01*
X129950000Y-121011928D01*
X129825518Y-121024188D01*
X129705820Y-121060498D01*
X129595506Y-121119463D01*
X129498815Y-121198815D01*
X129419463Y-121295506D01*
X129360498Y-121405820D01*
X129324188Y-121525518D01*
X129311928Y-121650000D01*
X129311928Y-123350000D01*
X129324188Y-123474482D01*
X129360498Y-123594180D01*
X129419463Y-123704494D01*
X129498815Y-123801185D01*
X129595506Y-123880537D01*
X129705820Y-123939502D01*
X129825518Y-123975812D01*
X129948653Y-123987939D01*
X129971414Y-124042889D01*
X130073738Y-124196028D01*
X130117710Y-124240000D01*
X122632279Y-124240000D01*
X122534576Y-124230420D01*
X122471643Y-124211420D01*
X122413594Y-124180554D01*
X122362657Y-124139011D01*
X122320752Y-124088356D01*
X122289485Y-124030529D01*
X122270044Y-123967728D01*
X122260000Y-123872165D01*
X122260000Y-123689358D01*
X122288645Y-123715178D01*
X122538748Y-123864157D01*
X122813109Y-123961481D01*
X123043000Y-123840814D01*
X123043000Y-122647000D01*
X123297000Y-122647000D01*
X123297000Y-123840814D01*
X123526891Y-123961481D01*
X123801252Y-123864157D01*
X124051355Y-123715178D01*
X124267588Y-123520269D01*
X124441641Y-123286920D01*
X124566825Y-123024099D01*
X124611476Y-122876890D01*
X124490155Y-122647000D01*
X123297000Y-122647000D01*
X123043000Y-122647000D01*
X123023000Y-122647000D01*
X123023000Y-122393000D01*
X123043000Y-122393000D01*
X123043000Y-122373000D01*
X123297000Y-122373000D01*
X123297000Y-122393000D01*
X124490155Y-122393000D01*
X124611476Y-122163110D01*
X124566825Y-122015901D01*
X124441641Y-121753080D01*
X124267588Y-121519731D01*
X124051355Y-121324822D01*
X123934466Y-121255195D01*
X124116632Y-121133475D01*
X124323475Y-120926632D01*
X124485990Y-120683411D01*
X124597932Y-120413158D01*
X124655000Y-120126260D01*
X124655000Y-119833740D01*
X124597932Y-119546842D01*
X124485990Y-119276589D01*
X124323475Y-119033368D01*
X124116632Y-118826525D01*
X123934466Y-118704805D01*
X124051355Y-118635178D01*
X124267588Y-118440269D01*
X124441641Y-118206920D01*
X124566825Y-117944099D01*
X124611476Y-117796890D01*
X124490155Y-117567000D01*
X123297000Y-117567000D01*
X123297000Y-117587000D01*
X123043000Y-117587000D01*
X123043000Y-117567000D01*
X123023000Y-117567000D01*
X123023000Y-117313000D01*
X123043000Y-117313000D01*
X123043000Y-117293000D01*
X123297000Y-117293000D01*
X123297000Y-117313000D01*
X124490155Y-117313000D01*
X124611476Y-117083110D01*
X124566825Y-116935901D01*
X124441641Y-116673080D01*
X124267588Y-116439731D01*
X124051355Y-116244822D01*
X123934466Y-116175195D01*
X124116632Y-116053475D01*
X124323475Y-115846632D01*
X124485990Y-115603411D01*
X124597932Y-115333158D01*
X124655000Y-115046260D01*
X124655000Y-114753740D01*
X124600651Y-114480511D01*
X126066162Y-113015000D01*
X133392710Y-113015000D01*
X133403972Y-113026262D01*
X133557111Y-113128586D01*
X133727271Y-113199068D01*
X133907911Y-113235000D01*
X134092089Y-113235000D01*
X134272729Y-113199068D01*
X134442889Y-113128586D01*
X134596028Y-113026262D01*
X134726262Y-112896028D01*
X134828586Y-112742889D01*
X134899068Y-112572729D01*
X134935000Y-112392089D01*
X134935000Y-112207911D01*
X134899068Y-112027271D01*
X134828586Y-111857111D01*
X134726262Y-111703972D01*
X134596028Y-111573738D01*
X134442889Y-111471414D01*
X134272729Y-111400932D01*
X134092089Y-111365000D01*
X133907911Y-111365000D01*
X133727271Y-111400932D01*
X133557111Y-111471414D01*
X133403972Y-111573738D01*
X133392710Y-111585000D01*
X125805109Y-111585000D01*
X125769999Y-111581542D01*
X125734889Y-111585000D01*
X125734880Y-111585000D01*
X125629836Y-111595346D01*
X125495058Y-111636230D01*
X125370846Y-111702623D01*
X125261973Y-111791973D01*
X125239584Y-111819254D01*
X124655000Y-112403838D01*
X124655000Y-112213740D01*
X124600651Y-111940511D01*
X125426163Y-111115000D01*
X132792710Y-111115000D01*
X132803972Y-111126262D01*
X132957111Y-111228586D01*
X133127271Y-111299068D01*
X133307911Y-111335000D01*
X133492089Y-111335000D01*
X133672729Y-111299068D01*
X133842889Y-111228586D01*
X133996028Y-111126262D01*
X134126262Y-110996028D01*
X134228586Y-110842889D01*
X134273175Y-110735240D01*
X134391198Y-110784126D01*
X134394188Y-110814482D01*
X134430498Y-110934180D01*
X134489463Y-111044494D01*
X134568815Y-111141185D01*
X134665506Y-111220537D01*
X134775820Y-111279502D01*
X134895518Y-111315812D01*
X135020000Y-111328072D01*
X136020000Y-111328072D01*
X136144482Y-111315812D01*
X136170000Y-111308071D01*
X136195518Y-111315812D01*
X136320000Y-111328072D01*
X137320000Y-111328072D01*
X137444482Y-111315812D01*
X137470000Y-111308071D01*
X137495518Y-111315812D01*
X137620000Y-111328072D01*
X137834250Y-111325000D01*
X137993000Y-111166250D01*
X137993000Y-110067000D01*
X137973000Y-110067000D01*
X137973000Y-109813000D01*
X137993000Y-109813000D01*
X137993000Y-109793000D01*
X138247000Y-109793000D01*
X138247000Y-109813000D01*
G37*
X138247000Y-109813000D02*
X138267000Y-109813000D01*
X138267000Y-110067000D01*
X138247000Y-110067000D01*
X138247000Y-111166250D01*
X138405750Y-111325000D01*
X138620000Y-111328072D01*
X138744482Y-111315812D01*
X138864180Y-111279502D01*
X138974494Y-111220537D01*
X139071185Y-111141185D01*
X139136579Y-111061502D01*
X139227271Y-111099068D01*
X139310678Y-111115659D01*
X136621360Y-113804979D01*
X136465858Y-113852150D01*
X136317725Y-113931329D01*
X136187885Y-114037885D01*
X136081329Y-114167725D01*
X136002150Y-114315858D01*
X135991726Y-114350222D01*
X135872729Y-114300932D01*
X135692089Y-114265000D01*
X135507911Y-114265000D01*
X135389622Y-114288530D01*
X135285757Y-114257023D01*
X135132500Y-114241928D01*
X134837500Y-114241928D01*
X134684243Y-114257023D01*
X134536875Y-114301726D01*
X134500000Y-114321436D01*
X134463125Y-114301726D01*
X134315757Y-114257023D01*
X134162500Y-114241928D01*
X133867500Y-114241928D01*
X133714243Y-114257023D01*
X133566875Y-114301726D01*
X133482948Y-114346586D01*
X133372729Y-114300932D01*
X133192089Y-114265000D01*
X133007911Y-114265000D01*
X132827271Y-114300932D01*
X132657111Y-114371414D01*
X132503972Y-114473738D01*
X132373738Y-114603972D01*
X132271414Y-114757111D01*
X132200932Y-114927271D01*
X132165000Y-115107911D01*
X132165000Y-115292089D01*
X132200932Y-115472729D01*
X132271414Y-115642889D01*
X132373738Y-115796028D01*
X132503972Y-115926262D01*
X132657111Y-116028586D01*
X132827271Y-116099068D01*
X132852776Y-116104141D01*
X132830498Y-116145820D01*
X132794188Y-116265518D01*
X132781928Y-116390000D01*
X132781928Y-117890000D01*
X132794188Y-118014482D01*
X132830498Y-118134180D01*
X132889463Y-118244494D01*
X132968815Y-118341185D01*
X133065506Y-118420537D01*
X133175820Y-118479502D01*
X133295518Y-118515812D01*
X133420000Y-118528072D01*
X134420000Y-118528072D01*
X134544482Y-118515812D01*
X134570000Y-118508071D01*
X134595518Y-118515812D01*
X134720000Y-118528072D01*
X135720000Y-118528072D01*
X135844482Y-118515812D01*
X135964180Y-118479502D01*
X136074494Y-118420537D01*
X136171185Y-118341185D01*
X136250537Y-118244494D01*
X136309502Y-118134180D01*
X136316777Y-118110198D01*
X136372729Y-118099068D01*
X136542889Y-118028586D01*
X136696028Y-117926262D01*
X136826262Y-117796028D01*
X136928586Y-117642889D01*
X136999068Y-117472729D01*
X137035000Y-117292089D01*
X137035000Y-117107911D01*
X136999068Y-116927271D01*
X136928586Y-116757111D01*
X136826262Y-116603972D01*
X136696028Y-116473738D01*
X136542889Y-116371414D01*
X136372729Y-116300932D01*
X136348832Y-116296178D01*
X136345812Y-116265518D01*
X136309502Y-116145820D01*
X136250537Y-116035506D01*
X136173330Y-115941428D01*
X136196028Y-115926262D01*
X136282515Y-115839775D01*
X136317725Y-115868671D01*
X136465858Y-115947850D01*
X136626592Y-115996608D01*
X136793750Y-116013072D01*
X137114410Y-116013072D01*
X137432088Y-116330751D01*
X137454473Y-116358027D01*
X137481748Y-116380411D01*
X137481752Y-116380415D01*
X137494648Y-116390998D01*
X137563346Y-116447377D01*
X137687558Y-116513770D01*
X137822336Y-116554654D01*
X137927380Y-116565000D01*
X137927390Y-116565000D01*
X137962500Y-116568458D01*
X137997610Y-116565000D01*
X139098353Y-116565000D01*
X139119463Y-116604494D01*
X139198815Y-116701185D01*
X139295506Y-116780537D01*
X139405820Y-116839502D01*
X139525518Y-116875812D01*
X139650000Y-116888072D01*
X140550000Y-116888072D01*
X140674482Y-116875812D01*
X140794180Y-116839502D01*
X140904494Y-116780537D01*
X141001185Y-116701185D01*
X141080537Y-116604494D01*
X141139502Y-116494180D01*
X141175812Y-116374482D01*
X141188072Y-116250000D01*
X141188072Y-115738095D01*
X141198815Y-115751185D01*
X141295506Y-115830537D01*
X141405820Y-115889502D01*
X141525518Y-115925812D01*
X141650000Y-115938072D01*
X142550000Y-115938072D01*
X142674482Y-115925812D01*
X142794180Y-115889502D01*
X142904494Y-115830537D01*
X143001185Y-115751185D01*
X143080537Y-115654494D01*
X143101647Y-115615000D01*
X144728435Y-115615000D01*
X144876525Y-115836632D01*
X145083368Y-116043475D01*
X145257760Y-116160000D01*
X145083368Y-116276525D01*
X144876525Y-116483368D01*
X144714010Y-116726589D01*
X144602068Y-116996842D01*
X144545000Y-117283740D01*
X144545000Y-117576260D01*
X144602068Y-117863158D01*
X144714010Y-118133411D01*
X144876525Y-118376632D01*
X145083368Y-118583475D01*
X145265534Y-118705195D01*
X145148645Y-118774822D01*
X144932412Y-118969731D01*
X144758359Y-119203080D01*
X144633175Y-119465901D01*
X144588524Y-119613110D01*
X144709845Y-119843000D01*
X145903000Y-119843000D01*
X145903000Y-119823000D01*
X146157000Y-119823000D01*
X146157000Y-119843000D01*
X146177000Y-119843000D01*
X146177000Y-120097000D01*
X146157000Y-120097000D01*
X146157000Y-120117000D01*
X145903000Y-120117000D01*
X145903000Y-120097000D01*
X144709845Y-120097000D01*
X144588524Y-120326890D01*
X144633175Y-120474099D01*
X144758359Y-120736920D01*
X144932412Y-120970269D01*
X145148645Y-121165178D01*
X145265534Y-121234805D01*
X145083368Y-121356525D01*
X144876525Y-121563368D01*
X144714010Y-121806589D01*
X144602068Y-122076842D01*
X144545000Y-122363740D01*
X144545000Y-122656260D01*
X144602068Y-122943158D01*
X144714010Y-123213411D01*
X144876525Y-123456632D01*
X145083368Y-123663475D01*
X145326589Y-123825990D01*
X145596842Y-123937932D01*
X145883740Y-123995000D01*
X146176260Y-123995000D01*
X146463158Y-123937932D01*
X146733411Y-123825990D01*
X146940000Y-123687952D01*
X146940000Y-123867721D01*
X146930420Y-123965424D01*
X146911420Y-124028357D01*
X146880554Y-124086406D01*
X146839011Y-124137343D01*
X146788356Y-124179248D01*
X146730529Y-124210515D01*
X146667728Y-124229956D01*
X146572165Y-124240000D01*
X131482290Y-124240000D01*
X131526262Y-124196028D01*
X131628586Y-124042889D01*
X131651347Y-123987939D01*
X131774482Y-123975812D01*
X131894180Y-123939502D01*
X132004494Y-123880537D01*
X132101185Y-123801185D01*
X132180537Y-123704494D01*
X132239502Y-123594180D01*
X132261513Y-123521620D01*
X132393368Y-123653475D01*
X132636589Y-123815990D01*
X132906842Y-123927932D01*
X133193740Y-123985000D01*
X133486260Y-123985000D01*
X133773158Y-123927932D01*
X134043411Y-123815990D01*
X134286632Y-123653475D01*
X134493475Y-123446632D01*
X134610000Y-123272240D01*
X134726525Y-123446632D01*
X134933368Y-123653475D01*
X135176589Y-123815990D01*
X135446842Y-123927932D01*
X135733740Y-123985000D01*
X136026260Y-123985000D01*
X136313158Y-123927932D01*
X136583411Y-123815990D01*
X136826632Y-123653475D01*
X137033475Y-123446632D01*
X137155195Y-123264466D01*
X137224822Y-123381355D01*
X137419731Y-123597588D01*
X137653080Y-123771641D01*
X137915901Y-123896825D01*
X138063110Y-123941476D01*
X138293000Y-123820155D01*
X138293000Y-122627000D01*
X138547000Y-122627000D01*
X138547000Y-123820155D01*
X138776890Y-123941476D01*
X138924099Y-123896825D01*
X139186920Y-123771641D01*
X139420269Y-123597588D01*
X139615178Y-123381355D01*
X139764157Y-123131252D01*
X139861481Y-122856891D01*
X139740814Y-122627000D01*
X138547000Y-122627000D01*
X138293000Y-122627000D01*
X138273000Y-122627000D01*
X138273000Y-122373000D01*
X138293000Y-122373000D01*
X138293000Y-121179845D01*
X138547000Y-121179845D01*
X138547000Y-122373000D01*
X139740814Y-122373000D01*
X139861481Y-122143109D01*
X139764157Y-121868748D01*
X139615178Y-121618645D01*
X139420269Y-121402412D01*
X139186920Y-121228359D01*
X138924099Y-121103175D01*
X138776890Y-121058524D01*
X138547000Y-121179845D01*
X138293000Y-121179845D01*
X138063110Y-121058524D01*
X137915901Y-121103175D01*
X137653080Y-121228359D01*
X137419731Y-121402412D01*
X137224822Y-121618645D01*
X137155195Y-121735534D01*
X137033475Y-121553368D01*
X136826632Y-121346525D01*
X136583411Y-121184010D01*
X136313158Y-121072068D01*
X136026260Y-121015000D01*
X135733740Y-121015000D01*
X135460512Y-121069349D01*
X131410420Y-117019259D01*
X131388027Y-116991973D01*
X131279154Y-116902623D01*
X131154942Y-116836230D01*
X131020164Y-116795346D01*
X130915120Y-116785000D01*
X130915110Y-116785000D01*
X130880000Y-116781542D01*
X130844890Y-116785000D01*
X128707290Y-116785000D01*
X128696028Y-116773738D01*
X128542889Y-116671414D01*
X128372729Y-116600932D01*
X128192089Y-116565000D01*
X128007911Y-116565000D01*
X127827271Y-116600932D01*
X127657111Y-116671414D01*
X127503972Y-116773738D01*
X127373738Y-116903972D01*
X127271414Y-117057111D01*
X127200932Y-117227271D01*
X127165000Y-117407911D01*
X127165000Y-117592089D01*
X127200932Y-117772729D01*
X127271414Y-117942889D01*
X127373738Y-118096028D01*
X127503972Y-118226262D01*
X127657111Y-118328586D01*
X127827271Y-118399068D01*
X128007911Y-118435000D01*
X128192089Y-118435000D01*
X128372729Y-118399068D01*
X128542889Y-118328586D01*
X128696028Y-118226262D01*
X128707290Y-118215000D01*
X130583839Y-118215000D01*
X133383838Y-121015000D01*
X133193740Y-121015000D01*
X132920511Y-121069349D01*
X131742950Y-119891789D01*
X131728586Y-119857111D01*
X131626262Y-119703972D01*
X131496028Y-119573738D01*
X131342889Y-119471414D01*
X131172729Y-119400932D01*
X130992089Y-119365000D01*
X130807911Y-119365000D01*
X130627271Y-119400932D01*
X130457111Y-119471414D01*
X130303972Y-119573738D01*
X130173738Y-119703972D01*
X130071414Y-119857111D01*
X130000932Y-120027271D01*
X129965000Y-120207911D01*
X129965000Y-120392089D01*
X130000932Y-120572729D01*
X130071414Y-120742889D01*
X130173738Y-120896028D01*
X130289638Y-121011928D01*
X129950000Y-121011928D01*
X129825518Y-121024188D01*
X129705820Y-121060498D01*
X129595506Y-121119463D01*
X129498815Y-121198815D01*
X129419463Y-121295506D01*
X129360498Y-121405820D01*
X129324188Y-121525518D01*
X129311928Y-121650000D01*
X129311928Y-123350000D01*
X129324188Y-123474482D01*
X129360498Y-123594180D01*
X129419463Y-123704494D01*
X129498815Y-123801185D01*
X129595506Y-123880537D01*
X129705820Y-123939502D01*
X129825518Y-123975812D01*
X129948653Y-123987939D01*
X129971414Y-124042889D01*
X130073738Y-124196028D01*
X130117710Y-124240000D01*
X122632279Y-124240000D01*
X122534576Y-124230420D01*
X122471643Y-124211420D01*
X122413594Y-124180554D01*
X122362657Y-124139011D01*
X122320752Y-124088356D01*
X122289485Y-124030529D01*
X122270044Y-123967728D01*
X122260000Y-123872165D01*
X122260000Y-123689358D01*
X122288645Y-123715178D01*
X122538748Y-123864157D01*
X122813109Y-123961481D01*
X123043000Y-123840814D01*
X123043000Y-122647000D01*
X123297000Y-122647000D01*
X123297000Y-123840814D01*
X123526891Y-123961481D01*
X123801252Y-123864157D01*
X124051355Y-123715178D01*
X124267588Y-123520269D01*
X124441641Y-123286920D01*
X124566825Y-123024099D01*
X124611476Y-122876890D01*
X124490155Y-122647000D01*
X123297000Y-122647000D01*
X123043000Y-122647000D01*
X123023000Y-122647000D01*
X123023000Y-122393000D01*
X123043000Y-122393000D01*
X123043000Y-122373000D01*
X123297000Y-122373000D01*
X123297000Y-122393000D01*
X124490155Y-122393000D01*
X124611476Y-122163110D01*
X124566825Y-122015901D01*
X124441641Y-121753080D01*
X124267588Y-121519731D01*
X124051355Y-121324822D01*
X123934466Y-121255195D01*
X124116632Y-121133475D01*
X124323475Y-120926632D01*
X124485990Y-120683411D01*
X124597932Y-120413158D01*
X124655000Y-120126260D01*
X124655000Y-119833740D01*
X124597932Y-119546842D01*
X124485990Y-119276589D01*
X124323475Y-119033368D01*
X124116632Y-118826525D01*
X123934466Y-118704805D01*
X124051355Y-118635178D01*
X124267588Y-118440269D01*
X124441641Y-118206920D01*
X124566825Y-117944099D01*
X124611476Y-117796890D01*
X124490155Y-117567000D01*
X123297000Y-117567000D01*
X123297000Y-117587000D01*
X123043000Y-117587000D01*
X123043000Y-117567000D01*
X123023000Y-117567000D01*
X123023000Y-117313000D01*
X123043000Y-117313000D01*
X123043000Y-117293000D01*
X123297000Y-117293000D01*
X123297000Y-117313000D01*
X124490155Y-117313000D01*
X124611476Y-117083110D01*
X124566825Y-116935901D01*
X124441641Y-116673080D01*
X124267588Y-116439731D01*
X124051355Y-116244822D01*
X123934466Y-116175195D01*
X124116632Y-116053475D01*
X124323475Y-115846632D01*
X124485990Y-115603411D01*
X124597932Y-115333158D01*
X124655000Y-115046260D01*
X124655000Y-114753740D01*
X124600651Y-114480511D01*
X126066162Y-113015000D01*
X133392710Y-113015000D01*
X133403972Y-113026262D01*
X133557111Y-113128586D01*
X133727271Y-113199068D01*
X133907911Y-113235000D01*
X134092089Y-113235000D01*
X134272729Y-113199068D01*
X134442889Y-113128586D01*
X134596028Y-113026262D01*
X134726262Y-112896028D01*
X134828586Y-112742889D01*
X134899068Y-112572729D01*
X134935000Y-112392089D01*
X134935000Y-112207911D01*
X134899068Y-112027271D01*
X134828586Y-111857111D01*
X134726262Y-111703972D01*
X134596028Y-111573738D01*
X134442889Y-111471414D01*
X134272729Y-111400932D01*
X134092089Y-111365000D01*
X133907911Y-111365000D01*
X133727271Y-111400932D01*
X133557111Y-111471414D01*
X133403972Y-111573738D01*
X133392710Y-111585000D01*
X125805109Y-111585000D01*
X125769999Y-111581542D01*
X125734889Y-111585000D01*
X125734880Y-111585000D01*
X125629836Y-111595346D01*
X125495058Y-111636230D01*
X125370846Y-111702623D01*
X125261973Y-111791973D01*
X125239584Y-111819254D01*
X124655000Y-112403838D01*
X124655000Y-112213740D01*
X124600651Y-111940511D01*
X125426163Y-111115000D01*
X132792710Y-111115000D01*
X132803972Y-111126262D01*
X132957111Y-111228586D01*
X133127271Y-111299068D01*
X133307911Y-111335000D01*
X133492089Y-111335000D01*
X133672729Y-111299068D01*
X133842889Y-111228586D01*
X133996028Y-111126262D01*
X134126262Y-110996028D01*
X134228586Y-110842889D01*
X134273175Y-110735240D01*
X134391198Y-110784126D01*
X134394188Y-110814482D01*
X134430498Y-110934180D01*
X134489463Y-111044494D01*
X134568815Y-111141185D01*
X134665506Y-111220537D01*
X134775820Y-111279502D01*
X134895518Y-111315812D01*
X135020000Y-111328072D01*
X136020000Y-111328072D01*
X136144482Y-111315812D01*
X136170000Y-111308071D01*
X136195518Y-111315812D01*
X136320000Y-111328072D01*
X137320000Y-111328072D01*
X137444482Y-111315812D01*
X137470000Y-111308071D01*
X137495518Y-111315812D01*
X137620000Y-111328072D01*
X137834250Y-111325000D01*
X137993000Y-111166250D01*
X137993000Y-110067000D01*
X137973000Y-110067000D01*
X137973000Y-109813000D01*
X137993000Y-109813000D01*
X137993000Y-109793000D01*
X138247000Y-109793000D01*
X138247000Y-109813000D01*
G36*
X144599349Y-109390511D02*
G01*
X144545000Y-109663740D01*
X144545000Y-109853839D01*
X144410420Y-109719259D01*
X144388027Y-109691973D01*
X144279154Y-109602623D01*
X144154942Y-109536230D01*
X144020164Y-109495346D01*
X143915120Y-109485000D01*
X143915110Y-109485000D01*
X143880000Y-109481542D01*
X143844890Y-109485000D01*
X140107290Y-109485000D01*
X140096028Y-109473738D01*
X139942889Y-109371414D01*
X139772729Y-109300932D01*
X139592089Y-109265000D01*
X139407911Y-109265000D01*
X139257378Y-109294943D01*
X139258072Y-109190000D01*
X139255585Y-109164748D01*
X139342889Y-109128586D01*
X139496028Y-109026262D01*
X139507290Y-109015000D01*
X144223839Y-109015000D01*
X144599349Y-109390511D01*
G37*
X144599349Y-109390511D02*
X144545000Y-109663740D01*
X144545000Y-109853839D01*
X144410420Y-109719259D01*
X144388027Y-109691973D01*
X144279154Y-109602623D01*
X144154942Y-109536230D01*
X144020164Y-109495346D01*
X143915120Y-109485000D01*
X143915110Y-109485000D01*
X143880000Y-109481542D01*
X143844890Y-109485000D01*
X140107290Y-109485000D01*
X140096028Y-109473738D01*
X139942889Y-109371414D01*
X139772729Y-109300932D01*
X139592089Y-109265000D01*
X139407911Y-109265000D01*
X139257378Y-109294943D01*
X139258072Y-109190000D01*
X139255585Y-109164748D01*
X139342889Y-109128586D01*
X139496028Y-109026262D01*
X139507290Y-109015000D01*
X144223839Y-109015000D01*
X144599349Y-109390511D01*
G36*
X144599349Y-101770511D02*
G01*
X144545000Y-102043740D01*
X144545000Y-102336260D01*
X144602068Y-102623158D01*
X144714010Y-102893411D01*
X144876525Y-103136632D01*
X145083368Y-103343475D01*
X145257760Y-103460000D01*
X145083368Y-103576525D01*
X144876525Y-103783368D01*
X144714010Y-104026589D01*
X144602068Y-104296842D01*
X144545000Y-104583740D01*
X144545000Y-104685000D01*
X139758906Y-104685000D01*
X139848666Y-104611336D01*
X139872469Y-104582332D01*
X140310998Y-104143803D01*
X140340001Y-104120001D01*
X140355843Y-104100697D01*
X140383940Y-104085679D01*
X140502983Y-103987983D01*
X140600679Y-103868940D01*
X140673274Y-103733125D01*
X140717977Y-103585757D01*
X140733072Y-103432500D01*
X140733072Y-103087500D01*
X140717977Y-102934243D01*
X140673274Y-102786875D01*
X140626320Y-102699031D01*
X140688274Y-102583125D01*
X140732977Y-102435757D01*
X140748072Y-102282500D01*
X140748072Y-101937500D01*
X140732977Y-101784243D01*
X140688274Y-101636875D01*
X140615679Y-101501060D01*
X140557362Y-101430001D01*
X140657711Y-101430001D01*
X140753972Y-101526262D01*
X140907111Y-101628586D01*
X141077271Y-101699068D01*
X141257911Y-101735000D01*
X141442089Y-101735000D01*
X141622729Y-101699068D01*
X141792889Y-101628586D01*
X141946028Y-101526262D01*
X142076262Y-101396028D01*
X142178586Y-101242889D01*
X142249068Y-101072729D01*
X142280443Y-100915000D01*
X143743839Y-100915000D01*
X144599349Y-101770511D01*
G37*
X144599349Y-101770511D02*
X144545000Y-102043740D01*
X144545000Y-102336260D01*
X144602068Y-102623158D01*
X144714010Y-102893411D01*
X144876525Y-103136632D01*
X145083368Y-103343475D01*
X145257760Y-103460000D01*
X145083368Y-103576525D01*
X144876525Y-103783368D01*
X144714010Y-104026589D01*
X144602068Y-104296842D01*
X144545000Y-104583740D01*
X144545000Y-104685000D01*
X139758906Y-104685000D01*
X139848666Y-104611336D01*
X139872469Y-104582332D01*
X140310998Y-104143803D01*
X140340001Y-104120001D01*
X140355843Y-104100697D01*
X140383940Y-104085679D01*
X140502983Y-103987983D01*
X140600679Y-103868940D01*
X140673274Y-103733125D01*
X140717977Y-103585757D01*
X140733072Y-103432500D01*
X140733072Y-103087500D01*
X140717977Y-102934243D01*
X140673274Y-102786875D01*
X140626320Y-102699031D01*
X140688274Y-102583125D01*
X140732977Y-102435757D01*
X140748072Y-102282500D01*
X140748072Y-101937500D01*
X140732977Y-101784243D01*
X140688274Y-101636875D01*
X140615679Y-101501060D01*
X140557362Y-101430001D01*
X140657711Y-101430001D01*
X140753972Y-101526262D01*
X140907111Y-101628586D01*
X141077271Y-101699068D01*
X141257911Y-101735000D01*
X141442089Y-101735000D01*
X141622729Y-101699068D01*
X141792889Y-101628586D01*
X141946028Y-101526262D01*
X142076262Y-101396028D01*
X142178586Y-101242889D01*
X142249068Y-101072729D01*
X142280443Y-100915000D01*
X143743839Y-100915000D01*
X144599349Y-101770511D01*
G36*
X138773738Y-103296028D02*
G01*
X138789045Y-103311335D01*
X138683000Y-103311335D01*
X138683000Y-103160229D01*
X138773738Y-103296028D01*
G37*
X138773738Y-103296028D02*
X138789045Y-103311335D01*
X138683000Y-103311335D01*
X138683000Y-103160229D01*
X138773738Y-103296028D01*
G36*
X138881928Y-101995782D02*
G01*
X138773738Y-102103972D01*
X138698000Y-102217323D01*
X138698000Y-101983000D01*
X138718000Y-101983000D01*
X138718000Y-101963000D01*
X138881928Y-101963000D01*
X138881928Y-101995782D01*
G37*
X138881928Y-101995782D02*
X138773738Y-102103972D01*
X138698000Y-102217323D01*
X138698000Y-101983000D01*
X138718000Y-101983000D01*
X138718000Y-101963000D01*
X138881928Y-101963000D01*
X138881928Y-101995782D01*
G36*
X130512000Y-101873000D02*
G01*
X130532000Y-101873000D01*
X130532000Y-101972500D01*
X130348072Y-101972500D01*
X130348072Y-101853000D01*
X130512000Y-101853000D01*
X130512000Y-101873000D01*
G37*
X130512000Y-101873000D02*
X130532000Y-101873000D01*
X130532000Y-101972500D01*
X130348072Y-101972500D01*
X130348072Y-101853000D01*
X130512000Y-101853000D01*
X130512000Y-101873000D01*
G36*
X135091181Y-99160747D02*
G01*
X135113571Y-99188029D01*
X135222444Y-99277379D01*
X135346656Y-99343772D01*
X135481434Y-99384656D01*
X135586478Y-99395002D01*
X135586488Y-99395002D01*
X135621598Y-99398460D01*
X135656708Y-99395002D01*
X137405448Y-99395002D01*
X137400629Y-99410887D01*
X137386928Y-99550000D01*
X137386928Y-99700000D01*
X137400629Y-99839113D01*
X137411515Y-99875000D01*
X137400629Y-99910887D01*
X137386928Y-100050000D01*
X137386928Y-100200000D01*
X137400629Y-100339113D01*
X137411515Y-100375000D01*
X137400629Y-100410887D01*
X137386928Y-100550000D01*
X137386928Y-100700000D01*
X137400629Y-100839113D01*
X137401186Y-100840949D01*
X137401132Y-100841117D01*
X137390000Y-100943250D01*
X137465982Y-101019232D01*
X137507102Y-101096162D01*
X137549645Y-101148000D01*
X137548750Y-101148000D01*
X137477002Y-101219748D01*
X137477002Y-101165000D01*
X137355504Y-101165000D01*
X136779505Y-100589002D01*
X136755703Y-100559999D01*
X136639978Y-100465026D01*
X136507949Y-100394454D01*
X136364688Y-100350997D01*
X136253035Y-100340000D01*
X136253024Y-100340000D01*
X136215702Y-100336324D01*
X136178380Y-100340000D01*
X135945535Y-100340000D01*
X135842889Y-100271414D01*
X135672729Y-100200932D01*
X135492089Y-100165000D01*
X135307911Y-100165000D01*
X135127271Y-100200932D01*
X134957111Y-100271414D01*
X134803972Y-100373738D01*
X134673738Y-100503972D01*
X134571414Y-100657111D01*
X134500932Y-100827271D01*
X134465000Y-101007911D01*
X134465000Y-101165868D01*
X134425000Y-101161928D01*
X134275000Y-101161928D01*
X134135887Y-101175629D01*
X134100000Y-101186515D01*
X134064113Y-101175629D01*
X133925000Y-101161928D01*
X133775000Y-101161928D01*
X133635887Y-101175629D01*
X133600000Y-101186515D01*
X133564113Y-101175629D01*
X133425000Y-101161928D01*
X133275000Y-101161928D01*
X133135887Y-101175629D01*
X133100000Y-101186515D01*
X133064113Y-101175629D01*
X132925000Y-101161928D01*
X132775000Y-101161928D01*
X132635887Y-101175629D01*
X132600000Y-101186515D01*
X132564113Y-101175629D01*
X132425000Y-101161928D01*
X132275000Y-101161928D01*
X132135887Y-101175629D01*
X132100000Y-101186515D01*
X132064113Y-101175629D01*
X131925000Y-101161928D01*
X131775000Y-101161928D01*
X131675024Y-101171774D01*
X131651250Y-101148000D01*
X131650355Y-101148000D01*
X131692898Y-101096162D01*
X131734018Y-101019232D01*
X131810000Y-100943250D01*
X131798868Y-100841117D01*
X131798814Y-100840949D01*
X131799371Y-100839113D01*
X131813072Y-100700000D01*
X131813072Y-100550000D01*
X131799371Y-100410887D01*
X131788485Y-100375000D01*
X131799371Y-100339113D01*
X131813072Y-100200000D01*
X131813072Y-100050000D01*
X131799371Y-99910887D01*
X131788485Y-99875000D01*
X131799371Y-99839113D01*
X131813072Y-99700000D01*
X131813072Y-99602038D01*
X131871414Y-99742889D01*
X131973738Y-99896028D01*
X132103972Y-100026262D01*
X132257111Y-100128586D01*
X132427271Y-100199068D01*
X132607911Y-100235000D01*
X132792089Y-100235000D01*
X132972729Y-100199068D01*
X133142889Y-100128586D01*
X133296028Y-100026262D01*
X133426262Y-99896028D01*
X133528586Y-99742889D01*
X133599068Y-99572729D01*
X133635000Y-99392089D01*
X133635000Y-99376162D01*
X133917761Y-99093402D01*
X135023836Y-99093402D01*
X135091181Y-99160747D01*
G37*
X135091181Y-99160747D02*
X135113571Y-99188029D01*
X135222444Y-99277379D01*
X135346656Y-99343772D01*
X135481434Y-99384656D01*
X135586478Y-99395002D01*
X135586488Y-99395002D01*
X135621598Y-99398460D01*
X135656708Y-99395002D01*
X137405448Y-99395002D01*
X137400629Y-99410887D01*
X137386928Y-99550000D01*
X137386928Y-99700000D01*
X137400629Y-99839113D01*
X137411515Y-99875000D01*
X137400629Y-99910887D01*
X137386928Y-100050000D01*
X137386928Y-100200000D01*
X137400629Y-100339113D01*
X137411515Y-100375000D01*
X137400629Y-100410887D01*
X137386928Y-100550000D01*
X137386928Y-100700000D01*
X137400629Y-100839113D01*
X137401186Y-100840949D01*
X137401132Y-100841117D01*
X137390000Y-100943250D01*
X137465982Y-101019232D01*
X137507102Y-101096162D01*
X137549645Y-101148000D01*
X137548750Y-101148000D01*
X137477002Y-101219748D01*
X137477002Y-101165000D01*
X137355504Y-101165000D01*
X136779505Y-100589002D01*
X136755703Y-100559999D01*
X136639978Y-100465026D01*
X136507949Y-100394454D01*
X136364688Y-100350997D01*
X136253035Y-100340000D01*
X136253024Y-100340000D01*
X136215702Y-100336324D01*
X136178380Y-100340000D01*
X135945535Y-100340000D01*
X135842889Y-100271414D01*
X135672729Y-100200932D01*
X135492089Y-100165000D01*
X135307911Y-100165000D01*
X135127271Y-100200932D01*
X134957111Y-100271414D01*
X134803972Y-100373738D01*
X134673738Y-100503972D01*
X134571414Y-100657111D01*
X134500932Y-100827271D01*
X134465000Y-101007911D01*
X134465000Y-101165868D01*
X134425000Y-101161928D01*
X134275000Y-101161928D01*
X134135887Y-101175629D01*
X134100000Y-101186515D01*
X134064113Y-101175629D01*
X133925000Y-101161928D01*
X133775000Y-101161928D01*
X133635887Y-101175629D01*
X133600000Y-101186515D01*
X133564113Y-101175629D01*
X133425000Y-101161928D01*
X133275000Y-101161928D01*
X133135887Y-101175629D01*
X133100000Y-101186515D01*
X133064113Y-101175629D01*
X132925000Y-101161928D01*
X132775000Y-101161928D01*
X132635887Y-101175629D01*
X132600000Y-101186515D01*
X132564113Y-101175629D01*
X132425000Y-101161928D01*
X132275000Y-101161928D01*
X132135887Y-101175629D01*
X132100000Y-101186515D01*
X132064113Y-101175629D01*
X131925000Y-101161928D01*
X131775000Y-101161928D01*
X131675024Y-101171774D01*
X131651250Y-101148000D01*
X131650355Y-101148000D01*
X131692898Y-101096162D01*
X131734018Y-101019232D01*
X131810000Y-100943250D01*
X131798868Y-100841117D01*
X131798814Y-100840949D01*
X131799371Y-100839113D01*
X131813072Y-100700000D01*
X131813072Y-100550000D01*
X131799371Y-100410887D01*
X131788485Y-100375000D01*
X131799371Y-100339113D01*
X131813072Y-100200000D01*
X131813072Y-100050000D01*
X131799371Y-99910887D01*
X131788485Y-99875000D01*
X131799371Y-99839113D01*
X131813072Y-99700000D01*
X131813072Y-99602038D01*
X131871414Y-99742889D01*
X131973738Y-99896028D01*
X132103972Y-100026262D01*
X132257111Y-100128586D01*
X132427271Y-100199068D01*
X132607911Y-100235000D01*
X132792089Y-100235000D01*
X132972729Y-100199068D01*
X133142889Y-100128586D01*
X133296028Y-100026262D01*
X133426262Y-99896028D01*
X133528586Y-99742889D01*
X133599068Y-99572729D01*
X133635000Y-99392089D01*
X133635000Y-99376162D01*
X133917761Y-99093402D01*
X135023836Y-99093402D01*
X135091181Y-99160747D01*
G36*
X134635001Y-95574102D02*
G01*
X134635001Y-96398415D01*
X134552684Y-96521611D01*
X134482202Y-96691771D01*
X134446270Y-96872411D01*
X134446270Y-97056589D01*
X134482202Y-97237229D01*
X134552684Y-97407389D01*
X134655008Y-97560528D01*
X134757882Y-97663402D01*
X133656707Y-97663402D01*
X133621597Y-97659944D01*
X133586487Y-97663402D01*
X133586478Y-97663402D01*
X133481434Y-97673748D01*
X133346656Y-97714632D01*
X133222444Y-97781025D01*
X133222442Y-97781026D01*
X133222443Y-97781026D01*
X133140849Y-97847988D01*
X133140846Y-97847991D01*
X133113571Y-97870375D01*
X133091186Y-97897651D01*
X132623838Y-98365000D01*
X132607911Y-98365000D01*
X132427271Y-98400932D01*
X132257111Y-98471414D01*
X132103972Y-98573738D01*
X131973738Y-98703972D01*
X131871414Y-98857111D01*
X131808931Y-99007959D01*
X131799371Y-98910887D01*
X131788485Y-98874999D01*
X131799371Y-98839113D01*
X131813072Y-98700000D01*
X131813072Y-98550000D01*
X131799371Y-98410887D01*
X131788485Y-98375000D01*
X131799371Y-98339113D01*
X131813072Y-98200000D01*
X131813072Y-98050000D01*
X131799371Y-97910887D01*
X131788485Y-97875000D01*
X131799371Y-97839113D01*
X131813072Y-97700000D01*
X131813072Y-97550000D01*
X131799371Y-97410887D01*
X131788485Y-97375000D01*
X131799371Y-97339113D01*
X131813072Y-97200000D01*
X131813072Y-97050000D01*
X131799371Y-96910887D01*
X131788485Y-96875000D01*
X131799371Y-96839113D01*
X131813072Y-96700000D01*
X131813072Y-96550000D01*
X131799371Y-96410887D01*
X131788485Y-96375000D01*
X131799371Y-96339113D01*
X131813072Y-96200000D01*
X131813072Y-96050000D01*
X131811596Y-96035010D01*
X132053370Y-96035010D01*
X132090692Y-96038686D01*
X132128014Y-96035010D01*
X132128025Y-96035010D01*
X132239678Y-96024013D01*
X132382939Y-95980556D01*
X132514968Y-95909984D01*
X132630693Y-95815011D01*
X132654496Y-95786007D01*
X132852431Y-95588072D01*
X132925000Y-95588072D01*
X133064113Y-95574371D01*
X133100000Y-95563485D01*
X133135887Y-95574371D01*
X133275000Y-95588072D01*
X133425000Y-95588072D01*
X133564113Y-95574371D01*
X133600000Y-95563485D01*
X133635887Y-95574371D01*
X133775000Y-95588072D01*
X133925000Y-95588072D01*
X134064113Y-95574371D01*
X134100000Y-95563485D01*
X134135887Y-95574371D01*
X134275000Y-95588072D01*
X134425000Y-95588072D01*
X134564113Y-95574371D01*
X134600000Y-95563485D01*
X134635001Y-95574102D01*
G37*
X134635001Y-95574102D02*
X134635001Y-96398415D01*
X134552684Y-96521611D01*
X134482202Y-96691771D01*
X134446270Y-96872411D01*
X134446270Y-97056589D01*
X134482202Y-97237229D01*
X134552684Y-97407389D01*
X134655008Y-97560528D01*
X134757882Y-97663402D01*
X133656707Y-97663402D01*
X133621597Y-97659944D01*
X133586487Y-97663402D01*
X133586478Y-97663402D01*
X133481434Y-97673748D01*
X133346656Y-97714632D01*
X133222444Y-97781025D01*
X133222442Y-97781026D01*
X133222443Y-97781026D01*
X133140849Y-97847988D01*
X133140846Y-97847991D01*
X133113571Y-97870375D01*
X133091186Y-97897651D01*
X132623838Y-98365000D01*
X132607911Y-98365000D01*
X132427271Y-98400932D01*
X132257111Y-98471414D01*
X132103972Y-98573738D01*
X131973738Y-98703972D01*
X131871414Y-98857111D01*
X131808931Y-99007959D01*
X131799371Y-98910887D01*
X131788485Y-98874999D01*
X131799371Y-98839113D01*
X131813072Y-98700000D01*
X131813072Y-98550000D01*
X131799371Y-98410887D01*
X131788485Y-98375000D01*
X131799371Y-98339113D01*
X131813072Y-98200000D01*
X131813072Y-98050000D01*
X131799371Y-97910887D01*
X131788485Y-97875000D01*
X131799371Y-97839113D01*
X131813072Y-97700000D01*
X131813072Y-97550000D01*
X131799371Y-97410887D01*
X131788485Y-97375000D01*
X131799371Y-97339113D01*
X131813072Y-97200000D01*
X131813072Y-97050000D01*
X131799371Y-96910887D01*
X131788485Y-96875000D01*
X131799371Y-96839113D01*
X131813072Y-96700000D01*
X131813072Y-96550000D01*
X131799371Y-96410887D01*
X131788485Y-96375000D01*
X131799371Y-96339113D01*
X131813072Y-96200000D01*
X131813072Y-96050000D01*
X131811596Y-96035010D01*
X132053370Y-96035010D01*
X132090692Y-96038686D01*
X132128014Y-96035010D01*
X132128025Y-96035010D01*
X132239678Y-96024013D01*
X132382939Y-95980556D01*
X132514968Y-95909984D01*
X132630693Y-95815011D01*
X132654496Y-95786007D01*
X132852431Y-95588072D01*
X132925000Y-95588072D01*
X133064113Y-95574371D01*
X133100000Y-95563485D01*
X133135887Y-95574371D01*
X133275000Y-95588072D01*
X133425000Y-95588072D01*
X133564113Y-95574371D01*
X133600000Y-95563485D01*
X133635887Y-95574371D01*
X133775000Y-95588072D01*
X133925000Y-95588072D01*
X134064113Y-95574371D01*
X134100000Y-95563485D01*
X134135887Y-95574371D01*
X134275000Y-95588072D01*
X134425000Y-95588072D01*
X134564113Y-95574371D01*
X134600000Y-95563485D01*
X134635001Y-95574102D01*
G36*
X142197026Y-97207295D02*
G01*
X142219416Y-97234577D01*
X142328289Y-97323927D01*
X142452501Y-97390320D01*
X142587279Y-97431204D01*
X142692323Y-97441550D01*
X142692332Y-97441550D01*
X142727442Y-97445008D01*
X142762552Y-97441550D01*
X143851047Y-97441550D01*
X143886157Y-97445008D01*
X143921267Y-97441550D01*
X143921277Y-97441550D01*
X144026321Y-97431204D01*
X144161099Y-97390320D01*
X144214922Y-97361551D01*
X144278245Y-97361551D01*
X144458885Y-97325619D01*
X144551191Y-97287385D01*
X144599349Y-97529489D01*
X144106464Y-98022375D01*
X142353986Y-98022375D01*
X142360010Y-97992089D01*
X142360010Y-97807911D01*
X142324078Y-97627271D01*
X142253596Y-97457111D01*
X142151272Y-97303972D01*
X142021038Y-97173738D01*
X141894759Y-97089361D01*
X142079092Y-97089361D01*
X142197026Y-97207295D01*
G37*
X142197026Y-97207295D02*
X142219416Y-97234577D01*
X142328289Y-97323927D01*
X142452501Y-97390320D01*
X142587279Y-97431204D01*
X142692323Y-97441550D01*
X142692332Y-97441550D01*
X142727442Y-97445008D01*
X142762552Y-97441550D01*
X143851047Y-97441550D01*
X143886157Y-97445008D01*
X143921267Y-97441550D01*
X143921277Y-97441550D01*
X144026321Y-97431204D01*
X144161099Y-97390320D01*
X144214922Y-97361551D01*
X144278245Y-97361551D01*
X144458885Y-97325619D01*
X144551191Y-97287385D01*
X144599349Y-97529489D01*
X144106464Y-98022375D01*
X142353986Y-98022375D01*
X142360010Y-97992089D01*
X142360010Y-97807911D01*
X142324078Y-97627271D01*
X142253596Y-97457111D01*
X142151272Y-97303972D01*
X142021038Y-97173738D01*
X141894759Y-97089361D01*
X142079092Y-97089361D01*
X142197026Y-97207295D01*
G36*
X130480012Y-90908548D02*
G01*
X130480011Y-91959890D01*
X130476552Y-91995010D01*
X130490357Y-92135174D01*
X130531241Y-92269952D01*
X130597634Y-92394164D01*
X130686984Y-92503037D01*
X130795857Y-92592387D01*
X130920069Y-92658780D01*
X131054847Y-92699664D01*
X131103887Y-92704494D01*
X131195011Y-92713469D01*
X131230130Y-92710010D01*
X131289881Y-92710010D01*
X131256359Y-92878532D01*
X131256359Y-93018570D01*
X131242078Y-93030654D01*
X131164189Y-93128529D01*
X131106891Y-93239718D01*
X131072386Y-93359948D01*
X131062000Y-93484600D01*
X131065000Y-93926750D01*
X131132000Y-93993750D01*
X131132000Y-94227000D01*
X131112000Y-94227000D01*
X131112000Y-94247000D01*
X130948072Y-94247000D01*
X130948072Y-93927500D01*
X130932977Y-93774243D01*
X130888274Y-93626875D01*
X130858000Y-93570237D01*
X130858000Y-93303750D01*
X130699250Y-93145000D01*
X130690000Y-93141928D01*
X130565518Y-93154188D01*
X130445820Y-93190498D01*
X130438684Y-93194312D01*
X130315757Y-93157023D01*
X130162500Y-93141928D01*
X129867500Y-93141928D01*
X129714243Y-93157023D01*
X129570774Y-93200543D01*
X129392089Y-93165000D01*
X129207911Y-93165000D01*
X129027271Y-93200932D01*
X128990828Y-93216027D01*
X128923153Y-93148351D01*
X128920296Y-93133988D01*
X128964851Y-93120472D01*
X129118387Y-93038405D01*
X129252962Y-92927962D01*
X129363405Y-92793387D01*
X129445472Y-92639851D01*
X129496008Y-92473255D01*
X129513072Y-92300001D01*
X129513072Y-91399999D01*
X129496008Y-91226745D01*
X129445472Y-91060149D01*
X129363405Y-90906613D01*
X129252962Y-90772038D01*
X129135000Y-90675229D01*
X129135000Y-90507911D01*
X129121180Y-90438433D01*
X129229494Y-90380537D01*
X129326185Y-90301185D01*
X129405537Y-90204494D01*
X129464502Y-90094180D01*
X129500812Y-89974482D01*
X129504859Y-89933394D01*
X130480012Y-90908548D01*
G37*
X130480012Y-90908548D02*
X130480011Y-91959890D01*
X130476552Y-91995010D01*
X130490357Y-92135174D01*
X130531241Y-92269952D01*
X130597634Y-92394164D01*
X130686984Y-92503037D01*
X130795857Y-92592387D01*
X130920069Y-92658780D01*
X131054847Y-92699664D01*
X131103887Y-92704494D01*
X131195011Y-92713469D01*
X131230130Y-92710010D01*
X131289881Y-92710010D01*
X131256359Y-92878532D01*
X131256359Y-93018570D01*
X131242078Y-93030654D01*
X131164189Y-93128529D01*
X131106891Y-93239718D01*
X131072386Y-93359948D01*
X131062000Y-93484600D01*
X131065000Y-93926750D01*
X131132000Y-93993750D01*
X131132000Y-94227000D01*
X131112000Y-94227000D01*
X131112000Y-94247000D01*
X130948072Y-94247000D01*
X130948072Y-93927500D01*
X130932977Y-93774243D01*
X130888274Y-93626875D01*
X130858000Y-93570237D01*
X130858000Y-93303750D01*
X130699250Y-93145000D01*
X130690000Y-93141928D01*
X130565518Y-93154188D01*
X130445820Y-93190498D01*
X130438684Y-93194312D01*
X130315757Y-93157023D01*
X130162500Y-93141928D01*
X129867500Y-93141928D01*
X129714243Y-93157023D01*
X129570774Y-93200543D01*
X129392089Y-93165000D01*
X129207911Y-93165000D01*
X129027271Y-93200932D01*
X128990828Y-93216027D01*
X128923153Y-93148351D01*
X128920296Y-93133988D01*
X128964851Y-93120472D01*
X129118387Y-93038405D01*
X129252962Y-92927962D01*
X129363405Y-92793387D01*
X129445472Y-92639851D01*
X129496008Y-92473255D01*
X129513072Y-92300001D01*
X129513072Y-91399999D01*
X129496008Y-91226745D01*
X129445472Y-91060149D01*
X129363405Y-90906613D01*
X129252962Y-90772038D01*
X129135000Y-90675229D01*
X129135000Y-90507911D01*
X129121180Y-90438433D01*
X129229494Y-90380537D01*
X129326185Y-90301185D01*
X129405537Y-90204494D01*
X129464502Y-90094180D01*
X129500812Y-89974482D01*
X129504859Y-89933394D01*
X130480012Y-90908548D01*
G36*
X139065000Y-88492089D02*
G01*
X139100932Y-88672729D01*
X139153649Y-88800000D01*
X139100932Y-88927271D01*
X139065000Y-89107911D01*
X139065000Y-89292089D01*
X139100932Y-89472729D01*
X139171414Y-89642889D01*
X139273738Y-89796028D01*
X139403972Y-89926262D01*
X139557111Y-90028586D01*
X139727271Y-90099068D01*
X139907911Y-90135000D01*
X140092089Y-90135000D01*
X140272729Y-90099068D01*
X140442889Y-90028586D01*
X140596028Y-89926262D01*
X140633916Y-89888374D01*
X140636595Y-89893387D01*
X140747038Y-90027962D01*
X140865000Y-90124771D01*
X140865000Y-90192089D01*
X140897493Y-90355440D01*
X140880820Y-90360498D01*
X140770506Y-90419463D01*
X140673815Y-90498815D01*
X140594463Y-90595506D01*
X140535498Y-90705820D01*
X140499188Y-90825518D01*
X140486928Y-90950000D01*
X140490000Y-91364250D01*
X140648750Y-91523000D01*
X141673000Y-91523000D01*
X141673000Y-91503000D01*
X141927000Y-91503000D01*
X141927000Y-91523000D01*
X142951250Y-91523000D01*
X143110000Y-91364250D01*
X143111001Y-91229245D01*
X143262708Y-91199068D01*
X143432868Y-91128586D01*
X143586007Y-91026262D01*
X143716241Y-90896028D01*
X143818565Y-90742889D01*
X143889047Y-90572729D01*
X143924979Y-90392089D01*
X143924979Y-90376162D01*
X144096141Y-90205000D01*
X144721754Y-90205000D01*
X144876525Y-90436632D01*
X145083368Y-90643475D01*
X145257760Y-90760000D01*
X145083368Y-90876525D01*
X144876525Y-91083368D01*
X144714010Y-91326589D01*
X144602068Y-91596842D01*
X144545000Y-91883740D01*
X144545000Y-92164999D01*
X143111700Y-92164999D01*
X143110000Y-91935750D01*
X142951250Y-91777000D01*
X141927000Y-91777000D01*
X141927000Y-91797000D01*
X141673000Y-91797000D01*
X141673000Y-91777000D01*
X140648750Y-91777000D01*
X140490000Y-91935750D01*
X140488300Y-92164999D01*
X139436846Y-92164999D01*
X139435000Y-91735750D01*
X139276250Y-91577000D01*
X137027000Y-91577000D01*
X137027000Y-91597000D01*
X136773000Y-91597000D01*
X136773000Y-91577000D01*
X134523750Y-91577000D01*
X134365000Y-91735750D01*
X134364766Y-91790076D01*
X134198057Y-91721023D01*
X134039371Y-91689458D01*
X134464790Y-91264040D01*
X134523750Y-91323000D01*
X136773000Y-91323000D01*
X136773000Y-89973750D01*
X137027000Y-89973750D01*
X137027000Y-91323000D01*
X139276250Y-91323000D01*
X139435000Y-91164250D01*
X139438072Y-90450000D01*
X139425812Y-90325518D01*
X139389502Y-90205820D01*
X139330537Y-90095506D01*
X139251185Y-89998815D01*
X139154494Y-89919463D01*
X139044180Y-89860498D01*
X138924482Y-89824188D01*
X138800000Y-89811928D01*
X137185750Y-89815000D01*
X137027000Y-89973750D01*
X136773000Y-89973750D01*
X136614250Y-89815000D01*
X135915161Y-89813670D01*
X137413831Y-88315000D01*
X139065000Y-88315000D01*
X139065000Y-88492089D01*
G37*
X139065000Y-88492089D02*
X139100932Y-88672729D01*
X139153649Y-88800000D01*
X139100932Y-88927271D01*
X139065000Y-89107911D01*
X139065000Y-89292089D01*
X139100932Y-89472729D01*
X139171414Y-89642889D01*
X139273738Y-89796028D01*
X139403972Y-89926262D01*
X139557111Y-90028586D01*
X139727271Y-90099068D01*
X139907911Y-90135000D01*
X140092089Y-90135000D01*
X140272729Y-90099068D01*
X140442889Y-90028586D01*
X140596028Y-89926262D01*
X140633916Y-89888374D01*
X140636595Y-89893387D01*
X140747038Y-90027962D01*
X140865000Y-90124771D01*
X140865000Y-90192089D01*
X140897493Y-90355440D01*
X140880820Y-90360498D01*
X140770506Y-90419463D01*
X140673815Y-90498815D01*
X140594463Y-90595506D01*
X140535498Y-90705820D01*
X140499188Y-90825518D01*
X140486928Y-90950000D01*
X140490000Y-91364250D01*
X140648750Y-91523000D01*
X141673000Y-91523000D01*
X141673000Y-91503000D01*
X141927000Y-91503000D01*
X141927000Y-91523000D01*
X142951250Y-91523000D01*
X143110000Y-91364250D01*
X143111001Y-91229245D01*
X143262708Y-91199068D01*
X143432868Y-91128586D01*
X143586007Y-91026262D01*
X143716241Y-90896028D01*
X143818565Y-90742889D01*
X143889047Y-90572729D01*
X143924979Y-90392089D01*
X143924979Y-90376162D01*
X144096141Y-90205000D01*
X144721754Y-90205000D01*
X144876525Y-90436632D01*
X145083368Y-90643475D01*
X145257760Y-90760000D01*
X145083368Y-90876525D01*
X144876525Y-91083368D01*
X144714010Y-91326589D01*
X144602068Y-91596842D01*
X144545000Y-91883740D01*
X144545000Y-92164999D01*
X143111700Y-92164999D01*
X143110000Y-91935750D01*
X142951250Y-91777000D01*
X141927000Y-91777000D01*
X141927000Y-91797000D01*
X141673000Y-91797000D01*
X141673000Y-91777000D01*
X140648750Y-91777000D01*
X140490000Y-91935750D01*
X140488300Y-92164999D01*
X139436846Y-92164999D01*
X139435000Y-91735750D01*
X139276250Y-91577000D01*
X137027000Y-91577000D01*
X137027000Y-91597000D01*
X136773000Y-91597000D01*
X136773000Y-91577000D01*
X134523750Y-91577000D01*
X134365000Y-91735750D01*
X134364766Y-91790076D01*
X134198057Y-91721023D01*
X134039371Y-91689458D01*
X134464790Y-91264040D01*
X134523750Y-91323000D01*
X136773000Y-91323000D01*
X136773000Y-89973750D01*
X137027000Y-89973750D01*
X137027000Y-91323000D01*
X139276250Y-91323000D01*
X139435000Y-91164250D01*
X139438072Y-90450000D01*
X139425812Y-90325518D01*
X139389502Y-90205820D01*
X139330537Y-90095506D01*
X139251185Y-89998815D01*
X139154494Y-89919463D01*
X139044180Y-89860498D01*
X138924482Y-89824188D01*
X138800000Y-89811928D01*
X137185750Y-89815000D01*
X137027000Y-89973750D01*
X136773000Y-89973750D01*
X136614250Y-89815000D01*
X135915161Y-89813670D01*
X137413831Y-88315000D01*
X139065000Y-88315000D01*
X139065000Y-88492089D01*
G36*
X137027000Y-85023000D02*
G01*
X137047000Y-85023000D01*
X137047000Y-85277000D01*
X137027000Y-85277000D01*
X137027000Y-86626250D01*
X137185750Y-86785000D01*
X137650000Y-86788072D01*
X137774482Y-86775812D01*
X137894180Y-86739502D01*
X138004494Y-86680537D01*
X138050000Y-86643191D01*
X138095506Y-86680537D01*
X138205820Y-86739502D01*
X138300006Y-86768073D01*
X138300932Y-86772729D01*
X138347436Y-86885000D01*
X137152780Y-86885000D01*
X137117668Y-86881542D01*
X137082556Y-86885000D01*
X137082548Y-86885000D01*
X136989616Y-86894153D01*
X136977503Y-86895346D01*
X136936619Y-86907748D01*
X136842726Y-86936230D01*
X136718514Y-87002623D01*
X136718512Y-87002624D01*
X136718513Y-87002624D01*
X136636920Y-87069585D01*
X136636916Y-87069589D01*
X136609641Y-87091973D01*
X136587256Y-87119249D01*
X133356363Y-90350144D01*
X133342977Y-90214243D01*
X133311470Y-90110378D01*
X133335000Y-89992089D01*
X133335000Y-89873275D01*
X133442889Y-89828586D01*
X133596028Y-89726262D01*
X133726262Y-89596028D01*
X133828586Y-89442889D01*
X133899068Y-89272729D01*
X133935000Y-89092089D01*
X133935000Y-88907911D01*
X133899068Y-88727271D01*
X133828586Y-88557111D01*
X133726262Y-88403972D01*
X133596028Y-88273738D01*
X133442889Y-88171414D01*
X133272729Y-88100932D01*
X133092089Y-88065000D01*
X132907911Y-88065000D01*
X132727271Y-88100932D01*
X132557111Y-88171414D01*
X132535000Y-88186188D01*
X132535000Y-88107911D01*
X132532012Y-88092889D01*
X132538671Y-88084775D01*
X132617850Y-87936642D01*
X132666608Y-87775908D01*
X132683072Y-87608750D01*
X132683072Y-87315000D01*
X132692710Y-87315000D01*
X132703972Y-87326262D01*
X132857111Y-87428586D01*
X133027271Y-87499068D01*
X133207911Y-87535000D01*
X133392089Y-87535000D01*
X133572729Y-87499068D01*
X133742889Y-87428586D01*
X133896028Y-87326262D01*
X134026262Y-87196028D01*
X134128586Y-87042889D01*
X134199068Y-86872729D01*
X134215908Y-86788072D01*
X135350000Y-86788072D01*
X135474482Y-86775812D01*
X135594180Y-86739502D01*
X135704494Y-86680537D01*
X135750000Y-86643191D01*
X135795506Y-86680537D01*
X135905820Y-86739502D01*
X136025518Y-86775812D01*
X136150000Y-86788072D01*
X136614250Y-86785000D01*
X136773000Y-86626250D01*
X136773000Y-85277000D01*
X136753000Y-85277000D01*
X136753000Y-85023000D01*
X136773000Y-85023000D01*
X136773000Y-85003000D01*
X137027000Y-85003000D01*
X137027000Y-85023000D01*
G37*
X137027000Y-85023000D02*
X137047000Y-85023000D01*
X137047000Y-85277000D01*
X137027000Y-85277000D01*
X137027000Y-86626250D01*
X137185750Y-86785000D01*
X137650000Y-86788072D01*
X137774482Y-86775812D01*
X137894180Y-86739502D01*
X138004494Y-86680537D01*
X138050000Y-86643191D01*
X138095506Y-86680537D01*
X138205820Y-86739502D01*
X138300006Y-86768073D01*
X138300932Y-86772729D01*
X138347436Y-86885000D01*
X137152780Y-86885000D01*
X137117668Y-86881542D01*
X137082556Y-86885000D01*
X137082548Y-86885000D01*
X136989616Y-86894153D01*
X136977503Y-86895346D01*
X136936619Y-86907748D01*
X136842726Y-86936230D01*
X136718514Y-87002623D01*
X136718512Y-87002624D01*
X136718513Y-87002624D01*
X136636920Y-87069585D01*
X136636916Y-87069589D01*
X136609641Y-87091973D01*
X136587256Y-87119249D01*
X133356363Y-90350144D01*
X133342977Y-90214243D01*
X133311470Y-90110378D01*
X133335000Y-89992089D01*
X133335000Y-89873275D01*
X133442889Y-89828586D01*
X133596028Y-89726262D01*
X133726262Y-89596028D01*
X133828586Y-89442889D01*
X133899068Y-89272729D01*
X133935000Y-89092089D01*
X133935000Y-88907911D01*
X133899068Y-88727271D01*
X133828586Y-88557111D01*
X133726262Y-88403972D01*
X133596028Y-88273738D01*
X133442889Y-88171414D01*
X133272729Y-88100932D01*
X133092089Y-88065000D01*
X132907911Y-88065000D01*
X132727271Y-88100932D01*
X132557111Y-88171414D01*
X132535000Y-88186188D01*
X132535000Y-88107911D01*
X132532012Y-88092889D01*
X132538671Y-88084775D01*
X132617850Y-87936642D01*
X132666608Y-87775908D01*
X132683072Y-87608750D01*
X132683072Y-87315000D01*
X132692710Y-87315000D01*
X132703972Y-87326262D01*
X132857111Y-87428586D01*
X133027271Y-87499068D01*
X133207911Y-87535000D01*
X133392089Y-87535000D01*
X133572729Y-87499068D01*
X133742889Y-87428586D01*
X133896028Y-87326262D01*
X134026262Y-87196028D01*
X134128586Y-87042889D01*
X134199068Y-86872729D01*
X134215908Y-86788072D01*
X135350000Y-86788072D01*
X135474482Y-86775812D01*
X135594180Y-86739502D01*
X135704494Y-86680537D01*
X135750000Y-86643191D01*
X135795506Y-86680537D01*
X135905820Y-86739502D01*
X136025518Y-86775812D01*
X136150000Y-86788072D01*
X136614250Y-86785000D01*
X136773000Y-86626250D01*
X136773000Y-85277000D01*
X136753000Y-85277000D01*
X136753000Y-85023000D01*
X136773000Y-85023000D01*
X136773000Y-85003000D01*
X137027000Y-85003000D01*
X137027000Y-85023000D01*
G36*
X127469999Y-87336213D02*
G01*
X127101643Y-87704570D01*
X127074357Y-87726963D01*
X126985007Y-87835836D01*
X126918614Y-87960048D01*
X126877730Y-88094826D01*
X126863925Y-88234990D01*
X126877730Y-88375154D01*
X126890238Y-88416389D01*
X126886928Y-88450000D01*
X126890000Y-88864250D01*
X127048750Y-89023000D01*
X128073000Y-89023000D01*
X128073000Y-89003000D01*
X128327000Y-89003000D01*
X128327000Y-89023000D01*
X128347000Y-89023000D01*
X128347000Y-89277000D01*
X128327000Y-89277000D01*
X128327000Y-89297000D01*
X128073000Y-89297000D01*
X128073000Y-89277000D01*
X127048750Y-89277000D01*
X126890000Y-89435750D01*
X126888679Y-89613877D01*
X126244246Y-88969445D01*
X126342889Y-88928586D01*
X126496028Y-88826262D01*
X126626262Y-88696028D01*
X126728586Y-88542889D01*
X126799068Y-88372729D01*
X126835000Y-88192089D01*
X126835000Y-88007911D01*
X126799068Y-87827271D01*
X126728586Y-87657111D01*
X126626262Y-87503972D01*
X126496028Y-87373738D01*
X126342889Y-87271414D01*
X126172729Y-87200932D01*
X125992089Y-87165000D01*
X125807911Y-87165000D01*
X125627271Y-87200932D01*
X125457111Y-87271414D01*
X125303972Y-87373738D01*
X125292710Y-87385000D01*
X124606163Y-87385000D01*
X124600651Y-87379488D01*
X124655000Y-87106260D01*
X124655000Y-86813740D01*
X124597932Y-86526842D01*
X124510185Y-86315000D01*
X126092710Y-86315000D01*
X126103972Y-86326262D01*
X126257111Y-86428586D01*
X126427271Y-86499068D01*
X126607911Y-86535000D01*
X126792089Y-86535000D01*
X126972729Y-86499068D01*
X127142889Y-86428586D01*
X127296028Y-86326262D01*
X127426262Y-86196028D01*
X127469999Y-86130570D01*
X127469999Y-87336213D01*
G37*
X127469999Y-87336213D02*
X127101643Y-87704570D01*
X127074357Y-87726963D01*
X126985007Y-87835836D01*
X126918614Y-87960048D01*
X126877730Y-88094826D01*
X126863925Y-88234990D01*
X126877730Y-88375154D01*
X126890238Y-88416389D01*
X126886928Y-88450000D01*
X126890000Y-88864250D01*
X127048750Y-89023000D01*
X128073000Y-89023000D01*
X128073000Y-89003000D01*
X128327000Y-89003000D01*
X128327000Y-89023000D01*
X128347000Y-89023000D01*
X128347000Y-89277000D01*
X128327000Y-89277000D01*
X128327000Y-89297000D01*
X128073000Y-89297000D01*
X128073000Y-89277000D01*
X127048750Y-89277000D01*
X126890000Y-89435750D01*
X126888679Y-89613877D01*
X126244246Y-88969445D01*
X126342889Y-88928586D01*
X126496028Y-88826262D01*
X126626262Y-88696028D01*
X126728586Y-88542889D01*
X126799068Y-88372729D01*
X126835000Y-88192089D01*
X126835000Y-88007911D01*
X126799068Y-87827271D01*
X126728586Y-87657111D01*
X126626262Y-87503972D01*
X126496028Y-87373738D01*
X126342889Y-87271414D01*
X126172729Y-87200932D01*
X125992089Y-87165000D01*
X125807911Y-87165000D01*
X125627271Y-87200932D01*
X125457111Y-87271414D01*
X125303972Y-87373738D01*
X125292710Y-87385000D01*
X124606163Y-87385000D01*
X124600651Y-87379488D01*
X124655000Y-87106260D01*
X124655000Y-86813740D01*
X124597932Y-86526842D01*
X124510185Y-86315000D01*
X126092710Y-86315000D01*
X126103972Y-86326262D01*
X126257111Y-86428586D01*
X126427271Y-86499068D01*
X126607911Y-86535000D01*
X126792089Y-86535000D01*
X126972729Y-86499068D01*
X127142889Y-86428586D01*
X127296028Y-86326262D01*
X127426262Y-86196028D01*
X127469999Y-86130570D01*
X127469999Y-87336213D01*
%TD*%
M02*
