%TF.GenerationSoftware,KiCad,Pcbnew,(5.1.6)-1*%
%TF.CreationDate,2021-08-28T00:22:51-07:00*%
%TF.ProjectId,Rocketboard-Engine,526f636b-6574-4626-9f61-72642d456e67,1.0*%
%TF.SameCoordinates,Original*%
%TF.FileFunction,Copper,L2,Bot*%
%TF.FilePolarity,Positive*%
%FSLAX46Y46*%
G04 Gerber Fmt 4.6, Leading zero omitted, Abs format (unit mm)*
G04 Created by KiCad (PCBNEW (5.1.6)-1) date 2021-08-28 00:22:51*
%MOMM*%
%LPD*%
G01*
G04 APERTURE LIST*
%TA.AperFunction,ComponentPad*%
%ADD10O,1.700000X1.700000*%
%TD*%
%TA.AperFunction,ComponentPad*%
%ADD11R,1.700000X1.700000*%
%TD*%
%TA.AperFunction,ComponentPad*%
%ADD12O,0.900000X1.700000*%
%TD*%
%TA.AperFunction,ComponentPad*%
%ADD13O,0.900000X2.000000*%
%TD*%
%TA.AperFunction,ViaPad*%
%ADD14C,0.600000*%
%TD*%
%TA.AperFunction,Conductor*%
%ADD15C,0.160000*%
%TD*%
%TA.AperFunction,Conductor*%
%ADD16C,0.250000*%
%TD*%
%TA.AperFunction,Conductor*%
%ADD17C,0.254000*%
%TD*%
G04 APERTURE END LIST*
D10*
%TO.P,J4,20*%
%TO.N,GND*%
X146030000Y-122510000D03*
%TO.P,J4,19*%
%TO.N,+3V3*%
X146030000Y-119970000D03*
%TO.P,J4,18*%
%TO.N,GND*%
X146030000Y-117430000D03*
%TO.P,J4,17*%
%TO.N,/LED_5v0_SIGNAL*%
X146030000Y-114890000D03*
%TO.P,J4,16*%
%TO.N,/PB9*%
X146030000Y-112350000D03*
%TO.P,J4,15*%
%TO.N,/PB8*%
X146030000Y-109810000D03*
%TO.P,J4,14*%
%TO.N,/PB7_I2C1_SDA*%
X146030000Y-107270000D03*
%TO.P,J4,13*%
%TO.N,/PB6_I2C1_SCL*%
X146030000Y-104730000D03*
%TO.P,J4,12*%
%TO.N,/PA7_SPI1_MOSI*%
X146030000Y-102190000D03*
%TO.P,J4,11*%
%TO.N,/PA6_SPI1_MISO*%
X146030000Y-99650000D03*
%TO.P,J4,10*%
%TO.N,/PA5_SPI1_SCK*%
X146030000Y-97110000D03*
%TO.P,J4,9*%
%TO.N,/PA4*%
X146030000Y-94570000D03*
%TO.P,J4,8*%
%TO.N,/PA3*%
X146030000Y-92030000D03*
%TO.P,J4,7*%
%TO.N,/PA2*%
X146030000Y-89490000D03*
%TO.P,J4,6*%
%TO.N,/PA1*%
X146030000Y-86950000D03*
%TO.P,J4,5*%
%TO.N,/PA0*%
X146030000Y-84410000D03*
%TO.P,J4,4*%
%TO.N,/PB2*%
X146030000Y-81870000D03*
%TO.P,J4,3*%
%TO.N,/PB1*%
X146030000Y-79330000D03*
%TO.P,J4,2*%
%TO.N,/PB0*%
X146030000Y-76790000D03*
D11*
%TO.P,J4,1*%
%TO.N,+5V*%
X146030000Y-74250000D03*
%TD*%
D10*
%TO.P,J3,20*%
%TO.N,+3V3*%
X123170000Y-122520000D03*
%TO.P,J3,19*%
%TO.N,GND*%
X123170000Y-119980000D03*
%TO.P,J3,18*%
%TO.N,+3V3*%
X123170000Y-117440000D03*
%TO.P,J3,17*%
%TO.N,/PB5*%
X123170000Y-114900000D03*
%TO.P,J3,16*%
%TO.N,/PB4*%
X123170000Y-112360000D03*
%TO.P,J3,15*%
%TO.N,/PB3*%
X123170000Y-109820000D03*
%TO.P,J3,14*%
%TO.N,/RESET*%
X123170000Y-107280000D03*
%TO.P,J3,13*%
%TO.N,/PA15*%
X123170000Y-104740000D03*
%TO.P,J3,12*%
%TO.N,/PA14_SWCLK*%
X123170000Y-102200000D03*
%TO.P,J3,11*%
%TO.N,/PA13_SWDIO*%
X123170000Y-99660000D03*
%TO.P,J3,10*%
%TO.N,/PA10_RX*%
X123170000Y-97120000D03*
%TO.P,J3,9*%
%TO.N,/PA9_TX*%
X123170000Y-94580000D03*
%TO.P,J3,8*%
%TO.N,/PA8*%
X123170000Y-92040000D03*
%TO.P,J3,7*%
%TO.N,/PB15*%
X123170000Y-89500000D03*
%TO.P,J3,6*%
%TO.N,/PB14*%
X123170000Y-86960000D03*
%TO.P,J3,5*%
%TO.N,/PB13*%
X123170000Y-84420000D03*
%TO.P,J3,4*%
%TO.N,/PB12*%
X123170000Y-81880000D03*
%TO.P,J3,3*%
%TO.N,/PB11_I2C2_SDA*%
X123170000Y-79340000D03*
%TO.P,J3,2*%
%TO.N,/PB10_I2C2_SCL*%
X123170000Y-76800000D03*
D11*
%TO.P,J3,1*%
%TO.N,GND*%
X123170000Y-74260000D03*
%TD*%
D12*
%TO.P,J2,S1*%
%TO.N,GND*%
X130270000Y-73900000D03*
X138910000Y-73900000D03*
D13*
X130270000Y-78070000D03*
X138910000Y-78070000D03*
%TD*%
D10*
%TO.P,J1,4*%
%TO.N,+3V3*%
X138420000Y-122500000D03*
%TO.P,J1,3*%
%TO.N,/PA13_SWDIO*%
X135880000Y-122500000D03*
%TO.P,J1,2*%
%TO.N,/PA14_SWCLK*%
X133340000Y-122500000D03*
D11*
%TO.P,J1,1*%
%TO.N,GND*%
X130800000Y-122500000D03*
%TD*%
D14*
%TO.N,/RESET*%
X133100000Y-115200000D03*
X132700000Y-99300000D03*
X132700000Y-107200000D03*
%TO.N,GND*%
X129400000Y-73900000D03*
X139900000Y-73900000D03*
X129200000Y-78000000D03*
X140000000Y-78100000D03*
X124600000Y-74200000D03*
X134600000Y-81100000D03*
X137300000Y-81600000D03*
X131900000Y-81600000D03*
X140900000Y-80900000D03*
X140000000Y-83000000D03*
X141800000Y-90100000D03*
X132400000Y-89900000D03*
X128200000Y-90600000D03*
X129300000Y-94100000D03*
X128700000Y-102000000D03*
X139500000Y-102700000D03*
X147075000Y-117400000D03*
X147000000Y-122500000D03*
X130800000Y-123600000D03*
X122125000Y-120000000D03*
X134700000Y-109900000D03*
X136100000Y-117200000D03*
X135600000Y-115200000D03*
X141425010Y-97900000D03*
X136952154Y-103771336D03*
X139200000Y-86500000D03*
X141502002Y-85702002D03*
X132191359Y-92970621D03*
X128000000Y-93300000D03*
X128200000Y-91850000D03*
X135400000Y-101100000D03*
X136100000Y-98100000D03*
X124900000Y-88700000D03*
%TO.N,+5V*%
X134600000Y-84800000D03*
X134600000Y-82100000D03*
X142500000Y-84400000D03*
X142500000Y-75000000D03*
X142900000Y-111100000D03*
%TO.N,+3V3*%
X137900000Y-86800000D03*
X137100000Y-88600000D03*
X130900000Y-92900000D03*
X134300000Y-88900000D03*
X130600000Y-90900000D03*
X131000000Y-89600000D03*
X142300000Y-97400000D03*
X141800000Y-91650000D03*
X134700000Y-97500000D03*
X135156630Y-98943370D03*
X140900000Y-109200000D03*
X140900000Y-104300000D03*
X139200000Y-104800000D03*
X138360000Y-103260000D03*
%TO.N,/PB9*%
X139500000Y-110200000D03*
X136634312Y-104510242D03*
%TO.N,/PB8*%
X138900000Y-108300000D03*
X135930011Y-104300000D03*
%TO.N,/BOOT0*%
X135200000Y-107400000D03*
X135365010Y-103700000D03*
%TO.N,/PB7_I2C1_SDA*%
X134900000Y-104500000D03*
X134900000Y-106600000D03*
%TO.N,/PB5*%
X134000000Y-105500000D03*
X134000000Y-112300000D03*
%TO.N,/PB4*%
X133400000Y-110400000D03*
X133334990Y-103915765D03*
%TO.N,/PB3*%
X131800000Y-105500000D03*
X131800000Y-109000000D03*
%TO.N,/PA14_SWCLK*%
X130900000Y-120300000D03*
X130900000Y-103500000D03*
%TO.N,/PA13_SWDIO*%
X128100000Y-117500000D03*
X128100000Y-100800000D03*
%TO.N,/USB_D+*%
X128300000Y-99300000D03*
X130000000Y-88200000D03*
%TO.N,/USB_D-*%
X129200000Y-99100000D03*
X131600000Y-88200000D03*
%TO.N,/PB15*%
X125100000Y-90500000D03*
X125114168Y-93685832D03*
%TO.N,/PB14*%
X125900000Y-88100000D03*
X125900000Y-93700000D03*
%TO.N,/PB13*%
X126700000Y-85600000D03*
X126648176Y-93692344D03*
%TO.N,/PB12*%
X127500000Y-83200000D03*
X127375296Y-93799763D03*
%TO.N,/PB11_I2C2_SDA*%
X133000000Y-89000000D03*
X128300000Y-81400000D03*
X132849251Y-92494219D03*
X128692504Y-87719981D03*
%TO.N,/PB10_I2C2_SCL*%
X133300000Y-86600000D03*
X128900000Y-86600000D03*
X128700000Y-79200000D03*
X133329573Y-93050577D03*
%TO.N,/PB2*%
X140000000Y-87600000D03*
X133925328Y-92620091D03*
%TO.N,/PB1*%
X140000000Y-88400000D03*
X134604230Y-92901755D03*
X143584990Y-79800000D03*
X142684990Y-85900000D03*
%TO.N,/PB0*%
X135611129Y-92885002D03*
X140000000Y-89200000D03*
X143200000Y-86600000D03*
X144100000Y-78100000D03*
%TO.N,/PA7_SPI1_MOSI*%
X140000000Y-100200000D03*
X135381270Y-96964500D03*
%TO.N,/PA6_SPI1_MISO*%
X135865010Y-96100000D03*
X140103946Y-99472375D03*
%TO.N,/PA5_SPI1_SCK*%
X136365010Y-95442897D03*
X140099846Y-98737375D03*
%TO.N,/PA2*%
X142989979Y-90300000D03*
X143442200Y-95680020D03*
%TO.N,/PA1*%
X143284990Y-88700000D03*
X142847256Y-96111626D03*
%TO.N,/PA0*%
X143800000Y-86000000D03*
X144186156Y-96426551D03*
%TO.N,/LED_3v3_SIGNAL*%
X140750000Y-110900000D03*
X141350000Y-100800000D03*
%TD*%
D15*
%TO.N,/RESET*%
X132700000Y-110600000D02*
X132700000Y-114800000D01*
X132700000Y-114800000D02*
X133100000Y-115200000D01*
X132700000Y-110600000D02*
X132700000Y-99300000D01*
D16*
%TO.N,GND*%
X128000000Y-93300000D02*
X128000000Y-92050000D01*
X128000000Y-92050000D02*
X128200000Y-91850000D01*
X135400000Y-101100000D02*
X135400000Y-100100000D01*
X135400000Y-100100000D02*
X136100000Y-99400000D01*
X136100000Y-99400000D02*
X136100000Y-98100000D01*
X132191359Y-90108641D02*
X132400000Y-89900000D01*
X132191359Y-92970621D02*
X132191359Y-90108641D01*
%TO.N,+5V*%
X134600000Y-84800000D02*
X134600000Y-82100000D01*
X142500000Y-84400000D02*
X142500000Y-75000000D01*
X142900000Y-111100000D02*
X142900000Y-100500000D01*
X142900000Y-100500000D02*
X140750000Y-98350000D01*
X140750000Y-98350000D02*
X140750000Y-85000000D01*
X141350000Y-84400000D02*
X142500000Y-84400000D01*
X140750000Y-85000000D02*
X141350000Y-84400000D01*
D15*
%TO.N,+3V3*%
X137900000Y-86800000D02*
X137900000Y-87800000D01*
X137900000Y-87800000D02*
X137100000Y-88600000D01*
X130600000Y-90900000D02*
X130600000Y-90000000D01*
X130600000Y-90000000D02*
X131000000Y-89600000D01*
X142300000Y-97400000D02*
X141800000Y-96900000D01*
X141800000Y-96900000D02*
X141800000Y-91650000D01*
X135156630Y-97956630D02*
X135156630Y-98943370D01*
X134700000Y-97500000D02*
X135156630Y-97956630D01*
X140900000Y-109200000D02*
X140900000Y-104300000D01*
X139200000Y-104800000D02*
X138360000Y-103960000D01*
X138360000Y-103960000D02*
X138360000Y-103260000D01*
%TO.N,/PB9*%
X139500000Y-110200000D02*
X139500000Y-107375930D01*
X139500000Y-107375930D02*
X136634312Y-104510242D01*
%TO.N,/PB8*%
X138900000Y-108300000D02*
X135930011Y-105330011D01*
X135930011Y-105330011D02*
X135930011Y-104300000D01*
%TO.N,/BOOT0*%
X135415001Y-107184999D02*
X135415001Y-103749991D01*
X135200000Y-107400000D02*
X135415001Y-107184999D01*
X135415001Y-103749991D02*
X135365010Y-103700000D01*
%TO.N,/PB7_I2C1_SDA*%
X134900000Y-104500000D02*
X134900000Y-106600000D01*
%TO.N,/PB5*%
X134000000Y-105500000D02*
X134000000Y-112300000D01*
%TO.N,/PB4*%
X133400000Y-110400000D02*
X133400000Y-103980775D01*
X133400000Y-103980775D02*
X133334990Y-103915765D01*
%TO.N,/PB3*%
X131800000Y-105500000D02*
X131800000Y-109000000D01*
%TO.N,/PA14_SWCLK*%
X130900000Y-120300000D02*
X130900000Y-103500000D01*
%TO.N,/PA13_SWDIO*%
X128100000Y-117500000D02*
X128100000Y-100800000D01*
%TO.N,/USB_D+*%
X130000000Y-88200000D02*
X130000000Y-97175736D01*
X128300000Y-98875736D02*
X128300000Y-99300000D01*
X130000000Y-97175736D02*
X128300000Y-98875736D01*
%TO.N,/USB_D-*%
X131600000Y-88200000D02*
X131600000Y-96700000D01*
X131600000Y-96700000D02*
X129200000Y-99100000D01*
%TO.N,/PB15*%
X125100000Y-90500000D02*
X125100000Y-93671664D01*
X125100000Y-93671664D02*
X125114168Y-93685832D01*
%TO.N,/PB14*%
X125900000Y-93700000D02*
X125900000Y-88100000D01*
%TO.N,/PB13*%
X126700000Y-93640520D02*
X126648176Y-93692344D01*
X126700000Y-85600000D02*
X126700000Y-93640520D01*
%TO.N,/PB12*%
X127500000Y-92941598D02*
X127375296Y-93066302D01*
X127500000Y-83200000D02*
X127500000Y-92941598D01*
X127375296Y-93066302D02*
X127375296Y-93799763D01*
%TO.N,/PB11_I2C2_SDA*%
X133000000Y-89000000D02*
X133000000Y-92343470D01*
X133000000Y-92343470D02*
X132849251Y-92494219D01*
X128300000Y-87327477D02*
X128692504Y-87719981D01*
X128300000Y-81400000D02*
X128300000Y-87327477D01*
%TO.N,/PB10_I2C2_SCL*%
X128900000Y-86600000D02*
X128900000Y-79400000D01*
X128900000Y-79400000D02*
X128700000Y-79200000D01*
X133599999Y-86899999D02*
X133599999Y-92181267D01*
X133599999Y-92181267D02*
X133364252Y-92417014D01*
X133364252Y-92417014D02*
X133364252Y-93015898D01*
X133364252Y-93015898D02*
X133329573Y-93050577D01*
X133300000Y-86600000D02*
X133599999Y-86899999D01*
%TO.N,/PB2*%
X138945419Y-87600000D02*
X133925328Y-92620091D01*
X140000000Y-87600000D02*
X138945419Y-87600000D01*
%TO.N,/PB1*%
X140000000Y-88400000D02*
X139105985Y-88400000D01*
X143584990Y-85000000D02*
X143584990Y-79800000D01*
X142684990Y-85900000D02*
X143584990Y-85000000D01*
X139105985Y-88400000D02*
X134604230Y-92901755D01*
%TO.N,/PB0*%
X135611129Y-92885002D02*
X136314998Y-92885002D01*
X136314998Y-92885002D02*
X140000000Y-89200000D01*
X144100000Y-84902196D02*
X144100000Y-78100000D01*
X143200000Y-86600000D02*
X143200000Y-85802196D01*
X143200000Y-85802196D02*
X144100000Y-84902196D01*
%TO.N,/PA7_SPI1_MOSI*%
X139041034Y-100200000D02*
X135805534Y-96964500D01*
X135805534Y-96964500D02*
X135381270Y-96964500D01*
X140000000Y-100200000D02*
X139041034Y-100200000D01*
%TO.N,/PA6_SPI1_MISO*%
X139237385Y-99472375D02*
X140103946Y-99472375D01*
X135865010Y-96100000D02*
X139237385Y-99472375D01*
%TO.N,/PA5_SPI1_SCK*%
X139659488Y-98737375D02*
X140099846Y-98737375D01*
X136365010Y-95442897D02*
X139659488Y-98737375D01*
%TO.N,/PA2*%
X142989979Y-95227799D02*
X143442200Y-95680020D01*
X142989979Y-90300000D02*
X142989979Y-95227799D01*
%TO.N,/PA1*%
X143284990Y-88700000D02*
X143957201Y-89372211D01*
X143957201Y-89372211D02*
X143957201Y-95915816D01*
X143461392Y-96411625D02*
X143147255Y-96411625D01*
X143147255Y-96411625D02*
X142847256Y-96111626D01*
X143957201Y-95915816D02*
X143461392Y-96411625D01*
%TO.N,/PA0*%
X143800000Y-86000000D02*
X144486155Y-86686155D01*
X144486155Y-96126552D02*
X144186156Y-96426551D01*
X144486155Y-86686155D02*
X144486155Y-96126552D01*
%TO.N,/LED_3v3_SIGNAL*%
X140750000Y-110900000D02*
X142000000Y-109650000D01*
X142000000Y-109650000D02*
X142000000Y-101450000D01*
X142000000Y-101450000D02*
X141350000Y-100800000D01*
%TD*%
D17*
%TO.N,GND*%
G36*
X128249615Y-88548567D02*
G01*
X128419775Y-88619049D01*
X128600415Y-88654981D01*
X128784593Y-88654981D01*
X128965233Y-88619049D01*
X129132791Y-88549645D01*
X129171414Y-88642889D01*
X129273738Y-88796028D01*
X129285000Y-88807290D01*
X129285001Y-96879573D01*
X127819255Y-98345320D01*
X127791973Y-98367710D01*
X127702623Y-98476583D01*
X127636230Y-98600795D01*
X127618515Y-98659195D01*
X127573738Y-98703972D01*
X127471414Y-98857111D01*
X127400932Y-99027271D01*
X127365000Y-99207911D01*
X127365000Y-99392089D01*
X127400932Y-99572729D01*
X127471414Y-99742889D01*
X127573738Y-99896028D01*
X127652323Y-99974613D01*
X127503972Y-100073738D01*
X127373738Y-100203972D01*
X127271414Y-100357111D01*
X127200932Y-100527271D01*
X127165000Y-100707911D01*
X127165000Y-100892089D01*
X127200932Y-101072729D01*
X127271414Y-101242889D01*
X127373738Y-101396028D01*
X127385001Y-101407291D01*
X127385000Y-116892710D01*
X127373738Y-116903972D01*
X127271414Y-117057111D01*
X127200932Y-117227271D01*
X127165000Y-117407911D01*
X127165000Y-117592089D01*
X127200932Y-117772729D01*
X127271414Y-117942889D01*
X127373738Y-118096028D01*
X127503972Y-118226262D01*
X127657111Y-118328586D01*
X127827271Y-118399068D01*
X128007911Y-118435000D01*
X128192089Y-118435000D01*
X128372729Y-118399068D01*
X128542889Y-118328586D01*
X128696028Y-118226262D01*
X128826262Y-118096028D01*
X128928586Y-117942889D01*
X128999068Y-117772729D01*
X129035000Y-117592089D01*
X129035000Y-117407911D01*
X128999068Y-117227271D01*
X128928586Y-117057111D01*
X128826262Y-116903972D01*
X128815000Y-116892710D01*
X128815000Y-101407290D01*
X128826262Y-101396028D01*
X128928586Y-101242889D01*
X128999068Y-101072729D01*
X129035000Y-100892089D01*
X129035000Y-100707911D01*
X128999068Y-100527271D01*
X128928586Y-100357111D01*
X128826262Y-100203972D01*
X128747677Y-100125387D01*
X128896028Y-100026262D01*
X128924408Y-99997882D01*
X128927271Y-99999068D01*
X129107911Y-100035000D01*
X129292089Y-100035000D01*
X129472729Y-99999068D01*
X129642889Y-99928586D01*
X129796028Y-99826262D01*
X129926262Y-99696028D01*
X130028586Y-99542889D01*
X130099068Y-99372729D01*
X130135000Y-99192089D01*
X130135000Y-99176161D01*
X132080751Y-97230412D01*
X132108027Y-97208027D01*
X132130411Y-97180752D01*
X132130415Y-97180748D01*
X132197376Y-97099155D01*
X132197377Y-97099154D01*
X132263770Y-96974942D01*
X132304654Y-96840164D01*
X132315000Y-96735120D01*
X132315000Y-96735112D01*
X132318458Y-96700000D01*
X132315000Y-96664888D01*
X132315000Y-93261759D01*
X132406362Y-93322805D01*
X132435255Y-93334773D01*
X132500987Y-93493466D01*
X132603311Y-93646605D01*
X132733545Y-93776839D01*
X132886684Y-93879163D01*
X133056844Y-93949645D01*
X133237484Y-93985577D01*
X133421662Y-93985577D01*
X133602302Y-93949645D01*
X133772462Y-93879163D01*
X133925601Y-93776839D01*
X134047899Y-93654541D01*
X134161341Y-93730341D01*
X134331501Y-93800823D01*
X134512141Y-93836755D01*
X134696319Y-93836755D01*
X134876959Y-93800823D01*
X135047119Y-93730341D01*
X135120216Y-93681499D01*
X135168240Y-93713588D01*
X135338400Y-93784070D01*
X135519040Y-93820002D01*
X135703218Y-93820002D01*
X135883858Y-93784070D01*
X136054018Y-93713588D01*
X136207157Y-93611264D01*
X136218419Y-93600002D01*
X136279888Y-93600002D01*
X136314998Y-93603460D01*
X136350108Y-93600002D01*
X136350118Y-93600002D01*
X136455162Y-93589656D01*
X136589940Y-93548772D01*
X136714152Y-93482379D01*
X136823025Y-93393029D01*
X136845418Y-93365743D01*
X139990001Y-90221162D01*
X139990000Y-97805907D01*
X139827117Y-97838307D01*
X139787848Y-97854573D01*
X137300010Y-95366736D01*
X137300010Y-95350808D01*
X137264078Y-95170168D01*
X137193596Y-95000008D01*
X137091272Y-94846869D01*
X136961038Y-94716635D01*
X136807899Y-94614311D01*
X136637739Y-94543829D01*
X136457099Y-94507897D01*
X136272921Y-94507897D01*
X136092281Y-94543829D01*
X135922121Y-94614311D01*
X135768982Y-94716635D01*
X135638748Y-94846869D01*
X135536424Y-95000008D01*
X135465942Y-95170168D01*
X135447929Y-95260724D01*
X135422121Y-95271414D01*
X135268982Y-95373738D01*
X135138748Y-95503972D01*
X135036424Y-95657111D01*
X134965942Y-95827271D01*
X134930010Y-96007911D01*
X134930010Y-96141507D01*
X134785242Y-96238238D01*
X134655008Y-96368472D01*
X134552684Y-96521611D01*
X134528139Y-96580868D01*
X134427271Y-96600932D01*
X134257111Y-96671414D01*
X134103972Y-96773738D01*
X133973738Y-96903972D01*
X133871414Y-97057111D01*
X133800932Y-97227271D01*
X133765000Y-97407911D01*
X133765000Y-97592089D01*
X133800932Y-97772729D01*
X133871414Y-97942889D01*
X133973738Y-98096028D01*
X134103972Y-98226262D01*
X134257111Y-98328586D01*
X134402627Y-98388860D01*
X134328044Y-98500481D01*
X134257562Y-98670641D01*
X134221630Y-98851281D01*
X134221630Y-99035459D01*
X134257562Y-99216099D01*
X134328044Y-99386259D01*
X134430368Y-99539398D01*
X134560602Y-99669632D01*
X134713741Y-99771956D01*
X134883901Y-99842438D01*
X135064541Y-99878370D01*
X135248719Y-99878370D01*
X135429359Y-99842438D01*
X135599519Y-99771956D01*
X135752658Y-99669632D01*
X135882892Y-99539398D01*
X135985216Y-99386259D01*
X136055698Y-99216099D01*
X136091630Y-99035459D01*
X136091630Y-98851281D01*
X136055698Y-98670641D01*
X135985216Y-98500481D01*
X135882892Y-98347342D01*
X135871630Y-98336080D01*
X135871630Y-98041757D01*
X138510618Y-100680746D01*
X138533007Y-100708027D01*
X138641880Y-100797377D01*
X138766092Y-100863770D01*
X138900870Y-100904654D01*
X139005914Y-100915000D01*
X139005924Y-100915000D01*
X139041034Y-100918458D01*
X139076144Y-100915000D01*
X139392710Y-100915000D01*
X139403972Y-100926262D01*
X139557111Y-101028586D01*
X139727271Y-101099068D01*
X139907911Y-101135000D01*
X140092089Y-101135000D01*
X140272729Y-101099068D01*
X140442207Y-101028868D01*
X140450932Y-101072729D01*
X140521414Y-101242889D01*
X140623738Y-101396028D01*
X140753972Y-101526262D01*
X140907111Y-101628586D01*
X141077271Y-101699068D01*
X141257911Y-101735000D01*
X141273838Y-101735000D01*
X141285001Y-101746163D01*
X141285001Y-103447436D01*
X141172729Y-103400932D01*
X140992089Y-103365000D01*
X140807911Y-103365000D01*
X140627271Y-103400932D01*
X140457111Y-103471414D01*
X140303972Y-103573738D01*
X140173738Y-103703972D01*
X140071414Y-103857111D01*
X140000932Y-104027271D01*
X139965000Y-104207911D01*
X139965000Y-104261948D01*
X139926262Y-104203972D01*
X139796028Y-104073738D01*
X139642889Y-103971414D01*
X139472729Y-103900932D01*
X139292089Y-103865000D01*
X139276162Y-103865000D01*
X139158731Y-103747570D01*
X139188586Y-103702889D01*
X139259068Y-103532729D01*
X139295000Y-103352089D01*
X139295000Y-103167911D01*
X139259068Y-102987271D01*
X139188586Y-102817111D01*
X139086262Y-102663972D01*
X138956028Y-102533738D01*
X138802889Y-102431414D01*
X138632729Y-102360932D01*
X138452089Y-102325000D01*
X138267911Y-102325000D01*
X138087271Y-102360932D01*
X137917111Y-102431414D01*
X137763972Y-102533738D01*
X137633738Y-102663972D01*
X137531414Y-102817111D01*
X137460932Y-102987271D01*
X137425000Y-103167911D01*
X137425000Y-103352089D01*
X137460932Y-103532729D01*
X137531414Y-103702889D01*
X137633738Y-103856028D01*
X137645000Y-103867290D01*
X137645000Y-103924890D01*
X137641542Y-103960000D01*
X137645000Y-103995110D01*
X137645000Y-103995119D01*
X137655346Y-104100163D01*
X137696230Y-104234941D01*
X137762623Y-104359153D01*
X137851973Y-104468026D01*
X137879255Y-104490416D01*
X138265000Y-104876162D01*
X138265000Y-104892089D01*
X138300932Y-105072729D01*
X138366672Y-105231440D01*
X137569312Y-104434081D01*
X137569312Y-104418153D01*
X137533380Y-104237513D01*
X137462898Y-104067353D01*
X137360574Y-103914214D01*
X137230340Y-103783980D01*
X137077201Y-103681656D01*
X136907041Y-103611174D01*
X136726401Y-103575242D01*
X136542223Y-103575242D01*
X136529979Y-103577678D01*
X136526039Y-103573738D01*
X136372900Y-103471414D01*
X136263612Y-103426146D01*
X136193596Y-103257111D01*
X136091272Y-103103972D01*
X135961038Y-102973738D01*
X135807899Y-102871414D01*
X135637739Y-102800932D01*
X135457099Y-102765000D01*
X135272921Y-102765000D01*
X135092281Y-102800932D01*
X134922121Y-102871414D01*
X134768982Y-102973738D01*
X134638748Y-103103972D01*
X134536424Y-103257111D01*
X134465942Y-103427271D01*
X134430010Y-103607911D01*
X134430010Y-103689522D01*
X134303972Y-103773738D01*
X134267343Y-103810367D01*
X134234058Y-103643036D01*
X134163576Y-103472876D01*
X134061252Y-103319737D01*
X133931018Y-103189503D01*
X133777879Y-103087179D01*
X133607719Y-103016697D01*
X133427079Y-102980765D01*
X133415000Y-102980765D01*
X133415000Y-99907290D01*
X133426262Y-99896028D01*
X133528586Y-99742889D01*
X133599068Y-99572729D01*
X133635000Y-99392089D01*
X133635000Y-99207911D01*
X133599068Y-99027271D01*
X133528586Y-98857111D01*
X133426262Y-98703972D01*
X133296028Y-98573738D01*
X133142889Y-98471414D01*
X132972729Y-98400932D01*
X132792089Y-98365000D01*
X132607911Y-98365000D01*
X132427271Y-98400932D01*
X132257111Y-98471414D01*
X132103972Y-98573738D01*
X131973738Y-98703972D01*
X131871414Y-98857111D01*
X131800932Y-99027271D01*
X131765000Y-99207911D01*
X131765000Y-99392089D01*
X131800932Y-99572729D01*
X131871414Y-99742889D01*
X131973738Y-99896028D01*
X131985001Y-99907291D01*
X131985001Y-104583481D01*
X131892089Y-104565000D01*
X131707911Y-104565000D01*
X131615000Y-104583481D01*
X131615000Y-104107290D01*
X131626262Y-104096028D01*
X131728586Y-103942889D01*
X131799068Y-103772729D01*
X131835000Y-103592089D01*
X131835000Y-103407911D01*
X131799068Y-103227271D01*
X131728586Y-103057111D01*
X131626262Y-102903972D01*
X131496028Y-102773738D01*
X131342889Y-102671414D01*
X131172729Y-102600932D01*
X130992089Y-102565000D01*
X130807911Y-102565000D01*
X130627271Y-102600932D01*
X130457111Y-102671414D01*
X130303972Y-102773738D01*
X130173738Y-102903972D01*
X130071414Y-103057111D01*
X130000932Y-103227271D01*
X129965000Y-103407911D01*
X129965000Y-103592089D01*
X130000932Y-103772729D01*
X130071414Y-103942889D01*
X130173738Y-104096028D01*
X130185001Y-104107291D01*
X130185000Y-119692710D01*
X130173738Y-119703972D01*
X130071414Y-119857111D01*
X130000932Y-120027271D01*
X129965000Y-120207911D01*
X129965000Y-120392089D01*
X130000932Y-120572729D01*
X130071414Y-120742889D01*
X130173738Y-120896028D01*
X130291497Y-121013787D01*
X129950000Y-121011928D01*
X129825518Y-121024188D01*
X129705820Y-121060498D01*
X129595506Y-121119463D01*
X129498815Y-121198815D01*
X129419463Y-121295506D01*
X129360498Y-121405820D01*
X129324188Y-121525518D01*
X129311928Y-121650000D01*
X129315000Y-122214250D01*
X129473750Y-122373000D01*
X130673000Y-122373000D01*
X130673000Y-122353000D01*
X130927000Y-122353000D01*
X130927000Y-122373000D01*
X130947000Y-122373000D01*
X130947000Y-122627000D01*
X130927000Y-122627000D01*
X130927000Y-123826250D01*
X131085750Y-123985000D01*
X131650000Y-123988072D01*
X131774482Y-123975812D01*
X131894180Y-123939502D01*
X132004494Y-123880537D01*
X132101185Y-123801185D01*
X132180537Y-123704494D01*
X132239502Y-123594180D01*
X132261513Y-123521620D01*
X132393368Y-123653475D01*
X132636589Y-123815990D01*
X132906842Y-123927932D01*
X133193740Y-123985000D01*
X133486260Y-123985000D01*
X133773158Y-123927932D01*
X134043411Y-123815990D01*
X134286632Y-123653475D01*
X134493475Y-123446632D01*
X134610000Y-123272240D01*
X134726525Y-123446632D01*
X134933368Y-123653475D01*
X135176589Y-123815990D01*
X135446842Y-123927932D01*
X135733740Y-123985000D01*
X136026260Y-123985000D01*
X136313158Y-123927932D01*
X136583411Y-123815990D01*
X136826632Y-123653475D01*
X137033475Y-123446632D01*
X137150000Y-123272240D01*
X137266525Y-123446632D01*
X137473368Y-123653475D01*
X137716589Y-123815990D01*
X137986842Y-123927932D01*
X138273740Y-123985000D01*
X138566260Y-123985000D01*
X138853158Y-123927932D01*
X139123411Y-123815990D01*
X139366632Y-123653475D01*
X139573475Y-123446632D01*
X139735990Y-123203411D01*
X139847932Y-122933158D01*
X139861113Y-122866890D01*
X144588524Y-122866890D01*
X144633175Y-123014099D01*
X144758359Y-123276920D01*
X144932412Y-123510269D01*
X145148645Y-123705178D01*
X145398748Y-123854157D01*
X145673109Y-123951481D01*
X145903000Y-123830814D01*
X145903000Y-122637000D01*
X144709845Y-122637000D01*
X144588524Y-122866890D01*
X139861113Y-122866890D01*
X139905000Y-122646260D01*
X139905000Y-122353740D01*
X139847932Y-122066842D01*
X139735990Y-121796589D01*
X139573475Y-121553368D01*
X139366632Y-121346525D01*
X139123411Y-121184010D01*
X138853158Y-121072068D01*
X138566260Y-121015000D01*
X138273740Y-121015000D01*
X137986842Y-121072068D01*
X137716589Y-121184010D01*
X137473368Y-121346525D01*
X137266525Y-121553368D01*
X137150000Y-121727760D01*
X137033475Y-121553368D01*
X136826632Y-121346525D01*
X136583411Y-121184010D01*
X136313158Y-121072068D01*
X136026260Y-121015000D01*
X135733740Y-121015000D01*
X135446842Y-121072068D01*
X135176589Y-121184010D01*
X134933368Y-121346525D01*
X134726525Y-121553368D01*
X134610000Y-121727760D01*
X134493475Y-121553368D01*
X134286632Y-121346525D01*
X134043411Y-121184010D01*
X133773158Y-121072068D01*
X133486260Y-121015000D01*
X133193740Y-121015000D01*
X132906842Y-121072068D01*
X132636589Y-121184010D01*
X132393368Y-121346525D01*
X132261513Y-121478380D01*
X132239502Y-121405820D01*
X132180537Y-121295506D01*
X132101185Y-121198815D01*
X132004494Y-121119463D01*
X131894180Y-121060498D01*
X131774482Y-121024188D01*
X131650000Y-121011928D01*
X131509598Y-121012692D01*
X131626262Y-120896028D01*
X131728586Y-120742889D01*
X131799068Y-120572729D01*
X131835000Y-120392089D01*
X131835000Y-120207911D01*
X131799068Y-120027271D01*
X131728586Y-119857111D01*
X131626262Y-119703972D01*
X131615000Y-119692710D01*
X131615000Y-109916519D01*
X131707911Y-109935000D01*
X131892089Y-109935000D01*
X131985000Y-109916519D01*
X131985000Y-110564881D01*
X131985001Y-114764880D01*
X131981542Y-114800000D01*
X131985001Y-114835120D01*
X131995347Y-114940164D01*
X132036231Y-115074942D01*
X132102624Y-115199154D01*
X132165000Y-115275159D01*
X132165000Y-115292089D01*
X132200932Y-115472729D01*
X132271414Y-115642889D01*
X132373738Y-115796028D01*
X132503972Y-115926262D01*
X132657111Y-116028586D01*
X132827271Y-116099068D01*
X133007911Y-116135000D01*
X133192089Y-116135000D01*
X133372729Y-116099068D01*
X133542889Y-116028586D01*
X133696028Y-115926262D01*
X133826262Y-115796028D01*
X133928586Y-115642889D01*
X133999068Y-115472729D01*
X134035000Y-115292089D01*
X134035000Y-115107911D01*
X133999068Y-114927271D01*
X133928586Y-114757111D01*
X133826262Y-114603972D01*
X133696028Y-114473738D01*
X133542889Y-114371414D01*
X133415000Y-114318441D01*
X133415000Y-113033631D01*
X133557111Y-113128586D01*
X133727271Y-113199068D01*
X133907911Y-113235000D01*
X134092089Y-113235000D01*
X134272729Y-113199068D01*
X134442889Y-113128586D01*
X134596028Y-113026262D01*
X134726262Y-112896028D01*
X134828586Y-112742889D01*
X134899068Y-112572729D01*
X134935000Y-112392089D01*
X134935000Y-112207911D01*
X134899068Y-112027271D01*
X134828586Y-111857111D01*
X134726262Y-111703972D01*
X134715000Y-111692710D01*
X134715000Y-108200448D01*
X134757111Y-108228586D01*
X134927271Y-108299068D01*
X135107911Y-108335000D01*
X135292089Y-108335000D01*
X135472729Y-108299068D01*
X135642889Y-108228586D01*
X135796028Y-108126262D01*
X135926262Y-107996028D01*
X136028586Y-107842889D01*
X136099068Y-107672729D01*
X136135000Y-107492089D01*
X136135000Y-107307911D01*
X136125873Y-107262028D01*
X136130001Y-107220119D01*
X136130001Y-107220110D01*
X136133459Y-107185000D01*
X136130001Y-107149890D01*
X136130001Y-106541162D01*
X137965000Y-108376163D01*
X137965000Y-108392089D01*
X138000932Y-108572729D01*
X138071414Y-108742889D01*
X138173738Y-108896028D01*
X138303972Y-109026262D01*
X138457111Y-109128586D01*
X138627271Y-109199068D01*
X138785000Y-109230443D01*
X138785000Y-109592710D01*
X138773738Y-109603972D01*
X138671414Y-109757111D01*
X138600932Y-109927271D01*
X138565000Y-110107911D01*
X138565000Y-110292089D01*
X138600932Y-110472729D01*
X138671414Y-110642889D01*
X138773738Y-110796028D01*
X138903972Y-110926262D01*
X139057111Y-111028586D01*
X139227271Y-111099068D01*
X139407911Y-111135000D01*
X139592089Y-111135000D01*
X139772729Y-111099068D01*
X139831442Y-111074748D01*
X139850932Y-111172729D01*
X139921414Y-111342889D01*
X140023738Y-111496028D01*
X140153972Y-111626262D01*
X140307111Y-111728586D01*
X140477271Y-111799068D01*
X140657911Y-111835000D01*
X140842089Y-111835000D01*
X141022729Y-111799068D01*
X141192889Y-111728586D01*
X141346028Y-111626262D01*
X141476262Y-111496028D01*
X141578586Y-111342889D01*
X141649068Y-111172729D01*
X141685000Y-110992089D01*
X141685000Y-110976161D01*
X142140000Y-110521162D01*
X142140000Y-110554465D01*
X142071414Y-110657111D01*
X142000932Y-110827271D01*
X141965000Y-111007911D01*
X141965000Y-111192089D01*
X142000932Y-111372729D01*
X142071414Y-111542889D01*
X142173738Y-111696028D01*
X142303972Y-111826262D01*
X142457111Y-111928586D01*
X142627271Y-111999068D01*
X142807911Y-112035000D01*
X142992089Y-112035000D01*
X143172729Y-111999068D01*
X143342889Y-111928586D01*
X143496028Y-111826262D01*
X143626262Y-111696028D01*
X143728586Y-111542889D01*
X143799068Y-111372729D01*
X143835000Y-111192089D01*
X143835000Y-111007911D01*
X143799068Y-110827271D01*
X143728586Y-110657111D01*
X143660000Y-110554465D01*
X143660000Y-100537322D01*
X143663676Y-100499999D01*
X143660000Y-100462676D01*
X143660000Y-100462667D01*
X143649003Y-100351014D01*
X143605546Y-100207753D01*
X143534974Y-100075724D01*
X143440001Y-99959999D01*
X143411003Y-99936201D01*
X141510000Y-98035199D01*
X141510000Y-97900637D01*
X141573738Y-97996028D01*
X141703972Y-98126262D01*
X141857111Y-98228586D01*
X142027271Y-98299068D01*
X142207911Y-98335000D01*
X142392089Y-98335000D01*
X142572729Y-98299068D01*
X142742889Y-98228586D01*
X142896028Y-98126262D01*
X143026262Y-97996028D01*
X143128586Y-97842889D01*
X143199068Y-97672729D01*
X143235000Y-97492089D01*
X143235000Y-97307911D01*
X143199068Y-97127271D01*
X143198800Y-97126625D01*
X143426282Y-97126625D01*
X143461392Y-97130083D01*
X143496502Y-97126625D01*
X143496512Y-97126625D01*
X143557894Y-97120579D01*
X143590128Y-97152813D01*
X143743267Y-97255137D01*
X143913427Y-97325619D01*
X144094067Y-97361551D01*
X144278245Y-97361551D01*
X144458885Y-97325619D01*
X144551191Y-97287385D01*
X144602068Y-97543158D01*
X144714010Y-97813411D01*
X144876525Y-98056632D01*
X145083368Y-98263475D01*
X145257760Y-98380000D01*
X145083368Y-98496525D01*
X144876525Y-98703368D01*
X144714010Y-98946589D01*
X144602068Y-99216842D01*
X144545000Y-99503740D01*
X144545000Y-99796260D01*
X144602068Y-100083158D01*
X144714010Y-100353411D01*
X144876525Y-100596632D01*
X145083368Y-100803475D01*
X145257760Y-100920000D01*
X145083368Y-101036525D01*
X144876525Y-101243368D01*
X144714010Y-101486589D01*
X144602068Y-101756842D01*
X144545000Y-102043740D01*
X144545000Y-102336260D01*
X144602068Y-102623158D01*
X144714010Y-102893411D01*
X144876525Y-103136632D01*
X145083368Y-103343475D01*
X145257760Y-103460000D01*
X145083368Y-103576525D01*
X144876525Y-103783368D01*
X144714010Y-104026589D01*
X144602068Y-104296842D01*
X144545000Y-104583740D01*
X144545000Y-104876260D01*
X144602068Y-105163158D01*
X144714010Y-105433411D01*
X144876525Y-105676632D01*
X145083368Y-105883475D01*
X145257760Y-106000000D01*
X145083368Y-106116525D01*
X144876525Y-106323368D01*
X144714010Y-106566589D01*
X144602068Y-106836842D01*
X144545000Y-107123740D01*
X144545000Y-107416260D01*
X144602068Y-107703158D01*
X144714010Y-107973411D01*
X144876525Y-108216632D01*
X145083368Y-108423475D01*
X145257760Y-108540000D01*
X145083368Y-108656525D01*
X144876525Y-108863368D01*
X144714010Y-109106589D01*
X144602068Y-109376842D01*
X144545000Y-109663740D01*
X144545000Y-109956260D01*
X144602068Y-110243158D01*
X144714010Y-110513411D01*
X144876525Y-110756632D01*
X145083368Y-110963475D01*
X145257760Y-111080000D01*
X145083368Y-111196525D01*
X144876525Y-111403368D01*
X144714010Y-111646589D01*
X144602068Y-111916842D01*
X144545000Y-112203740D01*
X144545000Y-112496260D01*
X144602068Y-112783158D01*
X144714010Y-113053411D01*
X144876525Y-113296632D01*
X145083368Y-113503475D01*
X145257760Y-113620000D01*
X145083368Y-113736525D01*
X144876525Y-113943368D01*
X144714010Y-114186589D01*
X144602068Y-114456842D01*
X144545000Y-114743740D01*
X144545000Y-115036260D01*
X144602068Y-115323158D01*
X144714010Y-115593411D01*
X144876525Y-115836632D01*
X145083368Y-116043475D01*
X145265534Y-116165195D01*
X145148645Y-116234822D01*
X144932412Y-116429731D01*
X144758359Y-116663080D01*
X144633175Y-116925901D01*
X144588524Y-117073110D01*
X144709845Y-117303000D01*
X145903000Y-117303000D01*
X145903000Y-117283000D01*
X146157000Y-117283000D01*
X146157000Y-117303000D01*
X146177000Y-117303000D01*
X146177000Y-117557000D01*
X146157000Y-117557000D01*
X146157000Y-117577000D01*
X145903000Y-117577000D01*
X145903000Y-117557000D01*
X144709845Y-117557000D01*
X144588524Y-117786890D01*
X144633175Y-117934099D01*
X144758359Y-118196920D01*
X144932412Y-118430269D01*
X145148645Y-118625178D01*
X145265534Y-118694805D01*
X145083368Y-118816525D01*
X144876525Y-119023368D01*
X144714010Y-119266589D01*
X144602068Y-119536842D01*
X144545000Y-119823740D01*
X144545000Y-120116260D01*
X144602068Y-120403158D01*
X144714010Y-120673411D01*
X144876525Y-120916632D01*
X145083368Y-121123475D01*
X145265534Y-121245195D01*
X145148645Y-121314822D01*
X144932412Y-121509731D01*
X144758359Y-121743080D01*
X144633175Y-122005901D01*
X144588524Y-122153110D01*
X144709845Y-122383000D01*
X145903000Y-122383000D01*
X145903000Y-122363000D01*
X146157000Y-122363000D01*
X146157000Y-122383000D01*
X146177000Y-122383000D01*
X146177000Y-122637000D01*
X146157000Y-122637000D01*
X146157000Y-123830814D01*
X146386891Y-123951481D01*
X146661252Y-123854157D01*
X146911355Y-123705178D01*
X146940000Y-123679358D01*
X146940000Y-123867721D01*
X146930420Y-123965424D01*
X146911420Y-124028357D01*
X146880554Y-124086406D01*
X146839011Y-124137343D01*
X146788356Y-124179248D01*
X146730529Y-124210515D01*
X146667728Y-124229956D01*
X146572165Y-124240000D01*
X122632279Y-124240000D01*
X122534576Y-124230420D01*
X122471643Y-124211420D01*
X122413594Y-124180554D01*
X122362657Y-124139011D01*
X122320752Y-124088356D01*
X122289485Y-124030529D01*
X122270044Y-123967728D01*
X122260000Y-123872165D01*
X122260000Y-123697952D01*
X122466589Y-123835990D01*
X122736842Y-123947932D01*
X123023740Y-124005000D01*
X123316260Y-124005000D01*
X123603158Y-123947932D01*
X123873411Y-123835990D01*
X124116632Y-123673475D01*
X124323475Y-123466632D01*
X124401405Y-123350000D01*
X129311928Y-123350000D01*
X129324188Y-123474482D01*
X129360498Y-123594180D01*
X129419463Y-123704494D01*
X129498815Y-123801185D01*
X129595506Y-123880537D01*
X129705820Y-123939502D01*
X129825518Y-123975812D01*
X129950000Y-123988072D01*
X130514250Y-123985000D01*
X130673000Y-123826250D01*
X130673000Y-122627000D01*
X129473750Y-122627000D01*
X129315000Y-122785750D01*
X129311928Y-123350000D01*
X124401405Y-123350000D01*
X124485990Y-123223411D01*
X124597932Y-122953158D01*
X124655000Y-122666260D01*
X124655000Y-122373740D01*
X124597932Y-122086842D01*
X124485990Y-121816589D01*
X124323475Y-121573368D01*
X124116632Y-121366525D01*
X123934466Y-121244805D01*
X124051355Y-121175178D01*
X124267588Y-120980269D01*
X124441641Y-120746920D01*
X124566825Y-120484099D01*
X124611476Y-120336890D01*
X124490155Y-120107000D01*
X123297000Y-120107000D01*
X123297000Y-120127000D01*
X123043000Y-120127000D01*
X123043000Y-120107000D01*
X123023000Y-120107000D01*
X123023000Y-119853000D01*
X123043000Y-119853000D01*
X123043000Y-119833000D01*
X123297000Y-119833000D01*
X123297000Y-119853000D01*
X124490155Y-119853000D01*
X124611476Y-119623110D01*
X124566825Y-119475901D01*
X124441641Y-119213080D01*
X124267588Y-118979731D01*
X124051355Y-118784822D01*
X123934466Y-118715195D01*
X124116632Y-118593475D01*
X124323475Y-118386632D01*
X124485990Y-118143411D01*
X124597932Y-117873158D01*
X124655000Y-117586260D01*
X124655000Y-117293740D01*
X124597932Y-117006842D01*
X124485990Y-116736589D01*
X124323475Y-116493368D01*
X124116632Y-116286525D01*
X123942240Y-116170000D01*
X124116632Y-116053475D01*
X124323475Y-115846632D01*
X124485990Y-115603411D01*
X124597932Y-115333158D01*
X124655000Y-115046260D01*
X124655000Y-114753740D01*
X124597932Y-114466842D01*
X124485990Y-114196589D01*
X124323475Y-113953368D01*
X124116632Y-113746525D01*
X123942240Y-113630000D01*
X124116632Y-113513475D01*
X124323475Y-113306632D01*
X124485990Y-113063411D01*
X124597932Y-112793158D01*
X124655000Y-112506260D01*
X124655000Y-112213740D01*
X124597932Y-111926842D01*
X124485990Y-111656589D01*
X124323475Y-111413368D01*
X124116632Y-111206525D01*
X123942240Y-111090000D01*
X124116632Y-110973475D01*
X124323475Y-110766632D01*
X124485990Y-110523411D01*
X124597932Y-110253158D01*
X124655000Y-109966260D01*
X124655000Y-109673740D01*
X124597932Y-109386842D01*
X124485990Y-109116589D01*
X124323475Y-108873368D01*
X124116632Y-108666525D01*
X123942240Y-108550000D01*
X124116632Y-108433475D01*
X124323475Y-108226632D01*
X124485990Y-107983411D01*
X124597932Y-107713158D01*
X124655000Y-107426260D01*
X124655000Y-107133740D01*
X124597932Y-106846842D01*
X124485990Y-106576589D01*
X124323475Y-106333368D01*
X124116632Y-106126525D01*
X123942240Y-106010000D01*
X124116632Y-105893475D01*
X124323475Y-105686632D01*
X124485990Y-105443411D01*
X124597932Y-105173158D01*
X124655000Y-104886260D01*
X124655000Y-104593740D01*
X124597932Y-104306842D01*
X124485990Y-104036589D01*
X124323475Y-103793368D01*
X124116632Y-103586525D01*
X123942240Y-103470000D01*
X124116632Y-103353475D01*
X124323475Y-103146632D01*
X124485990Y-102903411D01*
X124597932Y-102633158D01*
X124655000Y-102346260D01*
X124655000Y-102053740D01*
X124597932Y-101766842D01*
X124485990Y-101496589D01*
X124323475Y-101253368D01*
X124116632Y-101046525D01*
X123942240Y-100930000D01*
X124116632Y-100813475D01*
X124323475Y-100606632D01*
X124485990Y-100363411D01*
X124597932Y-100093158D01*
X124655000Y-99806260D01*
X124655000Y-99513740D01*
X124597932Y-99226842D01*
X124485990Y-98956589D01*
X124323475Y-98713368D01*
X124116632Y-98506525D01*
X123942240Y-98390000D01*
X124116632Y-98273475D01*
X124323475Y-98066632D01*
X124485990Y-97823411D01*
X124597932Y-97553158D01*
X124655000Y-97266260D01*
X124655000Y-96973740D01*
X124597932Y-96686842D01*
X124485990Y-96416589D01*
X124323475Y-96173368D01*
X124116632Y-95966525D01*
X123942240Y-95850000D01*
X124116632Y-95733475D01*
X124323475Y-95526632D01*
X124485990Y-95283411D01*
X124597932Y-95013158D01*
X124655000Y-94726260D01*
X124655000Y-94503541D01*
X124671279Y-94514418D01*
X124841439Y-94584900D01*
X125022079Y-94620832D01*
X125206257Y-94620832D01*
X125386897Y-94584900D01*
X125489982Y-94542201D01*
X125627271Y-94599068D01*
X125807911Y-94635000D01*
X125992089Y-94635000D01*
X126172729Y-94599068D01*
X126283330Y-94553256D01*
X126375447Y-94591412D01*
X126556087Y-94627344D01*
X126740265Y-94627344D01*
X126887170Y-94598122D01*
X126932407Y-94628349D01*
X127102567Y-94698831D01*
X127283207Y-94734763D01*
X127467385Y-94734763D01*
X127648025Y-94698831D01*
X127818185Y-94628349D01*
X127971324Y-94526025D01*
X128101558Y-94395791D01*
X128203882Y-94242652D01*
X128274364Y-94072492D01*
X128310296Y-93891852D01*
X128310296Y-93707674D01*
X128274364Y-93527034D01*
X128203882Y-93356874D01*
X128139924Y-93261153D01*
X128163770Y-93216540D01*
X128204654Y-93081762D01*
X128215000Y-92976718D01*
X128215000Y-92976708D01*
X128218458Y-92941599D01*
X128215000Y-92906489D01*
X128215000Y-88525438D01*
X128249615Y-88548567D01*
G37*
X128249615Y-88548567D02*
X128419775Y-88619049D01*
X128600415Y-88654981D01*
X128784593Y-88654981D01*
X128965233Y-88619049D01*
X129132791Y-88549645D01*
X129171414Y-88642889D01*
X129273738Y-88796028D01*
X129285000Y-88807290D01*
X129285001Y-96879573D01*
X127819255Y-98345320D01*
X127791973Y-98367710D01*
X127702623Y-98476583D01*
X127636230Y-98600795D01*
X127618515Y-98659195D01*
X127573738Y-98703972D01*
X127471414Y-98857111D01*
X127400932Y-99027271D01*
X127365000Y-99207911D01*
X127365000Y-99392089D01*
X127400932Y-99572729D01*
X127471414Y-99742889D01*
X127573738Y-99896028D01*
X127652323Y-99974613D01*
X127503972Y-100073738D01*
X127373738Y-100203972D01*
X127271414Y-100357111D01*
X127200932Y-100527271D01*
X127165000Y-100707911D01*
X127165000Y-100892089D01*
X127200932Y-101072729D01*
X127271414Y-101242889D01*
X127373738Y-101396028D01*
X127385001Y-101407291D01*
X127385000Y-116892710D01*
X127373738Y-116903972D01*
X127271414Y-117057111D01*
X127200932Y-117227271D01*
X127165000Y-117407911D01*
X127165000Y-117592089D01*
X127200932Y-117772729D01*
X127271414Y-117942889D01*
X127373738Y-118096028D01*
X127503972Y-118226262D01*
X127657111Y-118328586D01*
X127827271Y-118399068D01*
X128007911Y-118435000D01*
X128192089Y-118435000D01*
X128372729Y-118399068D01*
X128542889Y-118328586D01*
X128696028Y-118226262D01*
X128826262Y-118096028D01*
X128928586Y-117942889D01*
X128999068Y-117772729D01*
X129035000Y-117592089D01*
X129035000Y-117407911D01*
X128999068Y-117227271D01*
X128928586Y-117057111D01*
X128826262Y-116903972D01*
X128815000Y-116892710D01*
X128815000Y-101407290D01*
X128826262Y-101396028D01*
X128928586Y-101242889D01*
X128999068Y-101072729D01*
X129035000Y-100892089D01*
X129035000Y-100707911D01*
X128999068Y-100527271D01*
X128928586Y-100357111D01*
X128826262Y-100203972D01*
X128747677Y-100125387D01*
X128896028Y-100026262D01*
X128924408Y-99997882D01*
X128927271Y-99999068D01*
X129107911Y-100035000D01*
X129292089Y-100035000D01*
X129472729Y-99999068D01*
X129642889Y-99928586D01*
X129796028Y-99826262D01*
X129926262Y-99696028D01*
X130028586Y-99542889D01*
X130099068Y-99372729D01*
X130135000Y-99192089D01*
X130135000Y-99176161D01*
X132080751Y-97230412D01*
X132108027Y-97208027D01*
X132130411Y-97180752D01*
X132130415Y-97180748D01*
X132197376Y-97099155D01*
X132197377Y-97099154D01*
X132263770Y-96974942D01*
X132304654Y-96840164D01*
X132315000Y-96735120D01*
X132315000Y-96735112D01*
X132318458Y-96700000D01*
X132315000Y-96664888D01*
X132315000Y-93261759D01*
X132406362Y-93322805D01*
X132435255Y-93334773D01*
X132500987Y-93493466D01*
X132603311Y-93646605D01*
X132733545Y-93776839D01*
X132886684Y-93879163D01*
X133056844Y-93949645D01*
X133237484Y-93985577D01*
X133421662Y-93985577D01*
X133602302Y-93949645D01*
X133772462Y-93879163D01*
X133925601Y-93776839D01*
X134047899Y-93654541D01*
X134161341Y-93730341D01*
X134331501Y-93800823D01*
X134512141Y-93836755D01*
X134696319Y-93836755D01*
X134876959Y-93800823D01*
X135047119Y-93730341D01*
X135120216Y-93681499D01*
X135168240Y-93713588D01*
X135338400Y-93784070D01*
X135519040Y-93820002D01*
X135703218Y-93820002D01*
X135883858Y-93784070D01*
X136054018Y-93713588D01*
X136207157Y-93611264D01*
X136218419Y-93600002D01*
X136279888Y-93600002D01*
X136314998Y-93603460D01*
X136350108Y-93600002D01*
X136350118Y-93600002D01*
X136455162Y-93589656D01*
X136589940Y-93548772D01*
X136714152Y-93482379D01*
X136823025Y-93393029D01*
X136845418Y-93365743D01*
X139990001Y-90221162D01*
X139990000Y-97805907D01*
X139827117Y-97838307D01*
X139787848Y-97854573D01*
X137300010Y-95366736D01*
X137300010Y-95350808D01*
X137264078Y-95170168D01*
X137193596Y-95000008D01*
X137091272Y-94846869D01*
X136961038Y-94716635D01*
X136807899Y-94614311D01*
X136637739Y-94543829D01*
X136457099Y-94507897D01*
X136272921Y-94507897D01*
X136092281Y-94543829D01*
X135922121Y-94614311D01*
X135768982Y-94716635D01*
X135638748Y-94846869D01*
X135536424Y-95000008D01*
X135465942Y-95170168D01*
X135447929Y-95260724D01*
X135422121Y-95271414D01*
X135268982Y-95373738D01*
X135138748Y-95503972D01*
X135036424Y-95657111D01*
X134965942Y-95827271D01*
X134930010Y-96007911D01*
X134930010Y-96141507D01*
X134785242Y-96238238D01*
X134655008Y-96368472D01*
X134552684Y-96521611D01*
X134528139Y-96580868D01*
X134427271Y-96600932D01*
X134257111Y-96671414D01*
X134103972Y-96773738D01*
X133973738Y-96903972D01*
X133871414Y-97057111D01*
X133800932Y-97227271D01*
X133765000Y-97407911D01*
X133765000Y-97592089D01*
X133800932Y-97772729D01*
X133871414Y-97942889D01*
X133973738Y-98096028D01*
X134103972Y-98226262D01*
X134257111Y-98328586D01*
X134402627Y-98388860D01*
X134328044Y-98500481D01*
X134257562Y-98670641D01*
X134221630Y-98851281D01*
X134221630Y-99035459D01*
X134257562Y-99216099D01*
X134328044Y-99386259D01*
X134430368Y-99539398D01*
X134560602Y-99669632D01*
X134713741Y-99771956D01*
X134883901Y-99842438D01*
X135064541Y-99878370D01*
X135248719Y-99878370D01*
X135429359Y-99842438D01*
X135599519Y-99771956D01*
X135752658Y-99669632D01*
X135882892Y-99539398D01*
X135985216Y-99386259D01*
X136055698Y-99216099D01*
X136091630Y-99035459D01*
X136091630Y-98851281D01*
X136055698Y-98670641D01*
X135985216Y-98500481D01*
X135882892Y-98347342D01*
X135871630Y-98336080D01*
X135871630Y-98041757D01*
X138510618Y-100680746D01*
X138533007Y-100708027D01*
X138641880Y-100797377D01*
X138766092Y-100863770D01*
X138900870Y-100904654D01*
X139005914Y-100915000D01*
X139005924Y-100915000D01*
X139041034Y-100918458D01*
X139076144Y-100915000D01*
X139392710Y-100915000D01*
X139403972Y-100926262D01*
X139557111Y-101028586D01*
X139727271Y-101099068D01*
X139907911Y-101135000D01*
X140092089Y-101135000D01*
X140272729Y-101099068D01*
X140442207Y-101028868D01*
X140450932Y-101072729D01*
X140521414Y-101242889D01*
X140623738Y-101396028D01*
X140753972Y-101526262D01*
X140907111Y-101628586D01*
X141077271Y-101699068D01*
X141257911Y-101735000D01*
X141273838Y-101735000D01*
X141285001Y-101746163D01*
X141285001Y-103447436D01*
X141172729Y-103400932D01*
X140992089Y-103365000D01*
X140807911Y-103365000D01*
X140627271Y-103400932D01*
X140457111Y-103471414D01*
X140303972Y-103573738D01*
X140173738Y-103703972D01*
X140071414Y-103857111D01*
X140000932Y-104027271D01*
X139965000Y-104207911D01*
X139965000Y-104261948D01*
X139926262Y-104203972D01*
X139796028Y-104073738D01*
X139642889Y-103971414D01*
X139472729Y-103900932D01*
X139292089Y-103865000D01*
X139276162Y-103865000D01*
X139158731Y-103747570D01*
X139188586Y-103702889D01*
X139259068Y-103532729D01*
X139295000Y-103352089D01*
X139295000Y-103167911D01*
X139259068Y-102987271D01*
X139188586Y-102817111D01*
X139086262Y-102663972D01*
X138956028Y-102533738D01*
X138802889Y-102431414D01*
X138632729Y-102360932D01*
X138452089Y-102325000D01*
X138267911Y-102325000D01*
X138087271Y-102360932D01*
X137917111Y-102431414D01*
X137763972Y-102533738D01*
X137633738Y-102663972D01*
X137531414Y-102817111D01*
X137460932Y-102987271D01*
X137425000Y-103167911D01*
X137425000Y-103352089D01*
X137460932Y-103532729D01*
X137531414Y-103702889D01*
X137633738Y-103856028D01*
X137645000Y-103867290D01*
X137645000Y-103924890D01*
X137641542Y-103960000D01*
X137645000Y-103995110D01*
X137645000Y-103995119D01*
X137655346Y-104100163D01*
X137696230Y-104234941D01*
X137762623Y-104359153D01*
X137851973Y-104468026D01*
X137879255Y-104490416D01*
X138265000Y-104876162D01*
X138265000Y-104892089D01*
X138300932Y-105072729D01*
X138366672Y-105231440D01*
X137569312Y-104434081D01*
X137569312Y-104418153D01*
X137533380Y-104237513D01*
X137462898Y-104067353D01*
X137360574Y-103914214D01*
X137230340Y-103783980D01*
X137077201Y-103681656D01*
X136907041Y-103611174D01*
X136726401Y-103575242D01*
X136542223Y-103575242D01*
X136529979Y-103577678D01*
X136526039Y-103573738D01*
X136372900Y-103471414D01*
X136263612Y-103426146D01*
X136193596Y-103257111D01*
X136091272Y-103103972D01*
X135961038Y-102973738D01*
X135807899Y-102871414D01*
X135637739Y-102800932D01*
X135457099Y-102765000D01*
X135272921Y-102765000D01*
X135092281Y-102800932D01*
X134922121Y-102871414D01*
X134768982Y-102973738D01*
X134638748Y-103103972D01*
X134536424Y-103257111D01*
X134465942Y-103427271D01*
X134430010Y-103607911D01*
X134430010Y-103689522D01*
X134303972Y-103773738D01*
X134267343Y-103810367D01*
X134234058Y-103643036D01*
X134163576Y-103472876D01*
X134061252Y-103319737D01*
X133931018Y-103189503D01*
X133777879Y-103087179D01*
X133607719Y-103016697D01*
X133427079Y-102980765D01*
X133415000Y-102980765D01*
X133415000Y-99907290D01*
X133426262Y-99896028D01*
X133528586Y-99742889D01*
X133599068Y-99572729D01*
X133635000Y-99392089D01*
X133635000Y-99207911D01*
X133599068Y-99027271D01*
X133528586Y-98857111D01*
X133426262Y-98703972D01*
X133296028Y-98573738D01*
X133142889Y-98471414D01*
X132972729Y-98400932D01*
X132792089Y-98365000D01*
X132607911Y-98365000D01*
X132427271Y-98400932D01*
X132257111Y-98471414D01*
X132103972Y-98573738D01*
X131973738Y-98703972D01*
X131871414Y-98857111D01*
X131800932Y-99027271D01*
X131765000Y-99207911D01*
X131765000Y-99392089D01*
X131800932Y-99572729D01*
X131871414Y-99742889D01*
X131973738Y-99896028D01*
X131985001Y-99907291D01*
X131985001Y-104583481D01*
X131892089Y-104565000D01*
X131707911Y-104565000D01*
X131615000Y-104583481D01*
X131615000Y-104107290D01*
X131626262Y-104096028D01*
X131728586Y-103942889D01*
X131799068Y-103772729D01*
X131835000Y-103592089D01*
X131835000Y-103407911D01*
X131799068Y-103227271D01*
X131728586Y-103057111D01*
X131626262Y-102903972D01*
X131496028Y-102773738D01*
X131342889Y-102671414D01*
X131172729Y-102600932D01*
X130992089Y-102565000D01*
X130807911Y-102565000D01*
X130627271Y-102600932D01*
X130457111Y-102671414D01*
X130303972Y-102773738D01*
X130173738Y-102903972D01*
X130071414Y-103057111D01*
X130000932Y-103227271D01*
X129965000Y-103407911D01*
X129965000Y-103592089D01*
X130000932Y-103772729D01*
X130071414Y-103942889D01*
X130173738Y-104096028D01*
X130185001Y-104107291D01*
X130185000Y-119692710D01*
X130173738Y-119703972D01*
X130071414Y-119857111D01*
X130000932Y-120027271D01*
X129965000Y-120207911D01*
X129965000Y-120392089D01*
X130000932Y-120572729D01*
X130071414Y-120742889D01*
X130173738Y-120896028D01*
X130291497Y-121013787D01*
X129950000Y-121011928D01*
X129825518Y-121024188D01*
X129705820Y-121060498D01*
X129595506Y-121119463D01*
X129498815Y-121198815D01*
X129419463Y-121295506D01*
X129360498Y-121405820D01*
X129324188Y-121525518D01*
X129311928Y-121650000D01*
X129315000Y-122214250D01*
X129473750Y-122373000D01*
X130673000Y-122373000D01*
X130673000Y-122353000D01*
X130927000Y-122353000D01*
X130927000Y-122373000D01*
X130947000Y-122373000D01*
X130947000Y-122627000D01*
X130927000Y-122627000D01*
X130927000Y-123826250D01*
X131085750Y-123985000D01*
X131650000Y-123988072D01*
X131774482Y-123975812D01*
X131894180Y-123939502D01*
X132004494Y-123880537D01*
X132101185Y-123801185D01*
X132180537Y-123704494D01*
X132239502Y-123594180D01*
X132261513Y-123521620D01*
X132393368Y-123653475D01*
X132636589Y-123815990D01*
X132906842Y-123927932D01*
X133193740Y-123985000D01*
X133486260Y-123985000D01*
X133773158Y-123927932D01*
X134043411Y-123815990D01*
X134286632Y-123653475D01*
X134493475Y-123446632D01*
X134610000Y-123272240D01*
X134726525Y-123446632D01*
X134933368Y-123653475D01*
X135176589Y-123815990D01*
X135446842Y-123927932D01*
X135733740Y-123985000D01*
X136026260Y-123985000D01*
X136313158Y-123927932D01*
X136583411Y-123815990D01*
X136826632Y-123653475D01*
X137033475Y-123446632D01*
X137150000Y-123272240D01*
X137266525Y-123446632D01*
X137473368Y-123653475D01*
X137716589Y-123815990D01*
X137986842Y-123927932D01*
X138273740Y-123985000D01*
X138566260Y-123985000D01*
X138853158Y-123927932D01*
X139123411Y-123815990D01*
X139366632Y-123653475D01*
X139573475Y-123446632D01*
X139735990Y-123203411D01*
X139847932Y-122933158D01*
X139861113Y-122866890D01*
X144588524Y-122866890D01*
X144633175Y-123014099D01*
X144758359Y-123276920D01*
X144932412Y-123510269D01*
X145148645Y-123705178D01*
X145398748Y-123854157D01*
X145673109Y-123951481D01*
X145903000Y-123830814D01*
X145903000Y-122637000D01*
X144709845Y-122637000D01*
X144588524Y-122866890D01*
X139861113Y-122866890D01*
X139905000Y-122646260D01*
X139905000Y-122353740D01*
X139847932Y-122066842D01*
X139735990Y-121796589D01*
X139573475Y-121553368D01*
X139366632Y-121346525D01*
X139123411Y-121184010D01*
X138853158Y-121072068D01*
X138566260Y-121015000D01*
X138273740Y-121015000D01*
X137986842Y-121072068D01*
X137716589Y-121184010D01*
X137473368Y-121346525D01*
X137266525Y-121553368D01*
X137150000Y-121727760D01*
X137033475Y-121553368D01*
X136826632Y-121346525D01*
X136583411Y-121184010D01*
X136313158Y-121072068D01*
X136026260Y-121015000D01*
X135733740Y-121015000D01*
X135446842Y-121072068D01*
X135176589Y-121184010D01*
X134933368Y-121346525D01*
X134726525Y-121553368D01*
X134610000Y-121727760D01*
X134493475Y-121553368D01*
X134286632Y-121346525D01*
X134043411Y-121184010D01*
X133773158Y-121072068D01*
X133486260Y-121015000D01*
X133193740Y-121015000D01*
X132906842Y-121072068D01*
X132636589Y-121184010D01*
X132393368Y-121346525D01*
X132261513Y-121478380D01*
X132239502Y-121405820D01*
X132180537Y-121295506D01*
X132101185Y-121198815D01*
X132004494Y-121119463D01*
X131894180Y-121060498D01*
X131774482Y-121024188D01*
X131650000Y-121011928D01*
X131509598Y-121012692D01*
X131626262Y-120896028D01*
X131728586Y-120742889D01*
X131799068Y-120572729D01*
X131835000Y-120392089D01*
X131835000Y-120207911D01*
X131799068Y-120027271D01*
X131728586Y-119857111D01*
X131626262Y-119703972D01*
X131615000Y-119692710D01*
X131615000Y-109916519D01*
X131707911Y-109935000D01*
X131892089Y-109935000D01*
X131985000Y-109916519D01*
X131985000Y-110564881D01*
X131985001Y-114764880D01*
X131981542Y-114800000D01*
X131985001Y-114835120D01*
X131995347Y-114940164D01*
X132036231Y-115074942D01*
X132102624Y-115199154D01*
X132165000Y-115275159D01*
X132165000Y-115292089D01*
X132200932Y-115472729D01*
X132271414Y-115642889D01*
X132373738Y-115796028D01*
X132503972Y-115926262D01*
X132657111Y-116028586D01*
X132827271Y-116099068D01*
X133007911Y-116135000D01*
X133192089Y-116135000D01*
X133372729Y-116099068D01*
X133542889Y-116028586D01*
X133696028Y-115926262D01*
X133826262Y-115796028D01*
X133928586Y-115642889D01*
X133999068Y-115472729D01*
X134035000Y-115292089D01*
X134035000Y-115107911D01*
X133999068Y-114927271D01*
X133928586Y-114757111D01*
X133826262Y-114603972D01*
X133696028Y-114473738D01*
X133542889Y-114371414D01*
X133415000Y-114318441D01*
X133415000Y-113033631D01*
X133557111Y-113128586D01*
X133727271Y-113199068D01*
X133907911Y-113235000D01*
X134092089Y-113235000D01*
X134272729Y-113199068D01*
X134442889Y-113128586D01*
X134596028Y-113026262D01*
X134726262Y-112896028D01*
X134828586Y-112742889D01*
X134899068Y-112572729D01*
X134935000Y-112392089D01*
X134935000Y-112207911D01*
X134899068Y-112027271D01*
X134828586Y-111857111D01*
X134726262Y-111703972D01*
X134715000Y-111692710D01*
X134715000Y-108200448D01*
X134757111Y-108228586D01*
X134927271Y-108299068D01*
X135107911Y-108335000D01*
X135292089Y-108335000D01*
X135472729Y-108299068D01*
X135642889Y-108228586D01*
X135796028Y-108126262D01*
X135926262Y-107996028D01*
X136028586Y-107842889D01*
X136099068Y-107672729D01*
X136135000Y-107492089D01*
X136135000Y-107307911D01*
X136125873Y-107262028D01*
X136130001Y-107220119D01*
X136130001Y-107220110D01*
X136133459Y-107185000D01*
X136130001Y-107149890D01*
X136130001Y-106541162D01*
X137965000Y-108376163D01*
X137965000Y-108392089D01*
X138000932Y-108572729D01*
X138071414Y-108742889D01*
X138173738Y-108896028D01*
X138303972Y-109026262D01*
X138457111Y-109128586D01*
X138627271Y-109199068D01*
X138785000Y-109230443D01*
X138785000Y-109592710D01*
X138773738Y-109603972D01*
X138671414Y-109757111D01*
X138600932Y-109927271D01*
X138565000Y-110107911D01*
X138565000Y-110292089D01*
X138600932Y-110472729D01*
X138671414Y-110642889D01*
X138773738Y-110796028D01*
X138903972Y-110926262D01*
X139057111Y-111028586D01*
X139227271Y-111099068D01*
X139407911Y-111135000D01*
X139592089Y-111135000D01*
X139772729Y-111099068D01*
X139831442Y-111074748D01*
X139850932Y-111172729D01*
X139921414Y-111342889D01*
X140023738Y-111496028D01*
X140153972Y-111626262D01*
X140307111Y-111728586D01*
X140477271Y-111799068D01*
X140657911Y-111835000D01*
X140842089Y-111835000D01*
X141022729Y-111799068D01*
X141192889Y-111728586D01*
X141346028Y-111626262D01*
X141476262Y-111496028D01*
X141578586Y-111342889D01*
X141649068Y-111172729D01*
X141685000Y-110992089D01*
X141685000Y-110976161D01*
X142140000Y-110521162D01*
X142140000Y-110554465D01*
X142071414Y-110657111D01*
X142000932Y-110827271D01*
X141965000Y-111007911D01*
X141965000Y-111192089D01*
X142000932Y-111372729D01*
X142071414Y-111542889D01*
X142173738Y-111696028D01*
X142303972Y-111826262D01*
X142457111Y-111928586D01*
X142627271Y-111999068D01*
X142807911Y-112035000D01*
X142992089Y-112035000D01*
X143172729Y-111999068D01*
X143342889Y-111928586D01*
X143496028Y-111826262D01*
X143626262Y-111696028D01*
X143728586Y-111542889D01*
X143799068Y-111372729D01*
X143835000Y-111192089D01*
X143835000Y-111007911D01*
X143799068Y-110827271D01*
X143728586Y-110657111D01*
X143660000Y-110554465D01*
X143660000Y-100537322D01*
X143663676Y-100499999D01*
X143660000Y-100462676D01*
X143660000Y-100462667D01*
X143649003Y-100351014D01*
X143605546Y-100207753D01*
X143534974Y-100075724D01*
X143440001Y-99959999D01*
X143411003Y-99936201D01*
X141510000Y-98035199D01*
X141510000Y-97900637D01*
X141573738Y-97996028D01*
X141703972Y-98126262D01*
X141857111Y-98228586D01*
X142027271Y-98299068D01*
X142207911Y-98335000D01*
X142392089Y-98335000D01*
X142572729Y-98299068D01*
X142742889Y-98228586D01*
X142896028Y-98126262D01*
X143026262Y-97996028D01*
X143128586Y-97842889D01*
X143199068Y-97672729D01*
X143235000Y-97492089D01*
X143235000Y-97307911D01*
X143199068Y-97127271D01*
X143198800Y-97126625D01*
X143426282Y-97126625D01*
X143461392Y-97130083D01*
X143496502Y-97126625D01*
X143496512Y-97126625D01*
X143557894Y-97120579D01*
X143590128Y-97152813D01*
X143743267Y-97255137D01*
X143913427Y-97325619D01*
X144094067Y-97361551D01*
X144278245Y-97361551D01*
X144458885Y-97325619D01*
X144551191Y-97287385D01*
X144602068Y-97543158D01*
X144714010Y-97813411D01*
X144876525Y-98056632D01*
X145083368Y-98263475D01*
X145257760Y-98380000D01*
X145083368Y-98496525D01*
X144876525Y-98703368D01*
X144714010Y-98946589D01*
X144602068Y-99216842D01*
X144545000Y-99503740D01*
X144545000Y-99796260D01*
X144602068Y-100083158D01*
X144714010Y-100353411D01*
X144876525Y-100596632D01*
X145083368Y-100803475D01*
X145257760Y-100920000D01*
X145083368Y-101036525D01*
X144876525Y-101243368D01*
X144714010Y-101486589D01*
X144602068Y-101756842D01*
X144545000Y-102043740D01*
X144545000Y-102336260D01*
X144602068Y-102623158D01*
X144714010Y-102893411D01*
X144876525Y-103136632D01*
X145083368Y-103343475D01*
X145257760Y-103460000D01*
X145083368Y-103576525D01*
X144876525Y-103783368D01*
X144714010Y-104026589D01*
X144602068Y-104296842D01*
X144545000Y-104583740D01*
X144545000Y-104876260D01*
X144602068Y-105163158D01*
X144714010Y-105433411D01*
X144876525Y-105676632D01*
X145083368Y-105883475D01*
X145257760Y-106000000D01*
X145083368Y-106116525D01*
X144876525Y-106323368D01*
X144714010Y-106566589D01*
X144602068Y-106836842D01*
X144545000Y-107123740D01*
X144545000Y-107416260D01*
X144602068Y-107703158D01*
X144714010Y-107973411D01*
X144876525Y-108216632D01*
X145083368Y-108423475D01*
X145257760Y-108540000D01*
X145083368Y-108656525D01*
X144876525Y-108863368D01*
X144714010Y-109106589D01*
X144602068Y-109376842D01*
X144545000Y-109663740D01*
X144545000Y-109956260D01*
X144602068Y-110243158D01*
X144714010Y-110513411D01*
X144876525Y-110756632D01*
X145083368Y-110963475D01*
X145257760Y-111080000D01*
X145083368Y-111196525D01*
X144876525Y-111403368D01*
X144714010Y-111646589D01*
X144602068Y-111916842D01*
X144545000Y-112203740D01*
X144545000Y-112496260D01*
X144602068Y-112783158D01*
X144714010Y-113053411D01*
X144876525Y-113296632D01*
X145083368Y-113503475D01*
X145257760Y-113620000D01*
X145083368Y-113736525D01*
X144876525Y-113943368D01*
X144714010Y-114186589D01*
X144602068Y-114456842D01*
X144545000Y-114743740D01*
X144545000Y-115036260D01*
X144602068Y-115323158D01*
X144714010Y-115593411D01*
X144876525Y-115836632D01*
X145083368Y-116043475D01*
X145265534Y-116165195D01*
X145148645Y-116234822D01*
X144932412Y-116429731D01*
X144758359Y-116663080D01*
X144633175Y-116925901D01*
X144588524Y-117073110D01*
X144709845Y-117303000D01*
X145903000Y-117303000D01*
X145903000Y-117283000D01*
X146157000Y-117283000D01*
X146157000Y-117303000D01*
X146177000Y-117303000D01*
X146177000Y-117557000D01*
X146157000Y-117557000D01*
X146157000Y-117577000D01*
X145903000Y-117577000D01*
X145903000Y-117557000D01*
X144709845Y-117557000D01*
X144588524Y-117786890D01*
X144633175Y-117934099D01*
X144758359Y-118196920D01*
X144932412Y-118430269D01*
X145148645Y-118625178D01*
X145265534Y-118694805D01*
X145083368Y-118816525D01*
X144876525Y-119023368D01*
X144714010Y-119266589D01*
X144602068Y-119536842D01*
X144545000Y-119823740D01*
X144545000Y-120116260D01*
X144602068Y-120403158D01*
X144714010Y-120673411D01*
X144876525Y-120916632D01*
X145083368Y-121123475D01*
X145265534Y-121245195D01*
X145148645Y-121314822D01*
X144932412Y-121509731D01*
X144758359Y-121743080D01*
X144633175Y-122005901D01*
X144588524Y-122153110D01*
X144709845Y-122383000D01*
X145903000Y-122383000D01*
X145903000Y-122363000D01*
X146157000Y-122363000D01*
X146157000Y-122383000D01*
X146177000Y-122383000D01*
X146177000Y-122637000D01*
X146157000Y-122637000D01*
X146157000Y-123830814D01*
X146386891Y-123951481D01*
X146661252Y-123854157D01*
X146911355Y-123705178D01*
X146940000Y-123679358D01*
X146940000Y-123867721D01*
X146930420Y-123965424D01*
X146911420Y-124028357D01*
X146880554Y-124086406D01*
X146839011Y-124137343D01*
X146788356Y-124179248D01*
X146730529Y-124210515D01*
X146667728Y-124229956D01*
X146572165Y-124240000D01*
X122632279Y-124240000D01*
X122534576Y-124230420D01*
X122471643Y-124211420D01*
X122413594Y-124180554D01*
X122362657Y-124139011D01*
X122320752Y-124088356D01*
X122289485Y-124030529D01*
X122270044Y-123967728D01*
X122260000Y-123872165D01*
X122260000Y-123697952D01*
X122466589Y-123835990D01*
X122736842Y-123947932D01*
X123023740Y-124005000D01*
X123316260Y-124005000D01*
X123603158Y-123947932D01*
X123873411Y-123835990D01*
X124116632Y-123673475D01*
X124323475Y-123466632D01*
X124401405Y-123350000D01*
X129311928Y-123350000D01*
X129324188Y-123474482D01*
X129360498Y-123594180D01*
X129419463Y-123704494D01*
X129498815Y-123801185D01*
X129595506Y-123880537D01*
X129705820Y-123939502D01*
X129825518Y-123975812D01*
X129950000Y-123988072D01*
X130514250Y-123985000D01*
X130673000Y-123826250D01*
X130673000Y-122627000D01*
X129473750Y-122627000D01*
X129315000Y-122785750D01*
X129311928Y-123350000D01*
X124401405Y-123350000D01*
X124485990Y-123223411D01*
X124597932Y-122953158D01*
X124655000Y-122666260D01*
X124655000Y-122373740D01*
X124597932Y-122086842D01*
X124485990Y-121816589D01*
X124323475Y-121573368D01*
X124116632Y-121366525D01*
X123934466Y-121244805D01*
X124051355Y-121175178D01*
X124267588Y-120980269D01*
X124441641Y-120746920D01*
X124566825Y-120484099D01*
X124611476Y-120336890D01*
X124490155Y-120107000D01*
X123297000Y-120107000D01*
X123297000Y-120127000D01*
X123043000Y-120127000D01*
X123043000Y-120107000D01*
X123023000Y-120107000D01*
X123023000Y-119853000D01*
X123043000Y-119853000D01*
X123043000Y-119833000D01*
X123297000Y-119833000D01*
X123297000Y-119853000D01*
X124490155Y-119853000D01*
X124611476Y-119623110D01*
X124566825Y-119475901D01*
X124441641Y-119213080D01*
X124267588Y-118979731D01*
X124051355Y-118784822D01*
X123934466Y-118715195D01*
X124116632Y-118593475D01*
X124323475Y-118386632D01*
X124485990Y-118143411D01*
X124597932Y-117873158D01*
X124655000Y-117586260D01*
X124655000Y-117293740D01*
X124597932Y-117006842D01*
X124485990Y-116736589D01*
X124323475Y-116493368D01*
X124116632Y-116286525D01*
X123942240Y-116170000D01*
X124116632Y-116053475D01*
X124323475Y-115846632D01*
X124485990Y-115603411D01*
X124597932Y-115333158D01*
X124655000Y-115046260D01*
X124655000Y-114753740D01*
X124597932Y-114466842D01*
X124485990Y-114196589D01*
X124323475Y-113953368D01*
X124116632Y-113746525D01*
X123942240Y-113630000D01*
X124116632Y-113513475D01*
X124323475Y-113306632D01*
X124485990Y-113063411D01*
X124597932Y-112793158D01*
X124655000Y-112506260D01*
X124655000Y-112213740D01*
X124597932Y-111926842D01*
X124485990Y-111656589D01*
X124323475Y-111413368D01*
X124116632Y-111206525D01*
X123942240Y-111090000D01*
X124116632Y-110973475D01*
X124323475Y-110766632D01*
X124485990Y-110523411D01*
X124597932Y-110253158D01*
X124655000Y-109966260D01*
X124655000Y-109673740D01*
X124597932Y-109386842D01*
X124485990Y-109116589D01*
X124323475Y-108873368D01*
X124116632Y-108666525D01*
X123942240Y-108550000D01*
X124116632Y-108433475D01*
X124323475Y-108226632D01*
X124485990Y-107983411D01*
X124597932Y-107713158D01*
X124655000Y-107426260D01*
X124655000Y-107133740D01*
X124597932Y-106846842D01*
X124485990Y-106576589D01*
X124323475Y-106333368D01*
X124116632Y-106126525D01*
X123942240Y-106010000D01*
X124116632Y-105893475D01*
X124323475Y-105686632D01*
X124485990Y-105443411D01*
X124597932Y-105173158D01*
X124655000Y-104886260D01*
X124655000Y-104593740D01*
X124597932Y-104306842D01*
X124485990Y-104036589D01*
X124323475Y-103793368D01*
X124116632Y-103586525D01*
X123942240Y-103470000D01*
X124116632Y-103353475D01*
X124323475Y-103146632D01*
X124485990Y-102903411D01*
X124597932Y-102633158D01*
X124655000Y-102346260D01*
X124655000Y-102053740D01*
X124597932Y-101766842D01*
X124485990Y-101496589D01*
X124323475Y-101253368D01*
X124116632Y-101046525D01*
X123942240Y-100930000D01*
X124116632Y-100813475D01*
X124323475Y-100606632D01*
X124485990Y-100363411D01*
X124597932Y-100093158D01*
X124655000Y-99806260D01*
X124655000Y-99513740D01*
X124597932Y-99226842D01*
X124485990Y-98956589D01*
X124323475Y-98713368D01*
X124116632Y-98506525D01*
X123942240Y-98390000D01*
X124116632Y-98273475D01*
X124323475Y-98066632D01*
X124485990Y-97823411D01*
X124597932Y-97553158D01*
X124655000Y-97266260D01*
X124655000Y-96973740D01*
X124597932Y-96686842D01*
X124485990Y-96416589D01*
X124323475Y-96173368D01*
X124116632Y-95966525D01*
X123942240Y-95850000D01*
X124116632Y-95733475D01*
X124323475Y-95526632D01*
X124485990Y-95283411D01*
X124597932Y-95013158D01*
X124655000Y-94726260D01*
X124655000Y-94503541D01*
X124671279Y-94514418D01*
X124841439Y-94584900D01*
X125022079Y-94620832D01*
X125206257Y-94620832D01*
X125386897Y-94584900D01*
X125489982Y-94542201D01*
X125627271Y-94599068D01*
X125807911Y-94635000D01*
X125992089Y-94635000D01*
X126172729Y-94599068D01*
X126283330Y-94553256D01*
X126375447Y-94591412D01*
X126556087Y-94627344D01*
X126740265Y-94627344D01*
X126887170Y-94598122D01*
X126932407Y-94628349D01*
X127102567Y-94698831D01*
X127283207Y-94734763D01*
X127467385Y-94734763D01*
X127648025Y-94698831D01*
X127818185Y-94628349D01*
X127971324Y-94526025D01*
X128101558Y-94395791D01*
X128203882Y-94242652D01*
X128274364Y-94072492D01*
X128310296Y-93891852D01*
X128310296Y-93707674D01*
X128274364Y-93527034D01*
X128203882Y-93356874D01*
X128139924Y-93261153D01*
X128163770Y-93216540D01*
X128204654Y-93081762D01*
X128215000Y-92976718D01*
X128215000Y-92976708D01*
X128218458Y-92941599D01*
X128215000Y-92906489D01*
X128215000Y-88525438D01*
X128249615Y-88548567D01*
G36*
X129772803Y-72527298D02*
G01*
X129592592Y-72642986D01*
X129438413Y-72791609D01*
X129316191Y-72967455D01*
X129230624Y-73163767D01*
X129185000Y-73373000D01*
X129185000Y-73773000D01*
X130143000Y-73773000D01*
X130143000Y-73753000D01*
X130397000Y-73753000D01*
X130397000Y-73773000D01*
X131355000Y-73773000D01*
X131355000Y-73373000D01*
X131309376Y-73163767D01*
X131223809Y-72967455D01*
X131101587Y-72791609D01*
X130947408Y-72642986D01*
X130767197Y-72527298D01*
X130576492Y-72460000D01*
X138603508Y-72460000D01*
X138412803Y-72527298D01*
X138232592Y-72642986D01*
X138078413Y-72791609D01*
X137956191Y-72967455D01*
X137870624Y-73163767D01*
X137825000Y-73373000D01*
X137825000Y-73773000D01*
X138783000Y-73773000D01*
X138783000Y-73753000D01*
X139037000Y-73753000D01*
X139037000Y-73773000D01*
X139995000Y-73773000D01*
X139995000Y-73373000D01*
X139949376Y-73163767D01*
X139863809Y-72967455D01*
X139741587Y-72791609D01*
X139587408Y-72642986D01*
X139407197Y-72527298D01*
X139216492Y-72460000D01*
X146567721Y-72460000D01*
X146665424Y-72469580D01*
X146728356Y-72488580D01*
X146786405Y-72519445D01*
X146837343Y-72560989D01*
X146879248Y-72611644D01*
X146910515Y-72669471D01*
X146929956Y-72732272D01*
X146933628Y-72767210D01*
X146880000Y-72761928D01*
X145180000Y-72761928D01*
X145055518Y-72774188D01*
X144935820Y-72810498D01*
X144825506Y-72869463D01*
X144728815Y-72948815D01*
X144649463Y-73045506D01*
X144590498Y-73155820D01*
X144554188Y-73275518D01*
X144541928Y-73400000D01*
X144541928Y-75100000D01*
X144554188Y-75224482D01*
X144590498Y-75344180D01*
X144649463Y-75454494D01*
X144728815Y-75551185D01*
X144825506Y-75630537D01*
X144935820Y-75689502D01*
X145008380Y-75711513D01*
X144876525Y-75843368D01*
X144714010Y-76086589D01*
X144602068Y-76356842D01*
X144545000Y-76643740D01*
X144545000Y-76936260D01*
X144602068Y-77223158D01*
X144652352Y-77344555D01*
X144542889Y-77271414D01*
X144372729Y-77200932D01*
X144192089Y-77165000D01*
X144007911Y-77165000D01*
X143827271Y-77200932D01*
X143657111Y-77271414D01*
X143503972Y-77373738D01*
X143373738Y-77503972D01*
X143271414Y-77657111D01*
X143260000Y-77684667D01*
X143260000Y-75545535D01*
X143328586Y-75442889D01*
X143399068Y-75272729D01*
X143435000Y-75092089D01*
X143435000Y-74907911D01*
X143399068Y-74727271D01*
X143328586Y-74557111D01*
X143226262Y-74403972D01*
X143096028Y-74273738D01*
X142942889Y-74171414D01*
X142772729Y-74100932D01*
X142592089Y-74065000D01*
X142407911Y-74065000D01*
X142227271Y-74100932D01*
X142057111Y-74171414D01*
X141903972Y-74273738D01*
X141773738Y-74403972D01*
X141671414Y-74557111D01*
X141600932Y-74727271D01*
X141565000Y-74907911D01*
X141565000Y-75092089D01*
X141600932Y-75272729D01*
X141671414Y-75442889D01*
X141740001Y-75545537D01*
X141740000Y-83640000D01*
X141387322Y-83640000D01*
X141349999Y-83636324D01*
X141312676Y-83640000D01*
X141312667Y-83640000D01*
X141201014Y-83650997D01*
X141057753Y-83694454D01*
X140925723Y-83765026D01*
X140878268Y-83803972D01*
X140809999Y-83859999D01*
X140786200Y-83888998D01*
X140238998Y-84436201D01*
X140210000Y-84459999D01*
X140186202Y-84488997D01*
X140186201Y-84488998D01*
X140115026Y-84575724D01*
X140044454Y-84707754D01*
X140027990Y-84762032D01*
X140000998Y-84851014D01*
X139990001Y-84962667D01*
X139986324Y-85000000D01*
X139990001Y-85037332D01*
X139990001Y-86665000D01*
X139907911Y-86665000D01*
X139727271Y-86700932D01*
X139557111Y-86771414D01*
X139403972Y-86873738D01*
X139392710Y-86885000D01*
X138980529Y-86885000D01*
X138945419Y-86881542D01*
X138910309Y-86885000D01*
X138910299Y-86885000D01*
X138834934Y-86892423D01*
X138835000Y-86892089D01*
X138835000Y-86707911D01*
X138799068Y-86527271D01*
X138728586Y-86357111D01*
X138626262Y-86203972D01*
X138496028Y-86073738D01*
X138342889Y-85971414D01*
X138172729Y-85900932D01*
X137992089Y-85865000D01*
X137807911Y-85865000D01*
X137627271Y-85900932D01*
X137457111Y-85971414D01*
X137303972Y-86073738D01*
X137173738Y-86203972D01*
X137071414Y-86357111D01*
X137000932Y-86527271D01*
X136965000Y-86707911D01*
X136965000Y-86892089D01*
X137000932Y-87072729D01*
X137071414Y-87242889D01*
X137173738Y-87396028D01*
X137185001Y-87407291D01*
X137185001Y-87503837D01*
X137023838Y-87665000D01*
X137007911Y-87665000D01*
X136827271Y-87700932D01*
X136657111Y-87771414D01*
X136503972Y-87873738D01*
X136373738Y-88003972D01*
X136271414Y-88157111D01*
X136200932Y-88327271D01*
X136165000Y-88507911D01*
X136165000Y-88692089D01*
X136200932Y-88872729D01*
X136271414Y-89042889D01*
X136359515Y-89174742D01*
X134314999Y-91219259D01*
X134314999Y-89835000D01*
X134392089Y-89835000D01*
X134572729Y-89799068D01*
X134742889Y-89728586D01*
X134896028Y-89626262D01*
X135026262Y-89496028D01*
X135128586Y-89342889D01*
X135199068Y-89172729D01*
X135235000Y-88992089D01*
X135235000Y-88807911D01*
X135199068Y-88627271D01*
X135128586Y-88457111D01*
X135026262Y-88303972D01*
X134896028Y-88173738D01*
X134742889Y-88071414D01*
X134572729Y-88000932D01*
X134392089Y-87965000D01*
X134314999Y-87965000D01*
X134314999Y-86935111D01*
X134318457Y-86899999D01*
X134314999Y-86864887D01*
X134314999Y-86864879D01*
X134304653Y-86759835D01*
X134263769Y-86625057D01*
X134235000Y-86571234D01*
X134235000Y-86507911D01*
X134199068Y-86327271D01*
X134128586Y-86157111D01*
X134026262Y-86003972D01*
X133896028Y-85873738D01*
X133742889Y-85771414D01*
X133572729Y-85700932D01*
X133392089Y-85665000D01*
X133207911Y-85665000D01*
X133027271Y-85700932D01*
X132857111Y-85771414D01*
X132703972Y-85873738D01*
X132573738Y-86003972D01*
X132471414Y-86157111D01*
X132400932Y-86327271D01*
X132365000Y-86507911D01*
X132365000Y-86692089D01*
X132400932Y-86872729D01*
X132471414Y-87042889D01*
X132573738Y-87196028D01*
X132703972Y-87326262D01*
X132857111Y-87428586D01*
X132884999Y-87440138D01*
X132884999Y-88069557D01*
X132727271Y-88100932D01*
X132557111Y-88171414D01*
X132535000Y-88186188D01*
X132535000Y-88107911D01*
X132499068Y-87927271D01*
X132428586Y-87757111D01*
X132326262Y-87603972D01*
X132196028Y-87473738D01*
X132042889Y-87371414D01*
X131872729Y-87300932D01*
X131692089Y-87265000D01*
X131507911Y-87265000D01*
X131327271Y-87300932D01*
X131157111Y-87371414D01*
X131003972Y-87473738D01*
X130873738Y-87603972D01*
X130800000Y-87714329D01*
X130726262Y-87603972D01*
X130596028Y-87473738D01*
X130442889Y-87371414D01*
X130272729Y-87300932D01*
X130092089Y-87265000D01*
X129907911Y-87265000D01*
X129727271Y-87300932D01*
X129559713Y-87370336D01*
X129528151Y-87294139D01*
X129626262Y-87196028D01*
X129728586Y-87042889D01*
X129799068Y-86872729D01*
X129835000Y-86692089D01*
X129835000Y-86507911D01*
X129799068Y-86327271D01*
X129728586Y-86157111D01*
X129626262Y-86003972D01*
X129615000Y-85992710D01*
X129615000Y-82007911D01*
X133665000Y-82007911D01*
X133665000Y-82192089D01*
X133700932Y-82372729D01*
X133771414Y-82542889D01*
X133840001Y-82645537D01*
X133840000Y-84254464D01*
X133771414Y-84357111D01*
X133700932Y-84527271D01*
X133665000Y-84707911D01*
X133665000Y-84892089D01*
X133700932Y-85072729D01*
X133771414Y-85242889D01*
X133873738Y-85396028D01*
X134003972Y-85526262D01*
X134157111Y-85628586D01*
X134327271Y-85699068D01*
X134507911Y-85735000D01*
X134692089Y-85735000D01*
X134872729Y-85699068D01*
X135042889Y-85628586D01*
X135196028Y-85526262D01*
X135326262Y-85396028D01*
X135428586Y-85242889D01*
X135499068Y-85072729D01*
X135535000Y-84892089D01*
X135535000Y-84707911D01*
X135499068Y-84527271D01*
X135428586Y-84357111D01*
X135360000Y-84254465D01*
X135360000Y-82645535D01*
X135428586Y-82542889D01*
X135499068Y-82372729D01*
X135535000Y-82192089D01*
X135535000Y-82007911D01*
X135499068Y-81827271D01*
X135428586Y-81657111D01*
X135326262Y-81503972D01*
X135196028Y-81373738D01*
X135042889Y-81271414D01*
X134872729Y-81200932D01*
X134692089Y-81165000D01*
X134507911Y-81165000D01*
X134327271Y-81200932D01*
X134157111Y-81271414D01*
X134003972Y-81373738D01*
X133873738Y-81503972D01*
X133771414Y-81657111D01*
X133700932Y-81827271D01*
X133665000Y-82007911D01*
X129615000Y-82007911D01*
X129615000Y-79491399D01*
X129772803Y-79592702D01*
X129975999Y-79664408D01*
X130143000Y-79537502D01*
X130143000Y-78197000D01*
X129185000Y-78197000D01*
X129185000Y-78399552D01*
X129142889Y-78371414D01*
X128972729Y-78300932D01*
X128792089Y-78265000D01*
X128607911Y-78265000D01*
X128427271Y-78300932D01*
X128257111Y-78371414D01*
X128103972Y-78473738D01*
X127973738Y-78603972D01*
X127871414Y-78757111D01*
X127800932Y-78927271D01*
X127765000Y-79107911D01*
X127765000Y-79292089D01*
X127800932Y-79472729D01*
X127871414Y-79642889D01*
X127973738Y-79796028D01*
X128103972Y-79926262D01*
X128185001Y-79980404D01*
X128185001Y-80469557D01*
X128027271Y-80500932D01*
X127857111Y-80571414D01*
X127703972Y-80673738D01*
X127573738Y-80803972D01*
X127471414Y-80957111D01*
X127400932Y-81127271D01*
X127365000Y-81307911D01*
X127365000Y-81492089D01*
X127400932Y-81672729D01*
X127471414Y-81842889D01*
X127573738Y-81996028D01*
X127585000Y-82007290D01*
X127585000Y-82265000D01*
X127407911Y-82265000D01*
X127227271Y-82300932D01*
X127057111Y-82371414D01*
X126903972Y-82473738D01*
X126773738Y-82603972D01*
X126671414Y-82757111D01*
X126600932Y-82927271D01*
X126565000Y-83107911D01*
X126565000Y-83292089D01*
X126600932Y-83472729D01*
X126671414Y-83642889D01*
X126773738Y-83796028D01*
X126785000Y-83807290D01*
X126785000Y-84665000D01*
X126607911Y-84665000D01*
X126427271Y-84700932D01*
X126257111Y-84771414D01*
X126103972Y-84873738D01*
X125973738Y-85003972D01*
X125871414Y-85157111D01*
X125800932Y-85327271D01*
X125765000Y-85507911D01*
X125765000Y-85692089D01*
X125800932Y-85872729D01*
X125871414Y-86042889D01*
X125973738Y-86196028D01*
X125985000Y-86207290D01*
X125985000Y-87165000D01*
X125807911Y-87165000D01*
X125627271Y-87200932D01*
X125457111Y-87271414D01*
X125303972Y-87373738D01*
X125173738Y-87503972D01*
X125071414Y-87657111D01*
X125000932Y-87827271D01*
X124965000Y-88007911D01*
X124965000Y-88192089D01*
X125000932Y-88372729D01*
X125071414Y-88542889D01*
X125173738Y-88696028D01*
X125185001Y-88707291D01*
X125185001Y-89565000D01*
X125007911Y-89565000D01*
X124827271Y-89600932D01*
X124657111Y-89671414D01*
X124648906Y-89676896D01*
X124655000Y-89646260D01*
X124655000Y-89353740D01*
X124597932Y-89066842D01*
X124485990Y-88796589D01*
X124323475Y-88553368D01*
X124116632Y-88346525D01*
X123942240Y-88230000D01*
X124116632Y-88113475D01*
X124323475Y-87906632D01*
X124485990Y-87663411D01*
X124597932Y-87393158D01*
X124655000Y-87106260D01*
X124655000Y-86813740D01*
X124597932Y-86526842D01*
X124485990Y-86256589D01*
X124323475Y-86013368D01*
X124116632Y-85806525D01*
X123942240Y-85690000D01*
X124116632Y-85573475D01*
X124323475Y-85366632D01*
X124485990Y-85123411D01*
X124597932Y-84853158D01*
X124655000Y-84566260D01*
X124655000Y-84273740D01*
X124597932Y-83986842D01*
X124485990Y-83716589D01*
X124323475Y-83473368D01*
X124116632Y-83266525D01*
X123942240Y-83150000D01*
X124116632Y-83033475D01*
X124323475Y-82826632D01*
X124485990Y-82583411D01*
X124597932Y-82313158D01*
X124655000Y-82026260D01*
X124655000Y-81733740D01*
X124597932Y-81446842D01*
X124485990Y-81176589D01*
X124323475Y-80933368D01*
X124116632Y-80726525D01*
X123942240Y-80610000D01*
X124116632Y-80493475D01*
X124323475Y-80286632D01*
X124485990Y-80043411D01*
X124597932Y-79773158D01*
X124655000Y-79486260D01*
X124655000Y-79193740D01*
X124597932Y-78906842D01*
X124485990Y-78636589D01*
X124323475Y-78393368D01*
X124116632Y-78186525D01*
X123942240Y-78070000D01*
X124116632Y-77953475D01*
X124323475Y-77746632D01*
X124485990Y-77503411D01*
X124531723Y-77393000D01*
X129185000Y-77393000D01*
X129185000Y-77943000D01*
X130143000Y-77943000D01*
X130143000Y-76602498D01*
X130397000Y-76602498D01*
X130397000Y-77943000D01*
X130417000Y-77943000D01*
X130417000Y-78197000D01*
X130397000Y-78197000D01*
X130397000Y-79537502D01*
X130564001Y-79664408D01*
X130767197Y-79592702D01*
X130947408Y-79477014D01*
X131101587Y-79328391D01*
X131223809Y-79152545D01*
X131309376Y-78956233D01*
X131355000Y-78747000D01*
X131355000Y-78459133D01*
X131427271Y-78489068D01*
X131607911Y-78525000D01*
X131792089Y-78525000D01*
X131972729Y-78489068D01*
X132142889Y-78418586D01*
X132296028Y-78316262D01*
X132426262Y-78186028D01*
X132528586Y-78032889D01*
X132599068Y-77862729D01*
X132635000Y-77682089D01*
X132635000Y-77497911D01*
X136545000Y-77497911D01*
X136545000Y-77682089D01*
X136580932Y-77862729D01*
X136651414Y-78032889D01*
X136753738Y-78186028D01*
X136883972Y-78316262D01*
X137037111Y-78418586D01*
X137207271Y-78489068D01*
X137387911Y-78525000D01*
X137572089Y-78525000D01*
X137752729Y-78489068D01*
X137825000Y-78459133D01*
X137825000Y-78747000D01*
X137870624Y-78956233D01*
X137956191Y-79152545D01*
X138078413Y-79328391D01*
X138232592Y-79477014D01*
X138412803Y-79592702D01*
X138615999Y-79664408D01*
X138783000Y-79537502D01*
X138783000Y-78197000D01*
X139037000Y-78197000D01*
X139037000Y-79537502D01*
X139204001Y-79664408D01*
X139407197Y-79592702D01*
X139587408Y-79477014D01*
X139741587Y-79328391D01*
X139863809Y-79152545D01*
X139949376Y-78956233D01*
X139995000Y-78747000D01*
X139995000Y-78197000D01*
X139037000Y-78197000D01*
X138783000Y-78197000D01*
X138763000Y-78197000D01*
X138763000Y-77943000D01*
X138783000Y-77943000D01*
X138783000Y-76602498D01*
X139037000Y-76602498D01*
X139037000Y-77943000D01*
X139995000Y-77943000D01*
X139995000Y-77393000D01*
X139949376Y-77183767D01*
X139863809Y-76987455D01*
X139741587Y-76811609D01*
X139587408Y-76662986D01*
X139407197Y-76547298D01*
X139204001Y-76475592D01*
X139037000Y-76602498D01*
X138783000Y-76602498D01*
X138615999Y-76475592D01*
X138412803Y-76547298D01*
X138232592Y-76662986D01*
X138078413Y-76811609D01*
X138052915Y-76848294D01*
X137922889Y-76761414D01*
X137752729Y-76690932D01*
X137572089Y-76655000D01*
X137387911Y-76655000D01*
X137207271Y-76690932D01*
X137037111Y-76761414D01*
X136883972Y-76863738D01*
X136753738Y-76993972D01*
X136651414Y-77147111D01*
X136580932Y-77317271D01*
X136545000Y-77497911D01*
X132635000Y-77497911D01*
X132599068Y-77317271D01*
X132528586Y-77147111D01*
X132426262Y-76993972D01*
X132296028Y-76863738D01*
X132142889Y-76761414D01*
X131972729Y-76690932D01*
X131792089Y-76655000D01*
X131607911Y-76655000D01*
X131427271Y-76690932D01*
X131257111Y-76761414D01*
X131127085Y-76848294D01*
X131101587Y-76811609D01*
X130947408Y-76662986D01*
X130767197Y-76547298D01*
X130564001Y-76475592D01*
X130397000Y-76602498D01*
X130143000Y-76602498D01*
X129975999Y-76475592D01*
X129772803Y-76547298D01*
X129592592Y-76662986D01*
X129438413Y-76811609D01*
X129316191Y-76987455D01*
X129230624Y-77183767D01*
X129185000Y-77393000D01*
X124531723Y-77393000D01*
X124597932Y-77233158D01*
X124655000Y-76946260D01*
X124655000Y-76653740D01*
X124597932Y-76366842D01*
X124485990Y-76096589D01*
X124323475Y-75853368D01*
X124191620Y-75721513D01*
X124264180Y-75699502D01*
X124374494Y-75640537D01*
X124471185Y-75561185D01*
X124550537Y-75464494D01*
X124609502Y-75354180D01*
X124645812Y-75234482D01*
X124658072Y-75110000D01*
X124655000Y-74545750D01*
X124496250Y-74387000D01*
X123297000Y-74387000D01*
X123297000Y-74407000D01*
X123043000Y-74407000D01*
X123043000Y-74387000D01*
X123023000Y-74387000D01*
X123023000Y-74133000D01*
X123043000Y-74133000D01*
X123043000Y-72933750D01*
X123297000Y-72933750D01*
X123297000Y-74133000D01*
X124496250Y-74133000D01*
X124602250Y-74027000D01*
X129185000Y-74027000D01*
X129185000Y-74427000D01*
X129230624Y-74636233D01*
X129316191Y-74832545D01*
X129438413Y-75008391D01*
X129592592Y-75157014D01*
X129772803Y-75272702D01*
X129975999Y-75344408D01*
X130143000Y-75217502D01*
X130143000Y-74027000D01*
X130397000Y-74027000D01*
X130397000Y-75217502D01*
X130564001Y-75344408D01*
X130767197Y-75272702D01*
X130947408Y-75157014D01*
X131101587Y-75008391D01*
X131223809Y-74832545D01*
X131309376Y-74636233D01*
X131355000Y-74427000D01*
X131355000Y-74027000D01*
X137825000Y-74027000D01*
X137825000Y-74427000D01*
X137870624Y-74636233D01*
X137956191Y-74832545D01*
X138078413Y-75008391D01*
X138232592Y-75157014D01*
X138412803Y-75272702D01*
X138615999Y-75344408D01*
X138783000Y-75217502D01*
X138783000Y-74027000D01*
X139037000Y-74027000D01*
X139037000Y-75217502D01*
X139204001Y-75344408D01*
X139407197Y-75272702D01*
X139587408Y-75157014D01*
X139741587Y-75008391D01*
X139863809Y-74832545D01*
X139949376Y-74636233D01*
X139995000Y-74427000D01*
X139995000Y-74027000D01*
X139037000Y-74027000D01*
X138783000Y-74027000D01*
X137825000Y-74027000D01*
X131355000Y-74027000D01*
X130397000Y-74027000D01*
X130143000Y-74027000D01*
X129185000Y-74027000D01*
X124602250Y-74027000D01*
X124655000Y-73974250D01*
X124658072Y-73410000D01*
X124645812Y-73285518D01*
X124609502Y-73165820D01*
X124550537Y-73055506D01*
X124471185Y-72958815D01*
X124374494Y-72879463D01*
X124264180Y-72820498D01*
X124144482Y-72784188D01*
X124020000Y-72771928D01*
X123455750Y-72775000D01*
X123297000Y-72933750D01*
X123043000Y-72933750D01*
X122884250Y-72775000D01*
X122320000Y-72771928D01*
X122265390Y-72777306D01*
X122269580Y-72734576D01*
X122288580Y-72671644D01*
X122319445Y-72613595D01*
X122360989Y-72562657D01*
X122411644Y-72520752D01*
X122469471Y-72489485D01*
X122532272Y-72470044D01*
X122627835Y-72460000D01*
X129963508Y-72460000D01*
X129772803Y-72527298D01*
G37*
X129772803Y-72527298D02*
X129592592Y-72642986D01*
X129438413Y-72791609D01*
X129316191Y-72967455D01*
X129230624Y-73163767D01*
X129185000Y-73373000D01*
X129185000Y-73773000D01*
X130143000Y-73773000D01*
X130143000Y-73753000D01*
X130397000Y-73753000D01*
X130397000Y-73773000D01*
X131355000Y-73773000D01*
X131355000Y-73373000D01*
X131309376Y-73163767D01*
X131223809Y-72967455D01*
X131101587Y-72791609D01*
X130947408Y-72642986D01*
X130767197Y-72527298D01*
X130576492Y-72460000D01*
X138603508Y-72460000D01*
X138412803Y-72527298D01*
X138232592Y-72642986D01*
X138078413Y-72791609D01*
X137956191Y-72967455D01*
X137870624Y-73163767D01*
X137825000Y-73373000D01*
X137825000Y-73773000D01*
X138783000Y-73773000D01*
X138783000Y-73753000D01*
X139037000Y-73753000D01*
X139037000Y-73773000D01*
X139995000Y-73773000D01*
X139995000Y-73373000D01*
X139949376Y-73163767D01*
X139863809Y-72967455D01*
X139741587Y-72791609D01*
X139587408Y-72642986D01*
X139407197Y-72527298D01*
X139216492Y-72460000D01*
X146567721Y-72460000D01*
X146665424Y-72469580D01*
X146728356Y-72488580D01*
X146786405Y-72519445D01*
X146837343Y-72560989D01*
X146879248Y-72611644D01*
X146910515Y-72669471D01*
X146929956Y-72732272D01*
X146933628Y-72767210D01*
X146880000Y-72761928D01*
X145180000Y-72761928D01*
X145055518Y-72774188D01*
X144935820Y-72810498D01*
X144825506Y-72869463D01*
X144728815Y-72948815D01*
X144649463Y-73045506D01*
X144590498Y-73155820D01*
X144554188Y-73275518D01*
X144541928Y-73400000D01*
X144541928Y-75100000D01*
X144554188Y-75224482D01*
X144590498Y-75344180D01*
X144649463Y-75454494D01*
X144728815Y-75551185D01*
X144825506Y-75630537D01*
X144935820Y-75689502D01*
X145008380Y-75711513D01*
X144876525Y-75843368D01*
X144714010Y-76086589D01*
X144602068Y-76356842D01*
X144545000Y-76643740D01*
X144545000Y-76936260D01*
X144602068Y-77223158D01*
X144652352Y-77344555D01*
X144542889Y-77271414D01*
X144372729Y-77200932D01*
X144192089Y-77165000D01*
X144007911Y-77165000D01*
X143827271Y-77200932D01*
X143657111Y-77271414D01*
X143503972Y-77373738D01*
X143373738Y-77503972D01*
X143271414Y-77657111D01*
X143260000Y-77684667D01*
X143260000Y-75545535D01*
X143328586Y-75442889D01*
X143399068Y-75272729D01*
X143435000Y-75092089D01*
X143435000Y-74907911D01*
X143399068Y-74727271D01*
X143328586Y-74557111D01*
X143226262Y-74403972D01*
X143096028Y-74273738D01*
X142942889Y-74171414D01*
X142772729Y-74100932D01*
X142592089Y-74065000D01*
X142407911Y-74065000D01*
X142227271Y-74100932D01*
X142057111Y-74171414D01*
X141903972Y-74273738D01*
X141773738Y-74403972D01*
X141671414Y-74557111D01*
X141600932Y-74727271D01*
X141565000Y-74907911D01*
X141565000Y-75092089D01*
X141600932Y-75272729D01*
X141671414Y-75442889D01*
X141740001Y-75545537D01*
X141740000Y-83640000D01*
X141387322Y-83640000D01*
X141349999Y-83636324D01*
X141312676Y-83640000D01*
X141312667Y-83640000D01*
X141201014Y-83650997D01*
X141057753Y-83694454D01*
X140925723Y-83765026D01*
X140878268Y-83803972D01*
X140809999Y-83859999D01*
X140786200Y-83888998D01*
X140238998Y-84436201D01*
X140210000Y-84459999D01*
X140186202Y-84488997D01*
X140186201Y-84488998D01*
X140115026Y-84575724D01*
X140044454Y-84707754D01*
X140027990Y-84762032D01*
X140000998Y-84851014D01*
X139990001Y-84962667D01*
X139986324Y-85000000D01*
X139990001Y-85037332D01*
X139990001Y-86665000D01*
X139907911Y-86665000D01*
X139727271Y-86700932D01*
X139557111Y-86771414D01*
X139403972Y-86873738D01*
X139392710Y-86885000D01*
X138980529Y-86885000D01*
X138945419Y-86881542D01*
X138910309Y-86885000D01*
X138910299Y-86885000D01*
X138834934Y-86892423D01*
X138835000Y-86892089D01*
X138835000Y-86707911D01*
X138799068Y-86527271D01*
X138728586Y-86357111D01*
X138626262Y-86203972D01*
X138496028Y-86073738D01*
X138342889Y-85971414D01*
X138172729Y-85900932D01*
X137992089Y-85865000D01*
X137807911Y-85865000D01*
X137627271Y-85900932D01*
X137457111Y-85971414D01*
X137303972Y-86073738D01*
X137173738Y-86203972D01*
X137071414Y-86357111D01*
X137000932Y-86527271D01*
X136965000Y-86707911D01*
X136965000Y-86892089D01*
X137000932Y-87072729D01*
X137071414Y-87242889D01*
X137173738Y-87396028D01*
X137185001Y-87407291D01*
X137185001Y-87503837D01*
X137023838Y-87665000D01*
X137007911Y-87665000D01*
X136827271Y-87700932D01*
X136657111Y-87771414D01*
X136503972Y-87873738D01*
X136373738Y-88003972D01*
X136271414Y-88157111D01*
X136200932Y-88327271D01*
X136165000Y-88507911D01*
X136165000Y-88692089D01*
X136200932Y-88872729D01*
X136271414Y-89042889D01*
X136359515Y-89174742D01*
X134314999Y-91219259D01*
X134314999Y-89835000D01*
X134392089Y-89835000D01*
X134572729Y-89799068D01*
X134742889Y-89728586D01*
X134896028Y-89626262D01*
X135026262Y-89496028D01*
X135128586Y-89342889D01*
X135199068Y-89172729D01*
X135235000Y-88992089D01*
X135235000Y-88807911D01*
X135199068Y-88627271D01*
X135128586Y-88457111D01*
X135026262Y-88303972D01*
X134896028Y-88173738D01*
X134742889Y-88071414D01*
X134572729Y-88000932D01*
X134392089Y-87965000D01*
X134314999Y-87965000D01*
X134314999Y-86935111D01*
X134318457Y-86899999D01*
X134314999Y-86864887D01*
X134314999Y-86864879D01*
X134304653Y-86759835D01*
X134263769Y-86625057D01*
X134235000Y-86571234D01*
X134235000Y-86507911D01*
X134199068Y-86327271D01*
X134128586Y-86157111D01*
X134026262Y-86003972D01*
X133896028Y-85873738D01*
X133742889Y-85771414D01*
X133572729Y-85700932D01*
X133392089Y-85665000D01*
X133207911Y-85665000D01*
X133027271Y-85700932D01*
X132857111Y-85771414D01*
X132703972Y-85873738D01*
X132573738Y-86003972D01*
X132471414Y-86157111D01*
X132400932Y-86327271D01*
X132365000Y-86507911D01*
X132365000Y-86692089D01*
X132400932Y-86872729D01*
X132471414Y-87042889D01*
X132573738Y-87196028D01*
X132703972Y-87326262D01*
X132857111Y-87428586D01*
X132884999Y-87440138D01*
X132884999Y-88069557D01*
X132727271Y-88100932D01*
X132557111Y-88171414D01*
X132535000Y-88186188D01*
X132535000Y-88107911D01*
X132499068Y-87927271D01*
X132428586Y-87757111D01*
X132326262Y-87603972D01*
X132196028Y-87473738D01*
X132042889Y-87371414D01*
X131872729Y-87300932D01*
X131692089Y-87265000D01*
X131507911Y-87265000D01*
X131327271Y-87300932D01*
X131157111Y-87371414D01*
X131003972Y-87473738D01*
X130873738Y-87603972D01*
X130800000Y-87714329D01*
X130726262Y-87603972D01*
X130596028Y-87473738D01*
X130442889Y-87371414D01*
X130272729Y-87300932D01*
X130092089Y-87265000D01*
X129907911Y-87265000D01*
X129727271Y-87300932D01*
X129559713Y-87370336D01*
X129528151Y-87294139D01*
X129626262Y-87196028D01*
X129728586Y-87042889D01*
X129799068Y-86872729D01*
X129835000Y-86692089D01*
X129835000Y-86507911D01*
X129799068Y-86327271D01*
X129728586Y-86157111D01*
X129626262Y-86003972D01*
X129615000Y-85992710D01*
X129615000Y-82007911D01*
X133665000Y-82007911D01*
X133665000Y-82192089D01*
X133700932Y-82372729D01*
X133771414Y-82542889D01*
X133840001Y-82645537D01*
X133840000Y-84254464D01*
X133771414Y-84357111D01*
X133700932Y-84527271D01*
X133665000Y-84707911D01*
X133665000Y-84892089D01*
X133700932Y-85072729D01*
X133771414Y-85242889D01*
X133873738Y-85396028D01*
X134003972Y-85526262D01*
X134157111Y-85628586D01*
X134327271Y-85699068D01*
X134507911Y-85735000D01*
X134692089Y-85735000D01*
X134872729Y-85699068D01*
X135042889Y-85628586D01*
X135196028Y-85526262D01*
X135326262Y-85396028D01*
X135428586Y-85242889D01*
X135499068Y-85072729D01*
X135535000Y-84892089D01*
X135535000Y-84707911D01*
X135499068Y-84527271D01*
X135428586Y-84357111D01*
X135360000Y-84254465D01*
X135360000Y-82645535D01*
X135428586Y-82542889D01*
X135499068Y-82372729D01*
X135535000Y-82192089D01*
X135535000Y-82007911D01*
X135499068Y-81827271D01*
X135428586Y-81657111D01*
X135326262Y-81503972D01*
X135196028Y-81373738D01*
X135042889Y-81271414D01*
X134872729Y-81200932D01*
X134692089Y-81165000D01*
X134507911Y-81165000D01*
X134327271Y-81200932D01*
X134157111Y-81271414D01*
X134003972Y-81373738D01*
X133873738Y-81503972D01*
X133771414Y-81657111D01*
X133700932Y-81827271D01*
X133665000Y-82007911D01*
X129615000Y-82007911D01*
X129615000Y-79491399D01*
X129772803Y-79592702D01*
X129975999Y-79664408D01*
X130143000Y-79537502D01*
X130143000Y-78197000D01*
X129185000Y-78197000D01*
X129185000Y-78399552D01*
X129142889Y-78371414D01*
X128972729Y-78300932D01*
X128792089Y-78265000D01*
X128607911Y-78265000D01*
X128427271Y-78300932D01*
X128257111Y-78371414D01*
X128103972Y-78473738D01*
X127973738Y-78603972D01*
X127871414Y-78757111D01*
X127800932Y-78927271D01*
X127765000Y-79107911D01*
X127765000Y-79292089D01*
X127800932Y-79472729D01*
X127871414Y-79642889D01*
X127973738Y-79796028D01*
X128103972Y-79926262D01*
X128185001Y-79980404D01*
X128185001Y-80469557D01*
X128027271Y-80500932D01*
X127857111Y-80571414D01*
X127703972Y-80673738D01*
X127573738Y-80803972D01*
X127471414Y-80957111D01*
X127400932Y-81127271D01*
X127365000Y-81307911D01*
X127365000Y-81492089D01*
X127400932Y-81672729D01*
X127471414Y-81842889D01*
X127573738Y-81996028D01*
X127585000Y-82007290D01*
X127585000Y-82265000D01*
X127407911Y-82265000D01*
X127227271Y-82300932D01*
X127057111Y-82371414D01*
X126903972Y-82473738D01*
X126773738Y-82603972D01*
X126671414Y-82757111D01*
X126600932Y-82927271D01*
X126565000Y-83107911D01*
X126565000Y-83292089D01*
X126600932Y-83472729D01*
X126671414Y-83642889D01*
X126773738Y-83796028D01*
X126785000Y-83807290D01*
X126785000Y-84665000D01*
X126607911Y-84665000D01*
X126427271Y-84700932D01*
X126257111Y-84771414D01*
X126103972Y-84873738D01*
X125973738Y-85003972D01*
X125871414Y-85157111D01*
X125800932Y-85327271D01*
X125765000Y-85507911D01*
X125765000Y-85692089D01*
X125800932Y-85872729D01*
X125871414Y-86042889D01*
X125973738Y-86196028D01*
X125985000Y-86207290D01*
X125985000Y-87165000D01*
X125807911Y-87165000D01*
X125627271Y-87200932D01*
X125457111Y-87271414D01*
X125303972Y-87373738D01*
X125173738Y-87503972D01*
X125071414Y-87657111D01*
X125000932Y-87827271D01*
X124965000Y-88007911D01*
X124965000Y-88192089D01*
X125000932Y-88372729D01*
X125071414Y-88542889D01*
X125173738Y-88696028D01*
X125185001Y-88707291D01*
X125185001Y-89565000D01*
X125007911Y-89565000D01*
X124827271Y-89600932D01*
X124657111Y-89671414D01*
X124648906Y-89676896D01*
X124655000Y-89646260D01*
X124655000Y-89353740D01*
X124597932Y-89066842D01*
X124485990Y-88796589D01*
X124323475Y-88553368D01*
X124116632Y-88346525D01*
X123942240Y-88230000D01*
X124116632Y-88113475D01*
X124323475Y-87906632D01*
X124485990Y-87663411D01*
X124597932Y-87393158D01*
X124655000Y-87106260D01*
X124655000Y-86813740D01*
X124597932Y-86526842D01*
X124485990Y-86256589D01*
X124323475Y-86013368D01*
X124116632Y-85806525D01*
X123942240Y-85690000D01*
X124116632Y-85573475D01*
X124323475Y-85366632D01*
X124485990Y-85123411D01*
X124597932Y-84853158D01*
X124655000Y-84566260D01*
X124655000Y-84273740D01*
X124597932Y-83986842D01*
X124485990Y-83716589D01*
X124323475Y-83473368D01*
X124116632Y-83266525D01*
X123942240Y-83150000D01*
X124116632Y-83033475D01*
X124323475Y-82826632D01*
X124485990Y-82583411D01*
X124597932Y-82313158D01*
X124655000Y-82026260D01*
X124655000Y-81733740D01*
X124597932Y-81446842D01*
X124485990Y-81176589D01*
X124323475Y-80933368D01*
X124116632Y-80726525D01*
X123942240Y-80610000D01*
X124116632Y-80493475D01*
X124323475Y-80286632D01*
X124485990Y-80043411D01*
X124597932Y-79773158D01*
X124655000Y-79486260D01*
X124655000Y-79193740D01*
X124597932Y-78906842D01*
X124485990Y-78636589D01*
X124323475Y-78393368D01*
X124116632Y-78186525D01*
X123942240Y-78070000D01*
X124116632Y-77953475D01*
X124323475Y-77746632D01*
X124485990Y-77503411D01*
X124531723Y-77393000D01*
X129185000Y-77393000D01*
X129185000Y-77943000D01*
X130143000Y-77943000D01*
X130143000Y-76602498D01*
X130397000Y-76602498D01*
X130397000Y-77943000D01*
X130417000Y-77943000D01*
X130417000Y-78197000D01*
X130397000Y-78197000D01*
X130397000Y-79537502D01*
X130564001Y-79664408D01*
X130767197Y-79592702D01*
X130947408Y-79477014D01*
X131101587Y-79328391D01*
X131223809Y-79152545D01*
X131309376Y-78956233D01*
X131355000Y-78747000D01*
X131355000Y-78459133D01*
X131427271Y-78489068D01*
X131607911Y-78525000D01*
X131792089Y-78525000D01*
X131972729Y-78489068D01*
X132142889Y-78418586D01*
X132296028Y-78316262D01*
X132426262Y-78186028D01*
X132528586Y-78032889D01*
X132599068Y-77862729D01*
X132635000Y-77682089D01*
X132635000Y-77497911D01*
X136545000Y-77497911D01*
X136545000Y-77682089D01*
X136580932Y-77862729D01*
X136651414Y-78032889D01*
X136753738Y-78186028D01*
X136883972Y-78316262D01*
X137037111Y-78418586D01*
X137207271Y-78489068D01*
X137387911Y-78525000D01*
X137572089Y-78525000D01*
X137752729Y-78489068D01*
X137825000Y-78459133D01*
X137825000Y-78747000D01*
X137870624Y-78956233D01*
X137956191Y-79152545D01*
X138078413Y-79328391D01*
X138232592Y-79477014D01*
X138412803Y-79592702D01*
X138615999Y-79664408D01*
X138783000Y-79537502D01*
X138783000Y-78197000D01*
X139037000Y-78197000D01*
X139037000Y-79537502D01*
X139204001Y-79664408D01*
X139407197Y-79592702D01*
X139587408Y-79477014D01*
X139741587Y-79328391D01*
X139863809Y-79152545D01*
X139949376Y-78956233D01*
X139995000Y-78747000D01*
X139995000Y-78197000D01*
X139037000Y-78197000D01*
X138783000Y-78197000D01*
X138763000Y-78197000D01*
X138763000Y-77943000D01*
X138783000Y-77943000D01*
X138783000Y-76602498D01*
X139037000Y-76602498D01*
X139037000Y-77943000D01*
X139995000Y-77943000D01*
X139995000Y-77393000D01*
X139949376Y-77183767D01*
X139863809Y-76987455D01*
X139741587Y-76811609D01*
X139587408Y-76662986D01*
X139407197Y-76547298D01*
X139204001Y-76475592D01*
X139037000Y-76602498D01*
X138783000Y-76602498D01*
X138615999Y-76475592D01*
X138412803Y-76547298D01*
X138232592Y-76662986D01*
X138078413Y-76811609D01*
X138052915Y-76848294D01*
X137922889Y-76761414D01*
X137752729Y-76690932D01*
X137572089Y-76655000D01*
X137387911Y-76655000D01*
X137207271Y-76690932D01*
X137037111Y-76761414D01*
X136883972Y-76863738D01*
X136753738Y-76993972D01*
X136651414Y-77147111D01*
X136580932Y-77317271D01*
X136545000Y-77497911D01*
X132635000Y-77497911D01*
X132599068Y-77317271D01*
X132528586Y-77147111D01*
X132426262Y-76993972D01*
X132296028Y-76863738D01*
X132142889Y-76761414D01*
X131972729Y-76690932D01*
X131792089Y-76655000D01*
X131607911Y-76655000D01*
X131427271Y-76690932D01*
X131257111Y-76761414D01*
X131127085Y-76848294D01*
X131101587Y-76811609D01*
X130947408Y-76662986D01*
X130767197Y-76547298D01*
X130564001Y-76475592D01*
X130397000Y-76602498D01*
X130143000Y-76602498D01*
X129975999Y-76475592D01*
X129772803Y-76547298D01*
X129592592Y-76662986D01*
X129438413Y-76811609D01*
X129316191Y-76987455D01*
X129230624Y-77183767D01*
X129185000Y-77393000D01*
X124531723Y-77393000D01*
X124597932Y-77233158D01*
X124655000Y-76946260D01*
X124655000Y-76653740D01*
X124597932Y-76366842D01*
X124485990Y-76096589D01*
X124323475Y-75853368D01*
X124191620Y-75721513D01*
X124264180Y-75699502D01*
X124374494Y-75640537D01*
X124471185Y-75561185D01*
X124550537Y-75464494D01*
X124609502Y-75354180D01*
X124645812Y-75234482D01*
X124658072Y-75110000D01*
X124655000Y-74545750D01*
X124496250Y-74387000D01*
X123297000Y-74387000D01*
X123297000Y-74407000D01*
X123043000Y-74407000D01*
X123043000Y-74387000D01*
X123023000Y-74387000D01*
X123023000Y-74133000D01*
X123043000Y-74133000D01*
X123043000Y-72933750D01*
X123297000Y-72933750D01*
X123297000Y-74133000D01*
X124496250Y-74133000D01*
X124602250Y-74027000D01*
X129185000Y-74027000D01*
X129185000Y-74427000D01*
X129230624Y-74636233D01*
X129316191Y-74832545D01*
X129438413Y-75008391D01*
X129592592Y-75157014D01*
X129772803Y-75272702D01*
X129975999Y-75344408D01*
X130143000Y-75217502D01*
X130143000Y-74027000D01*
X130397000Y-74027000D01*
X130397000Y-75217502D01*
X130564001Y-75344408D01*
X130767197Y-75272702D01*
X130947408Y-75157014D01*
X131101587Y-75008391D01*
X131223809Y-74832545D01*
X131309376Y-74636233D01*
X131355000Y-74427000D01*
X131355000Y-74027000D01*
X137825000Y-74027000D01*
X137825000Y-74427000D01*
X137870624Y-74636233D01*
X137956191Y-74832545D01*
X138078413Y-75008391D01*
X138232592Y-75157014D01*
X138412803Y-75272702D01*
X138615999Y-75344408D01*
X138783000Y-75217502D01*
X138783000Y-74027000D01*
X139037000Y-74027000D01*
X139037000Y-75217502D01*
X139204001Y-75344408D01*
X139407197Y-75272702D01*
X139587408Y-75157014D01*
X139741587Y-75008391D01*
X139863809Y-74832545D01*
X139949376Y-74636233D01*
X139995000Y-74427000D01*
X139995000Y-74027000D01*
X139037000Y-74027000D01*
X138783000Y-74027000D01*
X137825000Y-74027000D01*
X131355000Y-74027000D01*
X130397000Y-74027000D01*
X130143000Y-74027000D01*
X129185000Y-74027000D01*
X124602250Y-74027000D01*
X124655000Y-73974250D01*
X124658072Y-73410000D01*
X124645812Y-73285518D01*
X124609502Y-73165820D01*
X124550537Y-73055506D01*
X124471185Y-72958815D01*
X124374494Y-72879463D01*
X124264180Y-72820498D01*
X124144482Y-72784188D01*
X124020000Y-72771928D01*
X123455750Y-72775000D01*
X123297000Y-72933750D01*
X123043000Y-72933750D01*
X122884250Y-72775000D01*
X122320000Y-72771928D01*
X122265390Y-72777306D01*
X122269580Y-72734576D01*
X122288580Y-72671644D01*
X122319445Y-72613595D01*
X122360989Y-72562657D01*
X122411644Y-72520752D01*
X122469471Y-72489485D01*
X122532272Y-72470044D01*
X122627835Y-72460000D01*
X129963508Y-72460000D01*
X129772803Y-72527298D01*
G36*
X142043325Y-85219375D02*
G01*
X141958728Y-85303972D01*
X141856404Y-85457111D01*
X141785922Y-85627271D01*
X141749990Y-85807911D01*
X141749990Y-85992089D01*
X141785922Y-86172729D01*
X141856404Y-86342889D01*
X141958728Y-86496028D01*
X142088962Y-86626262D01*
X142242101Y-86728586D01*
X142274968Y-86742200D01*
X142300932Y-86872729D01*
X142371414Y-87042889D01*
X142473738Y-87196028D01*
X142603972Y-87326262D01*
X142757111Y-87428586D01*
X142927271Y-87499068D01*
X143107911Y-87535000D01*
X143292089Y-87535000D01*
X143472729Y-87499068D01*
X143642889Y-87428586D01*
X143771155Y-87342882D01*
X143771155Y-87900330D01*
X143727879Y-87871414D01*
X143557719Y-87800932D01*
X143377079Y-87765000D01*
X143192901Y-87765000D01*
X143012261Y-87800932D01*
X142842101Y-87871414D01*
X142688962Y-87973738D01*
X142558728Y-88103972D01*
X142456404Y-88257111D01*
X142385922Y-88427271D01*
X142349990Y-88607911D01*
X142349990Y-88792089D01*
X142385922Y-88972729D01*
X142456404Y-89142889D01*
X142558728Y-89296028D01*
X142679336Y-89416636D01*
X142547090Y-89471414D01*
X142393951Y-89573738D01*
X142263717Y-89703972D01*
X142161393Y-89857111D01*
X142090911Y-90027271D01*
X142054979Y-90207911D01*
X142054979Y-90392089D01*
X142090911Y-90572729D01*
X142161393Y-90742889D01*
X142202753Y-90804789D01*
X142072729Y-90750932D01*
X141892089Y-90715000D01*
X141707911Y-90715000D01*
X141527271Y-90750932D01*
X141510000Y-90758086D01*
X141510000Y-85314801D01*
X141664802Y-85160000D01*
X141954465Y-85160000D01*
X142043325Y-85219375D01*
G37*
X142043325Y-85219375D02*
X141958728Y-85303972D01*
X141856404Y-85457111D01*
X141785922Y-85627271D01*
X141749990Y-85807911D01*
X141749990Y-85992089D01*
X141785922Y-86172729D01*
X141856404Y-86342889D01*
X141958728Y-86496028D01*
X142088962Y-86626262D01*
X142242101Y-86728586D01*
X142274968Y-86742200D01*
X142300932Y-86872729D01*
X142371414Y-87042889D01*
X142473738Y-87196028D01*
X142603972Y-87326262D01*
X142757111Y-87428586D01*
X142927271Y-87499068D01*
X143107911Y-87535000D01*
X143292089Y-87535000D01*
X143472729Y-87499068D01*
X143642889Y-87428586D01*
X143771155Y-87342882D01*
X143771155Y-87900330D01*
X143727879Y-87871414D01*
X143557719Y-87800932D01*
X143377079Y-87765000D01*
X143192901Y-87765000D01*
X143012261Y-87800932D01*
X142842101Y-87871414D01*
X142688962Y-87973738D01*
X142558728Y-88103972D01*
X142456404Y-88257111D01*
X142385922Y-88427271D01*
X142349990Y-88607911D01*
X142349990Y-88792089D01*
X142385922Y-88972729D01*
X142456404Y-89142889D01*
X142558728Y-89296028D01*
X142679336Y-89416636D01*
X142547090Y-89471414D01*
X142393951Y-89573738D01*
X142263717Y-89703972D01*
X142161393Y-89857111D01*
X142090911Y-90027271D01*
X142054979Y-90207911D01*
X142054979Y-90392089D01*
X142090911Y-90572729D01*
X142161393Y-90742889D01*
X142202753Y-90804789D01*
X142072729Y-90750932D01*
X141892089Y-90715000D01*
X141707911Y-90715000D01*
X141527271Y-90750932D01*
X141510000Y-90758086D01*
X141510000Y-85314801D01*
X141664802Y-85160000D01*
X141954465Y-85160000D01*
X142043325Y-85219375D01*
%TD*%
M02*
