%TF.GenerationSoftware,KiCad,Pcbnew,(5.1.6)-1*%
%TF.CreationDate,2021-08-28T00:22:51-07:00*%
%TF.ProjectId,Rocketboard-Engine,526f636b-6574-4626-9f61-72642d456e67,1.0*%
%TF.SameCoordinates,Original*%
%TF.FileFunction,Soldermask,Top*%
%TF.FilePolarity,Negative*%
%FSLAX46Y46*%
G04 Gerber Fmt 4.6, Leading zero omitted, Abs format (unit mm)*
G04 Created by KiCad (PCBNEW (5.1.6)-1) date 2021-08-28 00:22:51*
%MOMM*%
%LPD*%
G01*
G04 APERTURE LIST*
%ADD10R,1.600000X2.100000*%
%ADD11R,3.900000X2.100000*%
%ADD12R,0.750000X1.160000*%
%ADD13R,1.100000X1.600000*%
%ADD14R,1.000000X0.900000*%
%ADD15O,1.800000X1.800000*%
%ADD16R,1.800000X1.800000*%
%ADD17R,0.700000X1.260000*%
%ADD18C,0.700000*%
%ADD19R,0.400000X1.260000*%
%ADD20O,1.000000X1.800000*%
%ADD21O,1.000000X2.100000*%
G04 APERTURE END LIST*
%TO.C,IC1*%
G36*
G01*
X137550000Y-101850000D02*
X137550000Y-103225000D01*
G75*
G02*
X137450000Y-103325000I-100000J0D01*
G01*
X137250000Y-103325000D01*
G75*
G02*
X137150000Y-103225000I0J100000D01*
G01*
X137150000Y-101850000D01*
G75*
G02*
X137250000Y-101750000I100000J0D01*
G01*
X137450000Y-101750000D01*
G75*
G02*
X137550000Y-101850000I0J-100000D01*
G01*
G37*
G36*
G01*
X137050000Y-101850000D02*
X137050000Y-103225000D01*
G75*
G02*
X136950000Y-103325000I-100000J0D01*
G01*
X136750000Y-103325000D01*
G75*
G02*
X136650000Y-103225000I0J100000D01*
G01*
X136650000Y-101850000D01*
G75*
G02*
X136750000Y-101750000I100000J0D01*
G01*
X136950000Y-101750000D01*
G75*
G02*
X137050000Y-101850000I0J-100000D01*
G01*
G37*
G36*
G01*
X136550000Y-101850000D02*
X136550000Y-103225000D01*
G75*
G02*
X136450000Y-103325000I-100000J0D01*
G01*
X136250000Y-103325000D01*
G75*
G02*
X136150000Y-103225000I0J100000D01*
G01*
X136150000Y-101850000D01*
G75*
G02*
X136250000Y-101750000I100000J0D01*
G01*
X136450000Y-101750000D01*
G75*
G02*
X136550000Y-101850000I0J-100000D01*
G01*
G37*
G36*
G01*
X136050000Y-101850000D02*
X136050000Y-103225000D01*
G75*
G02*
X135950000Y-103325000I-100000J0D01*
G01*
X135750000Y-103325000D01*
G75*
G02*
X135650000Y-103225000I0J100000D01*
G01*
X135650000Y-101850000D01*
G75*
G02*
X135750000Y-101750000I100000J0D01*
G01*
X135950000Y-101750000D01*
G75*
G02*
X136050000Y-101850000I0J-100000D01*
G01*
G37*
G36*
G01*
X135550000Y-101850000D02*
X135550000Y-103225000D01*
G75*
G02*
X135450000Y-103325000I-100000J0D01*
G01*
X135250000Y-103325000D01*
G75*
G02*
X135150000Y-103225000I0J100000D01*
G01*
X135150000Y-101850000D01*
G75*
G02*
X135250000Y-101750000I100000J0D01*
G01*
X135450000Y-101750000D01*
G75*
G02*
X135550000Y-101850000I0J-100000D01*
G01*
G37*
G36*
G01*
X135050000Y-101850000D02*
X135050000Y-103225000D01*
G75*
G02*
X134950000Y-103325000I-100000J0D01*
G01*
X134750000Y-103325000D01*
G75*
G02*
X134650000Y-103225000I0J100000D01*
G01*
X134650000Y-101850000D01*
G75*
G02*
X134750000Y-101750000I100000J0D01*
G01*
X134950000Y-101750000D01*
G75*
G02*
X135050000Y-101850000I0J-100000D01*
G01*
G37*
G36*
G01*
X134550000Y-101850000D02*
X134550000Y-103225000D01*
G75*
G02*
X134450000Y-103325000I-100000J0D01*
G01*
X134250000Y-103325000D01*
G75*
G02*
X134150000Y-103225000I0J100000D01*
G01*
X134150000Y-101850000D01*
G75*
G02*
X134250000Y-101750000I100000J0D01*
G01*
X134450000Y-101750000D01*
G75*
G02*
X134550000Y-101850000I0J-100000D01*
G01*
G37*
G36*
G01*
X134050000Y-101850000D02*
X134050000Y-103225000D01*
G75*
G02*
X133950000Y-103325000I-100000J0D01*
G01*
X133750000Y-103325000D01*
G75*
G02*
X133650000Y-103225000I0J100000D01*
G01*
X133650000Y-101850000D01*
G75*
G02*
X133750000Y-101750000I100000J0D01*
G01*
X133950000Y-101750000D01*
G75*
G02*
X134050000Y-101850000I0J-100000D01*
G01*
G37*
G36*
G01*
X133550000Y-101850000D02*
X133550000Y-103225000D01*
G75*
G02*
X133450000Y-103325000I-100000J0D01*
G01*
X133250000Y-103325000D01*
G75*
G02*
X133150000Y-103225000I0J100000D01*
G01*
X133150000Y-101850000D01*
G75*
G02*
X133250000Y-101750000I100000J0D01*
G01*
X133450000Y-101750000D01*
G75*
G02*
X133550000Y-101850000I0J-100000D01*
G01*
G37*
G36*
G01*
X133050000Y-101850000D02*
X133050000Y-103225000D01*
G75*
G02*
X132950000Y-103325000I-100000J0D01*
G01*
X132750000Y-103325000D01*
G75*
G02*
X132650000Y-103225000I0J100000D01*
G01*
X132650000Y-101850000D01*
G75*
G02*
X132750000Y-101750000I100000J0D01*
G01*
X132950000Y-101750000D01*
G75*
G02*
X133050000Y-101850000I0J-100000D01*
G01*
G37*
G36*
G01*
X132550000Y-101850000D02*
X132550000Y-103225000D01*
G75*
G02*
X132450000Y-103325000I-100000J0D01*
G01*
X132250000Y-103325000D01*
G75*
G02*
X132150000Y-103225000I0J100000D01*
G01*
X132150000Y-101850000D01*
G75*
G02*
X132250000Y-101750000I100000J0D01*
G01*
X132450000Y-101750000D01*
G75*
G02*
X132550000Y-101850000I0J-100000D01*
G01*
G37*
G36*
G01*
X132050000Y-101850000D02*
X132050000Y-103225000D01*
G75*
G02*
X131950000Y-103325000I-100000J0D01*
G01*
X131750000Y-103325000D01*
G75*
G02*
X131650000Y-103225000I0J100000D01*
G01*
X131650000Y-101850000D01*
G75*
G02*
X131750000Y-101750000I100000J0D01*
G01*
X131950000Y-101750000D01*
G75*
G02*
X132050000Y-101850000I0J-100000D01*
G01*
G37*
G36*
G01*
X131225000Y-101025000D02*
X131225000Y-101225000D01*
G75*
G02*
X131125000Y-101325000I-100000J0D01*
G01*
X129750000Y-101325000D01*
G75*
G02*
X129650000Y-101225000I0J100000D01*
G01*
X129650000Y-101025000D01*
G75*
G02*
X129750000Y-100925000I100000J0D01*
G01*
X131125000Y-100925000D01*
G75*
G02*
X131225000Y-101025000I0J-100000D01*
G01*
G37*
G36*
G01*
X131225000Y-100525000D02*
X131225000Y-100725000D01*
G75*
G02*
X131125000Y-100825000I-100000J0D01*
G01*
X129750000Y-100825000D01*
G75*
G02*
X129650000Y-100725000I0J100000D01*
G01*
X129650000Y-100525000D01*
G75*
G02*
X129750000Y-100425000I100000J0D01*
G01*
X131125000Y-100425000D01*
G75*
G02*
X131225000Y-100525000I0J-100000D01*
G01*
G37*
G36*
G01*
X131225000Y-100025000D02*
X131225000Y-100225000D01*
G75*
G02*
X131125000Y-100325000I-100000J0D01*
G01*
X129750000Y-100325000D01*
G75*
G02*
X129650000Y-100225000I0J100000D01*
G01*
X129650000Y-100025000D01*
G75*
G02*
X129750000Y-99925000I100000J0D01*
G01*
X131125000Y-99925000D01*
G75*
G02*
X131225000Y-100025000I0J-100000D01*
G01*
G37*
G36*
G01*
X131225000Y-99525000D02*
X131225000Y-99725000D01*
G75*
G02*
X131125000Y-99825000I-100000J0D01*
G01*
X129750000Y-99825000D01*
G75*
G02*
X129650000Y-99725000I0J100000D01*
G01*
X129650000Y-99525000D01*
G75*
G02*
X129750000Y-99425000I100000J0D01*
G01*
X131125000Y-99425000D01*
G75*
G02*
X131225000Y-99525000I0J-100000D01*
G01*
G37*
G36*
G01*
X131225000Y-99025000D02*
X131225000Y-99225000D01*
G75*
G02*
X131125000Y-99325000I-100000J0D01*
G01*
X129750000Y-99325000D01*
G75*
G02*
X129650000Y-99225000I0J100000D01*
G01*
X129650000Y-99025000D01*
G75*
G02*
X129750000Y-98925000I100000J0D01*
G01*
X131125000Y-98925000D01*
G75*
G02*
X131225000Y-99025000I0J-100000D01*
G01*
G37*
G36*
G01*
X131225000Y-98525000D02*
X131225000Y-98725000D01*
G75*
G02*
X131125000Y-98825000I-100000J0D01*
G01*
X129750000Y-98825000D01*
G75*
G02*
X129650000Y-98725000I0J100000D01*
G01*
X129650000Y-98525000D01*
G75*
G02*
X129750000Y-98425000I100000J0D01*
G01*
X131125000Y-98425000D01*
G75*
G02*
X131225000Y-98525000I0J-100000D01*
G01*
G37*
G36*
G01*
X131225000Y-98025000D02*
X131225000Y-98225000D01*
G75*
G02*
X131125000Y-98325000I-100000J0D01*
G01*
X129750000Y-98325000D01*
G75*
G02*
X129650000Y-98225000I0J100000D01*
G01*
X129650000Y-98025000D01*
G75*
G02*
X129750000Y-97925000I100000J0D01*
G01*
X131125000Y-97925000D01*
G75*
G02*
X131225000Y-98025000I0J-100000D01*
G01*
G37*
G36*
G01*
X131225000Y-97525000D02*
X131225000Y-97725000D01*
G75*
G02*
X131125000Y-97825000I-100000J0D01*
G01*
X129750000Y-97825000D01*
G75*
G02*
X129650000Y-97725000I0J100000D01*
G01*
X129650000Y-97525000D01*
G75*
G02*
X129750000Y-97425000I100000J0D01*
G01*
X131125000Y-97425000D01*
G75*
G02*
X131225000Y-97525000I0J-100000D01*
G01*
G37*
G36*
G01*
X131225000Y-97025000D02*
X131225000Y-97225000D01*
G75*
G02*
X131125000Y-97325000I-100000J0D01*
G01*
X129750000Y-97325000D01*
G75*
G02*
X129650000Y-97225000I0J100000D01*
G01*
X129650000Y-97025000D01*
G75*
G02*
X129750000Y-96925000I100000J0D01*
G01*
X131125000Y-96925000D01*
G75*
G02*
X131225000Y-97025000I0J-100000D01*
G01*
G37*
G36*
G01*
X131225000Y-96525000D02*
X131225000Y-96725000D01*
G75*
G02*
X131125000Y-96825000I-100000J0D01*
G01*
X129750000Y-96825000D01*
G75*
G02*
X129650000Y-96725000I0J100000D01*
G01*
X129650000Y-96525000D01*
G75*
G02*
X129750000Y-96425000I100000J0D01*
G01*
X131125000Y-96425000D01*
G75*
G02*
X131225000Y-96525000I0J-100000D01*
G01*
G37*
G36*
G01*
X131225000Y-96025000D02*
X131225000Y-96225000D01*
G75*
G02*
X131125000Y-96325000I-100000J0D01*
G01*
X129750000Y-96325000D01*
G75*
G02*
X129650000Y-96225000I0J100000D01*
G01*
X129650000Y-96025000D01*
G75*
G02*
X129750000Y-95925000I100000J0D01*
G01*
X131125000Y-95925000D01*
G75*
G02*
X131225000Y-96025000I0J-100000D01*
G01*
G37*
G36*
G01*
X131225000Y-95525000D02*
X131225000Y-95725000D01*
G75*
G02*
X131125000Y-95825000I-100000J0D01*
G01*
X129750000Y-95825000D01*
G75*
G02*
X129650000Y-95725000I0J100000D01*
G01*
X129650000Y-95525000D01*
G75*
G02*
X129750000Y-95425000I100000J0D01*
G01*
X131125000Y-95425000D01*
G75*
G02*
X131225000Y-95525000I0J-100000D01*
G01*
G37*
G36*
G01*
X132050000Y-93525000D02*
X132050000Y-94900000D01*
G75*
G02*
X131950000Y-95000000I-100000J0D01*
G01*
X131750000Y-95000000D01*
G75*
G02*
X131650000Y-94900000I0J100000D01*
G01*
X131650000Y-93525000D01*
G75*
G02*
X131750000Y-93425000I100000J0D01*
G01*
X131950000Y-93425000D01*
G75*
G02*
X132050000Y-93525000I0J-100000D01*
G01*
G37*
G36*
G01*
X132550000Y-93525000D02*
X132550000Y-94900000D01*
G75*
G02*
X132450000Y-95000000I-100000J0D01*
G01*
X132250000Y-95000000D01*
G75*
G02*
X132150000Y-94900000I0J100000D01*
G01*
X132150000Y-93525000D01*
G75*
G02*
X132250000Y-93425000I100000J0D01*
G01*
X132450000Y-93425000D01*
G75*
G02*
X132550000Y-93525000I0J-100000D01*
G01*
G37*
G36*
G01*
X133050000Y-93525000D02*
X133050000Y-94900000D01*
G75*
G02*
X132950000Y-95000000I-100000J0D01*
G01*
X132750000Y-95000000D01*
G75*
G02*
X132650000Y-94900000I0J100000D01*
G01*
X132650000Y-93525000D01*
G75*
G02*
X132750000Y-93425000I100000J0D01*
G01*
X132950000Y-93425000D01*
G75*
G02*
X133050000Y-93525000I0J-100000D01*
G01*
G37*
G36*
G01*
X133550000Y-93525000D02*
X133550000Y-94900000D01*
G75*
G02*
X133450000Y-95000000I-100000J0D01*
G01*
X133250000Y-95000000D01*
G75*
G02*
X133150000Y-94900000I0J100000D01*
G01*
X133150000Y-93525000D01*
G75*
G02*
X133250000Y-93425000I100000J0D01*
G01*
X133450000Y-93425000D01*
G75*
G02*
X133550000Y-93525000I0J-100000D01*
G01*
G37*
G36*
G01*
X134050000Y-93525000D02*
X134050000Y-94900000D01*
G75*
G02*
X133950000Y-95000000I-100000J0D01*
G01*
X133750000Y-95000000D01*
G75*
G02*
X133650000Y-94900000I0J100000D01*
G01*
X133650000Y-93525000D01*
G75*
G02*
X133750000Y-93425000I100000J0D01*
G01*
X133950000Y-93425000D01*
G75*
G02*
X134050000Y-93525000I0J-100000D01*
G01*
G37*
G36*
G01*
X134550000Y-93525000D02*
X134550000Y-94900000D01*
G75*
G02*
X134450000Y-95000000I-100000J0D01*
G01*
X134250000Y-95000000D01*
G75*
G02*
X134150000Y-94900000I0J100000D01*
G01*
X134150000Y-93525000D01*
G75*
G02*
X134250000Y-93425000I100000J0D01*
G01*
X134450000Y-93425000D01*
G75*
G02*
X134550000Y-93525000I0J-100000D01*
G01*
G37*
G36*
G01*
X135050000Y-93525000D02*
X135050000Y-94900000D01*
G75*
G02*
X134950000Y-95000000I-100000J0D01*
G01*
X134750000Y-95000000D01*
G75*
G02*
X134650000Y-94900000I0J100000D01*
G01*
X134650000Y-93525000D01*
G75*
G02*
X134750000Y-93425000I100000J0D01*
G01*
X134950000Y-93425000D01*
G75*
G02*
X135050000Y-93525000I0J-100000D01*
G01*
G37*
G36*
G01*
X135550000Y-93525000D02*
X135550000Y-94900000D01*
G75*
G02*
X135450000Y-95000000I-100000J0D01*
G01*
X135250000Y-95000000D01*
G75*
G02*
X135150000Y-94900000I0J100000D01*
G01*
X135150000Y-93525000D01*
G75*
G02*
X135250000Y-93425000I100000J0D01*
G01*
X135450000Y-93425000D01*
G75*
G02*
X135550000Y-93525000I0J-100000D01*
G01*
G37*
G36*
G01*
X136050000Y-93525000D02*
X136050000Y-94900000D01*
G75*
G02*
X135950000Y-95000000I-100000J0D01*
G01*
X135750000Y-95000000D01*
G75*
G02*
X135650000Y-94900000I0J100000D01*
G01*
X135650000Y-93525000D01*
G75*
G02*
X135750000Y-93425000I100000J0D01*
G01*
X135950000Y-93425000D01*
G75*
G02*
X136050000Y-93525000I0J-100000D01*
G01*
G37*
G36*
G01*
X136550000Y-93525000D02*
X136550000Y-94900000D01*
G75*
G02*
X136450000Y-95000000I-100000J0D01*
G01*
X136250000Y-95000000D01*
G75*
G02*
X136150000Y-94900000I0J100000D01*
G01*
X136150000Y-93525000D01*
G75*
G02*
X136250000Y-93425000I100000J0D01*
G01*
X136450000Y-93425000D01*
G75*
G02*
X136550000Y-93525000I0J-100000D01*
G01*
G37*
G36*
G01*
X137050000Y-93525000D02*
X137050000Y-94900000D01*
G75*
G02*
X136950000Y-95000000I-100000J0D01*
G01*
X136750000Y-95000000D01*
G75*
G02*
X136650000Y-94900000I0J100000D01*
G01*
X136650000Y-93525000D01*
G75*
G02*
X136750000Y-93425000I100000J0D01*
G01*
X136950000Y-93425000D01*
G75*
G02*
X137050000Y-93525000I0J-100000D01*
G01*
G37*
G36*
G01*
X137550000Y-93525000D02*
X137550000Y-94900000D01*
G75*
G02*
X137450000Y-95000000I-100000J0D01*
G01*
X137250000Y-95000000D01*
G75*
G02*
X137150000Y-94900000I0J100000D01*
G01*
X137150000Y-93525000D01*
G75*
G02*
X137250000Y-93425000I100000J0D01*
G01*
X137450000Y-93425000D01*
G75*
G02*
X137550000Y-93525000I0J-100000D01*
G01*
G37*
G36*
G01*
X139550000Y-95525000D02*
X139550000Y-95725000D01*
G75*
G02*
X139450000Y-95825000I-100000J0D01*
G01*
X138075000Y-95825000D01*
G75*
G02*
X137975000Y-95725000I0J100000D01*
G01*
X137975000Y-95525000D01*
G75*
G02*
X138075000Y-95425000I100000J0D01*
G01*
X139450000Y-95425000D01*
G75*
G02*
X139550000Y-95525000I0J-100000D01*
G01*
G37*
G36*
G01*
X139550000Y-96025000D02*
X139550000Y-96225000D01*
G75*
G02*
X139450000Y-96325000I-100000J0D01*
G01*
X138075000Y-96325000D01*
G75*
G02*
X137975000Y-96225000I0J100000D01*
G01*
X137975000Y-96025000D01*
G75*
G02*
X138075000Y-95925000I100000J0D01*
G01*
X139450000Y-95925000D01*
G75*
G02*
X139550000Y-96025000I0J-100000D01*
G01*
G37*
G36*
G01*
X139550000Y-96525000D02*
X139550000Y-96725000D01*
G75*
G02*
X139450000Y-96825000I-100000J0D01*
G01*
X138075000Y-96825000D01*
G75*
G02*
X137975000Y-96725000I0J100000D01*
G01*
X137975000Y-96525000D01*
G75*
G02*
X138075000Y-96425000I100000J0D01*
G01*
X139450000Y-96425000D01*
G75*
G02*
X139550000Y-96525000I0J-100000D01*
G01*
G37*
G36*
G01*
X139550000Y-97025000D02*
X139550000Y-97225000D01*
G75*
G02*
X139450000Y-97325000I-100000J0D01*
G01*
X138075000Y-97325000D01*
G75*
G02*
X137975000Y-97225000I0J100000D01*
G01*
X137975000Y-97025000D01*
G75*
G02*
X138075000Y-96925000I100000J0D01*
G01*
X139450000Y-96925000D01*
G75*
G02*
X139550000Y-97025000I0J-100000D01*
G01*
G37*
G36*
G01*
X139550000Y-97525000D02*
X139550000Y-97725000D01*
G75*
G02*
X139450000Y-97825000I-100000J0D01*
G01*
X138075000Y-97825000D01*
G75*
G02*
X137975000Y-97725000I0J100000D01*
G01*
X137975000Y-97525000D01*
G75*
G02*
X138075000Y-97425000I100000J0D01*
G01*
X139450000Y-97425000D01*
G75*
G02*
X139550000Y-97525000I0J-100000D01*
G01*
G37*
G36*
G01*
X139550000Y-98025000D02*
X139550000Y-98225000D01*
G75*
G02*
X139450000Y-98325000I-100000J0D01*
G01*
X138075000Y-98325000D01*
G75*
G02*
X137975000Y-98225000I0J100000D01*
G01*
X137975000Y-98025000D01*
G75*
G02*
X138075000Y-97925000I100000J0D01*
G01*
X139450000Y-97925000D01*
G75*
G02*
X139550000Y-98025000I0J-100000D01*
G01*
G37*
G36*
G01*
X139550000Y-98525000D02*
X139550000Y-98725000D01*
G75*
G02*
X139450000Y-98825000I-100000J0D01*
G01*
X138075000Y-98825000D01*
G75*
G02*
X137975000Y-98725000I0J100000D01*
G01*
X137975000Y-98525000D01*
G75*
G02*
X138075000Y-98425000I100000J0D01*
G01*
X139450000Y-98425000D01*
G75*
G02*
X139550000Y-98525000I0J-100000D01*
G01*
G37*
G36*
G01*
X139550000Y-99025000D02*
X139550000Y-99225000D01*
G75*
G02*
X139450000Y-99325000I-100000J0D01*
G01*
X138075000Y-99325000D01*
G75*
G02*
X137975000Y-99225000I0J100000D01*
G01*
X137975000Y-99025000D01*
G75*
G02*
X138075000Y-98925000I100000J0D01*
G01*
X139450000Y-98925000D01*
G75*
G02*
X139550000Y-99025000I0J-100000D01*
G01*
G37*
G36*
G01*
X139550000Y-99525000D02*
X139550000Y-99725000D01*
G75*
G02*
X139450000Y-99825000I-100000J0D01*
G01*
X138075000Y-99825000D01*
G75*
G02*
X137975000Y-99725000I0J100000D01*
G01*
X137975000Y-99525000D01*
G75*
G02*
X138075000Y-99425000I100000J0D01*
G01*
X139450000Y-99425000D01*
G75*
G02*
X139550000Y-99525000I0J-100000D01*
G01*
G37*
G36*
G01*
X139550000Y-100025000D02*
X139550000Y-100225000D01*
G75*
G02*
X139450000Y-100325000I-100000J0D01*
G01*
X138075000Y-100325000D01*
G75*
G02*
X137975000Y-100225000I0J100000D01*
G01*
X137975000Y-100025000D01*
G75*
G02*
X138075000Y-99925000I100000J0D01*
G01*
X139450000Y-99925000D01*
G75*
G02*
X139550000Y-100025000I0J-100000D01*
G01*
G37*
G36*
G01*
X139550000Y-100525000D02*
X139550000Y-100725000D01*
G75*
G02*
X139450000Y-100825000I-100000J0D01*
G01*
X138075000Y-100825000D01*
G75*
G02*
X137975000Y-100725000I0J100000D01*
G01*
X137975000Y-100525000D01*
G75*
G02*
X138075000Y-100425000I100000J0D01*
G01*
X139450000Y-100425000D01*
G75*
G02*
X139550000Y-100525000I0J-100000D01*
G01*
G37*
G36*
G01*
X139550000Y-101025000D02*
X139550000Y-101225000D01*
G75*
G02*
X139450000Y-101325000I-100000J0D01*
G01*
X138075000Y-101325000D01*
G75*
G02*
X137975000Y-101225000I0J100000D01*
G01*
X137975000Y-101025000D01*
G75*
G02*
X138075000Y-100925000I100000J0D01*
G01*
X139450000Y-100925000D01*
G75*
G02*
X139550000Y-101025000I0J-100000D01*
G01*
G37*
%TD*%
D10*
%TO.C,U2*%
X139200000Y-85150000D03*
X134600000Y-85150000D03*
X136900000Y-85150000D03*
D11*
X136900000Y-91450000D03*
%TD*%
D12*
%TO.C,U1*%
X134600000Y-82850000D03*
X135550000Y-82850000D03*
X133650000Y-82850000D03*
X133650000Y-80650000D03*
X134600000Y-80650000D03*
X135550000Y-80650000D03*
%TD*%
D13*
%TO.C,JP2*%
X135220000Y-117140000D03*
X133920000Y-117140000D03*
%TD*%
%TO.C,R8*%
G36*
G01*
X141000000Y-111918750D02*
X141000000Y-112481250D01*
G75*
G02*
X140756250Y-112725000I-243750J0D01*
G01*
X140268750Y-112725000D01*
G75*
G02*
X140025000Y-112481250I0J243750D01*
G01*
X140025000Y-111918750D01*
G75*
G02*
X140268750Y-111675000I243750J0D01*
G01*
X140756250Y-111675000D01*
G75*
G02*
X141000000Y-111918750I0J-243750D01*
G01*
G37*
G36*
G01*
X142575000Y-111918750D02*
X142575000Y-112481250D01*
G75*
G02*
X142331250Y-112725000I-243750J0D01*
G01*
X141843750Y-112725000D01*
G75*
G02*
X141600000Y-112481250I0J243750D01*
G01*
X141600000Y-111918750D01*
G75*
G02*
X141843750Y-111675000I243750J0D01*
G01*
X142331250Y-111675000D01*
G75*
G02*
X142575000Y-111918750I0J-243750D01*
G01*
G37*
%TD*%
%TO.C,R7*%
G36*
G01*
X138100000Y-115181250D02*
X138100000Y-114618750D01*
G75*
G02*
X138343750Y-114375000I243750J0D01*
G01*
X138831250Y-114375000D01*
G75*
G02*
X139075000Y-114618750I0J-243750D01*
G01*
X139075000Y-115181250D01*
G75*
G02*
X138831250Y-115425000I-243750J0D01*
G01*
X138343750Y-115425000D01*
G75*
G02*
X138100000Y-115181250I0J243750D01*
G01*
G37*
G36*
G01*
X136525000Y-115181250D02*
X136525000Y-114618750D01*
G75*
G02*
X136768750Y-114375000I243750J0D01*
G01*
X137256250Y-114375000D01*
G75*
G02*
X137500000Y-114618750I0J-243750D01*
G01*
X137500000Y-115181250D01*
G75*
G02*
X137256250Y-115425000I-243750J0D01*
G01*
X136768750Y-115425000D01*
G75*
G02*
X136525000Y-115181250I0J243750D01*
G01*
G37*
%TD*%
%TO.C,R6*%
G36*
G01*
X130281250Y-86302500D02*
X129718750Y-86302500D01*
G75*
G02*
X129475000Y-86058750I0J243750D01*
G01*
X129475000Y-85571250D01*
G75*
G02*
X129718750Y-85327500I243750J0D01*
G01*
X130281250Y-85327500D01*
G75*
G02*
X130525000Y-85571250I0J-243750D01*
G01*
X130525000Y-86058750D01*
G75*
G02*
X130281250Y-86302500I-243750J0D01*
G01*
G37*
G36*
G01*
X130281250Y-87877500D02*
X129718750Y-87877500D01*
G75*
G02*
X129475000Y-87633750I0J243750D01*
G01*
X129475000Y-87146250D01*
G75*
G02*
X129718750Y-86902500I243750J0D01*
G01*
X130281250Y-86902500D01*
G75*
G02*
X130525000Y-87146250I0J-243750D01*
G01*
X130525000Y-87633750D01*
G75*
G02*
X130281250Y-87877500I-243750J0D01*
G01*
G37*
%TD*%
%TO.C,R5*%
G36*
G01*
X131851250Y-86302500D02*
X131288750Y-86302500D01*
G75*
G02*
X131045000Y-86058750I0J243750D01*
G01*
X131045000Y-85571250D01*
G75*
G02*
X131288750Y-85327500I243750J0D01*
G01*
X131851250Y-85327500D01*
G75*
G02*
X132095000Y-85571250I0J-243750D01*
G01*
X132095000Y-86058750D01*
G75*
G02*
X131851250Y-86302500I-243750J0D01*
G01*
G37*
G36*
G01*
X131851250Y-87877500D02*
X131288750Y-87877500D01*
G75*
G02*
X131045000Y-87633750I0J243750D01*
G01*
X131045000Y-87146250D01*
G75*
G02*
X131288750Y-86902500I243750J0D01*
G01*
X131851250Y-86902500D01*
G75*
G02*
X132095000Y-87146250I0J-243750D01*
G01*
X132095000Y-87633750D01*
G75*
G02*
X131851250Y-87877500I-243750J0D01*
G01*
G37*
%TD*%
%TO.C,R4*%
G36*
G01*
X130500000Y-83918750D02*
X130500000Y-84481250D01*
G75*
G02*
X130256250Y-84725000I-243750J0D01*
G01*
X129768750Y-84725000D01*
G75*
G02*
X129525000Y-84481250I0J243750D01*
G01*
X129525000Y-83918750D01*
G75*
G02*
X129768750Y-83675000I243750J0D01*
G01*
X130256250Y-83675000D01*
G75*
G02*
X130500000Y-83918750I0J-243750D01*
G01*
G37*
G36*
G01*
X132075000Y-83918750D02*
X132075000Y-84481250D01*
G75*
G02*
X131831250Y-84725000I-243750J0D01*
G01*
X131343750Y-84725000D01*
G75*
G02*
X131100000Y-84481250I0J243750D01*
G01*
X131100000Y-83918750D01*
G75*
G02*
X131343750Y-83675000I243750J0D01*
G01*
X131831250Y-83675000D01*
G75*
G02*
X132075000Y-83918750I0J-243750D01*
G01*
G37*
%TD*%
%TO.C,R3*%
G36*
G01*
X131618750Y-81600000D02*
X132181250Y-81600000D01*
G75*
G02*
X132425000Y-81843750I0J-243750D01*
G01*
X132425000Y-82331250D01*
G75*
G02*
X132181250Y-82575000I-243750J0D01*
G01*
X131618750Y-82575000D01*
G75*
G02*
X131375000Y-82331250I0J243750D01*
G01*
X131375000Y-81843750D01*
G75*
G02*
X131618750Y-81600000I243750J0D01*
G01*
G37*
G36*
G01*
X131618750Y-80025000D02*
X132181250Y-80025000D01*
G75*
G02*
X132425000Y-80268750I0J-243750D01*
G01*
X132425000Y-80756250D01*
G75*
G02*
X132181250Y-81000000I-243750J0D01*
G01*
X131618750Y-81000000D01*
G75*
G02*
X131375000Y-80756250I0J243750D01*
G01*
X131375000Y-80268750D01*
G75*
G02*
X131618750Y-80025000I243750J0D01*
G01*
G37*
%TD*%
%TO.C,R2*%
G36*
G01*
X137581250Y-81000000D02*
X137018750Y-81000000D01*
G75*
G02*
X136775000Y-80756250I0J243750D01*
G01*
X136775000Y-80268750D01*
G75*
G02*
X137018750Y-80025000I243750J0D01*
G01*
X137581250Y-80025000D01*
G75*
G02*
X137825000Y-80268750I0J-243750D01*
G01*
X137825000Y-80756250D01*
G75*
G02*
X137581250Y-81000000I-243750J0D01*
G01*
G37*
G36*
G01*
X137581250Y-82575000D02*
X137018750Y-82575000D01*
G75*
G02*
X136775000Y-82331250I0J243750D01*
G01*
X136775000Y-81843750D01*
G75*
G02*
X137018750Y-81600000I243750J0D01*
G01*
X137581250Y-81600000D01*
G75*
G02*
X137825000Y-81843750I0J-243750D01*
G01*
X137825000Y-82331250D01*
G75*
G02*
X137581250Y-82575000I-243750J0D01*
G01*
G37*
%TD*%
%TO.C,R1*%
G36*
G01*
X136320000Y-108121250D02*
X136320000Y-107558750D01*
G75*
G02*
X136563750Y-107315000I243750J0D01*
G01*
X137051250Y-107315000D01*
G75*
G02*
X137295000Y-107558750I0J-243750D01*
G01*
X137295000Y-108121250D01*
G75*
G02*
X137051250Y-108365000I-243750J0D01*
G01*
X136563750Y-108365000D01*
G75*
G02*
X136320000Y-108121250I0J243750D01*
G01*
G37*
G36*
G01*
X134745000Y-108121250D02*
X134745000Y-107558750D01*
G75*
G02*
X134988750Y-107315000I243750J0D01*
G01*
X135476250Y-107315000D01*
G75*
G02*
X135720000Y-107558750I0J-243750D01*
G01*
X135720000Y-108121250D01*
G75*
G02*
X135476250Y-108365000I-243750J0D01*
G01*
X134988750Y-108365000D01*
G75*
G02*
X134745000Y-108121250I0J243750D01*
G01*
G37*
%TD*%
D14*
%TO.C,Q1*%
X142100000Y-114900000D03*
X140100000Y-115850000D03*
X140100000Y-113950000D03*
%TD*%
D13*
%TO.C,JP1*%
X136820000Y-109940000D03*
X138120000Y-109940000D03*
X135520000Y-109940000D03*
%TD*%
D15*
%TO.C,J4*%
X146030000Y-122510000D03*
X146030000Y-119970000D03*
X146030000Y-117430000D03*
X146030000Y-114890000D03*
X146030000Y-112350000D03*
X146030000Y-109810000D03*
X146030000Y-107270000D03*
X146030000Y-104730000D03*
X146030000Y-102190000D03*
X146030000Y-99650000D03*
X146030000Y-97110000D03*
X146030000Y-94570000D03*
X146030000Y-92030000D03*
X146030000Y-89490000D03*
X146030000Y-86950000D03*
X146030000Y-84410000D03*
X146030000Y-81870000D03*
X146030000Y-79330000D03*
X146030000Y-76790000D03*
D16*
X146030000Y-74250000D03*
%TD*%
D15*
%TO.C,J3*%
X123170000Y-122520000D03*
X123170000Y-119980000D03*
X123170000Y-117440000D03*
X123170000Y-114900000D03*
X123170000Y-112360000D03*
X123170000Y-109820000D03*
X123170000Y-107280000D03*
X123170000Y-104740000D03*
X123170000Y-102200000D03*
X123170000Y-99660000D03*
X123170000Y-97120000D03*
X123170000Y-94580000D03*
X123170000Y-92040000D03*
X123170000Y-89500000D03*
X123170000Y-86960000D03*
X123170000Y-84420000D03*
X123170000Y-81880000D03*
X123170000Y-79340000D03*
X123170000Y-76800000D03*
D16*
X123170000Y-74260000D03*
%TD*%
D17*
%TO.C,J2*%
X131390000Y-78650000D03*
X132190000Y-78650000D03*
X131390000Y-78650000D03*
X132190000Y-78650000D03*
X137790000Y-78650000D03*
X137790000Y-78650000D03*
X136990000Y-78650000D03*
X136990000Y-78650000D03*
D18*
X137480000Y-77590000D03*
X131700000Y-77590000D03*
D19*
X132840000Y-78650000D03*
X133840000Y-78650000D03*
X133340000Y-78650000D03*
X135840000Y-78650000D03*
X136340000Y-78650000D03*
X134340000Y-78650000D03*
X134840000Y-78650000D03*
X135340000Y-78650000D03*
D20*
X130270000Y-73900000D03*
X138910000Y-73900000D03*
D21*
X130270000Y-78070000D03*
X138910000Y-78070000D03*
%TD*%
D15*
%TO.C,J1*%
X138420000Y-122500000D03*
X135880000Y-122500000D03*
X133340000Y-122500000D03*
D16*
X130800000Y-122500000D03*
%TD*%
%TO.C,F1*%
G36*
G01*
X130481250Y-81100000D02*
X129518750Y-81100000D01*
G75*
G02*
X129250000Y-80831250I0J268750D01*
G01*
X129250000Y-80293750D01*
G75*
G02*
X129518750Y-80025000I268750J0D01*
G01*
X130481250Y-80025000D01*
G75*
G02*
X130750000Y-80293750I0J-268750D01*
G01*
X130750000Y-80831250D01*
G75*
G02*
X130481250Y-81100000I-268750J0D01*
G01*
G37*
G36*
G01*
X130481250Y-82975000D02*
X129518750Y-82975000D01*
G75*
G02*
X129250000Y-82706250I0J268750D01*
G01*
X129250000Y-82168750D01*
G75*
G02*
X129518750Y-81900000I268750J0D01*
G01*
X130481250Y-81900000D01*
G75*
G02*
X130750000Y-82168750I0J-268750D01*
G01*
X130750000Y-82706250D01*
G75*
G02*
X130481250Y-82975000I-268750J0D01*
G01*
G37*
%TD*%
%TO.C,C12*%
G36*
G01*
X127743518Y-91100000D02*
X128656482Y-91100000D01*
G75*
G02*
X128925000Y-91368518I0J-268518D01*
G01*
X128925000Y-92331482D01*
G75*
G02*
X128656482Y-92600000I-268518J0D01*
G01*
X127743518Y-92600000D01*
G75*
G02*
X127475000Y-92331482I0J268518D01*
G01*
X127475000Y-91368518D01*
G75*
G02*
X127743518Y-91100000I268518J0D01*
G01*
G37*
G36*
G01*
X127743518Y-88400000D02*
X128656482Y-88400000D01*
G75*
G02*
X128925000Y-88668518I0J-268518D01*
G01*
X128925000Y-89631482D01*
G75*
G02*
X128656482Y-89900000I-268518J0D01*
G01*
X127743518Y-89900000D01*
G75*
G02*
X127475000Y-89631482I0J268518D01*
G01*
X127475000Y-88668518D01*
G75*
G02*
X127743518Y-88400000I268518J0D01*
G01*
G37*
%TD*%
%TO.C,C11*%
G36*
G01*
X139455000Y-103457500D02*
X139455000Y-103062500D01*
G75*
G02*
X139627500Y-102890000I172500J0D01*
G01*
X139972500Y-102890000D01*
G75*
G02*
X140145000Y-103062500I0J-172500D01*
G01*
X140145000Y-103457500D01*
G75*
G02*
X139972500Y-103630000I-172500J0D01*
G01*
X139627500Y-103630000D01*
G75*
G02*
X139455000Y-103457500I0J172500D01*
G01*
G37*
G36*
G01*
X138485000Y-103457500D02*
X138485000Y-103062500D01*
G75*
G02*
X138657500Y-102890000I172500J0D01*
G01*
X139002500Y-102890000D01*
G75*
G02*
X139175000Y-103062500I0J-172500D01*
G01*
X139175000Y-103457500D01*
G75*
G02*
X139002500Y-103630000I-172500J0D01*
G01*
X138657500Y-103630000D01*
G75*
G02*
X138485000Y-103457500I0J172500D01*
G01*
G37*
%TD*%
%TO.C,C10*%
G36*
G01*
X130360000Y-93902500D02*
X130360000Y-94297500D01*
G75*
G02*
X130187500Y-94470000I-172500J0D01*
G01*
X129842500Y-94470000D01*
G75*
G02*
X129670000Y-94297500I0J172500D01*
G01*
X129670000Y-93902500D01*
G75*
G02*
X129842500Y-93730000I172500J0D01*
G01*
X130187500Y-93730000D01*
G75*
G02*
X130360000Y-93902500I0J-172500D01*
G01*
G37*
G36*
G01*
X131330000Y-93902500D02*
X131330000Y-94297500D01*
G75*
G02*
X131157500Y-94470000I-172500J0D01*
G01*
X130812500Y-94470000D01*
G75*
G02*
X130640000Y-94297500I0J172500D01*
G01*
X130640000Y-93902500D01*
G75*
G02*
X130812500Y-93730000I172500J0D01*
G01*
X131157500Y-93730000D01*
G75*
G02*
X131330000Y-93902500I0J-172500D01*
G01*
G37*
%TD*%
%TO.C,C9*%
G36*
G01*
X140102500Y-97540000D02*
X140497500Y-97540000D01*
G75*
G02*
X140670000Y-97712500I0J-172500D01*
G01*
X140670000Y-98057500D01*
G75*
G02*
X140497500Y-98230000I-172500J0D01*
G01*
X140102500Y-98230000D01*
G75*
G02*
X139930000Y-98057500I0J172500D01*
G01*
X139930000Y-97712500D01*
G75*
G02*
X140102500Y-97540000I172500J0D01*
G01*
G37*
G36*
G01*
X140102500Y-96570000D02*
X140497500Y-96570000D01*
G75*
G02*
X140670000Y-96742500I0J-172500D01*
G01*
X140670000Y-97087500D01*
G75*
G02*
X140497500Y-97260000I-172500J0D01*
G01*
X140102500Y-97260000D01*
G75*
G02*
X139930000Y-97087500I0J172500D01*
G01*
X139930000Y-96742500D01*
G75*
G02*
X140102500Y-96570000I172500J0D01*
G01*
G37*
%TD*%
%TO.C,C8*%
G36*
G01*
X129760000Y-101802500D02*
X129760000Y-102197500D01*
G75*
G02*
X129587500Y-102370000I-172500J0D01*
G01*
X129242500Y-102370000D01*
G75*
G02*
X129070000Y-102197500I0J172500D01*
G01*
X129070000Y-101802500D01*
G75*
G02*
X129242500Y-101630000I172500J0D01*
G01*
X129587500Y-101630000D01*
G75*
G02*
X129760000Y-101802500I0J-172500D01*
G01*
G37*
G36*
G01*
X130730000Y-101802500D02*
X130730000Y-102197500D01*
G75*
G02*
X130557500Y-102370000I-172500J0D01*
G01*
X130212500Y-102370000D01*
G75*
G02*
X130040000Y-102197500I0J172500D01*
G01*
X130040000Y-101802500D01*
G75*
G02*
X130212500Y-101630000I172500J0D01*
G01*
X130557500Y-101630000D01*
G75*
G02*
X130730000Y-101802500I0J-172500D01*
G01*
G37*
%TD*%
%TO.C,C7*%
G36*
G01*
X139470000Y-102307500D02*
X139470000Y-101912500D01*
G75*
G02*
X139642500Y-101740000I172500J0D01*
G01*
X139987500Y-101740000D01*
G75*
G02*
X140160000Y-101912500I0J-172500D01*
G01*
X140160000Y-102307500D01*
G75*
G02*
X139987500Y-102480000I-172500J0D01*
G01*
X139642500Y-102480000D01*
G75*
G02*
X139470000Y-102307500I0J172500D01*
G01*
G37*
G36*
G01*
X138500000Y-102307500D02*
X138500000Y-101912500D01*
G75*
G02*
X138672500Y-101740000I172500J0D01*
G01*
X139017500Y-101740000D01*
G75*
G02*
X139190000Y-101912500I0J-172500D01*
G01*
X139190000Y-102307500D01*
G75*
G02*
X139017500Y-102480000I-172500J0D01*
G01*
X138672500Y-102480000D01*
G75*
G02*
X138500000Y-102307500I0J172500D01*
G01*
G37*
%TD*%
%TO.C,C6*%
G36*
G01*
X142256482Y-89700000D02*
X141343518Y-89700000D01*
G75*
G02*
X141075000Y-89431482I0J268518D01*
G01*
X141075000Y-88468518D01*
G75*
G02*
X141343518Y-88200000I268518J0D01*
G01*
X142256482Y-88200000D01*
G75*
G02*
X142525000Y-88468518I0J-268518D01*
G01*
X142525000Y-89431482D01*
G75*
G02*
X142256482Y-89700000I-268518J0D01*
G01*
G37*
G36*
G01*
X142256482Y-92400000D02*
X141343518Y-92400000D01*
G75*
G02*
X141075000Y-92131482I0J268518D01*
G01*
X141075000Y-91168518D01*
G75*
G02*
X141343518Y-90900000I268518J0D01*
G01*
X142256482Y-90900000D01*
G75*
G02*
X142525000Y-91168518I0J-268518D01*
G01*
X142525000Y-92131482D01*
G75*
G02*
X142256482Y-92400000I-268518J0D01*
G01*
G37*
%TD*%
%TO.C,C5*%
G36*
G01*
X132202500Y-91140000D02*
X132597500Y-91140000D01*
G75*
G02*
X132770000Y-91312500I0J-172500D01*
G01*
X132770000Y-91657500D01*
G75*
G02*
X132597500Y-91830000I-172500J0D01*
G01*
X132202500Y-91830000D01*
G75*
G02*
X132030000Y-91657500I0J172500D01*
G01*
X132030000Y-91312500D01*
G75*
G02*
X132202500Y-91140000I172500J0D01*
G01*
G37*
G36*
G01*
X132202500Y-90170000D02*
X132597500Y-90170000D01*
G75*
G02*
X132770000Y-90342500I0J-172500D01*
G01*
X132770000Y-90687500D01*
G75*
G02*
X132597500Y-90860000I-172500J0D01*
G01*
X132202500Y-90860000D01*
G75*
G02*
X132030000Y-90687500I0J172500D01*
G01*
X132030000Y-90342500D01*
G75*
G02*
X132202500Y-90170000I172500J0D01*
G01*
G37*
%TD*%
%TO.C,C4*%
G36*
G01*
X141502500Y-85040000D02*
X141897500Y-85040000D01*
G75*
G02*
X142070000Y-85212500I0J-172500D01*
G01*
X142070000Y-85557500D01*
G75*
G02*
X141897500Y-85730000I-172500J0D01*
G01*
X141502500Y-85730000D01*
G75*
G02*
X141330000Y-85557500I0J172500D01*
G01*
X141330000Y-85212500D01*
G75*
G02*
X141502500Y-85040000I172500J0D01*
G01*
G37*
G36*
G01*
X141502500Y-84070000D02*
X141897500Y-84070000D01*
G75*
G02*
X142070000Y-84242500I0J-172500D01*
G01*
X142070000Y-84587500D01*
G75*
G02*
X141897500Y-84760000I-172500J0D01*
G01*
X141502500Y-84760000D01*
G75*
G02*
X141330000Y-84587500I0J172500D01*
G01*
X141330000Y-84242500D01*
G75*
G02*
X141502500Y-84070000I172500J0D01*
G01*
G37*
%TD*%
%TO.C,C3*%
G36*
G01*
X140000000Y-83281250D02*
X140000000Y-82718750D01*
G75*
G02*
X140243750Y-82475000I243750J0D01*
G01*
X140731250Y-82475000D01*
G75*
G02*
X140975000Y-82718750I0J-243750D01*
G01*
X140975000Y-83281250D01*
G75*
G02*
X140731250Y-83525000I-243750J0D01*
G01*
X140243750Y-83525000D01*
G75*
G02*
X140000000Y-83281250I0J243750D01*
G01*
G37*
G36*
G01*
X138425000Y-83281250D02*
X138425000Y-82718750D01*
G75*
G02*
X138668750Y-82475000I243750J0D01*
G01*
X139156250Y-82475000D01*
G75*
G02*
X139400000Y-82718750I0J-243750D01*
G01*
X139400000Y-83281250D01*
G75*
G02*
X139156250Y-83525000I-243750J0D01*
G01*
X138668750Y-83525000D01*
G75*
G02*
X138425000Y-83281250I0J243750D01*
G01*
G37*
%TD*%
%TO.C,C2*%
G36*
G01*
X141100000Y-81356482D02*
X141100000Y-80443518D01*
G75*
G02*
X141368518Y-80175000I268518J0D01*
G01*
X142331482Y-80175000D01*
G75*
G02*
X142600000Y-80443518I0J-268518D01*
G01*
X142600000Y-81356482D01*
G75*
G02*
X142331482Y-81625000I-268518J0D01*
G01*
X141368518Y-81625000D01*
G75*
G02*
X141100000Y-81356482I0J268518D01*
G01*
G37*
G36*
G01*
X138400000Y-81356482D02*
X138400000Y-80443518D01*
G75*
G02*
X138668518Y-80175000I268518J0D01*
G01*
X139631482Y-80175000D01*
G75*
G02*
X139900000Y-80443518I0J-268518D01*
G01*
X139900000Y-81356482D01*
G75*
G02*
X139631482Y-81625000I-268518J0D01*
G01*
X138668518Y-81625000D01*
G75*
G02*
X138400000Y-81356482I0J268518D01*
G01*
G37*
%TD*%
%TO.C,C1*%
G36*
G01*
X134360000Y-115002500D02*
X134360000Y-115397500D01*
G75*
G02*
X134187500Y-115570000I-172500J0D01*
G01*
X133842500Y-115570000D01*
G75*
G02*
X133670000Y-115397500I0J172500D01*
G01*
X133670000Y-115002500D01*
G75*
G02*
X133842500Y-114830000I172500J0D01*
G01*
X134187500Y-114830000D01*
G75*
G02*
X134360000Y-115002500I0J-172500D01*
G01*
G37*
G36*
G01*
X135330000Y-115002500D02*
X135330000Y-115397500D01*
G75*
G02*
X135157500Y-115570000I-172500J0D01*
G01*
X134812500Y-115570000D01*
G75*
G02*
X134640000Y-115397500I0J172500D01*
G01*
X134640000Y-115002500D01*
G75*
G02*
X134812500Y-114830000I172500J0D01*
G01*
X135157500Y-114830000D01*
G75*
G02*
X135330000Y-115002500I0J-172500D01*
G01*
G37*
%TD*%
M02*
