M48
; DRILL file {KiCad (5.1.6)-1} date 08/28/21 00:22:55
; FORMAT={-:-/ absolute / inch / decimal}
; #@! TF.CreationDate,2021-08-28T00:22:55-07:00
; #@! TF.GenerationSoftware,Kicad,Pcbnew,(5.1.6)-1
FMAT,2
INCH
T1C0.0118
T2C0.0236
T3C0.0394
T4C0.0236
%
G90
G05
T1
X4.8081Y-4.7244
X4.9055Y-2.9213
X4.9173Y-3.4921
X4.9252Y-3.563
X4.9258Y-3.6884
X4.9567Y-3.4685
X4.9567Y-3.689
X4.9861Y-3.6887
X4.9882Y-3.3701
X5.0148Y-3.6929
X5.0197Y-3.2756
X5.0394Y-3.6732
X5.0433Y-3.9685
X5.0433Y-4.626
X5.0472Y-3.5669
X5.0472Y-3.6161
X5.0512Y-3.2047
X5.0512Y-3.9094
X5.0666Y-3.4535
X5.0669Y-3.1181
X5.0669Y-4.0157
X5.0748Y-3.4094
X5.0866Y-3.0709
X5.0866Y-3.9016
X5.0906Y-3.7047
X5.0945Y-2.9094
X5.1181Y-3.4724
X5.1417Y-3.5787
X5.1496Y-4.8661
X5.1535Y-3.6575
X5.1535Y-4.0748
X5.1535Y-4.7362
X5.1575Y-3.5276
X5.1811Y-3.4724
X5.189Y-4.1535
X5.189Y-4.2913
X5.1929Y-3.2126
X5.2044Y-3.6603
X5.2126Y-3.5394
X5.2244Y-3.9094
X5.2244Y-4.2205
X5.2303Y-3.6415
X5.2362Y-3.5039
X5.2402Y-4.5354
X5.248Y-3.4094
X5.2492Y-3.6634
X5.2494Y-4.0912
X5.252Y-4.3465
X5.2727Y-3.6465
X5.2756Y-4.1535
X5.2756Y-4.4213
X5.2874Y-3.5
X5.2992Y-3.1929
X5.2992Y-3.2323
X5.2992Y-3.3386
X5.2994Y-3.6575
X5.3031Y-3.8386
X5.3031Y-4.3268
X5.311Y-4.1142
X5.311Y-4.1969
X5.3211Y-3.8954
X5.3228Y-4.2283
X5.3293Y-4.0827
X5.33Y-3.8175
X5.3307Y-3.9803
X5.3386Y-4.5354
X5.339Y-3.6569
X5.349Y-3.7835
X5.3516Y-4.1063
X5.3583Y-3.8622
X5.3583Y-4.6142
X5.3687Y-3.7576
X5.3793Y-4.1146
X5.3918Y-4.0855
X5.3976Y-3.4882
X5.4055Y-3.2126
X5.4291Y-3.4173
X5.4472Y-4.0654
X5.4685Y-4.2638
X5.4803Y-3.4055
X5.4803Y-4.126
X5.4921Y-4.0433
X5.4921Y-4.3386
X5.5079Y-2.9094
X5.5118Y-3.0748
X5.5118Y-3.2677
X5.5118Y-3.4488
X5.5118Y-3.4803
X5.5118Y-3.5118
X5.5118Y-3.9449
X5.5157Y-3.8873
X5.5159Y-3.9162
X5.5413Y-4.3661
X5.5472Y-3.185
X5.5472Y-4.1063
X5.5472Y-4.2992
X5.565Y-3.9685
X5.5679Y-3.8543
X5.5709Y-3.3741
X5.5827Y-3.5472
X5.5827Y-3.6083
X5.6024Y-3.8346
X5.6102Y-2.9528
X5.6102Y-3.3228
X5.6175Y-3.3819
X5.6239Y-3.7839
X5.626Y-4.374
X5.6295Y-3.5551
X5.6378Y-3.4094
X5.6411Y-3.4921
X5.6473Y-3.7669
X5.653Y-3.1417
X5.6614Y-3.3858
X5.6732Y-3.0748
X5.6766Y-3.7963
X5.7874Y-4.8228
X5.7904Y-4.622
T3
X4.8492Y-2.9236
X4.8492Y-3.0236
X4.8492Y-3.1236
X4.8492Y-3.2236
X4.8492Y-3.3236
X4.8492Y-3.4236
X4.8492Y-3.5236
X4.8492Y-3.6236
X4.8492Y-3.7236
X4.8492Y-3.8236
X4.8492Y-3.9236
X4.8492Y-4.0236
X4.8492Y-4.1236
X4.8492Y-4.2236
X4.8492Y-4.3236
X4.8492Y-4.4236
X4.8492Y-4.5236
X4.8492Y-4.6236
X4.8492Y-4.7236
X4.8492Y-4.8236
X5.1496Y-4.8228
X5.2496Y-4.8228
X5.3496Y-4.8228
X5.4496Y-4.8228
X5.7492Y-2.9232
X5.7492Y-3.0232
X5.7492Y-3.1232
X5.7492Y-3.2232
X5.7492Y-3.3232
X5.7492Y-3.4232
X5.7492Y-3.5232
X5.7492Y-3.6232
X5.7492Y-3.7232
X5.7492Y-3.8232
X5.7492Y-3.9232
X5.7492Y-4.0232
X5.7492Y-4.1232
X5.7492Y-4.2232
X5.7492Y-4.3232
X5.7492Y-4.4232
X5.7492Y-4.5232
X5.7492Y-4.6232
X5.7492Y-4.7232
X5.7492Y-4.8232
T4
X5.185Y-3.0547
X5.4126Y-3.0547
T2
G00X5.1287Y-2.8937
M15
G01X5.1287Y-2.9252
M16
G05
G00X5.1287Y-3.052
M15
G01X5.1287Y-3.0953
M16
G05
G00X5.4689Y-2.8937
M15
G01X5.4689Y-2.9252
M16
G05
G00X5.4689Y-3.052
M15
G01X5.4689Y-3.0953
M16
G05
T0
M30
